<svg width="14" height="14" viewBox="0 0 14 14" fill="none" xmlns="http://www.w3.org/2000/svg">
<path fill-rule="evenodd" clip-rule="evenodd" d="M6.58333 0C6.99755 0 7.33333 0.335786 7.33333 0.75V5.83333H12.4167C12.8309 5.83333 13.1667 6.16912 13.1667 6.58333C13.1667 6.99755 12.8309 7.33333 12.4167 7.33333H7.33333V12.4167C7.33333 12.8309 6.99755 13.1667 6.58333 13.1667C6.16912 13.1667 5.83333 12.8309 5.83333 12.4167V7.33333H0.75C0.335786 7.33333 0 6.99755 0 6.58333C0 6.16912 0.335786 5.83333 0.75 5.83333H5.83333V0.75C5.83333 0.335786 6.16912 0 6.58333 0Z" fill="#667085"/>
</svg>
