<svg width="22" height="22" viewBox="0 0 22 22" fill="none" xmlns="http://www.w3.org/2000/svg">
<path fill-rule="evenodd" clip-rule="evenodd" d="M11 0C11.6921 0 12.2532 0.561061 12.2532 1.25316V9.74684H20.7468C21.4389 9.74684 22 10.3079 22 11C22 11.6921 21.4389 12.2532 20.7468 12.2532H12.2532V20.7468C12.2532 21.4389 11.6921 22 11 22C10.3079 22 9.74684 21.4389 9.74684 20.7468V12.2532H1.25316C0.561061 12.2532 0 11.6921 0 11C0 10.3079 0.561061 9.74684 1.25316 9.74684H9.74684V1.25316C9.74684 0.561061 10.3079 0 11 0Z" fill="white"/>
</svg>
