<svg width="26" height="26" viewBox="0 0 26 26" fill="none" xmlns="http://www.w3.org/2000/svg">
<path d="M13 0.75C6.24336 0.75 0.75 6.24336 0.75 13C0.75 19.7566 6.24336 25.25 13 25.25C19.7566 25.25 25.25 19.7566 25.25 13C25.25 6.24336 19.7566 0.75 13 0.75Z" fill="#333333"/>
<path fill-rule="evenodd" clip-rule="evenodd" d="M17.2087 14.7832C17.1727 14.7316 17.1365 14.6811 17.1004 14.6309C16.8074 14.2224 16.5281 13.8331 16.5281 13.0528V10.1436C16.5281 10.0425 16.5287 9.94206 16.5293 9.84239C16.5357 8.72699 16.5415 7.70919 15.7371 6.93057C15.0472 6.2427 13.9014 6 13.025 6C11.311 6 9.39903 6.66291 8.99807 8.85958C8.95563 9.09291 9.11906 9.21506 9.26722 9.24939L11.0125 9.44525C11.1759 9.43664 11.2939 9.27006 11.3255 9.10228C11.4752 8.34533 12.0865 7.98169 12.7733 7.98169C13.1438 7.98169 13.5644 8.12215 13.7837 8.46669C14.0098 8.8102 14.0062 9.26891 14.003 9.67908C14.0026 9.72687 14.0022 9.77399 14.0022 9.82019V10.064C13.8403 10.0828 13.6706 10.1006 13.4958 10.1189C12.544 10.2187 11.4412 10.3343 10.6153 10.7098C9.48764 11.2162 8.6958 12.2467 8.6958 13.7613C8.6958 15.7024 9.87407 16.6728 11.3911 16.6728C12.6714 16.6728 13.372 16.3595 14.3596 15.3154C14.409 15.3895 14.4533 15.4579 14.4951 15.5223C14.7307 15.8855 14.8845 16.1226 15.392 16.5604C15.526 16.6346 15.7032 16.6318 15.822 16.5203C16.1816 16.1886 16.8346 15.6002 17.2027 15.2803C17.3498 15.1551 17.3237 14.9525 17.2087 14.7832ZM13.6653 13.9443C13.3795 14.4711 12.9241 14.7934 12.4182 14.7934C11.7284 14.7934 11.3233 14.2471 11.3233 13.439C11.3233 11.8483 12.7 11.5596 14.0019 11.5596C14.0019 11.6548 14.0027 11.7505 14.0036 11.8464C14.01 12.5665 14.0165 13.3009 13.6653 13.9443Z" fill="white"/>
<path d="M19.3611 17.9576C17.6372 19.2907 15.1372 20 12.9841 20C9.96768 20 7.2506 18.8315 5.19464 16.8861C5.03337 16.7331 5.17731 16.5242 5.37106 16.643C7.58958 17.996 10.3326 18.8104 13.1657 18.8104C15.077 18.8104 17.1777 18.3951 19.1106 17.5353C19.4022 17.4061 19.6466 17.7372 19.3611 17.9576Z" fill="white"/>
<path d="M18.0654 17.0291C18.6205 16.9589 19.8582 16.8034 20.0785 17.0989C20.2991 17.3943 19.8358 18.6087 19.6269 19.156L19.6254 19.16C19.5625 19.3251 19.6977 19.391 19.84 19.2659C20.7652 18.4553 21.0042 16.7562 20.8147 16.51C20.6266 16.2672 19.0093 16.0569 18.0223 16.7834C17.8706 16.8961 17.8966 17.0497 18.0654 17.0291Z" fill="white"/>
</svg>
