<svg width="64" height="64" viewBox="0 0 64 64" fill="none" xmlns="http://www.w3.org/2000/svg">
<path d="M32 4C16.5562 4 4 16.5563 4 32C4 47.4438 16.5562 60 32 60C47.4437 60 60 47.4438 60 32C60 16.5563 47.4437 4 32 4Z" fill="#333333"/>
<path fill-rule="evenodd" clip-rule="evenodd" d="M41.6199 36.0759C41.5377 35.958 41.4548 35.8425 41.3724 35.7277C40.7027 34.7941 40.0643 33.9043 40.0643 32.1206V25.4712C40.0643 25.24 40.0657 25.0104 40.067 24.7826C40.0815 22.2331 40.0948 19.9067 38.2561 18.127C36.6794 16.5547 34.0602 16 32.0571 16C28.1395 16 23.7692 17.5152 22.8527 22.5362C22.7557 23.0695 23.1293 23.3487 23.4679 23.4272L27.4571 23.8749C27.8306 23.8552 28.1004 23.4744 28.1727 23.0909C28.5147 21.3608 29.912 20.5296 31.4819 20.5296C32.3286 20.5296 33.2901 20.8506 33.7913 21.6381C34.308 22.4233 34.2998 23.4718 34.2925 24.4093C34.2916 24.5185 34.2908 24.6263 34.2908 24.7319V25.2892C33.9207 25.3321 33.5328 25.3728 33.1333 25.4147C30.9578 25.6428 28.4371 25.9071 26.5492 26.7652C23.9717 27.9228 22.1618 30.2782 22.1618 33.7402C22.1618 38.177 24.855 40.395 28.3225 40.395C31.2488 40.395 32.8503 39.6788 35.1077 37.2924C35.2205 37.4618 35.3219 37.6181 35.4173 37.7652C35.9558 38.5955 36.3073 39.1374 37.4674 40.1382C37.7737 40.3077 38.1788 40.3013 38.4502 40.0463C39.2722 39.2883 40.7647 37.9434 41.6063 37.2121C41.9423 36.9258 41.8828 36.463 41.6199 36.0759ZM33.5208 34.1585C32.8673 35.3625 31.8266 36.0991 30.6702 36.0991C29.0934 36.0991 28.1676 34.8505 28.1676 33.0035C28.1676 29.3676 31.3143 28.7076 34.29 28.7076C34.29 28.9252 34.2919 29.1439 34.2939 29.3632C34.3085 31.0092 34.3233 32.6878 33.5208 34.1585Z" fill="white"/>
<path d="M46.5397 43.3317C42.5993 46.3788 36.885 48 31.9636 48C25.069 48 18.8585 45.3291 14.1592 40.8824C13.7906 40.5328 14.1196 40.0553 14.5624 40.3268C19.6333 43.4194 25.9031 45.281 32.3787 45.281C36.7475 45.281 41.5491 44.3317 45.9672 42.3664C46.6337 42.071 47.1922 42.8278 46.5397 43.3317Z" fill="white"/>
<path d="M43.5781 41.2095C44.8468 41.0488 47.6758 40.6934 48.1795 41.3689C48.6837 42.044 47.6246 44.8198 47.1473 46.0709L47.1438 46.0801C47.0001 46.4573 47.309 46.6079 47.6344 46.322C49.749 44.4693 50.2954 40.5857 49.8621 40.0229C49.4321 39.4678 45.7355 38.9872 43.4796 40.6478C43.1329 40.9054 43.1922 41.2564 43.5781 41.2095Z" fill="white"/>
</svg>
