<svg width="768" height="200" viewBox="0 0 768 200" fill="none" xmlns="http://www.w3.org/2000/svg">
<line x1="0.5" y1="10.5" x2="767.5" y2="10.5" stroke="#F2F4F7" stroke-linecap="round"/>
<line x1="0.5" y1="45" x2="767.5" y2="45" stroke="#F2F4F7" stroke-linecap="round"/>
<line x1="0.5" y1="77" x2="767.5" y2="77" stroke="#F2F4F7" stroke-linecap="round"/>
<line x1="0.5" y1="109" x2="767.5" y2="109" stroke="#F2F4F7" stroke-linecap="round"/>
<line x1="0.5" y1="141" x2="767.5" y2="141" stroke="#F2F4F7" stroke-linecap="round"/>
<line x1="0.5" y1="173" x2="767.5" y2="173" stroke="#F2F4F7" stroke-linecap="round"/>
<path d="M28.7493 186.273H29.8061V192.511C29.8061 193.068 29.7038 193.541 29.4993 193.93C29.2947 194.32 29.0064 194.615 28.6342 194.817C28.2621 195.018 27.8232 195.119 27.3175 195.119C26.8402 195.119 26.4155 195.033 26.0433 194.859C25.6712 194.683 25.3786 194.433 25.1655 194.109C24.9524 193.786 24.8459 193.401 24.8459 192.955H25.8857C25.8857 193.202 25.9467 193.418 26.0689 193.602C26.1939 193.784 26.3643 193.926 26.5803 194.028C26.7962 194.131 27.0419 194.182 27.3175 194.182C27.6214 194.182 27.88 194.118 28.093 193.99C28.3061 193.862 28.468 193.675 28.5788 193.428C28.6925 193.178 28.7493 192.872 28.7493 192.511V186.273ZM33.7138 195.153C33.299 195.153 32.9226 195.075 32.5845 194.919C32.2464 194.76 31.978 194.531 31.7791 194.233C31.5803 193.932 31.4808 193.568 31.4808 193.142C31.4808 192.767 31.5547 192.463 31.7024 192.23C31.8501 191.994 32.0476 191.81 32.2947 191.676C32.5419 191.543 32.8146 191.443 33.1129 191.378C33.4141 191.31 33.7166 191.256 34.0206 191.216C34.4183 191.165 34.7408 191.126 34.9879 191.101C35.2379 191.072 35.4197 191.026 35.5334 190.96C35.6499 190.895 35.7081 190.781 35.7081 190.619V190.585C35.7081 190.165 35.593 189.838 35.3629 189.605C35.1357 189.372 34.7905 189.256 34.3274 189.256C33.8473 189.256 33.4709 189.361 33.1982 189.571C32.9254 189.781 32.7337 190.006 32.6229 190.244L31.6683 189.903C31.8388 189.506 32.0661 189.196 32.3501 188.974C32.6371 188.75 32.9496 188.594 33.2876 188.506C33.6286 188.415 33.9638 188.369 34.2933 188.369C34.5036 188.369 34.745 188.395 35.0178 188.446C35.2933 188.494 35.5589 188.595 35.8146 188.749C36.0732 188.902 36.2876 189.134 36.4581 189.443C36.6286 189.753 36.7138 190.168 36.7138 190.688V195H35.7081V194.114H35.657C35.5888 194.256 35.4751 194.408 35.3161 194.57C35.157 194.732 34.9453 194.869 34.6811 194.983C34.4169 195.097 34.0945 195.153 33.7138 195.153ZM33.8672 194.25C34.2649 194.25 34.6001 194.172 34.8729 194.016C35.1484 193.859 35.3558 193.658 35.495 193.411C35.6371 193.163 35.7081 192.903 35.7081 192.631V191.71C35.6655 191.761 35.5717 191.808 35.4268 191.851C35.2848 191.891 35.12 191.926 34.9325 191.957C34.7479 191.986 34.5675 192.011 34.3913 192.034C34.218 192.054 34.0774 192.071 33.9695 192.085C33.7081 192.119 33.4638 192.175 33.2365 192.251C33.0121 192.325 32.8303 192.437 32.6911 192.588C32.5547 192.736 32.4865 192.937 32.4865 193.193C32.4865 193.543 32.6158 193.807 32.8743 193.986C33.1357 194.162 33.4666 194.25 33.8672 194.25ZM39.555 191.062V195H38.5494V188.455H39.521V189.477H39.6062C39.7596 189.145 39.9925 188.878 40.305 188.676C40.6175 188.472 41.021 188.369 41.5153 188.369C41.9585 188.369 42.3462 188.46 42.6786 188.642C43.011 188.821 43.2695 189.094 43.4542 189.46C43.6388 189.824 43.7312 190.284 43.7312 190.841V195H42.7255V190.909C42.7255 190.395 42.592 189.994 42.3249 189.707C42.0579 189.418 41.6914 189.273 41.2255 189.273C40.9045 189.273 40.6175 189.342 40.3647 189.482C40.1147 189.621 39.9173 189.824 39.7724 190.091C39.6275 190.358 39.555 190.682 39.555 191.062Z" fill="#667085"/>
<path d="M88.0568 195V186.273H93.2898V187.21H89.1136V190.159H92.8977V191.097H89.1136V195H88.0568ZM97.2273 195.136C96.5966 195.136 96.0526 194.997 95.5952 194.719C95.1406 194.438 94.7898 194.045 94.5426 193.543C94.2983 193.037 94.1761 192.449 94.1761 191.778C94.1761 191.108 94.2983 190.517 94.5426 190.006C94.7898 189.491 95.1335 189.091 95.5739 188.804C96.017 188.514 96.5341 188.369 97.125 188.369C97.4659 188.369 97.8026 188.426 98.1349 188.54C98.4673 188.653 98.7699 188.838 99.0426 189.094C99.3153 189.347 99.5327 189.682 99.6946 190.099C99.8565 190.517 99.9375 191.031 99.9375 191.642V192.068H94.892V191.199H98.9148C98.9148 190.83 98.8409 190.5 98.6932 190.21C98.5483 189.92 98.3409 189.692 98.071 189.524C97.804 189.357 97.4886 189.273 97.125 189.273C96.7244 189.273 96.3778 189.372 96.0852 189.571C95.7955 189.767 95.5724 190.023 95.4162 190.338C95.2599 190.653 95.1818 190.991 95.1818 191.352V191.932C95.1818 192.426 95.267 192.845 95.4375 193.189C95.6108 193.53 95.8509 193.79 96.1577 193.969C96.4645 194.145 96.821 194.233 97.2273 194.233C97.4915 194.233 97.7301 194.196 97.9432 194.122C98.1591 194.045 98.3452 193.932 98.5014 193.781C98.6577 193.628 98.7784 193.437 98.8636 193.21L99.8352 193.483C99.733 193.812 99.5611 194.102 99.3196 194.352C99.0781 194.599 98.7798 194.793 98.4247 194.932C98.0696 195.068 97.6705 195.136 97.2273 195.136ZM101.604 195V186.273H102.609V189.494H102.695C102.768 189.381 102.871 189.236 103.001 189.06C103.135 188.881 103.325 188.722 103.572 188.582C103.822 188.44 104.161 188.369 104.587 188.369C105.138 188.369 105.624 188.507 106.044 188.783C106.464 189.058 106.793 189.449 107.028 189.955C107.264 190.46 107.382 191.057 107.382 191.744C107.382 192.438 107.264 193.038 107.028 193.547C106.793 194.053 106.466 194.445 106.048 194.723C105.631 194.999 105.149 195.136 104.604 195.136C104.183 195.136 103.847 195.067 103.594 194.928C103.341 194.786 103.146 194.625 103.01 194.446C102.874 194.264 102.768 194.114 102.695 193.994H102.575V195H101.604ZM102.592 191.727C102.592 192.222 102.665 192.658 102.81 193.036C102.955 193.411 103.166 193.705 103.445 193.918C103.723 194.128 104.064 194.233 104.467 194.233C104.888 194.233 105.239 194.122 105.52 193.901C105.804 193.676 106.017 193.375 106.159 192.997C106.304 192.616 106.376 192.193 106.376 191.727C106.376 191.267 106.305 190.852 106.163 190.483C106.024 190.111 105.813 189.817 105.528 189.601C105.247 189.382 104.893 189.273 104.467 189.273C104.058 189.273 103.714 189.376 103.436 189.584C103.158 189.788 102.947 190.075 102.805 190.445C102.663 190.811 102.592 191.239 102.592 191.727Z" fill="#667085"/>
<path d="M151.106 186.273H152.367L155.333 193.517H155.435L158.401 186.273H159.662V195H158.674V188.369H158.589L155.861 195H154.907L152.18 188.369H152.094V195H151.106V186.273ZM163.571 195.153C163.156 195.153 162.78 195.075 162.442 194.919C162.104 194.76 161.835 194.531 161.637 194.233C161.438 193.932 161.338 193.568 161.338 193.142C161.338 192.767 161.412 192.463 161.56 192.23C161.708 191.994 161.905 191.81 162.152 191.676C162.399 191.543 162.672 191.443 162.97 191.378C163.271 191.31 163.574 191.256 163.878 191.216C164.276 191.165 164.598 191.126 164.845 191.101C165.095 191.072 165.277 191.026 165.391 190.96C165.507 190.895 165.566 190.781 165.566 190.619V190.585C165.566 190.165 165.45 189.838 165.22 189.605C164.993 189.372 164.648 189.256 164.185 189.256C163.705 189.256 163.328 189.361 163.056 189.571C162.783 189.781 162.591 190.006 162.48 190.244L161.526 189.903C161.696 189.506 161.923 189.196 162.208 188.974C162.494 188.75 162.807 188.594 163.145 188.506C163.486 188.415 163.821 188.369 164.151 188.369C164.361 188.369 164.602 188.395 164.875 188.446C165.151 188.494 165.416 188.595 165.672 188.749C165.931 188.902 166.145 189.134 166.316 189.443C166.486 189.753 166.571 190.168 166.571 190.688V195H165.566V194.114H165.514C165.446 194.256 165.333 194.408 165.173 194.57C165.014 194.732 164.803 194.869 164.539 194.983C164.274 195.097 163.952 195.153 163.571 195.153ZM163.725 194.25C164.122 194.25 164.458 194.172 164.73 194.016C165.006 193.859 165.213 193.658 165.352 193.411C165.494 193.163 165.566 192.903 165.566 192.631V191.71C165.523 191.761 165.429 191.808 165.284 191.851C165.142 191.891 164.977 191.926 164.79 191.957C164.605 191.986 164.425 192.011 164.249 192.034C164.075 192.054 163.935 192.071 163.827 192.085C163.566 192.119 163.321 192.175 163.094 192.251C162.869 192.325 162.688 192.437 162.548 192.588C162.412 192.736 162.344 192.937 162.344 193.193C162.344 193.543 162.473 193.807 162.732 193.986C162.993 194.162 163.324 194.25 163.725 194.25ZM168.407 195V188.455H169.378V189.443H169.447C169.566 189.119 169.782 188.857 170.094 188.655C170.407 188.453 170.759 188.352 171.151 188.352C171.225 188.352 171.317 188.354 171.428 188.357C171.539 188.359 171.623 188.364 171.68 188.369V189.392C171.645 189.384 171.567 189.371 171.445 189.354C171.326 189.334 171.199 189.324 171.066 189.324C170.748 189.324 170.464 189.391 170.214 189.524C169.966 189.655 169.77 189.837 169.626 190.07C169.483 190.3 169.412 190.562 169.412 190.858V195H168.407Z" fill="#667085"/>
<path d="M215.471 195H214.363L217.568 186.273H218.659L221.863 195H220.756L218.148 187.653H218.079L215.471 195ZM215.881 191.591H220.346V192.528H215.881V191.591ZM223.086 197.455V188.455H224.058V189.494H224.177C224.251 189.381 224.354 189.236 224.484 189.06C224.618 188.881 224.808 188.722 225.055 188.582C225.305 188.44 225.643 188.369 226.069 188.369C226.621 188.369 227.106 188.507 227.527 188.783C227.947 189.058 228.275 189.449 228.511 189.955C228.747 190.46 228.865 191.057 228.865 191.744C228.865 192.438 228.747 193.038 228.511 193.547C228.275 194.053 227.949 194.445 227.531 194.723C227.113 194.999 226.632 195.136 226.086 195.136C225.666 195.136 225.329 195.067 225.077 194.928C224.824 194.786 224.629 194.625 224.493 194.446C224.356 194.264 224.251 194.114 224.177 193.994H224.092V197.455H223.086ZM224.075 191.727C224.075 192.222 224.148 192.658 224.292 193.036C224.437 193.411 224.649 193.705 224.927 193.918C225.206 194.128 225.547 194.233 225.95 194.233C226.371 194.233 226.721 194.122 227.003 193.901C227.287 193.676 227.5 193.375 227.642 192.997C227.787 192.616 227.859 192.193 227.859 191.727C227.859 191.267 227.788 190.852 227.646 190.483C227.507 190.111 227.295 189.817 227.011 189.601C226.73 189.382 226.376 189.273 225.95 189.273C225.541 189.273 225.197 189.376 224.919 189.584C224.64 189.788 224.43 190.075 224.288 190.445C224.146 190.811 224.075 191.239 224.075 191.727ZM230.399 195V188.455H231.371V189.443H231.439C231.558 189.119 231.774 188.857 232.086 188.655C232.399 188.453 232.751 188.352 233.143 188.352C233.217 188.352 233.309 188.354 233.42 188.357C233.531 188.359 233.615 188.364 233.672 188.369V189.392C233.638 189.384 233.559 189.371 233.437 189.354C233.318 189.334 233.192 189.324 233.058 189.324C232.74 189.324 232.456 189.391 232.206 189.524C231.959 189.655 231.763 189.837 231.618 190.07C231.476 190.3 231.405 190.562 231.405 190.858V195H230.399Z" fill="#667085"/>
<path d="M277.115 186.273H278.377L281.343 193.517H281.445L284.411 186.273H285.672V195H284.684V188.369H284.598L281.871 195H280.917L278.189 188.369H278.104V195H277.115V186.273ZM289.581 195.153C289.166 195.153 288.79 195.075 288.452 194.919C288.114 194.76 287.845 194.531 287.646 194.233C287.447 193.932 287.348 193.568 287.348 193.142C287.348 192.767 287.422 192.463 287.57 192.23C287.717 191.994 287.915 191.81 288.162 191.676C288.409 191.543 288.682 191.443 288.98 191.378C289.281 191.31 289.584 191.256 289.888 191.216C290.286 191.165 290.608 191.126 290.855 191.101C291.105 191.072 291.287 191.026 291.401 190.96C291.517 190.895 291.575 190.781 291.575 190.619V190.585C291.575 190.165 291.46 189.838 291.23 189.605C291.003 189.372 290.658 189.256 290.195 189.256C289.714 189.256 289.338 189.361 289.065 189.571C288.793 189.781 288.601 190.006 288.49 190.244L287.536 189.903C287.706 189.506 287.933 189.196 288.217 188.974C288.504 188.75 288.817 188.594 289.155 188.506C289.496 188.415 289.831 188.369 290.161 188.369C290.371 188.369 290.612 188.395 290.885 188.446C291.161 188.494 291.426 188.595 291.682 188.749C291.94 188.902 292.155 189.134 292.325 189.443C292.496 189.753 292.581 190.168 292.581 190.688V195H291.575V194.114H291.524C291.456 194.256 291.342 194.408 291.183 194.57C291.024 194.732 290.813 194.869 290.548 194.983C290.284 195.097 289.962 195.153 289.581 195.153ZM289.734 194.25C290.132 194.25 290.467 194.172 290.74 194.016C291.016 193.859 291.223 193.658 291.362 193.411C291.504 193.163 291.575 192.903 291.575 192.631V191.71C291.533 191.761 291.439 191.808 291.294 191.851C291.152 191.891 290.987 191.926 290.8 191.957C290.615 191.986 290.435 192.011 290.259 192.034C290.085 192.054 289.945 192.071 289.837 192.085C289.575 192.119 289.331 192.175 289.104 192.251C288.879 192.325 288.697 192.437 288.558 192.588C288.422 192.736 288.354 192.937 288.354 193.193C288.354 193.543 288.483 193.807 288.741 193.986C289.003 194.162 289.334 194.25 289.734 194.25ZM294.83 197.455C294.659 197.455 294.507 197.44 294.374 197.412C294.24 197.386 294.148 197.361 294.097 197.335L294.353 196.449C294.597 196.511 294.813 196.534 295 196.517C295.188 196.5 295.354 196.416 295.499 196.266C295.647 196.118 295.782 195.878 295.904 195.545L296.091 195.034L293.671 188.455H294.762L296.569 193.67H296.637L298.444 188.455H299.534L296.756 195.955C296.631 196.293 296.476 196.572 296.292 196.794C296.107 197.018 295.892 197.185 295.648 197.293C295.407 197.401 295.134 197.455 294.83 197.455Z" fill="#667085"/>
<path d="M346.644 186.273H347.701V192.511C347.701 193.068 347.598 193.541 347.394 193.93C347.189 194.32 346.901 194.615 346.529 194.817C346.157 195.018 345.718 195.119 345.212 195.119C344.735 195.119 344.31 195.033 343.938 194.859C343.566 194.683 343.273 194.433 343.06 194.109C342.847 193.786 342.74 193.401 342.74 192.955H343.78C343.78 193.202 343.841 193.418 343.963 193.602C344.088 193.784 344.259 193.926 344.475 194.028C344.691 194.131 344.936 194.182 345.212 194.182C345.516 194.182 345.775 194.118 345.988 193.99C346.201 193.862 346.363 193.675 346.473 193.428C346.587 193.178 346.644 192.872 346.644 192.511V186.273ZM353.807 192.324V188.455H354.813V195H353.807V193.892H353.739C353.586 194.224 353.347 194.507 353.023 194.74C352.699 194.97 352.29 195.085 351.796 195.085C351.387 195.085 351.023 194.996 350.705 194.817C350.387 194.635 350.137 194.362 349.955 193.999C349.773 193.632 349.682 193.17 349.682 192.614V188.455H350.688V192.545C350.688 193.023 350.821 193.403 351.088 193.688C351.358 193.972 351.702 194.114 352.12 194.114C352.37 194.114 352.624 194.05 352.882 193.922C353.144 193.794 353.363 193.598 353.539 193.334C353.718 193.07 353.807 192.733 353.807 192.324ZM357.661 191.062V195H356.655V188.455H357.626V189.477H357.712C357.865 189.145 358.098 188.878 358.411 188.676C358.723 188.472 359.126 188.369 359.621 188.369C360.064 188.369 360.452 188.46 360.784 188.642C361.116 188.821 361.375 189.094 361.56 189.46C361.744 189.824 361.837 190.284 361.837 190.841V195H360.831V190.909C360.831 190.395 360.697 189.994 360.43 189.707C360.163 189.418 359.797 189.273 359.331 189.273C359.01 189.273 358.723 189.342 358.47 189.482C358.22 189.621 358.023 189.824 357.878 190.091C357.733 190.358 357.661 190.682 357.661 191.062Z" fill="#667085"/>
<path d="M409.73 186.273H410.787V192.511C410.787 193.068 410.684 193.541 410.48 193.93C410.275 194.32 409.987 194.615 409.615 194.817C409.243 195.018 408.804 195.119 408.298 195.119C407.821 195.119 407.396 195.033 407.024 194.859C406.652 194.683 406.359 194.433 406.146 194.109C405.933 193.786 405.826 193.401 405.826 192.955H406.866C406.866 193.202 406.927 193.418 407.049 193.602C407.174 193.784 407.345 193.926 407.561 194.028C407.777 194.131 408.022 194.182 408.298 194.182C408.602 194.182 408.86 194.118 409.074 193.99C409.287 193.862 409.449 193.675 409.559 193.428C409.673 193.178 409.73 192.872 409.73 192.511V186.273ZM416.893 192.324V188.455H417.899V195H416.893V193.892H416.825C416.672 194.224 416.433 194.507 416.109 194.74C415.785 194.97 415.376 195.085 414.882 195.085C414.473 195.085 414.109 194.996 413.791 194.817C413.473 194.635 413.223 194.362 413.041 193.999C412.859 193.632 412.768 193.17 412.768 192.614V188.455H413.774V192.545C413.774 193.023 413.907 193.403 414.174 193.688C414.444 193.972 414.788 194.114 415.206 194.114C415.456 194.114 415.71 194.05 415.968 193.922C416.23 193.794 416.449 193.598 416.625 193.334C416.804 193.07 416.893 192.733 416.893 192.324ZM420.746 186.273V195H419.741V186.273H420.746Z" fill="#667085"/>
<path d="M465.718 195H464.61L467.814 186.273H468.905L472.11 195H471.002L468.394 187.653H468.325L465.718 195ZM466.127 191.591H470.593V192.528H466.127V191.591ZM477.458 192.324V188.455H478.463V195H477.458V193.892H477.389C477.236 194.224 476.997 194.507 476.673 194.74C476.35 194.97 475.941 195.085 475.446 195.085C475.037 195.085 474.673 194.996 474.355 194.817C474.037 194.635 473.787 194.362 473.605 193.999C473.423 193.632 473.333 193.17 473.333 192.614V188.455H474.338V192.545C474.338 193.023 474.472 193.403 474.739 193.688C475.009 193.972 475.352 194.114 475.77 194.114C476.02 194.114 476.274 194.05 476.533 193.922C476.794 193.794 477.013 193.598 477.189 193.334C477.368 193.07 477.458 192.733 477.458 192.324ZM482.947 197.591C482.461 197.591 482.044 197.528 481.694 197.403C481.345 197.281 481.054 197.119 480.821 196.918C480.591 196.719 480.407 196.506 480.271 196.278L481.072 195.716C481.163 195.835 481.278 195.972 481.417 196.125C481.557 196.281 481.747 196.416 481.988 196.53C482.233 196.646 482.552 196.705 482.947 196.705C483.476 196.705 483.912 196.577 484.256 196.321C484.599 196.065 484.771 195.665 484.771 195.119V193.79H484.686C484.612 193.909 484.507 194.057 484.371 194.233C484.237 194.406 484.044 194.561 483.791 194.697C483.541 194.831 483.203 194.898 482.777 194.898C482.248 194.898 481.774 194.773 481.354 194.523C480.936 194.273 480.605 193.909 480.361 193.432C480.119 192.955 479.998 192.375 479.998 191.693C479.998 191.023 480.116 190.439 480.352 189.942C480.588 189.442 480.916 189.055 481.336 188.783C481.757 188.507 482.243 188.369 482.794 188.369C483.22 188.369 483.558 188.44 483.808 188.582C484.061 188.722 484.254 188.881 484.388 189.06C484.524 189.236 484.629 189.381 484.703 189.494H484.805V188.455H485.777V195.188C485.777 195.75 485.649 196.207 485.393 196.56C485.14 196.915 484.8 197.175 484.371 197.339C483.944 197.507 483.47 197.591 482.947 197.591ZM482.913 193.994C483.317 193.994 483.657 193.902 483.936 193.717C484.214 193.533 484.426 193.267 484.571 192.92C484.716 192.574 484.788 192.159 484.788 191.676C484.788 191.205 484.717 190.788 484.575 190.428C484.433 190.067 484.223 189.784 483.944 189.58C483.666 189.375 483.322 189.273 482.913 189.273C482.487 189.273 482.132 189.381 481.848 189.597C481.567 189.812 481.355 190.102 481.213 190.466C481.074 190.83 481.004 191.233 481.004 191.676C481.004 192.131 481.075 192.533 481.217 192.882C481.362 193.229 481.575 193.501 481.856 193.7C482.14 193.896 482.493 193.994 482.913 193.994Z" fill="#667085"/>
<path d="M534.855 188.455C534.804 188.023 534.596 187.688 534.233 187.449C533.869 187.21 533.423 187.091 532.895 187.091C532.508 187.091 532.17 187.153 531.881 187.278C531.594 187.403 531.369 187.575 531.207 187.794C531.048 188.013 530.969 188.261 530.969 188.54C530.969 188.773 531.024 188.973 531.135 189.141C531.248 189.305 531.393 189.443 531.569 189.554C531.746 189.662 531.93 189.751 532.123 189.822C532.317 189.891 532.494 189.946 532.656 189.989L533.542 190.227C533.77 190.287 534.023 190.369 534.301 190.474C534.582 190.58 534.851 190.723 535.106 190.905C535.365 191.084 535.578 191.314 535.746 191.595C535.913 191.876 535.997 192.222 535.997 192.631C535.997 193.102 535.873 193.528 535.626 193.909C535.382 194.29 535.024 194.592 534.552 194.817C534.084 195.041 533.514 195.153 532.844 195.153C532.219 195.153 531.677 195.053 531.22 194.851C530.765 194.649 530.407 194.368 530.146 194.007C529.888 193.646 529.741 193.227 529.707 192.75H530.798C530.827 193.08 530.937 193.352 531.131 193.568C531.327 193.781 531.574 193.94 531.872 194.045C532.173 194.148 532.497 194.199 532.844 194.199C533.247 194.199 533.609 194.134 533.93 194.003C534.251 193.869 534.506 193.685 534.693 193.449C534.881 193.21 534.974 192.932 534.974 192.614C534.974 192.324 534.893 192.088 534.731 191.906C534.569 191.724 534.356 191.577 534.092 191.463C533.828 191.349 533.542 191.25 533.236 191.165L532.162 190.858C531.48 190.662 530.94 190.382 530.542 190.018C530.145 189.655 529.946 189.179 529.946 188.591C529.946 188.102 530.078 187.676 530.342 187.312C530.609 186.946 530.967 186.662 531.416 186.46C531.868 186.256 532.372 186.153 532.929 186.153C533.491 186.153 533.991 186.254 534.429 186.456C534.866 186.655 535.213 186.928 535.469 187.274C535.727 187.621 535.863 188.014 535.878 188.455H534.855ZM540.343 195.136C539.712 195.136 539.168 194.997 538.71 194.719C538.256 194.438 537.905 194.045 537.658 193.543C537.414 193.037 537.291 192.449 537.291 191.778C537.291 191.108 537.414 190.517 537.658 190.006C537.905 189.491 538.249 189.091 538.689 188.804C539.132 188.514 539.649 188.369 540.24 188.369C540.581 188.369 540.918 188.426 541.25 188.54C541.583 188.653 541.885 188.838 542.158 189.094C542.431 189.347 542.648 189.682 542.81 190.099C542.972 190.517 543.053 191.031 543.053 191.642V192.068H538.007V191.199H542.03C542.03 190.83 541.956 190.5 541.808 190.21C541.664 189.92 541.456 189.692 541.186 189.524C540.919 189.357 540.604 189.273 540.24 189.273C539.84 189.273 539.493 189.372 539.2 189.571C538.911 189.767 538.688 190.023 538.531 190.338C538.375 190.653 538.297 190.991 538.297 191.352V191.932C538.297 192.426 538.382 192.845 538.553 193.189C538.726 193.53 538.966 193.79 539.273 193.969C539.58 194.145 539.936 194.233 540.343 194.233C540.607 194.233 540.845 194.196 541.058 194.122C541.274 194.045 541.46 193.932 541.617 193.781C541.773 193.628 541.894 193.437 541.979 193.21L542.95 193.483C542.848 193.812 542.676 194.102 542.435 194.352C542.193 194.599 541.895 194.793 541.54 194.932C541.185 195.068 540.786 195.136 540.343 195.136ZM544.583 197.455V188.455H545.554V189.494H545.673C545.747 189.381 545.85 189.236 545.98 189.06C546.114 188.881 546.304 188.722 546.551 188.582C546.801 188.44 547.139 188.369 547.566 188.369C548.117 188.369 548.602 188.507 549.023 188.783C549.443 189.058 549.771 189.449 550.007 189.955C550.243 190.46 550.361 191.057 550.361 191.744C550.361 192.438 550.243 193.038 550.007 193.547C549.771 194.053 549.445 194.445 549.027 194.723C548.61 194.999 548.128 195.136 547.583 195.136C547.162 195.136 546.825 195.067 546.573 194.928C546.32 194.786 546.125 194.625 545.989 194.446C545.852 194.264 545.747 194.114 545.673 193.994H545.588V197.455H544.583ZM545.571 191.727C545.571 192.222 545.644 192.658 545.789 193.036C545.933 193.411 546.145 193.705 546.423 193.918C546.702 194.128 547.043 194.233 547.446 194.233C547.867 194.233 548.218 194.122 548.499 193.901C548.783 193.676 548.996 193.375 549.138 192.997C549.283 192.616 549.355 192.193 549.355 191.727C549.355 191.267 549.284 190.852 549.142 190.483C549.003 190.111 548.791 189.817 548.507 189.601C548.226 189.382 547.872 189.273 547.446 189.273C547.037 189.273 546.693 189.376 546.415 189.584C546.137 189.788 545.926 190.075 545.784 190.445C545.642 190.811 545.571 191.239 545.571 191.727Z" fill="#667085"/>
<path d="M601.819 190.636C601.819 191.557 601.653 192.352 601.32 193.023C600.988 193.693 600.532 194.21 599.952 194.574C599.373 194.938 598.711 195.119 597.967 195.119C597.222 195.119 596.56 194.938 595.981 194.574C595.401 194.21 594.945 193.693 594.613 193.023C594.281 192.352 594.114 191.557 594.114 190.636C594.114 189.716 594.281 188.92 594.613 188.25C594.945 187.58 595.401 187.062 595.981 186.699C596.56 186.335 597.222 186.153 597.967 186.153C598.711 186.153 599.373 186.335 599.952 186.699C600.532 187.062 600.988 187.58 601.32 188.25C601.653 188.92 601.819 189.716 601.819 190.636ZM600.796 190.636C600.796 189.881 600.67 189.243 600.417 188.723C600.167 188.203 599.827 187.81 599.398 187.543C598.972 187.276 598.495 187.142 597.967 187.142C597.438 187.142 596.96 187.276 596.531 187.543C596.104 187.81 595.765 188.203 595.512 188.723C595.262 189.243 595.137 189.881 595.137 190.636C595.137 191.392 595.262 192.03 595.512 192.55C595.765 193.07 596.104 193.463 596.531 193.73C596.96 193.997 597.438 194.131 597.967 194.131C598.495 194.131 598.972 193.997 599.398 193.73C599.827 193.463 600.167 193.07 600.417 192.55C600.67 192.03 600.796 191.392 600.796 190.636ZM606.119 195.136C605.505 195.136 604.977 194.991 604.533 194.702C604.09 194.412 603.749 194.013 603.511 193.504C603.272 192.996 603.153 192.415 603.153 191.761C603.153 191.097 603.275 190.51 603.519 190.001C603.766 189.49 604.11 189.091 604.55 188.804C604.994 188.514 605.511 188.369 606.102 188.369C606.562 188.369 606.977 188.455 607.346 188.625C607.715 188.795 608.018 189.034 608.254 189.341C608.489 189.648 608.636 190.006 608.692 190.415H607.687C607.61 190.116 607.44 189.852 607.175 189.622C606.914 189.389 606.562 189.273 606.119 189.273C605.727 189.273 605.383 189.375 605.087 189.58C604.795 189.781 604.566 190.067 604.401 190.436C604.239 190.803 604.158 191.233 604.158 191.727C604.158 192.233 604.238 192.673 604.397 193.048C604.559 193.423 604.786 193.714 605.079 193.922C605.374 194.129 605.721 194.233 606.119 194.233C606.38 194.233 606.617 194.188 606.83 194.097C607.043 194.006 607.224 193.875 607.371 193.705C607.519 193.534 607.624 193.33 607.687 193.091H608.692C608.636 193.477 608.495 193.825 608.271 194.135C608.049 194.442 607.755 194.686 607.388 194.868C607.025 195.047 606.602 195.136 606.119 195.136ZM613.009 188.455V189.307H609.617V188.455H613.009ZM610.606 186.886H611.612V193.125C611.612 193.409 611.653 193.622 611.735 193.764C611.82 193.903 611.928 193.997 612.059 194.045C612.192 194.091 612.333 194.114 612.481 194.114C612.592 194.114 612.683 194.108 612.754 194.097C612.825 194.082 612.881 194.071 612.924 194.062L613.129 194.966C613.06 194.991 612.965 195.017 612.843 195.043C612.721 195.071 612.566 195.085 612.379 195.085C612.094 195.085 611.816 195.024 611.543 194.902C611.273 194.78 611.049 194.594 610.87 194.344C610.694 194.094 610.606 193.778 610.606 193.398V186.886Z" fill="#667085"/>
<path d="M664.157 186.273V195H663.134L658.379 188.148H658.293V195H657.237V186.273H658.259L663.032 193.142H663.117V186.273H664.157ZM668.794 195.136C668.203 195.136 667.685 194.996 667.239 194.714C666.796 194.433 666.449 194.04 666.199 193.534C665.952 193.028 665.828 192.437 665.828 191.761C665.828 191.08 665.952 190.484 666.199 189.976C666.449 189.467 666.796 189.072 667.239 188.791C667.685 188.51 668.203 188.369 668.794 188.369C669.385 188.369 669.902 188.51 670.346 188.791C670.792 189.072 671.138 189.467 671.385 189.976C671.635 190.484 671.76 191.08 671.76 191.761C671.76 192.437 671.635 193.028 671.385 193.534C671.138 194.04 670.792 194.433 670.346 194.714C669.902 194.996 669.385 195.136 668.794 195.136ZM668.794 194.233C669.243 194.233 669.613 194.118 669.902 193.888C670.192 193.658 670.407 193.355 670.546 192.98C670.685 192.605 670.755 192.199 670.755 191.761C670.755 191.324 670.685 190.916 670.546 190.538C670.407 190.161 670.192 189.855 669.902 189.622C669.613 189.389 669.243 189.273 668.794 189.273C668.346 189.273 667.976 189.389 667.686 189.622C667.397 189.855 667.182 190.161 667.043 190.538C666.904 190.916 666.834 191.324 666.834 191.761C666.834 192.199 666.904 192.605 667.043 192.98C667.182 193.355 667.397 193.658 667.686 193.888C667.976 194.118 668.346 194.233 668.794 194.233ZM678.413 188.455L675.993 195H674.97L672.55 188.455H673.641L675.447 193.67H675.516L677.322 188.455H678.413Z" fill="#667085"/>
<path d="M725.094 195H722.401V186.273H725.213C726.06 186.273 726.784 186.447 727.386 186.797C727.989 187.143 728.45 187.642 728.771 188.293C729.092 188.94 729.253 189.716 729.253 190.619C729.253 191.528 729.091 192.311 728.767 192.967C728.443 193.621 727.972 194.124 727.352 194.476C726.733 194.825 725.98 195 725.094 195ZM723.457 194.062H725.026C725.747 194.062 726.345 193.923 726.82 193.645C727.294 193.366 727.648 192.97 727.881 192.456C728.114 191.942 728.23 191.33 728.23 190.619C728.23 189.915 728.115 189.308 727.885 188.8C727.655 188.288 727.311 187.896 726.854 187.624C726.396 187.348 725.827 187.21 725.145 187.21H723.457V194.062ZM733.634 195.136C733.003 195.136 732.459 194.997 732.001 194.719C731.547 194.438 731.196 194.045 730.949 193.543C730.705 193.037 730.582 192.449 730.582 191.778C730.582 191.108 730.705 190.517 730.949 190.006C731.196 189.491 731.54 189.091 731.98 188.804C732.423 188.514 732.94 188.369 733.531 188.369C733.872 188.369 734.209 188.426 734.541 188.54C734.874 188.653 735.176 188.838 735.449 189.094C735.722 189.347 735.939 189.682 736.101 190.099C736.263 190.517 736.344 191.031 736.344 191.642V192.068H731.298V191.199H735.321C735.321 190.83 735.247 190.5 735.099 190.21C734.955 189.92 734.747 189.692 734.477 189.524C734.21 189.357 733.895 189.273 733.531 189.273C733.131 189.273 732.784 189.372 732.491 189.571C732.202 189.767 731.979 190.023 731.822 190.338C731.666 190.653 731.588 190.991 731.588 191.352V191.932C731.588 192.426 731.673 192.845 731.844 193.189C732.017 193.53 732.257 193.79 732.564 193.969C732.871 194.145 733.227 194.233 733.634 194.233C733.898 194.233 734.136 194.196 734.349 194.122C734.565 194.045 734.751 193.932 734.908 193.781C735.064 193.628 735.185 193.437 735.27 193.21L736.241 193.483C736.139 193.812 735.967 194.102 735.726 194.352C735.484 194.599 735.186 194.793 734.831 194.932C734.476 195.068 734.077 195.136 733.634 195.136ZM740.533 195.136C739.919 195.136 739.391 194.991 738.947 194.702C738.504 194.412 738.163 194.013 737.925 193.504C737.686 192.996 737.567 192.415 737.567 191.761C737.567 191.097 737.689 190.51 737.933 190.001C738.18 189.49 738.524 189.091 738.964 188.804C739.408 188.514 739.925 188.369 740.516 188.369C740.976 188.369 741.391 188.455 741.76 188.625C742.129 188.795 742.432 189.034 742.668 189.341C742.903 189.648 743.05 190.006 743.107 190.415H742.101C742.024 190.116 741.854 189.852 741.589 189.622C741.328 189.389 740.976 189.273 740.533 189.273C740.141 189.273 739.797 189.375 739.501 189.58C739.209 189.781 738.98 190.067 738.815 190.436C738.653 190.803 738.572 191.233 738.572 191.727C738.572 192.233 738.652 192.673 738.811 193.048C738.973 193.423 739.2 193.714 739.493 193.922C739.788 194.129 740.135 194.233 740.533 194.233C740.794 194.233 741.031 194.188 741.244 194.097C741.457 194.006 741.638 193.875 741.786 193.705C741.933 193.534 742.038 193.33 742.101 193.091H743.107C743.05 193.477 742.909 193.825 742.685 194.135C742.463 194.442 742.169 194.686 741.803 194.868C741.439 195.047 741.016 195.136 740.533 195.136Z" fill="#667085"/>
<path d="M20 70C20 66.6863 22.6863 64 26 64H46C49.3137 64 52 66.6863 52 70V174H20V70Z" fill="#84CAFF"/>
<path d="M20 102.084C20 98.7703 22.6863 96.084 26 96.084H46C49.3137 96.084 52 98.7703 52 102.084V174.001H20V102.084Z" fill="#2E90FA"/>
<path d="M83.2734 38C83.2734 34.6863 85.9597 32 89.2734 32H109.273C112.587 32 115.273 34.6863 115.273 38V174H83.2734V38Z" fill="#84CAFF"/>
<path d="M83.2734 79.416C83.2734 76.1023 85.9597 73.416 89.2734 73.416H109.273C112.587 73.416 115.273 76.1023 115.273 79.416V173.999H83.2734V79.416Z" fill="#2E90FA"/>
<path d="M146.545 102C146.545 98.6863 149.231 96 152.545 96H172.545C175.859 96 178.545 98.6863 178.545 102V174H146.545V102Z" fill="#84CAFF"/>
<path d="M146.545 124.75C146.545 121.436 149.231 118.75 152.545 118.75H172.545C175.859 118.75 178.545 121.436 178.545 124.75V174H146.545V124.75Z" fill="#2E90FA"/>
<path d="M209.818 62C209.818 58.6863 212.505 56 215.818 56H235.818C239.132 56 241.818 58.6863 241.818 62V174H209.818V62Z" fill="#84CAFF"/>
<path d="M209.818 96.416C209.818 93.1023 212.505 90.416 215.818 90.416H235.818C239.132 90.416 241.818 93.1023 241.818 96.416V173.999H209.818V96.416Z" fill="#2E90FA"/>
<path d="M273.092 102C273.092 98.6863 275.778 96 279.092 96H299.092C302.406 96 305.092 98.6863 305.092 102V174H273.092V102Z" fill="#84CAFF"/>
<path d="M273.092 124.75C273.092 121.436 275.778 118.75 279.092 118.75H299.092C302.406 118.75 305.092 121.436 305.092 124.75V174H273.092V124.75Z" fill="#2E90FA"/>
<path d="M336.363 46C336.363 42.6863 339.05 40 342.363 40H362.363C365.677 40 368.363 42.6863 368.363 46V174H336.363V46Z" fill="#84CAFF"/>
<path d="M336.363 85.084C336.363 81.7703 339.05 79.084 342.363 79.084H362.363C365.677 79.084 368.363 81.7703 368.363 85.084V174.001H336.363V85.084Z" fill="#2E90FA"/>
<path d="M399.637 70C399.637 66.6863 402.323 64 405.637 64H425.637C428.95 64 431.637 66.6863 431.637 70V174H399.637V70Z" fill="#84CAFF"/>
<path d="M399.637 102.084C399.637 98.7703 402.323 96.084 405.637 96.084H425.637C428.95 96.084 431.637 98.7703 431.637 102.084V174.001H399.637V102.084Z" fill="#2E90FA"/>
<path d="M462.908 62C462.908 58.6863 465.594 56 468.908 56H488.908C492.222 56 494.908 58.6863 494.908 62V174H462.908V62Z" fill="#84CAFF"/>
<path d="M462.908 96.416C462.908 93.1023 465.594 90.416 468.908 90.416H488.908C492.222 90.416 494.908 93.1023 494.908 96.416V173.999H462.908V96.416Z" fill="#2E90FA"/>
<path d="M526.182 70C526.182 66.6863 528.868 64 532.182 64H552.182C555.495 64 558.182 66.6863 558.182 70V174H526.182V70Z" fill="#84CAFF"/>
<path d="M526.182 102.084C526.182 98.7703 528.868 96.084 532.182 96.084H552.182C555.495 96.084 558.182 98.7703 558.182 102.084V174.001H526.182V102.084Z" fill="#2E90FA"/>
<path d="M589.455 54C589.455 50.6863 592.141 48 595.455 48H615.455C618.769 48 621.455 50.6863 621.455 54V174H589.455V54Z" fill="#84CAFF"/>
<path d="M589.455 90.75C589.455 87.4363 592.141 84.75 595.455 84.75H615.455C618.769 84.75 621.455 87.4363 621.455 90.75V174H589.455V90.75Z" fill="#2E90FA"/>
<path d="M652.727 38C652.727 34.6863 655.413 32 658.727 32H678.727C682.04 32 684.727 34.6863 684.727 38V174H652.727V38Z" fill="#84CAFF"/>
<path d="M652.727 79.416C652.727 76.1023 655.413 73.416 658.727 73.416H678.727C682.04 73.416 684.727 76.1023 684.727 79.416V173.999H652.727V79.416Z" fill="#2E90FA"/>
<path d="M716 78C716 74.6863 718.686 72 722 72H742C745.314 72 748 74.6863 748 78V174H716V78Z" fill="#84CAFF"/>
<path d="M716 107.75C716 104.436 718.686 101.75 722 101.75H742C745.314 101.75 748 104.436 748 107.75V174H716V107.75Z" fill="#2E90FA"/>
</svg>
