<svg width="417" height="229" viewBox="0 0 417 229" fill="none" xmlns="http://www.w3.org/2000/svg">
<path d="M6.56534 138.857C6.16193 138.903 5.84943 139.09 5.62784 139.42C5.40341 139.749 5.29119 140.164 5.29119 140.664C5.29119 141.022 5.34801 141.332 5.46165 141.593C5.57244 141.855 5.72585 142.058 5.92187 142.203C6.11506 142.345 6.33523 142.416 6.58239 142.416C6.78977 142.416 6.96875 142.367 7.11932 142.271C7.26989 142.171 7.39631 142.042 7.49858 141.883C7.59801 141.721 7.68182 141.548 7.75 141.363C7.81534 141.178 7.86932 141.001 7.91193 140.83L8.13352 139.978C8.2017 139.7 8.29403 139.414 8.41051 139.122C8.52699 138.829 8.6804 138.558 8.87074 138.308C9.06108 138.058 9.29687 137.856 9.57812 137.703C9.85937 137.546 10.196 137.468 10.5881 137.468C11.0824 137.468 11.5213 137.596 11.9048 137.852C12.2884 138.105 12.5909 138.472 12.8125 138.955C13.0341 139.436 13.1449 140.017 13.1449 140.698C13.1449 141.352 13.0412 141.917 12.8338 142.394C12.6264 142.872 12.3324 143.245 11.9517 143.515C11.5682 143.785 11.1136 143.934 10.5881 143.963L10.5881 142.642C10.9034 142.616 11.1662 142.514 11.3764 142.335C11.5838 142.153 11.7386 141.921 11.8409 141.64C11.9403 141.356 11.9901 141.045 11.9901 140.707C11.9901 140.335 11.9318 140.004 11.8153 139.714C11.696 139.421 11.5312 139.191 11.321 139.024C11.108 138.856 10.8594 138.772 10.5753 138.772C10.3168 138.772 10.1051 138.846 9.94034 138.994C9.77557 139.139 9.6392 139.336 9.53125 139.586C9.4233 139.833 9.32812 140.113 9.24574 140.426L8.96449 141.457C8.77415 142.156 8.49432 142.71 8.125 143.119C7.75568 143.525 7.26705 143.728 6.65909 143.728C6.15625 143.728 5.71733 143.592 5.34233 143.319C4.96733 143.046 4.67614 142.677 4.46875 142.211C4.25852 141.745 4.15341 141.22 4.15341 140.634C4.15341 140.044 4.2571 139.522 4.46449 139.07C4.67187 138.616 4.95739 138.258 5.32102 137.997C5.68182 137.735 6.09659 137.599 6.56534 137.588L6.56534 138.857ZM13.1321 133.176C13.1321 133.821 12.9943 134.376 12.7187 134.842C12.4403 135.305 12.0497 135.663 11.5469 135.916C11.0412 136.166 10.4489 136.291 9.76989 136.291C9.09943 136.291 8.50852 136.166 7.99716 135.916C7.48579 135.663 7.08665 135.311 6.79972 134.859C6.51278 134.405 6.36932 133.873 6.36932 133.265C6.36932 132.896 6.4304 132.538 6.55256 132.192C6.67472 131.845 6.86648 131.534 7.12784 131.258C7.3892 130.983 7.72869 130.765 8.14631 130.606C8.56108 130.447 9.06534 130.368 9.65909 130.368L10.1108 130.368L10.1108 135.571L9.15625 135.571L9.15625 131.616C8.82102 131.616 8.52415 131.684 8.26562 131.821C8.00426 131.957 7.79829 132.149 7.64773 132.396C7.49716 132.64 7.42187 132.927 7.42187 133.257C7.42187 133.615 7.50994 133.927 7.68608 134.194C7.85937 134.459 8.08665 134.663 8.3679 134.808C8.64631 134.95 8.94886 135.021 9.27557 135.021L10.0213 135.021C10.4588 135.021 10.831 134.944 11.1378 134.791C11.4446 134.635 11.679 134.417 11.8409 134.139C12 133.861 12.0795 133.535 12.0795 133.163C12.0795 132.922 12.0455 132.702 11.9773 132.503C11.9062 132.304 11.8011 132.132 11.6619 131.987C11.5227 131.842 11.3509 131.731 11.1463 131.655L11.3636 130.449C11.7187 130.545 12.0298 130.719 12.2969 130.969C12.5611 131.216 12.767 131.527 12.9148 131.902C13.0597 132.274 13.1321 132.699 13.1321 133.176ZM13.1321 126.197C13.1321 126.83 12.9886 127.376 12.7017 127.833C12.4119 128.288 12.0128 128.637 11.5043 128.882C10.9957 129.126 10.4134 129.248 9.7571 129.248C9.09233 129.248 8.50568 129.123 7.99716 128.873C7.48579 128.623 7.08665 128.271 6.79971 127.816C6.51278 127.362 6.36932 126.826 6.36932 126.21C6.36932 125.713 6.46165 125.269 6.64631 124.88C6.82812 124.491 7.08381 124.177 7.41335 123.938C7.7429 123.697 8.12784 123.553 8.56818 123.508L8.56818 124.748C8.26136 124.816 7.99716 124.972 7.77557 125.217C7.55398 125.458 7.44318 125.782 7.44318 126.188C7.44318 126.544 7.53693 126.855 7.72443 127.122C7.90909 127.386 8.17329 127.592 8.51704 127.74C8.85795 127.887 9.26136 127.961 9.72727 127.961C10.2045 127.961 10.6165 127.889 10.9631 127.744C11.3097 127.599 11.5781 127.394 11.7685 127.13C11.9588 126.863 12.054 126.549 12.054 126.188C12.054 125.947 12.0099 125.728 11.9219 125.532C11.831 125.333 11.7017 125.167 11.5341 125.034C11.3665 124.897 11.1648 124.802 10.929 124.748L10.929 123.508C11.3523 123.553 11.7301 123.691 12.0625 123.921C12.3949 124.151 12.6562 124.46 12.8466 124.846C13.0369 125.23 13.1321 125.68 13.1321 126.197ZM10.2855 117.999L6.45454 117.999L6.45454 116.721L13 116.721L13 117.974L11.8665 117.974L11.8665 118.042C12.2159 118.192 12.5071 118.434 12.7401 118.766C12.9702 119.096 13.0852 119.506 13.0852 119.998C13.0852 120.418 12.9929 120.79 12.8082 121.114C12.6207 121.435 12.3437 121.688 11.9773 121.873C11.6108 122.055 11.1577 122.145 10.6179 122.145L6.45454 122.145L6.45454 120.871L10.4645 120.871C10.9105 120.871 11.2656 120.748 11.5298 120.501C11.794 120.253 11.9261 119.932 11.9261 119.537C11.9261 119.299 11.8665 119.062 11.7472 118.826C11.6278 118.587 11.4474 118.39 11.206 118.233C10.9645 118.074 10.6577 117.996 10.2855 117.999ZM13 115.009L6.45454 115.009L6.45454 113.777L7.49432 113.777L7.49432 113.709C7.14204 113.59 6.86506 113.379 6.66335 113.078C6.45881 112.774 6.35653 112.431 6.35653 112.047C6.35653 111.968 6.35937 111.874 6.36506 111.766C6.37074 111.655 6.37784 111.568 6.38636 111.506L7.60511 111.506C7.59091 111.557 7.57528 111.648 7.55824 111.779C7.53835 111.909 7.52841 112.04 7.52841 112.171C7.52841 112.472 7.59233 112.74 7.72017 112.976C7.84517 113.209 8.01988 113.394 8.24432 113.53C8.46591 113.666 8.71875 113.735 9.00284 113.735L13 113.735L13 115.009ZM13 110.403L6.45454 110.403L6.45454 109.129L13 109.129L13 110.403ZM5.4446 109.76C5.4446 109.981 5.37074 110.172 5.22301 110.331C5.07244 110.487 4.89346 110.565 4.68608 110.565C4.47585 110.565 4.29687 110.487 4.14915 110.331C3.99858 110.172 3.92329 109.981 3.92329 109.76C3.92329 109.538 3.99858 109.349 4.14915 109.193C4.29687 109.034 4.47585 108.954 4.68608 108.954C4.89346 108.954 5.07244 109.034 5.22301 109.193C5.37074 109.349 5.4446 109.538 5.4446 109.76ZM6.45454 104.36L7.47727 104.36L7.47727 107.935L6.45454 107.935L6.45454 104.36ZM4.88636 106.976L4.88636 105.702L11.0781 105.702C11.3253 105.702 11.5114 105.665 11.6364 105.591C11.7585 105.517 11.8423 105.422 11.8878 105.306C11.9304 105.186 11.9517 105.057 11.9517 104.918C11.9517 104.816 11.9446 104.726 11.9304 104.649C11.9162 104.573 11.9048 104.513 11.8963 104.47L12.9489 104.24C12.9773 104.314 13.0057 104.419 13.0341 104.556C13.0653 104.692 13.0824 104.862 13.0852 105.067C13.0909 105.402 13.0312 105.715 12.9062 106.004C12.7812 106.294 12.5881 106.529 12.3267 106.708C12.0653 106.887 11.7372 106.976 11.3423 106.976L4.88636 106.976ZM15.4545 102.145C15.4545 102.335 15.4389 102.508 15.4077 102.665C15.3793 102.821 15.348 102.937 15.3139 103.014L14.2699 102.707C14.3324 102.474 14.3594 102.267 14.3509 102.085C14.3423 101.903 14.2741 101.743 14.1463 101.604C14.0185 101.461 13.8097 101.336 13.5199 101.229L13.0852 101.071L6.45454 103.466L6.45454 102.102L11.5341 100.444L11.5341 100.376L6.45454 98.7186L6.45454 97.3507L13.8736 100.048C14.2145 100.173 14.5028 100.332 14.7386 100.525C14.9773 100.719 15.1562 100.949 15.2756 101.216C15.3949 101.483 15.4545 101.792 15.4545 102.145ZM13 92.9774L6.45454 92.9774L6.45454 91.7459L7.49432 91.7459L7.49432 91.6777C7.14204 91.5584 6.86505 91.3482 6.66335 91.0471C6.4588 90.7431 6.35653 90.3993 6.35653 90.0158C6.35653 89.9363 6.35937 89.8425 6.36505 89.7346C6.37074 89.6238 6.37784 89.5371 6.38636 89.4746L7.60511 89.4746C7.59091 89.5257 7.57528 89.6167 7.55824 89.7473C7.53835 89.878 7.52841 90.0087 7.52841 90.1394C7.52841 90.4405 7.59233 90.709 7.72017 90.9448C7.84517 91.1777 8.01988 91.3624 8.24432 91.4988C8.46591 91.6351 8.71875 91.7033 9.00284 91.7033L13 91.7033L13 92.9774ZM13.1449 86.5257C13.1449 86.9405 13.0682 87.3155 12.9148 87.6507C12.7585 87.986 12.5327 88.2516 12.2372 88.4476C11.9418 88.6408 11.5795 88.7374 11.1506 88.7374C10.7812 88.7374 10.4773 88.6664 10.2386 88.5243C10 88.3823 9.81108 88.1905 9.67187 87.949C9.53267 87.7076 9.42755 87.4377 9.35653 87.1394C9.28551 86.8411 9.23153 86.5371 9.1946 86.2274C9.14914 85.8354 9.11221 85.5172 9.0838 85.2729C9.05255 85.0286 9.00284 84.851 8.93466 84.7402C8.86647 84.6294 8.75568 84.574 8.60227 84.574L8.57244 84.574C8.20028 84.574 7.91193 84.6792 7.70738 84.8894C7.50284 85.0968 7.40057 85.4064 7.40057 85.8184C7.40057 86.2473 7.49574 86.5854 7.68608 86.8326C7.87358 87.0769 8.08238 87.2459 8.3125 87.3397L8.03977 88.5371C7.64204 88.3951 7.32102 88.1877 7.0767 87.9149C6.82954 87.6394 6.65057 87.3226 6.53977 86.9647C6.42613 86.6067 6.36932 86.2303 6.36932 85.8354C6.36932 85.574 6.40057 85.2971 6.46307 85.0044C6.52272 84.709 6.63352 84.4334 6.79545 84.1777C6.95738 83.9192 7.18892 83.7076 7.49005 83.5428C7.78835 83.378 8.17613 83.2956 8.65341 83.2956L13 83.2956L13 84.5399L12.1051 84.5399L12.1051 84.5911C12.2699 84.6735 12.4318 84.7971 12.5909 84.9618C12.75 85.1266 12.8821 85.3382 12.9872 85.5968C13.0923 85.8553 13.1449 86.1649 13.1449 86.5257ZM12.1222 86.2488C12.1222 85.8965 12.0526 85.5953 11.9133 85.3453C11.7741 85.0925 11.5923 84.9007 11.3679 84.7701C11.1406 84.6365 10.8977 84.5698 10.6392 84.5698L9.79545 84.5698C9.84091 84.6152 9.88352 84.7033 9.92329 84.834C9.96022 84.9618 9.9929 85.1081 10.0213 85.2729C10.0469 85.4377 10.071 85.5982 10.0937 85.7544C10.1136 85.9107 10.1307 86.0414 10.1449 86.1465C10.1761 86.3936 10.2287 86.6195 10.3026 86.824C10.3764 87.0257 10.483 87.1877 10.6222 87.3098C10.7585 87.4292 10.9403 87.4888 11.1676 87.4888C11.483 87.4888 11.7216 87.3723 11.8835 87.1394C12.0426 86.9064 12.1222 86.6096 12.1222 86.2488ZM6.45454 78.5431L7.47727 78.5431L7.47727 82.1184L6.45454 82.1184L6.45454 78.5431ZM4.88636 81.1596L4.88636 79.8855L11.0781 79.8855C11.3253 79.8855 11.5114 79.8485 11.6364 79.7747C11.7585 79.7008 11.8423 79.6056 11.8878 79.4892C11.9304 79.3699 11.9517 79.2406 11.9517 79.1014C11.9517 78.9991 11.9446 78.9096 11.9304 78.8329C11.9162 78.7562 11.9048 78.6966 11.8963 78.6539L12.9489 78.4238C12.9773 78.4977 13.0057 78.6028 13.0341 78.7392C13.0653 78.8755 13.0824 79.046 13.0852 79.2505C13.0909 79.5858 13.0312 79.8983 12.9062 80.188C12.7812 80.4778 12.5881 80.7122 12.3267 80.8912C12.0653 81.0701 11.7372 81.1596 11.3423 81.1596L4.88636 81.1596ZM13 77.1337L6.45454 77.1337L6.45454 75.8596L13 75.8596L13 77.1337ZM5.4446 76.4902C5.4446 76.7118 5.37074 76.9022 5.22301 77.0613C5.07244 77.2175 4.89346 77.2956 4.68608 77.2956C4.47585 77.2956 4.29687 77.2175 4.14914 77.0613C3.99858 76.9022 3.92329 76.7118 3.92329 76.4902C3.92329 76.2686 3.99858 76.0797 4.14914 75.9235C4.29687 75.7644 4.47585 75.6848 4.68608 75.6848C4.89346 75.6848 5.07244 75.7644 5.22301 75.9235C5.37074 76.0797 5.4446 76.2686 5.4446 76.4902ZM9.11363 72.8713L13 72.8713L13 74.1454L6.45454 74.1454L6.45454 72.9224L7.51988 72.9224L7.51988 72.8414C7.17329 72.6909 6.89488 72.4551 6.68466 72.1341C6.47443 71.8102 6.36932 71.4025 6.36932 70.911C6.36931 70.465 6.46306 70.0744 6.65056 69.7392C6.83522 69.4039 7.11079 69.144 7.47727 68.9593C7.84375 68.7747 8.29687 68.6824 8.83664 68.6824L13 68.6823L13 69.9565L8.99005 69.9565C8.51562 69.9565 8.14488 70.0801 7.87784 70.3272C7.60795 70.5744 7.47301 70.9139 7.47301 71.3457C7.47301 71.6412 7.53693 71.9039 7.66477 72.1341C7.79261 72.3613 7.98011 72.5417 8.22727 72.6752C8.47159 72.8059 8.76704 72.8713 9.11363 72.8713ZM15.5909 64.2292C15.5909 64.7491 15.5227 65.1966 15.3864 65.5716C15.25 65.9437 15.0696 66.2477 14.8452 66.4835C14.6207 66.7193 14.375 66.8954 14.108 67.0119L13.6562 65.9167C13.7812 65.84 13.9133 65.7377 14.0526 65.6099C14.1946 65.4792 14.3153 65.3031 14.4148 65.0815C14.5142 64.8571 14.5639 64.5687 14.5639 64.2164C14.5639 63.7335 14.446 63.3343 14.2102 63.019C13.9773 62.7037 13.6051 62.546 13.0937 62.546L11.8068 62.546L11.8068 62.627C11.946 62.7037 12.1008 62.8145 12.2713 62.9593C12.4418 63.1014 12.5895 63.2974 12.7145 63.5474C12.8395 63.7974 12.902 64.1227 12.902 64.5233C12.902 65.0403 12.7812 65.5062 12.5398 65.921C12.2955 66.3329 11.9361 66.6596 11.4616 66.9011C10.9844 67.1397 10.3977 67.2591 9.7017 67.2591C9.00568 67.2591 8.40909 67.1412 7.91193 66.9054C7.41477 66.6667 7.03409 66.34 6.76988 65.9252C6.50284 65.5105 6.36931 65.0403 6.36931 64.5147C6.36931 64.1085 6.4375 63.7804 6.57386 63.5304C6.70738 63.2804 6.86363 63.0858 7.04261 62.9466C7.22159 62.8045 7.37926 62.6951 7.51562 62.6184L7.51562 62.5247L6.45454 62.5247L6.45454 61.2761L13.1449 61.2761C13.7074 61.2761 14.169 61.4068 14.5298 61.6681C14.8906 61.9295 15.1577 62.2832 15.331 62.7292C15.5043 63.1724 15.5909 63.6724 15.5909 64.2292ZM11.8452 64.242C11.8452 63.8755 11.7599 63.5659 11.5895 63.313C11.4162 63.0574 11.169 62.8642 10.848 62.7335C10.5241 62.6 10.1364 62.5332 9.68466 62.5332C9.24431 62.5332 8.85653 62.5985 8.5213 62.7292C8.18608 62.8599 7.92471 63.0517 7.73721 63.3045C7.54687 63.5574 7.4517 63.8699 7.4517 64.242C7.4517 64.6255 7.55113 64.9451 7.75 65.2008C7.94602 65.4565 8.21306 65.6497 8.55113 65.7804C8.8892 65.9082 9.26704 65.9721 9.68466 65.9721C10.1136 65.9721 10.4901 65.9068 10.8139 65.7761C11.1378 65.6454 11.3906 65.4522 11.5724 65.1966C11.7543 64.938 11.8452 64.6199 11.8452 64.242Z" fill="#667085"/>
<circle cx="189" cy="10" r="4" fill="#1570EF"/>
<path d="M201.358 4.81818H202.77L205.594 9.57102H205.713L208.537 4.81818H209.949L206.27 10.804V15H205.037V10.804L201.358 4.81818ZM213.407 15.1591C212.717 15.1591 212.112 14.995 211.592 14.6669C211.075 14.3388 210.671 13.8797 210.379 13.2898C210.091 12.6998 209.946 12.0104 209.946 11.2216C209.946 10.4261 210.091 9.73177 210.379 9.13849C210.671 8.54522 211.075 8.08452 211.592 7.75639C212.112 7.42827 212.717 7.2642 213.407 7.2642C214.096 7.2642 214.699 7.42827 215.216 7.75639C215.737 8.08452 216.141 8.54522 216.429 9.13849C216.721 9.73177 216.867 10.4261 216.867 11.2216C216.867 12.0104 216.721 12.6998 216.429 13.2898C216.141 13.8797 215.737 14.3388 215.216 14.6669C214.699 14.995 214.096 15.1591 213.407 15.1591ZM213.407 14.1051C213.93 14.1051 214.361 13.9709 214.699 13.7024C215.037 13.4339 215.288 13.081 215.45 12.6435C215.612 12.206 215.694 11.732 215.694 11.2216C215.694 10.7112 215.612 10.2356 215.45 9.79474C215.288 9.35393 215.037 8.99763 214.699 8.72585C214.361 8.45407 213.93 8.31818 213.407 8.31818C212.883 8.31818 212.452 8.45407 212.114 8.72585C211.776 8.99763 211.526 9.35393 211.363 9.79474C211.201 10.2356 211.12 10.7112 211.12 11.2216C211.12 11.732 211.201 12.206 211.363 12.6435C211.526 13.081 211.776 13.4339 212.114 13.7024C212.452 13.9709 212.883 14.1051 213.407 14.1051ZM223.47 11.8778V7.36364H224.644V15H223.47V13.7074H223.391C223.212 14.0952 222.933 14.425 222.556 14.6967C222.178 14.9652 221.7 15.0994 221.124 15.0994C220.646 15.0994 220.222 14.995 219.851 14.7862C219.48 14.5741 219.188 14.2559 218.976 13.8317C218.764 13.4041 218.658 12.8655 218.658 12.2159V7.36364H219.831V12.1364C219.831 12.6932 219.987 13.1373 220.298 13.4688C220.613 13.8002 221.014 13.9659 221.502 13.9659C221.793 13.9659 222.09 13.8913 222.392 13.7422C222.696 13.593 222.952 13.3643 223.157 13.0561C223.366 12.7479 223.47 12.3551 223.47 11.8778ZM226.793 15V7.36364H227.926V8.51705H228.006C228.145 8.1392 228.397 7.83262 228.761 7.5973C229.126 7.36198 229.537 7.24432 229.994 7.24432C230.08 7.24432 230.188 7.24597 230.317 7.24929C230.447 7.2526 230.545 7.25758 230.611 7.2642V8.45739C230.571 8.44744 230.48 8.43253 230.337 8.41264C230.198 8.38944 230.051 8.37784 229.895 8.37784C229.524 8.37784 229.192 8.45573 228.901 8.61151C228.612 8.76397 228.384 8.97609 228.214 9.24787C228.049 9.51634 227.966 9.82292 227.966 10.1676V15H226.793ZM235.939 15V7.36364H237.073V8.51705H237.152C237.291 8.1392 237.543 7.83262 237.908 7.5973C238.272 7.36198 238.683 7.24432 239.141 7.24432C239.227 7.24432 239.335 7.24597 239.464 7.24929C239.593 7.2526 239.691 7.25758 239.757 7.2642V8.45739C239.718 8.44744 239.626 8.43253 239.484 8.41264C239.345 8.38944 239.197 8.37784 239.041 8.37784C238.67 8.37784 238.339 8.45573 238.047 8.61151C237.759 8.76397 237.53 8.97609 237.361 9.24787C237.195 9.51634 237.112 9.82292 237.112 10.1676V15H235.939ZM243.395 15.179C242.911 15.179 242.472 15.0878 242.078 14.9055C241.683 14.7199 241.37 14.4531 241.138 14.1051C240.906 13.7538 240.79 13.3295 240.79 12.8324C240.79 12.3949 240.876 12.0402 241.049 11.7685C241.221 11.4934 241.451 11.2779 241.74 11.1222C242.028 10.9664 242.346 10.8504 242.694 10.7741C243.046 10.6946 243.399 10.6316 243.753 10.5852C244.217 10.5256 244.593 10.4808 244.882 10.451C245.173 10.4179 245.386 10.3632 245.518 10.2869C245.654 10.2107 245.722 10.0781 245.722 9.8892V9.84943C245.722 9.3589 245.588 8.97775 245.319 8.70597C245.054 8.43419 244.651 8.2983 244.111 8.2983C243.551 8.2983 243.112 8.42093 242.794 8.66619C242.475 8.91146 242.252 9.1733 242.123 9.4517L241.009 9.05398C241.208 8.58996 241.473 8.22869 241.804 7.97017C242.139 7.70833 242.504 7.52604 242.898 7.4233C243.296 7.31723 243.687 7.2642 244.071 7.2642C244.317 7.2642 244.598 7.29403 244.917 7.35369C245.238 7.41004 245.548 7.5277 245.846 7.70668C246.148 7.88565 246.398 8.15578 246.597 8.51705C246.796 8.87831 246.895 9.36222 246.895 9.96875V15H245.722V13.9659H245.662C245.583 14.1316 245.45 14.3089 245.265 14.4979C245.079 14.6868 244.832 14.8475 244.524 14.9801C244.216 15.1127 243.839 15.179 243.395 15.179ZM243.574 14.125C244.038 14.125 244.429 14.0339 244.748 13.8516C245.069 13.6693 245.311 13.4339 245.473 13.1456C245.639 12.8572 245.722 12.554 245.722 12.2358V11.1619C245.672 11.2216 245.563 11.2763 245.394 11.326C245.228 11.3724 245.036 11.4138 244.817 11.4503C244.602 11.4834 244.391 11.5133 244.186 11.5398C243.984 11.563 243.819 11.5829 243.694 11.5994C243.389 11.6392 243.104 11.7038 242.838 11.7933C242.577 11.8795 242.364 12.0104 242.202 12.1861C242.043 12.3584 241.963 12.5937 241.963 12.892C241.963 13.2997 242.114 13.608 242.416 13.8168C242.721 14.0223 243.107 14.125 243.574 14.125ZM252.358 7.36364V8.35795H248.4V7.36364H252.358ZM249.554 5.53409H250.727V12.8125C250.727 13.1439 250.775 13.3925 250.871 13.5582C250.971 13.7206 251.097 13.83 251.249 13.8864C251.405 13.9394 251.569 13.9659 251.741 13.9659C251.871 13.9659 251.977 13.9593 252.059 13.946C252.142 13.9295 252.209 13.9162 252.258 13.9062L252.497 14.9602C252.417 14.9901 252.306 15.0199 252.164 15.0497C252.021 15.0829 251.841 15.0994 251.622 15.0994C251.291 15.0994 250.966 15.0282 250.648 14.8857C250.333 14.7431 250.071 14.526 249.862 14.2344C249.657 13.9427 249.554 13.5748 249.554 13.1307V5.53409ZM254.123 15V7.36364H255.296V15H254.123ZM254.719 6.09091C254.491 6.09091 254.293 6.01302 254.128 5.85724C253.965 5.70147 253.884 5.5142 253.884 5.29545C253.884 5.0767 253.965 4.88944 254.128 4.73366C254.293 4.57789 254.491 4.5 254.719 4.5C254.948 4.5 255.144 4.57789 255.306 4.73366C255.472 4.88944 255.555 5.0767 255.555 5.29545C255.555 5.5142 255.472 5.70147 255.306 5.85724C255.144 6.01302 254.948 6.09091 254.719 6.09091ZM258.618 10.4062V15H257.445V7.36364H258.578V8.55682H258.678C258.857 8.16903 259.129 7.85748 259.493 7.62216C259.858 7.38352 260.328 7.2642 260.905 7.2642C261.422 7.2642 261.875 7.37027 262.262 7.58239C262.65 7.79119 262.952 8.10938 263.167 8.53693C263.383 8.96117 263.49 9.49811 263.49 10.1477V15H262.317V10.2273C262.317 9.62737 262.161 9.16004 261.85 8.82528C261.538 8.48722 261.111 8.31818 260.567 8.31818C260.193 8.31818 259.858 8.39938 259.563 8.56179C259.271 8.72419 259.041 8.96117 258.872 9.27273C258.703 9.58428 258.618 9.96212 258.618 10.4062ZM268.717 18.0227C268.15 18.0227 267.663 17.9498 267.255 17.804C266.847 17.6615 266.508 17.4725 266.236 17.2372C265.968 17.0052 265.754 16.7566 265.595 16.4915L266.529 15.8352C266.635 15.9744 266.77 16.1335 266.932 16.3125C267.094 16.4948 267.316 16.6522 267.598 16.7848C267.883 16.9207 268.256 16.9886 268.717 16.9886C269.333 16.9886 269.842 16.8395 270.243 16.5412C270.644 16.2429 270.845 15.7756 270.845 15.1392V13.5881H270.745C270.659 13.7273 270.536 13.8996 270.377 14.1051C270.222 14.3073 269.996 14.4879 269.701 14.647C269.41 14.8028 269.015 14.8807 268.518 14.8807C267.901 14.8807 267.348 14.7348 266.857 14.4432C266.37 14.1515 265.984 13.7273 265.699 13.1705C265.417 12.6136 265.276 11.9375 265.276 11.142C265.276 10.3598 265.414 9.67874 265.689 9.09872C265.964 8.51539 266.347 8.06463 266.838 7.74645C267.328 7.42495 267.895 7.2642 268.538 7.2642C269.035 7.2642 269.429 7.34706 269.721 7.51278C270.016 7.67519 270.241 7.8608 270.397 8.0696C270.556 8.27509 270.679 8.44413 270.765 8.5767H270.884V7.36364H272.018V15.2188C272.018 15.875 271.869 16.4086 271.57 16.8196C271.276 17.2339 270.878 17.5372 270.377 17.7294C269.88 17.925 269.327 18.0227 268.717 18.0227ZM268.677 13.8267C269.148 13.8267 269.545 13.719 269.87 13.5036C270.195 13.2881 270.442 12.9782 270.611 12.5739C270.78 12.1695 270.865 11.6856 270.865 11.1222C270.865 10.572 270.782 10.0864 270.616 9.66548C270.45 9.24455 270.205 8.91477 269.88 8.67614C269.555 8.4375 269.154 8.31818 268.677 8.31818C268.18 8.31818 267.766 8.44413 267.434 8.69602C267.106 8.94792 266.859 9.28598 266.693 9.71023C266.531 10.1345 266.45 10.6051 266.45 11.1222C266.45 11.6525 266.533 12.1214 266.698 12.5291C266.867 12.9335 267.116 13.2517 267.444 13.4837C267.776 13.7124 268.186 13.8267 268.677 13.8267Z" fill="#667085"/>
<circle cx="291" cy="10" r="4" fill="#53B1FD"/>
<path d="M305.466 4.81818V15H304.233V4.81818H305.466ZM308.952 10.4062V15H307.779V7.36364H308.912V8.55682H309.012C309.191 8.16903 309.463 7.85748 309.827 7.62216C310.192 7.38352 310.662 7.2642 311.239 7.2642C311.756 7.2642 312.209 7.37027 312.596 7.58239C312.984 7.79119 313.286 8.10938 313.501 8.53693C313.717 8.96117 313.824 9.49811 313.824 10.1477V15H312.651V10.2273C312.651 9.62737 312.495 9.16004 312.184 8.82528C311.872 8.48722 311.445 8.31818 310.901 8.31818C310.527 8.31818 310.192 8.39938 309.897 8.56179C309.605 8.72419 309.375 8.96117 309.206 9.27273C309.037 9.58428 308.952 9.96212 308.952 10.4062ZM318.852 15.1591C318.216 15.1591 317.654 14.9983 317.167 14.6768C316.679 14.352 316.298 13.8946 316.023 13.3047C315.748 12.7114 315.61 12.0104 315.61 11.2017C315.61 10.3996 315.748 9.7036 316.023 9.11364C316.298 8.52367 316.681 8.06794 317.172 7.74645C317.662 7.42495 318.229 7.2642 318.872 7.2642C319.369 7.2642 319.762 7.34706 320.05 7.51278C320.342 7.67519 320.564 7.8608 320.716 8.0696C320.872 8.27509 320.993 8.44413 321.079 8.5767H321.179V4.81818H322.352V15H321.218V13.8267H321.079C320.993 13.9659 320.87 14.1416 320.711 14.3537C320.552 14.5625 320.325 14.7498 320.03 14.9155C319.735 15.0779 319.342 15.1591 318.852 15.1591ZM319.011 14.1051C319.482 14.1051 319.879 13.9825 320.204 13.7372C320.529 13.4886 320.776 13.1456 320.945 12.7081C321.114 12.2673 321.199 11.7585 321.199 11.1818C321.199 10.6117 321.116 10.1129 320.95 9.68537C320.784 9.2545 320.539 8.91974 320.214 8.68111C319.889 8.43916 319.488 8.31818 319.011 8.31818C318.514 8.31818 318.1 8.44579 317.768 8.70099C317.44 8.95289 317.193 9.29593 317.027 9.73011C316.865 10.161 316.784 10.6449 316.784 11.1818C316.784 11.7254 316.867 12.2192 317.032 12.6634C317.201 13.1042 317.45 13.4555 317.778 13.7173C318.109 13.9759 318.52 14.1051 319.011 14.1051ZM329.476 11.8778V7.36364H330.65V15H329.476V13.7074H329.397C329.218 14.0952 328.939 14.425 328.561 14.6967C328.184 14.9652 327.706 15.0994 327.13 15.0994C326.652 15.0994 326.228 14.995 325.857 14.7862C325.486 14.5741 325.194 14.2559 324.982 13.8317C324.77 13.4041 324.664 12.8655 324.664 12.2159V7.36364H325.837V12.1364C325.837 12.6932 325.993 13.1373 326.304 13.4688C326.619 13.8002 327.02 13.9659 327.507 13.9659C327.799 13.9659 328.096 13.8913 328.397 13.7422C328.702 13.593 328.958 13.3643 329.163 13.0561C329.372 12.7479 329.476 12.3551 329.476 11.8778ZM338.208 9.07386L337.154 9.37216C337.087 9.1965 336.99 9.0258 336.86 8.86009C336.734 8.69105 336.562 8.55185 336.343 8.44247C336.124 8.3331 335.844 8.27841 335.503 8.27841C335.036 8.27841 334.646 8.38613 334.335 8.60156C334.026 8.81368 333.872 9.08381 333.872 9.41193C333.872 9.7036 333.978 9.93395 334.191 10.103C334.403 10.272 334.734 10.4129 335.185 10.5256L336.318 10.804C337.001 10.9697 337.51 11.2232 337.845 11.5646C338.179 11.9027 338.347 12.3385 338.347 12.8722C338.347 13.3097 338.221 13.7008 337.969 14.0455C337.72 14.3902 337.372 14.6619 336.925 14.8608C336.477 15.0597 335.957 15.1591 335.364 15.1591C334.585 15.1591 333.94 14.9901 333.43 14.652C332.919 14.3139 332.596 13.8201 332.46 13.1705L333.574 12.892C333.68 13.303 333.881 13.6113 334.176 13.8168C334.474 14.0223 334.863 14.125 335.344 14.125C335.891 14.125 336.325 14.009 336.646 13.777C336.971 13.5417 337.134 13.2599 337.134 12.9318C337.134 12.6667 337.041 12.4446 336.855 12.2656C336.67 12.0833 336.385 11.9474 336 11.858L334.727 11.5597C334.028 11.3939 333.514 11.1371 333.186 10.7891C332.861 10.4377 332.699 9.99858 332.699 9.47159C332.699 9.04072 332.82 8.65956 333.062 8.32812C333.307 7.99669 333.64 7.73651 334.061 7.54758C334.485 7.35866 334.966 7.2642 335.503 7.2642C336.259 7.2642 336.852 7.42992 337.283 7.76136C337.717 8.0928 338.025 8.5303 338.208 9.07386ZM343.434 7.36364V8.35795H339.477V7.36364H343.434ZM340.63 5.53409H341.803V12.8125C341.803 13.1439 341.851 13.3925 341.947 13.5582C342.047 13.7206 342.173 13.83 342.325 13.8864C342.481 13.9394 342.645 13.9659 342.817 13.9659C342.947 13.9659 343.053 13.9593 343.136 13.946C343.219 13.9295 343.285 13.9162 343.335 13.9062L343.573 14.9602C343.494 14.9901 343.383 15.0199 343.24 15.0497C343.098 15.0829 342.917 15.0994 342.698 15.0994C342.367 15.0994 342.042 15.0282 341.724 14.8857C341.409 14.7431 341.147 14.526 340.938 14.2344C340.733 13.9427 340.63 13.5748 340.63 13.1307V5.53409ZM345.199 15V7.36364H346.332V8.51705H346.412C346.551 8.1392 346.803 7.83262 347.168 7.5973C347.532 7.36198 347.943 7.24432 348.401 7.24432C348.487 7.24432 348.594 7.24597 348.724 7.24929C348.853 7.2526 348.951 7.25758 349.017 7.2642V8.45739C348.977 8.44744 348.886 8.43253 348.744 8.41264C348.604 8.38944 348.457 8.37784 348.301 8.37784C347.93 8.37784 347.598 8.45573 347.307 8.61151C347.018 8.76397 346.79 8.97609 346.621 9.24787C346.455 9.51634 346.372 9.82292 346.372 10.1676V15H345.199ZM351.396 17.8636C351.197 17.8636 351.02 17.8471 350.864 17.8139C350.708 17.7841 350.6 17.7543 350.541 17.7244L350.839 16.6903C351.124 16.7633 351.376 16.7898 351.595 16.7699C351.814 16.75 352.007 16.6522 352.176 16.4766C352.349 16.3042 352.506 16.0241 352.649 15.6364L352.868 15.0398L350.044 7.36364H351.316L353.424 13.4489H353.504L355.612 7.36364H356.885L353.643 16.1136C353.497 16.508 353.317 16.8345 353.101 17.093C352.886 17.3549 352.636 17.5488 352.35 17.6747C352.069 17.8007 351.751 17.8636 351.396 17.8636ZM362.947 15H361.655L365.393 4.81818H366.666L370.405 15H369.112L366.07 6.42898H365.99L362.947 15ZM363.425 11.0227H368.635V12.1165H363.425V11.0227ZM377.119 7.36364L374.295 15H373.102L370.278 7.36364H371.551L373.659 13.4489H373.738L375.846 7.36364H377.119ZM381.596 15.1591C380.86 15.1591 380.225 14.9967 379.692 14.6719C379.161 14.3438 378.752 13.8864 378.464 13.2997C378.179 12.7098 378.036 12.0237 378.036 11.2415C378.036 10.4593 378.179 9.76989 378.464 9.1733C378.752 8.57339 379.153 8.10606 379.667 7.77131C380.184 7.43324 380.787 7.2642 381.477 7.2642C381.874 7.2642 382.267 7.33049 382.655 7.46307C383.043 7.59564 383.396 7.81108 383.714 8.10938C384.032 8.40436 384.286 8.79545 384.474 9.28267C384.663 9.76989 384.758 10.3698 384.758 11.0824V11.5795H378.871V10.5653H383.565C383.565 10.1345 383.478 9.75 383.306 9.41193C383.137 9.07386 382.895 8.80705 382.58 8.61151C382.269 8.41596 381.901 8.31818 381.477 8.31818C381.009 8.31818 380.605 8.43419 380.263 8.66619C379.925 8.89489 379.665 9.19318 379.483 9.56108C379.301 9.92898 379.21 10.3234 379.21 10.7443V11.4205C379.21 11.9972 379.309 12.486 379.508 12.8871C379.71 13.2848 379.99 13.5881 380.348 13.7969C380.706 14.0024 381.122 14.1051 381.596 14.1051C381.904 14.1051 382.183 14.062 382.431 13.9759C382.683 13.8864 382.9 13.7538 383.082 13.5781C383.265 13.3991 383.406 13.1771 383.505 12.9119L384.638 13.2301C384.519 13.6146 384.319 13.9527 384.037 14.2443C383.755 14.5327 383.407 14.758 382.993 14.9205C382.579 15.0795 382.113 15.1591 381.596 15.1591ZM386.543 15V7.36364H387.676V8.51705H387.756C387.895 8.1392 388.147 7.83262 388.511 7.5973C388.876 7.36198 389.287 7.24432 389.744 7.24432C389.83 7.24432 389.938 7.24597 390.067 7.24929C390.197 7.2526 390.295 7.25758 390.361 7.2642V8.45739C390.321 8.44744 390.23 8.43253 390.087 8.41264C389.948 8.38944 389.801 8.37784 389.645 8.37784C389.274 8.37784 388.942 8.45573 388.651 8.61151C388.362 8.76397 388.134 8.97609 387.964 9.24787C387.799 9.51634 387.716 9.82292 387.716 10.1676V15H386.543ZM393.999 15.179C393.515 15.179 393.076 15.0878 392.681 14.9055C392.287 14.7199 391.974 14.4531 391.742 14.1051C391.51 13.7538 391.394 13.3295 391.394 12.8324C391.394 12.3949 391.48 12.0402 391.652 11.7685C391.825 11.4934 392.055 11.2779 392.343 11.1222C392.632 10.9664 392.95 10.8504 393.298 10.7741C393.649 10.6946 394.002 10.6316 394.357 10.5852C394.821 10.5256 395.197 10.4808 395.485 10.451C395.777 10.4179 395.989 10.3632 396.122 10.2869C396.258 10.2107 396.325 10.0781 396.325 9.8892V9.84943C396.325 9.3589 396.191 8.97775 395.923 8.70597C395.658 8.43419 395.255 8.2983 394.715 8.2983C394.155 8.2983 393.715 8.42093 393.397 8.66619C393.079 8.91146 392.855 9.1733 392.726 9.4517L391.612 9.05398C391.811 8.58996 392.076 8.22869 392.408 7.97017C392.743 7.70833 393.107 7.52604 393.502 7.4233C393.899 7.31723 394.29 7.2642 394.675 7.2642C394.92 7.2642 395.202 7.29403 395.52 7.35369C395.842 7.41004 396.151 7.5277 396.45 7.70668C396.751 7.88565 397.002 8.15578 397.2 8.51705C397.399 8.87831 397.499 9.36222 397.499 9.96875V15H396.325V13.9659H396.266C396.186 14.1316 396.054 14.3089 395.868 14.4979C395.682 14.6868 395.436 14.8475 395.127 14.9801C394.819 15.1127 394.443 15.179 393.999 15.179ZM394.178 14.125C394.642 14.125 395.033 14.0339 395.351 13.8516C395.673 13.6693 395.914 13.4339 396.077 13.1456C396.243 12.8572 396.325 12.554 396.325 12.2358V11.1619C396.276 11.2216 396.166 11.2763 395.997 11.326C395.832 11.3724 395.639 11.4138 395.421 11.4503C395.205 11.4834 394.995 11.5133 394.789 11.5398C394.587 11.563 394.423 11.5829 394.297 11.5994C393.992 11.6392 393.707 11.7038 393.442 11.7933C393.18 11.8795 392.968 12.0104 392.806 12.1861C392.646 12.3584 392.567 12.5937 392.567 12.892C392.567 13.2997 392.718 13.608 393.019 13.8168C393.324 14.0223 393.71 14.125 394.178 14.125ZM402.723 18.0227C402.156 18.0227 401.669 17.9498 401.261 17.804C400.853 17.6615 400.514 17.4725 400.242 17.2372C399.973 17.0052 399.76 16.7566 399.6 16.4915L400.535 15.8352C400.641 15.9744 400.775 16.1335 400.938 16.3125C401.1 16.4948 401.322 16.6522 401.604 16.7848C401.889 16.9207 402.262 16.9886 402.723 16.9886C403.339 16.9886 403.848 16.8395 404.249 16.5412C404.65 16.2429 404.85 15.7756 404.85 15.1392V13.5881H404.751C404.665 13.7273 404.542 13.8996 404.383 14.1051C404.227 14.3073 404.002 14.4879 403.707 14.647C403.415 14.8028 403.021 14.8807 402.524 14.8807C401.907 14.8807 401.354 14.7348 400.863 14.4432C400.376 14.1515 399.99 13.7273 399.705 13.1705C399.423 12.6136 399.282 11.9375 399.282 11.142C399.282 10.3598 399.42 9.67874 399.695 9.09872C399.97 8.51539 400.353 8.06463 400.843 7.74645C401.334 7.42495 401.901 7.2642 402.544 7.2642C403.041 7.2642 403.435 7.34706 403.727 7.51278C404.022 7.67519 404.247 7.8608 404.403 8.0696C404.562 8.27509 404.685 8.44413 404.771 8.5767H404.89V7.36364H406.024V15.2188C406.024 15.875 405.875 16.4086 405.576 16.8196C405.281 17.2339 404.884 17.5372 404.383 17.7294C403.886 17.925 403.333 18.0227 402.723 18.0227ZM402.683 13.8267C403.154 13.8267 403.551 13.719 403.876 13.5036C404.201 13.2881 404.448 12.9782 404.617 12.5739C404.786 12.1695 404.87 11.6856 404.87 11.1222C404.87 10.572 404.788 10.0864 404.622 9.66548C404.456 9.24455 404.211 8.91477 403.886 8.67614C403.561 8.4375 403.16 8.31818 402.683 8.31818C402.186 8.31818 401.771 8.44413 401.44 8.69602C401.112 8.94792 400.865 9.28598 400.699 9.71023C400.537 10.1345 400.456 10.6051 400.456 11.1222C400.456 11.6525 400.538 12.1214 400.704 12.5291C400.873 12.9335 401.122 13.2517 401.45 13.4837C401.781 13.7124 402.192 13.8267 402.683 13.8267ZM411.373 15.1591C410.637 15.1591 410.003 14.9967 409.469 14.6719C408.939 14.3438 408.529 13.8864 408.241 13.2997C407.956 12.7098 407.814 12.0237 407.814 11.2415C407.814 10.4593 407.956 9.76989 408.241 9.1733C408.529 8.57339 408.931 8.10606 409.444 7.77131C409.961 7.43324 410.565 7.2642 411.254 7.2642C411.652 7.2642 412.044 7.33049 412.432 7.46307C412.82 7.59564 413.173 7.81108 413.491 8.10938C413.809 8.40436 414.063 8.79545 414.252 9.28267C414.441 9.76989 414.535 10.3698 414.535 11.0824V11.5795H408.649V10.5653H413.342C413.342 10.1345 413.256 9.75 413.083 9.41193C412.914 9.07386 412.672 8.80705 412.358 8.61151C412.046 8.41596 411.678 8.31818 411.254 8.31818C410.787 8.31818 410.382 8.43419 410.041 8.66619C409.703 8.89489 409.443 9.19318 409.26 9.56108C409.078 9.92898 408.987 10.3234 408.987 10.7443V11.4205C408.987 11.9972 409.086 12.486 409.285 12.8871C409.487 13.2848 409.767 13.5881 410.125 13.7969C410.483 14.0024 410.899 14.1051 411.373 14.1051C411.681 14.1051 411.96 14.062 412.208 13.9759C412.46 13.8864 412.677 13.7538 412.86 13.5781C413.042 13.3991 413.183 13.1771 413.282 12.9119L414.416 13.2301C414.297 13.6146 414.096 13.9527 413.814 14.2443C413.533 14.5327 413.185 14.758 412.77 14.9205C412.356 15.0795 411.89 15.1591 411.373 15.1591Z" fill="#667085"/>
<path d="M37.3935 26.2727V35H36.3366V27.3807H36.2855L34.1548 28.7955V27.7216L36.3366 26.2727H37.3935ZM42.75 35.1193C42.108 35.1193 41.5611 34.9446 41.1094 34.5952C40.6577 34.2429 40.3125 33.733 40.0739 33.0653C39.8352 32.3949 39.7159 31.5852 39.7159 30.6364C39.7159 29.6932 39.8352 28.8878 40.0739 28.2202C40.3153 27.5497 40.6619 27.0384 41.1136 26.6861C41.5682 26.331 42.1136 26.1534 42.75 26.1534C43.3864 26.1534 43.9304 26.331 44.3821 26.6861C44.8366 27.0384 45.1832 27.5497 45.4219 28.2202C45.6634 28.8878 45.7841 29.6932 45.7841 30.6364C45.7841 31.5852 45.6648 32.3949 45.4261 33.0653C45.1875 33.733 44.8423 34.2429 44.3906 34.5952C43.9389 34.9446 43.392 35.1193 42.75 35.1193ZM42.75 34.1818C43.3864 34.1818 43.8807 33.875 44.233 33.2614C44.5852 32.6477 44.7614 31.7727 44.7614 30.6364C44.7614 29.8807 44.6804 29.2372 44.5185 28.706C44.3594 28.1747 44.1293 27.7699 43.8281 27.4915C43.5298 27.2131 43.1705 27.0739 42.75 27.0739C42.1193 27.0739 41.6264 27.3849 41.2713 28.0071C40.9162 28.6264 40.7386 29.5028 40.7386 30.6364C40.7386 31.392 40.8182 32.0341 40.9773 32.5625C41.1364 33.0909 41.3651 33.4929 41.6634 33.7685C41.9645 34.044 42.3267 34.1818 42.75 34.1818ZM50.25 35.1193C49.608 35.1193 49.0611 34.9446 48.6094 34.5952C48.1577 34.2429 47.8125 33.733 47.5739 33.0653C47.3352 32.3949 47.2159 31.5852 47.2159 30.6364C47.2159 29.6932 47.3352 28.8878 47.5739 28.2202C47.8153 27.5497 48.1619 27.0384 48.6136 26.6861C49.0682 26.331 49.6136 26.1534 50.25 26.1534C50.8864 26.1534 51.4304 26.331 51.8821 26.6861C52.3366 27.0384 52.6832 27.5497 52.9219 28.2202C53.1634 28.8878 53.2841 29.6932 53.2841 30.6364C53.2841 31.5852 53.1648 32.3949 52.9261 33.0653C52.6875 33.733 52.3423 34.2429 51.8906 34.5952C51.4389 34.9446 50.892 35.1193 50.25 35.1193ZM50.25 34.1818C50.8864 34.1818 51.3807 33.875 51.733 33.2614C52.0852 32.6477 52.2614 31.7727 52.2614 30.6364C52.2614 29.8807 52.1804 29.2372 52.0185 28.706C51.8594 28.1747 51.6293 27.7699 51.3281 27.4915C51.0298 27.2131 50.6705 27.0739 50.25 27.0739C49.6193 27.0739 49.1264 27.3849 48.7713 28.0071C48.4162 28.6264 48.2386 29.5028 48.2386 30.6364C48.2386 31.392 48.3182 32.0341 48.4773 32.5625C48.6364 33.0909 48.8651 33.4929 49.1634 33.7685C49.4645 34.044 49.8267 34.1818 50.25 34.1818Z" fill="#667085"/>
<line x1="62.5" y1="31" x2="415.5" y2="31" stroke="#F2F4F7" stroke-linecap="round"/>
<path d="M42.8043 66.2189C42.2191 66.2189 41.7021 66.1152 41.2532 65.9078C40.8072 65.6976 40.4592 65.4093 40.2092 65.0428C39.9592 64.6735 39.8356 64.253 39.8384 63.7814C39.8356 63.4121 39.908 63.0712 40.0558 62.7587C40.2035 62.4434 40.4052 62.1806 40.6609 61.9703C40.9194 61.7573 41.2077 61.6223 41.5259 61.5655V61.5144C41.1083 61.4064 40.7759 61.1721 40.5288 60.8113C40.2816 60.4476 40.1594 60.0343 40.1623 59.5712C40.1594 59.128 40.2717 58.7317 40.4989 58.3823C40.7262 58.0328 41.0387 57.7573 41.4364 57.5556C41.837 57.3539 42.293 57.253 42.8043 57.253C43.31 57.253 43.7617 57.3539 44.1594 57.5556C44.5572 57.7573 44.8697 58.0328 45.0969 58.3823C45.3271 58.7317 45.4435 59.128 45.4464 59.5712C45.4435 60.0343 45.3171 60.4476 45.0671 60.8113C44.82 61.1721 44.4918 61.4064 44.0827 61.5144V61.5655C44.3981 61.6223 44.6822 61.7573 44.935 61.9703C45.1879 62.1806 45.3896 62.4434 45.5401 62.7587C45.6907 63.0712 45.7674 63.4121 45.7702 63.7814C45.7674 64.253 45.6396 64.6735 45.3867 65.0428C45.1367 65.4093 44.7887 65.6976 44.3427 65.9078C43.8995 66.1152 43.3867 66.2189 42.8043 66.2189ZM42.8043 65.2814C43.1992 65.2814 43.5401 65.2175 43.8271 65.0897C44.114 64.9618 44.3356 64.7814 44.4918 64.5485C44.6481 64.3155 44.7276 64.0428 44.7305 63.7303C44.7276 63.4007 44.6424 63.1096 44.4748 62.8567C44.3072 62.6039 44.0785 62.405 43.7887 62.2601C43.5018 62.1152 43.1737 62.0428 42.8043 62.0428C42.4322 62.0428 42.0998 62.1152 41.8072 62.2601C41.5174 62.405 41.2887 62.6039 41.1211 62.8567C40.9563 63.1096 40.8754 63.4007 40.8782 63.7303C40.8754 64.0428 40.9506 64.3155 41.104 64.5485C41.2603 64.7814 41.4833 64.9618 41.7731 65.0897C42.0629 65.2175 42.4066 65.2814 42.8043 65.2814ZM42.8043 61.1394C43.1168 61.1394 43.3938 61.0769 43.6353 60.9519C43.8796 60.8269 44.0714 60.6522 44.2106 60.4277C44.3498 60.2033 44.4208 59.9405 44.4237 59.6394C44.4208 59.3439 44.3512 59.0868 44.2148 58.8681C44.0785 58.6465 43.8896 58.476 43.6481 58.3567C43.4066 58.2346 43.1254 58.1735 42.8043 58.1735C42.4776 58.1735 42.1921 58.2346 41.9478 58.3567C41.7035 58.476 41.5146 58.6465 41.381 58.8681C41.2475 59.0868 41.1822 59.3439 41.185 59.6394C41.1822 59.9405 41.2489 60.2033 41.3853 60.4277C41.5245 60.6522 41.7163 60.8269 41.9606 60.9519C42.2049 61.0769 42.4862 61.1394 42.8043 61.1394ZM50.25 66.2189C49.608 66.2189 49.0611 66.0442 48.6094 65.6948C48.1577 65.3425 47.8125 64.8326 47.5739 64.165C47.3352 63.4945 47.2159 62.6848 47.2159 61.736C47.2159 60.7928 47.3352 59.9874 47.5739 59.3198C47.8153 58.6493 48.1619 58.138 48.6136 57.7857C49.0682 57.4306 49.6136 57.253 50.25 57.253C50.8864 57.253 51.4304 57.4306 51.8821 57.7857C52.3366 58.138 52.6832 58.6493 52.9219 59.3198C53.1634 59.9874 53.2841 60.7928 53.2841 61.736C53.2841 62.6848 53.1648 63.4945 52.9261 64.165C52.6875 64.8326 52.3423 65.3425 51.8906 65.6948C51.4389 66.0442 50.892 66.2189 50.25 66.2189ZM50.25 65.2814C50.8864 65.2814 51.3807 64.9746 51.733 64.361C52.0852 63.7473 52.2614 62.8723 52.2614 61.736C52.2614 60.9803 52.1804 60.3368 52.0185 59.8056C51.8594 59.2743 51.6293 58.8695 51.3281 58.5911C51.0298 58.3127 50.6705 58.1735 50.25 58.1735C49.6193 58.1735 49.1264 58.4846 48.7713 59.1067C48.4162 59.726 48.2386 60.6024 48.2386 61.736C48.2386 62.4917 48.3182 63.1337 48.4773 63.6621C48.6364 64.1905 48.8651 64.5925 49.1634 64.8681C49.4645 65.1436 49.8267 65.2814 50.25 65.2814Z" fill="#667085"/>
<line x1="62.5" y1="62.0996" x2="415.5" y2="62.0996" stroke="#F2F4F7" stroke-linecap="round"/>
<path d="M42.8129 94.8195C42.4549 94.8138 42.0969 94.7456 41.739 94.615C41.381 94.4843 41.0543 94.2641 40.7589 93.9545C40.4634 93.642 40.2262 93.2201 40.0472 92.6888C39.8683 92.1547 39.7788 91.4843 39.7788 90.6775C39.7788 89.9047 39.8512 89.2201 39.9961 88.6235C40.141 88.0241 40.3512 87.5198 40.6268 87.1107C40.9023 86.6988 41.2347 86.3863 41.6239 86.1732C42.016 85.9601 42.4577 85.8536 42.9492 85.8536C43.4379 85.8536 43.8725 85.9516 44.2532 86.1476C44.6367 86.3408 44.9492 86.6107 45.1907 86.9573C45.4322 87.3039 45.5884 87.703 45.6594 88.1547H44.6197C44.5231 87.7627 44.3356 87.4374 44.0572 87.1789C43.7788 86.9204 43.4094 86.7911 42.9492 86.7911C42.2731 86.7911 41.7404 87.0851 41.3512 87.6732C40.9648 88.2613 40.7702 89.0866 40.7674 90.1491H40.8356C40.9947 89.9076 41.1836 89.7016 41.4023 89.5312C41.6239 89.3579 41.8683 89.2243 42.1353 89.1306C42.4023 89.0368 42.685 88.99 42.9833 88.99C43.4833 88.99 43.9407 89.115 44.3555 89.365C44.7702 89.6121 45.1026 89.9545 45.3526 90.392C45.6026 90.8266 45.7276 91.3252 45.7276 91.8877C45.7276 92.4275 45.6069 92.9218 45.3654 93.3706C45.1239 93.8167 44.7844 94.1718 44.3469 94.436C43.9123 94.6974 43.4009 94.8252 42.8129 94.8195ZM42.8129 93.882C43.1708 93.882 43.4918 93.7925 43.7759 93.6135C44.0629 93.4346 44.2887 93.1945 44.4535 92.8934C44.6211 92.5922 44.7049 92.257 44.7049 91.8877C44.7049 91.5269 44.6239 91.1988 44.462 90.9033C44.3029 90.605 44.0827 90.3678 43.8015 90.1917C43.5231 90.0155 43.2049 89.9275 42.8469 89.9275C42.5771 89.9275 42.3256 89.9814 42.0927 90.0894C41.8597 90.1945 41.6552 90.3394 41.479 90.5241C41.3058 90.7087 41.1694 90.9204 41.07 91.159C40.9705 91.3948 40.9208 91.6434 40.9208 91.9047C40.9208 92.2513 41.0018 92.5752 41.1637 92.8763C41.3285 93.1775 41.5529 93.4204 41.837 93.605C42.1239 93.7897 42.4492 93.882 42.8129 93.882ZM50.25 94.8195C49.608 94.8195 49.0611 94.6448 48.6094 94.2954C48.1577 93.9431 47.8125 93.4331 47.5739 92.7655C47.3352 92.0951 47.2159 91.2854 47.2159 90.3366C47.2159 89.3934 47.3352 88.588 47.5739 87.9204C47.8153 87.2499 48.1619 86.7385 48.6136 86.3863C49.0682 86.0312 49.6136 85.8536 50.25 85.8536C50.8864 85.8536 51.4304 86.0312 51.8821 86.3863C52.3366 86.7385 52.6832 87.2499 52.9219 87.9204C53.1634 88.588 53.2841 89.3934 53.2841 90.3366C53.2841 91.2854 53.1648 92.0951 52.9261 92.7655C52.6875 93.4331 52.3423 93.9431 51.8906 94.2954C51.4389 94.6448 50.892 94.8195 50.25 94.8195ZM50.25 93.882C50.8864 93.882 51.3807 93.5752 51.733 92.9616C52.0852 92.3479 52.2614 91.4729 52.2614 90.3366C52.2614 89.5809 52.1804 88.9374 52.0185 88.4062C51.8594 87.8749 51.6293 87.4701 51.3281 87.1917C51.0298 86.9133 50.6705 86.7741 50.25 86.7741C49.6193 86.7741 49.1264 87.0851 48.7713 87.7073C48.4162 88.3266 48.2386 89.203 48.2386 90.3366C48.2386 91.0922 48.3182 91.7343 48.4773 92.2627C48.6364 92.7911 48.8651 93.1931 49.1634 93.4687C49.4645 93.7442 49.8267 93.882 50.25 93.882Z" fill="#667085"/>
<line x1="62.5" y1="90.7002" x2="415.5" y2="90.7002" stroke="#F2F4F7" stroke-linecap="round"/>
<path d="M39.4996 121.51V120.641L43.3349 114.573H43.9656V115.919H43.5394L40.6417 120.504V120.573H45.8065V121.51H39.4996ZM43.6076 123.3V121.246V120.841V114.573H44.6133V123.3H43.6076ZM50.25 123.419C49.608 123.419 49.0611 123.244 48.6094 122.895C48.1577 122.543 47.8125 122.033 47.5739 121.365C47.3352 120.695 47.2159 119.885 47.2159 118.936C47.2159 117.993 47.3352 117.188 47.5739 116.52C47.8153 115.85 48.1619 115.338 48.6136 114.986C49.0682 114.631 49.6136 114.453 50.25 114.453C50.8864 114.453 51.4304 114.631 51.8821 114.986C52.3366 115.338 52.6832 115.85 52.9219 116.52C53.1634 117.188 53.2841 117.993 53.2841 118.936C53.2841 119.885 53.1648 120.695 52.9261 121.365C52.6875 122.033 52.3423 122.543 51.8906 122.895C51.4389 123.244 50.892 123.419 50.25 123.419ZM50.25 122.482C50.8864 122.482 51.3807 122.175 51.733 121.561C52.0852 120.948 52.2614 120.073 52.2614 118.936C52.2614 118.18 52.1804 117.537 52.0185 117.006C51.8594 116.475 51.6293 116.07 51.3281 115.791C51.0298 115.513 50.6705 115.374 50.25 115.374C49.6193 115.374 49.1264 115.685 48.7713 116.307C48.4162 116.926 48.2386 117.803 48.2386 118.936C48.2386 119.692 48.3182 120.334 48.4773 120.862C48.6364 121.391 48.8651 121.793 49.1634 122.068C49.4645 122.344 49.8267 122.482 50.25 122.482Z" fill="#667085"/>
<line x1="62.5" y1="119.3" x2="415.5" y2="119.3" stroke="#F2F4F7" stroke-linecap="round"/>
<path d="M40.1378 151.9V151.133L43.0185 147.98C43.3565 147.611 43.6349 147.29 43.8537 147.017C44.0724 146.741 44.2344 146.483 44.3395 146.241C44.4474 145.997 44.5014 145.741 44.5014 145.474C44.5014 145.167 44.4276 144.902 44.2798 144.677C44.1349 144.453 43.9361 144.28 43.6832 144.157C43.4304 144.035 43.1463 143.974 42.831 143.974C42.4957 143.974 42.2031 144.044 41.9531 144.183C41.706 144.319 41.5142 144.511 41.3778 144.758C41.2443 145.006 41.1776 145.295 41.1776 145.628H40.1719C40.1719 145.116 40.2898 144.667 40.5256 144.281C40.7614 143.895 41.0824 143.594 41.4886 143.378C41.8977 143.162 42.3565 143.054 42.8651 143.054C43.3764 143.054 43.8295 143.162 44.2244 143.378C44.6193 143.594 44.929 143.885 45.1534 144.251C45.3778 144.618 45.4901 145.025 45.4901 145.474C45.4901 145.795 45.4318 146.109 45.3153 146.416C45.2017 146.72 45.0028 147.059 44.7188 147.434C44.4375 147.807 44.0469 148.261 43.5469 148.798L41.5866 150.895V150.963H45.6435V151.9H40.1378ZM50.25 152.02C49.608 152.02 49.0611 151.845 48.6094 151.496C48.1577 151.143 47.8125 150.633 47.5739 149.966C47.3352 149.295 47.2159 148.486 47.2159 147.537C47.2159 146.594 47.3352 145.788 47.5739 145.121C47.8153 144.45 48.1619 143.939 48.6136 143.586C49.0682 143.231 49.6136 143.054 50.25 143.054C50.8864 143.054 51.4304 143.231 51.8821 143.586C52.3366 143.939 52.6832 144.45 52.9219 145.121C53.1634 145.788 53.2841 146.594 53.2841 147.537C53.2841 148.486 53.1648 149.295 52.9261 149.966C52.6875 150.633 52.3423 151.143 51.8906 151.496C51.4389 151.845 50.892 152.02 50.25 152.02ZM50.25 151.082C50.8864 151.082 51.3807 150.775 51.733 150.162C52.0852 149.548 52.2614 148.673 52.2614 147.537C52.2614 146.781 52.1804 146.138 52.0185 145.606C51.8594 145.075 51.6293 144.67 51.3281 144.392C51.0298 144.113 50.6705 143.974 50.25 143.974C49.6193 143.974 49.1264 144.285 48.7713 144.907C48.4162 145.527 48.2386 146.403 48.2386 147.537C48.2386 148.292 48.3182 148.934 48.4773 149.463C48.6364 149.991 48.8651 150.393 49.1634 150.669C49.4645 150.944 49.8267 151.082 50.25 151.082Z" fill="#667085"/>
<line x1="62.5" y1="147.9" x2="415.5" y2="147.9" stroke="#F2F4F7" stroke-linecap="round"/>
<path d="M50.25 180.619C49.608 180.619 49.0611 180.445 48.6094 180.095C48.1577 179.743 47.8125 179.233 47.5739 178.565C47.3352 177.895 47.2159 177.085 47.2159 176.136C47.2159 175.193 47.3352 174.388 47.5739 173.72C47.8153 173.05 48.1619 172.538 48.6136 172.186C49.0682 171.831 49.6136 171.653 50.25 171.653C50.8864 171.653 51.4304 171.831 51.8821 172.186C52.3366 172.538 52.6832 173.05 52.9219 173.72C53.1634 174.388 53.2841 175.193 53.2841 176.136C53.2841 177.085 53.1648 177.895 52.9261 178.565C52.6875 179.233 52.3423 179.743 51.8906 180.095C51.4389 180.445 50.892 180.619 50.25 180.619ZM50.25 179.682C50.8864 179.682 51.3807 179.375 51.733 178.761C52.0852 178.148 52.2614 177.273 52.2614 176.136C52.2614 175.381 52.1804 174.737 52.0185 174.206C51.8594 173.675 51.6293 173.27 51.3281 172.991C51.0298 172.713 50.6705 172.574 50.25 172.574C49.6193 172.574 49.1264 172.885 48.7713 173.507C48.4162 174.126 48.2386 175.003 48.2386 176.136C48.2386 176.892 48.3182 177.534 48.4773 178.062C48.6364 178.591 48.8651 178.993 49.1634 179.268C49.4645 179.544 49.8267 179.682 50.25 179.682Z" fill="#667085"/>
<line x1="62.5" y1="176.5" x2="415.5" y2="176.5" stroke="#F2F4F7" stroke-linecap="round"/>
<path d="M90.7493 189.273H91.8061V195.511C91.8061 196.068 91.7038 196.541 91.4993 196.93C91.2947 197.32 91.0064 197.615 90.6342 197.817C90.2621 198.018 89.8232 198.119 89.3175 198.119C88.8402 198.119 88.4155 198.033 88.0433 197.859C87.6712 197.683 87.3786 197.433 87.1655 197.109C86.9524 196.786 86.8459 196.401 86.8459 195.955H87.8857C87.8857 196.202 87.9467 196.418 88.0689 196.602C88.1939 196.784 88.3643 196.926 88.5803 197.028C88.7962 197.131 89.0419 197.182 89.3175 197.182C89.6214 197.182 89.88 197.118 90.093 196.99C90.3061 196.862 90.468 196.675 90.5788 196.428C90.6925 196.178 90.7493 195.872 90.7493 195.511V189.273ZM95.7138 198.153C95.299 198.153 94.9226 198.075 94.5845 197.919C94.2464 197.76 93.978 197.531 93.7791 197.233C93.5803 196.932 93.4808 196.568 93.4808 196.142C93.4808 195.767 93.5547 195.463 93.7024 195.23C93.8501 194.994 94.0476 194.81 94.2947 194.676C94.5419 194.543 94.8146 194.443 95.1129 194.378C95.4141 194.31 95.7166 194.256 96.0206 194.216C96.4183 194.165 96.7408 194.126 96.9879 194.101C97.2379 194.072 97.4197 194.026 97.5334 193.96C97.6499 193.895 97.7081 193.781 97.7081 193.619V193.585C97.7081 193.165 97.593 192.838 97.3629 192.605C97.1357 192.372 96.7905 192.256 96.3274 192.256C95.8473 192.256 95.4709 192.361 95.1982 192.571C94.9254 192.781 94.7337 193.006 94.6229 193.244L93.6683 192.903C93.8388 192.506 94.0661 192.196 94.3501 191.974C94.6371 191.75 94.9496 191.594 95.2876 191.506C95.6286 191.415 95.9638 191.369 96.2933 191.369C96.5036 191.369 96.745 191.395 97.0178 191.446C97.2933 191.494 97.5589 191.595 97.8146 191.749C98.0732 191.902 98.2876 192.134 98.4581 192.443C98.6286 192.753 98.7138 193.168 98.7138 193.688V198H97.7081V197.114H97.657C97.5888 197.256 97.4751 197.408 97.3161 197.57C97.157 197.732 96.9453 197.869 96.6811 197.983C96.4169 198.097 96.0945 198.153 95.7138 198.153ZM95.8672 197.25C96.2649 197.25 96.6001 197.172 96.8729 197.016C97.1484 196.859 97.3558 196.658 97.495 196.411C97.6371 196.163 97.7081 195.903 97.7081 195.631V194.71C97.6655 194.761 97.5717 194.808 97.4268 194.851C97.2848 194.891 97.12 194.926 96.9325 194.957C96.7479 194.986 96.5675 195.011 96.3913 195.034C96.218 195.054 96.0774 195.071 95.9695 195.085C95.7081 195.119 95.4638 195.175 95.2365 195.251C95.0121 195.325 94.8303 195.437 94.6911 195.588C94.5547 195.736 94.4865 195.937 94.4865 196.193C94.4865 196.543 94.6158 196.807 94.8743 196.986C95.1357 197.162 95.4666 197.25 95.8672 197.25ZM101.555 194.062V198H100.549V191.455H101.521V192.477H101.606C101.76 192.145 101.993 191.878 102.305 191.676C102.618 191.472 103.021 191.369 103.515 191.369C103.958 191.369 104.346 191.46 104.679 191.642C105.011 191.821 105.27 192.094 105.454 192.46C105.639 192.824 105.731 193.284 105.731 193.841V198H104.725V193.909C104.725 193.395 104.592 192.994 104.325 192.707C104.058 192.418 103.691 192.273 103.225 192.273C102.904 192.273 102.618 192.342 102.365 192.482C102.115 192.621 101.917 192.824 101.772 193.091C101.627 193.358 101.555 193.682 101.555 194.062Z" fill="#667085"/>
<path d="M112.42 198V189.273H117.653V190.21H113.477V193.159H117.261V194.097H113.477V198H112.42ZM121.591 198.136C120.96 198.136 120.416 197.997 119.958 197.719C119.504 197.438 119.153 197.045 118.906 196.543C118.662 196.037 118.539 195.449 118.539 194.778C118.539 194.108 118.662 193.517 118.906 193.006C119.153 192.491 119.497 192.091 119.937 191.804C120.38 191.514 120.897 191.369 121.488 191.369C121.829 191.369 122.166 191.426 122.498 191.54C122.831 191.653 123.133 191.838 123.406 192.094C123.679 192.347 123.896 192.682 124.058 193.099C124.22 193.517 124.301 194.031 124.301 194.642V195.068H119.255V194.199H123.278C123.278 193.83 123.204 193.5 123.056 193.21C122.912 192.92 122.704 192.692 122.434 192.524C122.167 192.357 121.852 192.273 121.488 192.273C121.088 192.273 120.741 192.372 120.449 192.571C120.159 192.767 119.936 193.023 119.779 193.338C119.623 193.653 119.545 193.991 119.545 194.352V194.932C119.545 195.426 119.63 195.845 119.801 196.189C119.974 196.53 120.214 196.79 120.521 196.969C120.828 197.145 121.184 197.233 121.591 197.233C121.855 197.233 122.093 197.196 122.306 197.122C122.522 197.045 122.708 196.932 122.865 196.781C123.021 196.628 123.142 196.437 123.227 196.21L124.199 196.483C124.096 196.812 123.924 197.102 123.683 197.352C123.441 197.599 123.143 197.793 122.788 197.932C122.433 198.068 122.034 198.136 121.591 198.136ZM125.967 198V189.273H126.973V192.494H127.058C127.132 192.381 127.234 192.236 127.365 192.06C127.498 191.881 127.689 191.722 127.936 191.582C128.186 191.44 128.524 191.369 128.95 191.369C129.501 191.369 129.987 191.507 130.407 191.783C130.828 192.058 131.156 192.449 131.392 192.955C131.627 193.46 131.745 194.057 131.745 194.744C131.745 195.438 131.627 196.038 131.392 196.547C131.156 197.053 130.829 197.445 130.412 197.723C129.994 197.999 129.512 198.136 128.967 198.136C128.547 198.136 128.21 198.067 127.957 197.928C127.704 197.786 127.51 197.625 127.373 197.446C127.237 197.264 127.132 197.114 127.058 196.994H126.939V198H125.967ZM126.956 194.727C126.956 195.222 127.028 195.658 127.173 196.036C127.318 196.411 127.529 196.705 127.808 196.918C128.086 197.128 128.427 197.233 128.831 197.233C129.251 197.233 129.602 197.122 129.883 196.901C130.167 196.676 130.38 196.375 130.522 195.997C130.667 195.616 130.74 195.193 130.74 194.727C130.74 194.267 130.669 193.852 130.527 193.483C130.387 193.111 130.176 192.817 129.892 192.601C129.61 192.382 129.257 192.273 128.831 192.273C128.422 192.273 128.078 192.376 127.799 192.584C127.521 192.788 127.311 193.075 127.169 193.445C127.027 193.811 126.956 194.239 126.956 194.727Z" fill="#667085"/>
<path d="M137.832 189.273H139.094L142.059 196.517H142.162L145.128 189.273H146.389V198H145.4V191.369H145.315L142.588 198H141.633L138.906 191.369H138.821V198H137.832V189.273ZM150.298 198.153C149.883 198.153 149.507 198.075 149.169 197.919C148.83 197.76 148.562 197.531 148.363 197.233C148.164 196.932 148.065 196.568 148.065 196.142C148.065 195.767 148.139 195.463 148.286 195.23C148.434 194.994 148.632 194.81 148.879 194.676C149.126 194.543 149.399 194.443 149.697 194.378C149.998 194.31 150.301 194.256 150.605 194.216C151.002 194.165 151.325 194.126 151.572 194.101C151.822 194.072 152.004 194.026 152.117 193.96C152.234 193.895 152.292 193.781 152.292 193.619V193.585C152.292 193.165 152.177 192.838 151.947 192.605C151.72 192.372 151.374 192.256 150.911 192.256C150.431 192.256 150.055 192.361 149.782 192.571C149.509 192.781 149.318 193.006 149.207 193.244L148.252 192.903C148.423 192.506 148.65 192.196 148.934 191.974C149.221 191.75 149.534 191.594 149.872 191.506C150.213 191.415 150.548 191.369 150.877 191.369C151.088 191.369 151.329 191.395 151.602 191.446C151.877 191.494 152.143 191.595 152.399 191.749C152.657 191.902 152.872 192.134 153.042 192.443C153.213 192.753 153.298 193.168 153.298 193.688V198H152.292V197.114H152.241C152.173 197.256 152.059 197.408 151.9 197.57C151.741 197.732 151.529 197.869 151.265 197.983C151.001 198.097 150.678 198.153 150.298 198.153ZM150.451 197.25C150.849 197.25 151.184 197.172 151.457 197.016C151.732 196.859 151.94 196.658 152.079 196.411C152.221 196.163 152.292 195.903 152.292 195.631V194.71C152.249 194.761 152.156 194.808 152.011 194.851C151.869 194.891 151.704 194.926 151.517 194.957C151.332 194.986 151.151 195.011 150.975 195.034C150.802 195.054 150.661 195.071 150.553 195.085C150.292 195.119 150.048 195.175 149.82 195.251C149.596 195.325 149.414 195.437 149.275 195.588C149.139 195.736 149.07 195.937 149.07 196.193C149.07 196.543 149.2 196.807 149.458 196.986C149.72 197.162 150.051 197.25 150.451 197.25ZM155.133 198V191.455H156.105V192.443H156.173C156.292 192.119 156.508 191.857 156.821 191.655C157.133 191.453 157.486 191.352 157.878 191.352C157.952 191.352 158.044 191.354 158.155 191.357C158.265 191.359 158.349 191.364 158.406 191.369V192.392C158.372 192.384 158.294 192.371 158.172 192.354C158.052 192.334 157.926 192.324 157.792 192.324C157.474 192.324 157.19 192.391 156.94 192.524C156.693 192.655 156.497 192.837 156.352 193.07C156.21 193.3 156.139 193.562 156.139 193.858V198H155.133Z" fill="#667085"/>
<path d="M164.563 198H163.455L166.66 189.273H167.751L170.955 198H169.847L167.239 190.653H167.171L164.563 198ZM164.972 194.591H169.438V195.528H164.972V194.591ZM172.178 200.455V191.455H173.15V192.494H173.269C173.343 192.381 173.445 192.236 173.576 192.06C173.71 191.881 173.9 191.722 174.147 191.582C174.397 191.44 174.735 191.369 175.161 191.369C175.712 191.369 176.198 191.507 176.619 191.783C177.039 192.058 177.367 192.449 177.603 192.955C177.839 193.46 177.957 194.057 177.957 194.744C177.957 195.438 177.839 196.038 177.603 196.547C177.367 197.053 177.04 197.445 176.623 197.723C176.205 197.999 175.724 198.136 175.178 198.136C174.758 198.136 174.421 198.067 174.168 197.928C173.915 197.786 173.721 197.625 173.585 197.446C173.448 197.264 173.343 197.114 173.269 196.994H173.184V200.455H172.178ZM173.167 194.727C173.167 195.222 173.239 195.658 173.384 196.036C173.529 196.411 173.741 196.705 174.019 196.918C174.298 197.128 174.638 197.233 175.042 197.233C175.462 197.233 175.813 197.122 176.094 196.901C176.379 196.676 176.592 196.375 176.734 195.997C176.879 195.616 176.951 195.193 176.951 194.727C176.951 194.267 176.88 193.852 176.738 193.483C176.599 193.111 176.387 192.817 176.103 192.601C175.822 192.382 175.468 192.273 175.042 192.273C174.633 192.273 174.289 192.376 174.011 192.584C173.732 192.788 173.522 193.075 173.38 193.445C173.238 193.811 173.167 194.239 173.167 194.727ZM179.491 198V191.455H180.462V192.443H180.531C180.65 192.119 180.866 191.857 181.178 191.655C181.491 191.453 181.843 191.352 182.235 191.352C182.309 191.352 182.401 191.354 182.512 191.357C182.623 191.359 182.707 191.364 182.763 191.369V192.392C182.729 192.384 182.651 192.371 182.529 192.354C182.41 192.334 182.283 192.324 182.15 192.324C181.832 192.324 181.548 192.391 181.298 192.524C181.05 192.655 180.854 192.837 180.71 193.07C180.567 193.3 180.496 193.562 180.496 193.858V198H179.491Z" fill="#667085"/>
<path d="M188.57 189.273H189.832L192.798 196.517H192.9L195.866 189.273H197.127V198H196.139V191.369H196.053L193.326 198H192.372L189.644 191.369H189.559V198H188.57V189.273ZM201.036 198.153C200.621 198.153 200.245 198.075 199.907 197.919C199.569 197.76 199.3 197.531 199.101 197.233C198.903 196.932 198.803 196.568 198.803 196.142C198.803 195.767 198.877 195.463 199.025 195.23C199.172 194.994 199.37 194.81 199.617 194.676C199.864 194.543 200.137 194.443 200.435 194.378C200.736 194.31 201.039 194.256 201.343 194.216C201.741 194.165 202.063 194.126 202.31 194.101C202.56 194.072 202.742 194.026 202.856 193.96C202.972 193.895 203.03 193.781 203.03 193.619V193.585C203.03 193.165 202.915 192.838 202.685 192.605C202.458 192.372 202.113 192.256 201.65 192.256C201.17 192.256 200.793 192.361 200.52 192.571C200.248 192.781 200.056 193.006 199.945 193.244L198.991 192.903C199.161 192.506 199.388 192.196 199.672 191.974C199.959 191.75 200.272 191.594 200.61 191.506C200.951 191.415 201.286 191.369 201.616 191.369C201.826 191.369 202.067 191.395 202.34 191.446C202.616 191.494 202.881 191.595 203.137 191.749C203.395 191.902 203.61 192.134 203.78 192.443C203.951 192.753 204.036 193.168 204.036 193.688V198H203.03V197.114H202.979C202.911 197.256 202.797 197.408 202.638 197.57C202.479 197.732 202.268 197.869 202.003 197.983C201.739 198.097 201.417 198.153 201.036 198.153ZM201.189 197.25C201.587 197.25 201.922 197.172 202.195 197.016C202.471 196.859 202.678 196.658 202.817 196.411C202.959 196.163 203.03 195.903 203.03 195.631V194.71C202.988 194.761 202.894 194.808 202.749 194.851C202.607 194.891 202.442 194.926 202.255 194.957C202.07 194.986 201.89 195.011 201.714 195.034C201.54 195.054 201.4 195.071 201.292 195.085C201.03 195.119 200.786 195.175 200.559 195.251C200.334 195.325 200.153 195.437 200.013 195.588C199.877 195.736 199.809 195.937 199.809 196.193C199.809 196.543 199.938 196.807 200.197 196.986C200.458 197.162 200.789 197.25 201.189 197.25ZM206.285 200.455C206.115 200.455 205.963 200.44 205.829 200.412C205.695 200.386 205.603 200.361 205.552 200.335L205.808 199.449C206.052 199.511 206.268 199.534 206.455 199.517C206.643 199.5 206.809 199.416 206.954 199.266C207.102 199.118 207.237 198.878 207.359 198.545L207.546 198.034L205.126 191.455H206.217L208.024 196.67H208.092L209.899 191.455H210.99L208.211 198.955C208.086 199.293 207.931 199.572 207.747 199.794C207.562 200.018 207.347 200.185 207.103 200.293C206.862 200.401 206.589 200.455 206.285 200.455Z" fill="#667085"/>
<path d="M220.462 189.273H221.519V195.511C221.519 196.068 221.417 196.541 221.212 196.93C221.008 197.32 220.719 197.615 220.347 197.817C219.975 198.018 219.536 198.119 219.03 198.119C218.553 198.119 218.128 198.033 217.756 197.859C217.384 197.683 217.091 197.433 216.878 197.109C216.665 196.786 216.559 196.401 216.559 195.955H217.599C217.599 196.202 217.66 196.418 217.782 196.602C217.907 196.784 218.077 196.926 218.293 197.028C218.509 197.131 218.755 197.182 219.03 197.182C219.334 197.182 219.593 197.118 219.806 196.99C220.019 196.862 220.181 196.675 220.292 196.428C220.405 196.178 220.462 195.872 220.462 195.511V189.273ZM227.626 195.324V191.455H228.631V198H227.626V196.892H227.557C227.404 197.224 227.165 197.507 226.841 197.74C226.518 197.97 226.108 198.085 225.614 198.085C225.205 198.085 224.841 197.996 224.523 197.817C224.205 197.635 223.955 197.362 223.773 196.999C223.591 196.632 223.501 196.17 223.501 195.614V191.455H224.506V195.545C224.506 196.023 224.64 196.403 224.907 196.688C225.177 196.972 225.52 197.114 225.938 197.114C226.188 197.114 226.442 197.05 226.701 196.922C226.962 196.794 227.181 196.598 227.357 196.334C227.536 196.07 227.626 195.733 227.626 195.324ZM231.479 194.062V198H230.473V191.455H231.445V192.477H231.53C231.683 192.145 231.916 191.878 232.229 191.676C232.541 191.472 232.945 191.369 233.439 191.369C233.882 191.369 234.27 191.46 234.602 191.642C234.935 191.821 235.193 192.094 235.378 192.46C235.563 192.824 235.655 193.284 235.655 193.841V198H234.649V193.909C234.649 193.395 234.516 192.994 234.249 192.707C233.982 192.418 233.615 192.273 233.149 192.273C232.828 192.273 232.541 192.342 232.289 192.482C232.039 192.621 231.841 192.824 231.696 193.091C231.551 193.358 231.479 193.682 231.479 194.062Z" fill="#667085"/>
<path d="M245.911 189.273H246.968V195.511C246.968 196.068 246.866 196.541 246.661 196.93C246.457 197.32 246.169 197.615 245.796 197.817C245.424 198.018 244.985 198.119 244.48 198.119C244.002 198.119 243.578 198.033 243.205 197.859C242.833 197.683 242.541 197.433 242.328 197.109C242.115 196.786 242.008 196.401 242.008 195.955H243.048C243.048 196.202 243.109 196.418 243.231 196.602C243.356 196.784 243.526 196.926 243.742 197.028C243.958 197.131 244.204 197.182 244.48 197.182C244.784 197.182 245.042 197.118 245.255 196.99C245.468 196.862 245.63 196.675 245.741 196.428C245.855 196.178 245.911 195.872 245.911 195.511V189.273ZM253.075 195.324V191.455H254.08V198H253.075V196.892H253.007C252.853 197.224 252.615 197.507 252.291 197.74C251.967 197.97 251.558 198.085 251.063 198.085C250.654 198.085 250.291 197.996 249.972 197.817C249.654 197.635 249.404 197.362 249.222 196.999C249.041 196.632 248.95 196.17 248.95 195.614V191.455H249.955V195.545C249.955 196.023 250.089 196.403 250.356 196.688C250.626 196.972 250.97 197.114 251.387 197.114C251.637 197.114 251.892 197.05 252.15 196.922C252.411 196.794 252.63 196.598 252.806 196.334C252.985 196.07 253.075 195.733 253.075 195.324ZM256.928 189.273V198H255.922V189.273H256.928Z" fill="#667085"/>
<path d="M264.262 198H263.154L266.359 189.273H267.45L270.654 198H269.547L266.939 190.653H266.87L264.262 198ZM264.672 194.591H269.137V195.528H264.672V194.591ZM276.002 195.324V191.455H277.008V198H276.002V196.892H275.934C275.781 197.224 275.542 197.507 275.218 197.74C274.895 197.97 274.485 198.085 273.991 198.085C273.582 198.085 273.218 197.996 272.9 197.817C272.582 197.635 272.332 197.362 272.15 196.999C271.968 196.632 271.877 196.17 271.877 195.614V191.455H272.883V195.545C272.883 196.023 273.017 196.403 273.284 196.688C273.554 196.972 273.897 197.114 274.315 197.114C274.565 197.114 274.819 197.05 275.078 196.922C275.339 196.794 275.558 196.598 275.734 196.334C275.913 196.07 276.002 195.733 276.002 195.324ZM281.492 200.591C281.006 200.591 280.589 200.528 280.239 200.403C279.89 200.281 279.599 200.119 279.366 199.918C279.136 199.719 278.952 199.506 278.816 199.278L279.617 198.716C279.708 198.835 279.823 198.972 279.962 199.125C280.102 199.281 280.292 199.416 280.533 199.53C280.778 199.646 281.097 199.705 281.492 199.705C282.021 199.705 282.457 199.577 282.8 199.321C283.144 199.065 283.316 198.665 283.316 198.119V196.79H283.231C283.157 196.909 283.052 197.057 282.915 197.233C282.782 197.406 282.589 197.561 282.336 197.697C282.086 197.831 281.748 197.898 281.322 197.898C280.793 197.898 280.319 197.773 279.898 197.523C279.481 197.273 279.15 196.909 278.906 196.432C278.664 195.955 278.543 195.375 278.543 194.693C278.543 194.023 278.661 193.439 278.897 192.942C279.133 192.442 279.461 192.055 279.881 191.783C280.302 191.507 280.788 191.369 281.339 191.369C281.765 191.369 282.103 191.44 282.353 191.582C282.606 191.722 282.799 191.881 282.933 192.06C283.069 192.236 283.174 192.381 283.248 192.494H283.35V191.455H284.322V198.188C284.322 198.75 284.194 199.207 283.938 199.56C283.685 199.915 283.344 200.175 282.915 200.339C282.489 200.507 282.015 200.591 281.492 200.591ZM281.458 196.994C281.862 196.994 282.202 196.902 282.481 196.717C282.759 196.533 282.971 196.267 283.116 195.92C283.261 195.574 283.333 195.159 283.333 194.676C283.333 194.205 283.262 193.788 283.12 193.428C282.978 193.067 282.768 192.784 282.489 192.58C282.211 192.375 281.867 192.273 281.458 192.273C281.032 192.273 280.677 192.381 280.393 192.597C280.112 192.812 279.9 193.102 279.758 193.466C279.619 193.83 279.549 194.233 279.549 194.676C279.549 195.131 279.62 195.533 279.762 195.882C279.907 196.229 280.12 196.501 280.401 196.7C280.685 196.896 281.038 196.994 281.458 196.994Z" fill="#667085"/>
<path d="M295.763 191.455C295.712 191.023 295.505 190.688 295.141 190.449C294.777 190.21 294.331 190.091 293.803 190.091C293.417 190.091 293.078 190.153 292.789 190.278C292.502 190.403 292.277 190.575 292.115 190.794C291.956 191.013 291.877 191.261 291.877 191.54C291.877 191.773 291.932 191.973 292.043 192.141C292.157 192.305 292.301 192.443 292.478 192.554C292.654 192.662 292.838 192.751 293.032 192.822C293.225 192.891 293.402 192.946 293.564 192.989L294.451 193.227C294.678 193.287 294.931 193.369 295.209 193.474C295.49 193.58 295.759 193.723 296.015 193.905C296.273 194.084 296.486 194.314 296.654 194.595C296.821 194.876 296.905 195.222 296.905 195.631C296.905 196.102 296.782 196.528 296.534 196.909C296.29 197.29 295.932 197.592 295.461 197.817C294.992 198.041 294.422 198.153 293.752 198.153C293.127 198.153 292.586 198.053 292.128 197.851C291.674 197.649 291.316 197.368 291.054 197.007C290.796 196.646 290.65 196.227 290.615 195.75H291.706C291.735 196.08 291.846 196.352 292.039 196.568C292.235 196.781 292.482 196.94 292.78 197.045C293.081 197.148 293.405 197.199 293.752 197.199C294.155 197.199 294.517 197.134 294.838 197.003C295.159 196.869 295.414 196.685 295.601 196.449C295.789 196.21 295.882 195.932 295.882 195.614C295.882 195.324 295.801 195.088 295.64 194.906C295.478 194.724 295.265 194.577 295 194.463C294.736 194.349 294.451 194.25 294.144 194.165L293.07 193.858C292.388 193.662 291.848 193.382 291.451 193.018C291.053 192.655 290.854 192.179 290.854 191.591C290.854 191.102 290.986 190.676 291.25 190.312C291.517 189.946 291.875 189.662 292.324 189.46C292.776 189.256 293.28 189.153 293.837 189.153C294.4 189.153 294.9 189.254 295.337 189.456C295.775 189.655 296.121 189.928 296.377 190.274C296.635 190.621 296.772 191.014 296.786 191.455H295.763ZM301.251 198.136C300.62 198.136 300.076 197.997 299.619 197.719C299.164 197.438 298.813 197.045 298.566 196.543C298.322 196.037 298.2 195.449 298.2 194.778C298.2 194.108 298.322 193.517 298.566 193.006C298.813 192.491 299.157 192.091 299.597 191.804C300.04 191.514 300.558 191.369 301.148 191.369C301.489 191.369 301.826 191.426 302.158 191.54C302.491 191.653 302.793 191.838 303.066 192.094C303.339 192.347 303.556 192.682 303.718 193.099C303.88 193.517 303.961 194.031 303.961 194.642V195.068H298.915V194.199H302.938C302.938 193.83 302.864 193.5 302.717 193.21C302.572 192.92 302.364 192.692 302.094 192.524C301.827 192.357 301.512 192.273 301.148 192.273C300.748 192.273 300.401 192.372 300.109 192.571C299.819 192.767 299.596 193.023 299.44 193.338C299.283 193.653 299.205 193.991 299.205 194.352V194.932C299.205 195.426 299.29 195.845 299.461 196.189C299.634 196.53 299.874 196.79 300.181 196.969C300.488 197.145 300.844 197.233 301.251 197.233C301.515 197.233 301.754 197.196 301.967 197.122C302.183 197.045 302.369 196.932 302.525 196.781C302.681 196.628 302.802 196.437 302.887 196.21L303.859 196.483C303.756 196.812 303.585 197.102 303.343 197.352C303.102 197.599 302.803 197.793 302.448 197.932C302.093 198.068 301.694 198.136 301.251 198.136ZM305.491 200.455V191.455H306.462V192.494H306.582C306.656 192.381 306.758 192.236 306.888 192.06C307.022 191.881 307.212 191.722 307.46 191.582C307.71 191.44 308.048 191.369 308.474 191.369C309.025 191.369 309.511 191.507 309.931 191.783C310.352 192.058 310.68 192.449 310.915 192.955C311.151 193.46 311.269 194.057 311.269 194.744C311.269 195.438 311.151 196.038 310.915 196.547C310.68 197.053 310.353 197.445 309.935 197.723C309.518 197.999 309.036 198.136 308.491 198.136C308.07 198.136 307.734 198.067 307.481 197.928C307.228 197.786 307.033 197.625 306.897 197.446C306.761 197.264 306.656 197.114 306.582 196.994H306.496V200.455H305.491ZM306.479 194.727C306.479 195.222 306.552 195.658 306.697 196.036C306.842 196.411 307.053 196.705 307.332 196.918C307.61 197.128 307.951 197.233 308.354 197.233C308.775 197.233 309.126 197.122 309.407 196.901C309.691 196.676 309.904 196.375 310.046 195.997C310.191 195.616 310.263 195.193 310.263 194.727C310.263 194.267 310.192 193.852 310.05 193.483C309.911 193.111 309.7 192.817 309.415 192.601C309.134 192.382 308.781 192.273 308.354 192.273C307.945 192.273 307.602 192.376 307.323 192.584C307.045 192.788 306.835 193.075 306.692 193.445C306.55 193.811 306.479 194.239 306.479 194.727Z" fill="#667085"/>
<path d="M325.092 193.636C325.092 194.557 324.926 195.352 324.594 196.023C324.261 196.693 323.805 197.21 323.226 197.574C322.646 197.938 321.984 198.119 321.24 198.119C320.496 198.119 319.834 197.938 319.254 197.574C318.675 197.21 318.219 196.693 317.886 196.023C317.554 195.352 317.388 194.557 317.388 193.636C317.388 192.716 317.554 191.92 317.886 191.25C318.219 190.58 318.675 190.062 319.254 189.699C319.834 189.335 320.496 189.153 321.24 189.153C321.984 189.153 322.646 189.335 323.226 189.699C323.805 190.062 324.261 190.58 324.594 191.25C324.926 191.92 325.092 192.716 325.092 193.636ZM324.07 193.636C324.07 192.881 323.943 192.243 323.69 191.723C323.44 191.203 323.101 190.81 322.672 190.543C322.246 190.276 321.768 190.142 321.24 190.142C320.712 190.142 320.233 190.276 319.804 190.543C319.378 190.81 319.038 191.203 318.786 191.723C318.536 192.243 318.411 192.881 318.411 193.636C318.411 194.392 318.536 195.03 318.786 195.55C319.038 196.07 319.378 196.463 319.804 196.73C320.233 196.997 320.712 197.131 321.24 197.131C321.768 197.131 322.246 196.997 322.672 196.73C323.101 196.463 323.44 196.07 323.69 195.55C323.943 195.03 324.07 194.392 324.07 193.636ZM329.392 198.136C328.778 198.136 328.25 197.991 327.807 197.702C327.364 197.412 327.023 197.013 326.784 196.504C326.545 195.996 326.426 195.415 326.426 194.761C326.426 194.097 326.548 193.51 326.793 193.001C327.04 192.49 327.384 192.091 327.824 191.804C328.267 191.514 328.784 191.369 329.375 191.369C329.835 191.369 330.25 191.455 330.619 191.625C330.989 191.795 331.291 192.034 331.527 192.341C331.763 192.648 331.909 193.006 331.966 193.415H330.96C330.884 193.116 330.713 192.852 330.449 192.622C330.188 192.389 329.835 192.273 329.392 192.273C329 192.273 328.656 192.375 328.361 192.58C328.068 192.781 327.839 193.067 327.675 193.436C327.513 193.803 327.432 194.233 327.432 194.727C327.432 195.233 327.511 195.673 327.67 196.048C327.832 196.423 328.06 196.714 328.352 196.922C328.648 197.129 328.994 197.233 329.392 197.233C329.653 197.233 329.891 197.188 330.104 197.097C330.317 197.006 330.497 196.875 330.645 196.705C330.793 196.534 330.898 196.33 330.96 196.091H331.966C331.909 196.477 331.768 196.825 331.544 197.135C331.322 197.442 331.028 197.686 330.662 197.868C330.298 198.047 329.875 198.136 329.392 198.136ZM336.283 191.455V192.307H332.891V191.455H336.283ZM333.879 189.886H334.885V196.125C334.885 196.409 334.926 196.622 335.009 196.764C335.094 196.903 335.202 196.997 335.332 197.045C335.466 197.091 335.607 197.114 335.754 197.114C335.865 197.114 335.956 197.108 336.027 197.097C336.098 197.082 336.155 197.071 336.197 197.062L336.402 197.966C336.334 197.991 336.239 198.017 336.116 198.043C335.994 198.071 335.839 198.085 335.652 198.085C335.368 198.085 335.089 198.024 334.817 197.902C334.547 197.78 334.322 197.594 334.143 197.344C333.967 197.094 333.879 196.778 333.879 196.398V189.886Z" fill="#667085"/>
<path d="M349.794 189.273V198H348.771L344.015 191.148H343.93V198H342.873V189.273H343.896L348.669 196.142H348.754V189.273H349.794ZM354.431 198.136C353.84 198.136 353.322 197.996 352.876 197.714C352.433 197.433 352.086 197.04 351.836 196.534C351.589 196.028 351.465 195.437 351.465 194.761C351.465 194.08 351.589 193.484 351.836 192.976C352.086 192.467 352.433 192.072 352.876 191.791C353.322 191.51 353.84 191.369 354.431 191.369C355.022 191.369 355.539 191.51 355.982 191.791C356.428 192.072 356.775 192.467 357.022 192.976C357.272 193.484 357.397 194.08 357.397 194.761C357.397 195.437 357.272 196.028 357.022 196.534C356.775 197.04 356.428 197.433 355.982 197.714C355.539 197.996 355.022 198.136 354.431 198.136ZM354.431 197.233C354.88 197.233 355.249 197.118 355.539 196.888C355.829 196.658 356.043 196.355 356.183 195.98C356.322 195.605 356.391 195.199 356.391 194.761C356.391 194.324 356.322 193.916 356.183 193.538C356.043 193.161 355.829 192.855 355.539 192.622C355.249 192.389 354.88 192.273 354.431 192.273C353.982 192.273 353.613 192.389 353.323 192.622C353.033 192.855 352.819 193.161 352.68 193.538C352.54 193.916 352.471 194.324 352.471 194.761C352.471 195.199 352.54 195.605 352.68 195.98C352.819 196.355 353.033 196.658 353.323 196.888C353.613 197.118 353.982 197.233 354.431 197.233ZM364.05 191.455L361.63 198H360.607L358.186 191.455H359.277L361.084 196.67H361.152L362.959 191.455H364.05Z" fill="#667085"/>
<path d="M373.094 198H370.401V189.273H373.213C374.06 189.273 374.784 189.447 375.386 189.797C375.989 190.143 376.45 190.642 376.771 191.293C377.092 191.94 377.253 192.716 377.253 193.619C377.253 194.528 377.091 195.311 376.767 195.967C376.443 196.621 375.972 197.124 375.352 197.476C374.733 197.825 373.98 198 373.094 198ZM371.457 197.062H373.026C373.747 197.062 374.345 196.923 374.82 196.645C375.294 196.366 375.648 195.97 375.881 195.456C376.114 194.942 376.23 194.33 376.23 193.619C376.23 192.915 376.115 192.308 375.885 191.8C375.655 191.288 375.311 190.896 374.854 190.624C374.396 190.348 373.827 190.21 373.145 190.21H371.457V197.062ZM381.634 198.136C381.003 198.136 380.459 197.997 380.001 197.719C379.547 197.438 379.196 197.045 378.949 196.543C378.705 196.037 378.582 195.449 378.582 194.778C378.582 194.108 378.705 193.517 378.949 193.006C379.196 192.491 379.54 192.091 379.98 191.804C380.423 191.514 380.94 191.369 381.531 191.369C381.872 191.369 382.209 191.426 382.541 191.54C382.874 191.653 383.176 191.838 383.449 192.094C383.722 192.347 383.939 192.682 384.101 193.099C384.263 193.517 384.344 194.031 384.344 194.642V195.068H379.298V194.199H383.321C383.321 193.83 383.247 193.5 383.099 193.21C382.955 192.92 382.747 192.692 382.477 192.524C382.21 192.357 381.895 192.273 381.531 192.273C381.131 192.273 380.784 192.372 380.491 192.571C380.202 192.767 379.979 193.023 379.822 193.338C379.666 193.653 379.588 193.991 379.588 194.352V194.932C379.588 195.426 379.673 195.845 379.844 196.189C380.017 196.53 380.257 196.79 380.564 196.969C380.871 197.145 381.227 197.233 381.634 197.233C381.898 197.233 382.136 197.196 382.349 197.122C382.565 197.045 382.751 196.932 382.908 196.781C383.064 196.628 383.185 196.437 383.27 196.21L384.241 196.483C384.139 196.812 383.967 197.102 383.726 197.352C383.484 197.599 383.186 197.793 382.831 197.932C382.476 198.068 382.077 198.136 381.634 198.136ZM388.533 198.136C387.919 198.136 387.391 197.991 386.947 197.702C386.504 197.412 386.163 197.013 385.925 196.504C385.686 195.996 385.567 195.415 385.567 194.761C385.567 194.097 385.689 193.51 385.933 193.001C386.18 192.49 386.524 192.091 386.964 191.804C387.408 191.514 387.925 191.369 388.516 191.369C388.976 191.369 389.391 191.455 389.76 191.625C390.129 191.795 390.432 192.034 390.668 192.341C390.903 192.648 391.05 193.006 391.107 193.415H390.101C390.024 193.116 389.854 192.852 389.589 192.622C389.328 192.389 388.976 192.273 388.533 192.273C388.141 192.273 387.797 192.375 387.501 192.58C387.209 192.781 386.98 193.067 386.815 193.436C386.653 193.803 386.572 194.233 386.572 194.727C386.572 195.233 386.652 195.673 386.811 196.048C386.973 196.423 387.2 196.714 387.493 196.922C387.788 197.129 388.135 197.233 388.533 197.233C388.794 197.233 389.031 197.188 389.244 197.097C389.457 197.006 389.638 196.875 389.786 196.705C389.933 196.534 390.038 196.33 390.101 196.091H391.107C391.05 196.477 390.909 196.825 390.685 197.135C390.463 197.442 390.169 197.686 389.803 197.868C389.439 198.047 389.016 198.136 388.533 198.136Z" fill="#667085"/>
<path d="M201.461 215.273H203.059L205.837 222.057H205.939L208.718 215.273H210.316V224H209.063V217.685H208.982L206.408 223.987H205.368L202.795 217.68H202.714V224H201.461V215.273ZM214.885 224.132C214.271 224.132 213.736 223.991 213.279 223.71C212.821 223.429 212.466 223.036 212.213 222.53C211.96 222.024 211.834 221.433 211.834 220.757C211.834 220.078 211.96 219.484 212.213 218.976C212.466 218.467 212.821 218.072 213.279 217.791C213.736 217.51 214.271 217.369 214.885 217.369C215.499 217.369 216.034 217.51 216.492 217.791C216.949 218.072 217.304 218.467 217.557 218.976C217.81 219.484 217.936 220.078 217.936 220.757C217.936 221.433 217.81 222.024 217.557 222.53C217.304 223.036 216.949 223.429 216.492 223.71C216.034 223.991 215.499 224.132 214.885 224.132ZM214.889 223.062C215.287 223.062 215.617 222.957 215.878 222.747C216.139 222.537 216.333 222.257 216.458 221.908C216.585 221.558 216.649 221.173 216.649 220.753C216.649 220.335 216.585 219.952 216.458 219.602C216.333 219.25 216.139 218.967 215.878 218.754C215.617 218.541 215.287 218.435 214.889 218.435C214.489 218.435 214.156 218.541 213.892 218.754C213.631 218.967 213.436 219.25 213.308 219.602C213.183 219.952 213.121 220.335 213.121 220.753C213.121 221.173 213.183 221.558 213.308 221.908C213.436 222.257 213.631 222.537 213.892 222.747C214.156 222.957 214.489 223.062 214.889 223.062ZM220.633 220.114V224H219.358V217.455H220.581V218.52H220.662C220.813 218.173 221.049 217.895 221.37 217.685C221.694 217.474 222.101 217.369 222.593 217.369C223.039 217.369 223.43 217.463 223.765 217.651C224.1 217.835 224.36 218.111 224.545 218.477C224.729 218.844 224.822 219.297 224.822 219.837V224H223.547V219.99C223.547 219.516 223.424 219.145 223.177 218.878C222.93 218.608 222.59 218.473 222.158 218.473C221.863 218.473 221.6 218.537 221.37 218.665C221.143 218.793 220.962 218.98 220.829 219.227C220.698 219.472 220.633 219.767 220.633 220.114ZM229.586 217.455V218.477H226.01V217.455H229.586ZM226.969 215.886H228.243V222.078C228.243 222.325 228.28 222.511 228.354 222.636C228.428 222.759 228.523 222.842 228.64 222.888C228.759 222.93 228.888 222.952 229.028 222.952C229.13 222.952 229.219 222.945 229.296 222.93C229.373 222.916 229.432 222.905 229.475 222.896L229.705 223.949C229.631 223.977 229.526 224.006 229.39 224.034C229.253 224.065 229.083 224.082 228.878 224.085C228.543 224.091 228.231 224.031 227.941 223.906C227.651 223.781 227.417 223.588 227.238 223.327C227.059 223.065 226.969 222.737 226.969 222.342V215.886ZM232.41 220.114V224H231.136V215.273H232.393V218.52H232.474C232.627 218.168 232.862 217.888 233.177 217.68C233.492 217.473 233.904 217.369 234.413 217.369C234.862 217.369 235.254 217.462 235.589 217.646C235.927 217.831 236.188 218.107 236.373 218.473C236.561 218.837 236.654 219.291 236.654 219.837V224H235.38V219.99C235.38 219.51 235.257 219.138 235.009 218.874C234.762 218.607 234.419 218.473 233.978 218.473C233.677 218.473 233.407 218.537 233.169 218.665C232.933 218.793 232.747 218.98 232.61 219.227C232.477 219.472 232.41 219.767 232.41 220.114Z" fill="#667085"/>
<g style="mix-blend-mode:multiply" opacity="0.1">
<path d="M68.068 86.2878L60 89.0469V181H416V55.5312L408.436 60.1137H400.368L396.586 64.4045H391.544C390.199 65.1197 387.409 66.55 387.006 66.55C386.602 66.55 383.98 67.4081 382.72 67.8372L371.878 69.1245L365.575 70.8408L355.49 69.1245L350.195 67.8372L342.632 70.8408H334.816L328.261 67.8372C325.739 67.4081 320.596 66.55 320.193 66.55C319.789 66.55 316.495 65.6918 314.898 65.2627H310.864L301.283 66.55L292.963 67.8372L289.181 70.8408L277.836 72.128L272.037 73.4153L265.482 75.5607L259.178 80.7097H256.405L248.841 79.4224L241.53 75.5607L235.227 73.4153H231.445L224.89 72.128L215.561 73.4153H206.737L197.912 75.5607L189.088 78.1352L182.533 80.7097L175.473 81.9969L165.892 80.7097L158.329 81.9969L150.765 83.2842L143.705 81.9969L134.125 85.0005L126.057 83.2842L117.989 85.0005H110.173L101.853 86.2878H93.2805L84.7082 87.575L76.3881 85.0005L68.068 86.2878Z" fill="url(#paint0_linear_267_21155)"/>
</g>
<path d="M60 89.0469L68.068 86.2878L76.3881 85.0005L84.7082 87.575L93.2805 86.2878H101.853L110.173 85.0005H117.989L126.057 83.2842L134.125 85.0005L143.705 81.9969L150.765 83.2842L158.329 81.9969L165.892 80.7097L175.473 81.9969L182.533 80.7097L189.088 78.1352L197.912 75.5607L206.737 73.4153H215.561L224.89 72.128L231.445 73.4153H235.227L241.53 75.5607L248.841 79.4224L256.405 80.7097H259.178L265.482 75.5607L272.037 73.4153L277.836 72.128L289.181 70.8408L292.963 67.8372L301.283 66.55L310.864 65.2627H314.898C316.495 65.6918 319.789 66.55 320.193 66.55C320.596 66.55 325.739 67.4081 328.261 67.8372L334.816 70.8408H342.632L350.195 67.8372L355.49 69.1245L365.575 70.8408L371.878 69.1245L382.72 67.8372C383.98 67.4081 386.602 66.55 387.006 66.55C387.409 66.55 390.199 65.1197 391.544 64.4045H396.586L400.368 60.1137H408.436L416 55.5312" stroke="#1570EF" stroke-width="2" stroke-linecap="round" stroke-linejoin="round"/>
<path d="M60 122.427L68.068 120.67L76.3881 119.85L84.7082 121.49L93.2805 120.67H101.853L110.173 119.85H117.989L126.057 118.756L134.125 119.85L143.705 117.936L150.765 118.756L158.329 117.936L165.892 117.116L175.473 117.936L182.533 117.116L189.088 115.477L197.912 113.837L206.737 112.47H215.561L224.89 111.65L231.445 112.47H235.227L241.53 113.837L248.841 116.296L256.405 117.116H259.178L265.482 113.837L272.037 112.47L277.836 111.65L289.181 110.83L292.963 108.917L301.283 108.097L310.864 107.277H314.898C316.495 107.55 319.789 108.097 320.193 108.097C320.596 108.097 325.739 108.644 328.261 108.917L334.816 110.83H342.632L350.195 108.917L355.49 109.737L365.575 110.83L371.878 109.737L382.72 108.917C383.98 108.644 386.602 108.097 387.006 108.097C387.409 108.097 390.199 107.186 391.544 106.73H396.586L400.368 103.997H408.436L416 101.078" stroke="#53B1FD" stroke-width="2" stroke-linecap="round" stroke-linejoin="round"/>
<g filter="url(#filter0_dd_267_21155)">
<path fill-rule="evenodd" clip-rule="evenodd" d="M209.154 100.42C208.409 102.655 207.201 102.655 206.456 100.42L205.745 98.394C205.069 96.467 204.732 95.5035 204.123 94.7921C203.586 94.1638 202.902 93.6785 202.131 93.3795C201.259 93.0411 200.238 93.0411 198.196 93.0411H183.337C180.731 93.0411 179.786 92.4107 178.833 91.2269C177.88 90.0432 177.132 88.3061 176.623 86.0927C176.113 83.8793 175.842 81.6838 175.842 75.6294V30.7701C175.842 24.7157 176.113 22.5202 176.623 20.3068C177.132 18.0934 177.88 16.3563 178.833 15.1725C179.786 13.9888 180.731 13.3584 183.337 13.3584H232.662C235.269 13.3584 236.214 13.9888 237.166 15.1725C238.119 16.3563 238.867 18.0934 239.377 20.3068C239.886 22.5202 240.158 24.7157 240.158 30.7701V75.6294C240.158 81.6838 239.886 83.8793 239.377 86.0927C238.867 88.3061 238.119 90.0432 237.166 91.2269C236.214 92.4107 235.269 93.0411 232.662 93.0411H219.561C218.864 93.0411 218.515 93.0411 218.198 93.0611C214.42 93.3011 211.101 95.6545 209.624 99.1409C209.5 99.4329 209.385 99.7619 209.154 100.42V100.42Z" fill="white"/>
</g>
<g filter="url(#filter1_dd_267_21155)">
<rect x="203.553" y="104.958" width="8.55264" height="20.0375" rx="4.27632" fill="#1570EF"/>
<rect x="205.553" y="106.958" width="4.55264" height="16.0375" rx="2.27632" stroke="white" stroke-width="4"/>
</g>
<defs>
<filter id="filter0_dd_267_21155" x="159.842" y="5.3584" width="96.3164" height="120.737" filterUnits="userSpaceOnUse" color-interpolation-filters="sRGB">
<feFlood flood-opacity="0" result="BackgroundImageFix"/>
<feColorMatrix in="SourceAlpha" type="matrix" values="0 0 0 0 0 0 0 0 0 0 0 0 0 0 0 0 0 0 127 0" result="hardAlpha"/>
<feOffset dy="8"/>
<feGaussianBlur stdDeviation="8"/>
<feColorMatrix type="matrix" values="0 0 0 0 0.196487 0 0 0 0 0.196487 0 0 0 0 0.279476 0 0 0 0.06 0"/>
<feBlend mode="multiply" in2="BackgroundImageFix" result="effect1_dropShadow_267_21155"/>
<feColorMatrix in="SourceAlpha" type="matrix" values="0 0 0 0 0 0 0 0 0 0 0 0 0 0 0 0 0 0 127 0" result="hardAlpha"/>
<feOffset dy="8"/>
<feGaussianBlur stdDeviation="4"/>
<feColorMatrix type="matrix" values="0 0 0 0 0.196487 0 0 0 0 0.196487 0 0 0 0 0.279476 0 0 0 0.08 0"/>
<feBlend mode="multiply" in2="effect1_dropShadow_267_21155" result="effect2_dropShadow_267_21155"/>
<feBlend mode="normal" in="SourceGraphic" in2="effect2_dropShadow_267_21155" result="shape"/>
</filter>
<filter id="filter1_dd_267_21155" x="195.553" y="96.958" width="24.5527" height="38.0371" filterUnits="userSpaceOnUse" color-interpolation-filters="sRGB">
<feFlood flood-opacity="0" result="BackgroundImageFix"/>
<feColorMatrix in="SourceAlpha" type="matrix" values="0 0 0 0 0 0 0 0 0 0 0 0 0 0 0 0 0 0 127 0" result="hardAlpha"/>
<feOffset dy="-2"/>
<feGaussianBlur stdDeviation="3"/>
<feColorMatrix type="matrix" values="0 0 0 0 1 0 0 0 0 1 0 0 0 0 1 0 0 0 0.03 0"/>
<feBlend mode="normal" in2="BackgroundImageFix" result="effect1_dropShadow_267_21155"/>
<feColorMatrix in="SourceAlpha" type="matrix" values="0 0 0 0 0 0 0 0 0 0 0 0 0 0 0 0 0 0 127 0" result="hardAlpha"/>
<feOffset dy="2"/>
<feGaussianBlur stdDeviation="4"/>
<feColorMatrix type="matrix" values="0 0 0 0 0.292917 0 0 0 0 0.303678 0 0 0 0 0.316667 0 0 0 0.08 0"/>
<feBlend mode="normal" in2="effect1_dropShadow_267_21155" result="effect2_dropShadow_267_21155"/>
<feBlend mode="normal" in="SourceGraphic" in2="effect2_dropShadow_267_21155" result="shape"/>
</filter>
<linearGradient id="paint0_linear_267_21155" x1="238" y1="55.5313" x2="238" y2="175.414" gradientUnits="userSpaceOnUse">
<stop stop-color="#7F56D9"/>
<stop offset="1" stop-color="#7F56D9" stop-opacity="0"/>
</linearGradient>
</defs>
</svg>
