<svg width="114" height="19" viewBox="0 0 114 19" fill="none" xmlns="http://www.w3.org/2000/svg">
<rect x="88.1187" y="0.308108" width="25.573" height="17.8703" rx="2.15676" fill="white" stroke="#B2BCCA" stroke-width="0.616216"/>
<path fill-rule="evenodd" clip-rule="evenodd" d="M101.043 12.9638C100.131 13.7325 98.9483 14.1966 97.6556 14.1966C94.771 14.1966 92.4326 11.886 92.4326 9.03581C92.4326 6.18557 94.771 3.875 97.6556 3.875C98.9483 3.875 100.131 4.33909 101.043 5.10785C101.955 4.33909 103.139 3.87501 104.431 3.87501C107.316 3.87501 109.654 6.18558 109.654 9.03582C109.654 11.8861 107.316 14.1966 104.431 14.1966C103.139 14.1966 101.955 13.7325 101.043 12.9638Z" fill="#ED0006"/>
<path fill-rule="evenodd" clip-rule="evenodd" d="M101.043 12.9638C102.166 12.0172 102.878 10.6087 102.878 9.03581C102.878 7.46293 102.166 6.0544 101.043 5.10781C101.955 4.33907 103.138 3.875 104.431 3.875C107.315 3.875 109.654 6.18557 109.654 9.03581C109.654 11.886 107.315 14.1966 104.431 14.1966C103.138 14.1966 101.955 13.7326 101.043 12.9638Z" fill="#F9A000"/>
<path fill-rule="evenodd" clip-rule="evenodd" d="M101.043 12.9633C102.166 12.0167 102.878 10.6082 102.878 9.03537C102.878 7.46252 102.166 6.05401 101.043 5.10742C99.9201 6.05401 99.208 7.46252 99.208 9.03537C99.208 10.6082 99.9201 12.0167 101.043 12.9633Z" fill="#FD6020"/>
<rect x="29.5786" y="0.308108" width="25.573" height="17.8703" rx="2.15676" fill="white" stroke="#B2BCCA" stroke-width="0.616216"/>
<path d="M43.4434 17.8704L55.1515 14.3271V16.0217C55.1515 17.0427 54.3238 17.8704 53.3028 17.8704H43.4434Z" fill="#FD6020"/>
<path fill-rule="evenodd" clip-rule="evenodd" d="M51.9113 7.01807C52.7165 7.01807 53.1593 7.39053 53.1593 8.09406C53.1996 8.63206 52.8372 9.08728 52.3541 9.17005L53.4411 10.7013H52.5957L51.6698 9.21144H51.5892V10.7013H50.9049V7.01807H51.9113ZM51.5893 8.71486H51.7905C52.2334 8.71486 52.4347 8.50794 52.4347 8.13548C52.4347 7.80441 52.2334 7.59749 51.7905 7.59749H51.5893V8.71486ZM48.5297 10.7013H50.4621V10.0805H49.2141V9.08728H50.4218V8.46652H49.2141V7.63883H50.4621V7.01807H48.5297V10.7013V10.7013ZM46.5167 9.50112L45.5908 7.01807H44.8662L46.3557 10.784H46.718L48.2076 7.01807H47.4829L46.5167 9.50112V9.50112ZM38.3443 8.88026C38.3443 9.91486 39.1495 10.7839 40.1559 10.7839C40.478 10.7839 40.7598 10.7012 41.0416 10.577V9.74933C40.8403 9.99763 40.5585 10.1632 40.2365 10.1632C39.5923 10.1632 39.069 9.66656 39.069 9.00441V8.92164C39.0287 8.25949 39.5521 7.68011 40.1962 7.63873C40.5183 7.63873 40.8403 7.80426 41.0416 8.05257V7.22488C40.8001 7.05935 40.478 7.01796 40.1962 7.01796C39.1495 6.93519 38.3443 7.80426 38.3443 8.88026V8.88026ZM37.0964 8.42507C36.6938 8.25953 36.573 8.17676 36.573 7.96984C36.6133 7.72153 36.8146 7.51461 37.0561 7.556C37.2574 7.556 37.4587 7.68015 37.6197 7.84569L37.9821 7.34907C37.7003 7.10077 37.3379 6.93523 36.9756 6.93523C36.412 6.89385 35.9289 7.34907 35.8886 7.92845V7.96984C35.8886 8.46645 36.0899 8.75614 36.7341 8.96306C36.8951 9.00445 37.0561 9.08721 37.2172 9.16998C37.3379 9.25275 37.4184 9.3769 37.4184 9.54244C37.4184 9.83213 37.1769 10.0804 36.9354 10.0804H36.8951C36.573 10.0804 36.2912 9.87352 36.1705 9.58383L35.7276 10.0391C35.9692 10.4943 36.4523 10.7426 36.9354 10.7426C37.5795 10.784 38.1028 10.2874 38.1431 9.62521V9.50106C38.1028 9.00445 37.9015 8.75614 37.0964 8.42507V8.42507ZM34.7614 10.7013H35.4458V7.01807H34.7614V10.7013V10.7013ZM31.5811 7.01807H32.5875H32.7888C33.755 7.05945 34.5199 7.88714 34.4796 8.88036C34.4796 9.41836 34.2381 9.91497 33.8355 10.2874C33.4732 10.5771 33.0303 10.7427 32.5875 10.7013H31.5811V7.01807ZM32.4667 10.0806C32.7888 10.122 33.1511 9.99787 33.3927 9.79095C33.6342 9.54264 33.755 9.21157 33.755 8.83911C33.755 8.50804 33.6342 8.17696 33.3927 7.92866C33.1511 7.72174 32.7888 7.59758 32.4667 7.63897H32.2655V10.0806H32.4667Z" fill="black"/>
<path fill-rule="evenodd" clip-rule="evenodd" d="M43.095 6.93262C42.0886 6.93262 41.2432 7.7603 41.2432 8.83629C41.2432 9.8709 42.0483 10.74 43.095 10.7814C44.1417 10.8227 44.9469 9.95367 44.9872 8.87768C44.9469 7.80169 44.1417 6.93262 43.095 6.93262V6.93262Z" fill="#FD6020"/>
<rect x="0.308108" y="0.308108" width="25.573" height="17.8703" rx="2.15676" fill="white" stroke="#B2BCCA" stroke-width="0.616216"/>
<path fill-rule="evenodd" clip-rule="evenodd" d="M8.28057 12.2151H6.69401L5.50429 7.54277C5.44782 7.32785 5.32792 7.13784 5.15155 7.04828C4.71139 6.82323 4.22638 6.64412 3.69727 6.55379V6.3739H6.25308C6.60582 6.3739 6.87038 6.64412 6.91447 6.95795L7.53177 10.3283L9.11755 6.3739H10.66L8.28057 12.2151ZM11.5419 12.2151H10.0435L11.2773 6.3739H12.7757L11.5419 12.2151ZM14.7142 7.99217C14.7583 7.67757 15.0229 7.49768 15.3315 7.49768C15.8165 7.45251 16.3449 7.54285 16.7858 7.76712L17.0504 6.50948C16.6094 6.32959 16.1244 6.23926 15.6843 6.23926C14.23 6.23926 13.1718 7.04836 13.1718 8.17128C13.1718 9.02554 13.9213 9.47409 14.4504 9.74431C15.0229 10.0137 15.2433 10.1936 15.1992 10.4631C15.1992 10.8672 14.7583 11.0471 14.3182 11.0471C13.7891 11.0471 13.2599 10.9124 12.7757 10.6873L12.5111 11.9458C13.0403 12.17 13.6127 12.2604 14.1418 12.2604C15.7724 12.3048 16.7858 11.4964 16.7858 10.2832C16.7858 8.75532 14.7142 8.66577 14.7142 7.99217V7.99217ZM22.0296 12.2151L20.8399 6.3739H19.562C19.2975 6.3739 19.0329 6.55379 18.9447 6.82323L16.7416 12.2151H18.2841L18.592 11.3617H20.4872L20.6635 12.2151H22.0296ZM19.7826 7.94694L20.2227 10.1484H18.9889L19.7826 7.94694Z" fill="#28356A"/>
<rect x="58.8491" y="0.308108" width="25.573" height="17.8703" rx="2.15676" fill="white" stroke="#B2BCCA" stroke-width="0.616216"/>
<path d="M73.375 9.01681C73.375 11.8695 71.089 14.1821 68.2691 14.1821C65.4491 14.1821 63.1631 11.8695 63.1631 9.01681C63.1631 6.16412 65.4491 3.85156 68.2691 3.85156C71.089 3.85156 73.375 6.16412 73.375 9.01681Z" fill="#ED0006"/>
<path d="M79.9991 9.01681C79.9991 11.8695 77.713 14.1821 74.8931 14.1821C72.0731 14.1821 69.7871 11.8695 69.7871 9.01681C69.7871 6.16412 72.0731 3.85156 74.8931 3.85156C77.713 3.85156 79.9991 6.16412 79.9991 9.01681Z" fill="#2F80ED"/>
<path fill-rule="evenodd" clip-rule="evenodd" d="M71.5811 12.9486C72.6789 12.0012 73.375 10.5914 73.375 9.01725C73.375 7.44306 72.6789 6.03334 71.5811 5.08594C70.4832 6.03334 69.7871 7.44306 69.7871 9.01725C69.7871 10.5914 70.4832 12.0012 71.5811 12.9486Z" fill="#6C6BBD"/>
</svg>
