<svg width="794" height="240" viewBox="0 0 794 240" fill="none" xmlns="http://www.w3.org/2000/svg">
<circle cx="622" cy="10" r="4" fill="#1570EF"/>
<path d="M635.054 15V14.1051L638.415 10.4261C638.809 9.99526 639.134 9.62074 639.389 9.30256C639.644 8.98106 639.833 8.67945 639.956 8.39773C640.082 8.11269 640.145 7.81439 640.145 7.50284C640.145 7.14489 640.059 6.83499 639.886 6.57315C639.717 6.31132 639.485 6.10914 639.19 5.96662C638.895 5.8241 638.564 5.75284 638.196 5.75284C637.805 5.75284 637.464 5.83404 637.172 5.99645C636.884 6.15554 636.66 6.37926 636.501 6.66761C636.345 6.95597 636.267 7.29403 636.267 7.68182H635.094C635.094 7.08523 635.231 6.56155 635.506 6.1108C635.781 5.66004 636.156 5.30871 636.63 5.05682C637.107 4.80492 637.643 4.67898 638.236 4.67898C638.832 4.67898 639.361 4.80492 639.822 5.05682C640.282 5.30871 640.644 5.64844 640.906 6.07599C641.167 6.50355 641.298 6.97917 641.298 7.50284C641.298 7.87737 641.23 8.24361 641.094 8.60156C640.962 8.9562 640.73 9.35227 640.398 9.78977C640.07 10.224 639.615 10.7543 639.031 11.3807L636.744 13.8267V13.9062H641.477V15H635.054ZM646.852 15.1392C646.103 15.1392 645.464 14.9354 644.938 14.5277C644.411 14.1167 644.008 13.5218 643.729 12.7429C643.451 11.9607 643.312 11.0161 643.312 9.90909C643.312 8.80871 643.451 7.86908 643.729 7.0902C644.011 6.308 644.415 5.71141 644.942 5.30043C645.473 4.88613 646.109 4.67898 646.852 4.67898C647.594 4.67898 648.229 4.88613 648.756 5.30043C649.286 5.71141 649.69 6.308 649.969 7.0902C650.25 7.86908 650.391 8.80871 650.391 9.90909C650.391 11.0161 650.252 11.9607 649.974 12.7429C649.695 13.5218 649.293 14.1167 648.766 14.5277C648.239 14.9354 647.601 15.1392 646.852 15.1392ZM646.852 14.0455C647.594 14.0455 648.171 13.6875 648.582 12.9716C648.993 12.2557 649.198 11.2348 649.198 9.90909C649.198 9.02746 649.104 8.27675 648.915 7.65696C648.729 7.03717 648.461 6.56487 648.109 6.24006C647.761 5.91525 647.342 5.75284 646.852 5.75284C646.116 5.75284 645.541 6.11577 645.126 6.84162C644.712 7.56416 644.505 8.58665 644.505 9.90909C644.505 10.7907 644.598 11.5398 644.783 12.1562C644.969 12.7727 645.236 13.2417 645.584 13.5632C645.935 13.8847 646.358 14.0455 646.852 14.0455ZM652.281 15V14.1051L655.641 10.4261C656.036 9.99526 656.361 9.62074 656.616 9.30256C656.871 8.98106 657.06 8.67945 657.183 8.39773C657.308 8.11269 657.371 7.81439 657.371 7.50284C657.371 7.14489 657.285 6.83499 657.113 6.57315C656.944 6.31132 656.712 6.10914 656.417 5.96662C656.122 5.8241 655.79 5.75284 655.423 5.75284C655.031 5.75284 654.69 5.83404 654.398 5.99645C654.11 6.15554 653.886 6.37926 653.727 6.66761C653.571 6.95597 653.494 7.29403 653.494 7.68182H652.32C652.32 7.08523 652.458 6.56155 652.733 6.1108C653.008 5.66004 653.383 5.30871 653.857 5.05682C654.334 4.80492 654.869 4.67898 655.462 4.67898C656.059 4.67898 656.588 4.80492 657.048 5.05682C657.509 5.30871 657.87 5.64844 658.132 6.07599C658.394 6.50355 658.525 6.97917 658.525 7.50284C658.525 7.87737 658.457 8.24361 658.321 8.60156C658.188 8.9562 657.956 9.35227 657.625 9.78977C657.297 10.224 656.841 10.7543 656.258 11.3807L653.971 13.8267V13.9062H658.704V15H652.281ZM664.337 4.81818V15H663.104V6.1108H663.044L660.558 7.76136V6.50852L663.104 4.81818H664.337Z" fill="#667085"/>
<circle cx="684" cy="10" r="4" fill="#53B1FD"/>
<path d="M697.054 15V14.1051L700.415 10.4261C700.809 9.99526 701.134 9.62074 701.389 9.30256C701.644 8.98106 701.833 8.67945 701.956 8.39773C702.082 8.11269 702.145 7.81439 702.145 7.50284C702.145 7.14489 702.059 6.83499 701.886 6.57315C701.717 6.31132 701.485 6.10914 701.19 5.96662C700.895 5.8241 700.564 5.75284 700.196 5.75284C699.805 5.75284 699.464 5.83404 699.172 5.99645C698.884 6.15554 698.66 6.37926 698.501 6.66761C698.345 6.95597 698.267 7.29403 698.267 7.68182H697.094C697.094 7.08523 697.231 6.56155 697.506 6.1108C697.781 5.66004 698.156 5.30871 698.63 5.05682C699.107 4.80492 699.643 4.67898 700.236 4.67898C700.832 4.67898 701.361 4.80492 701.822 5.05682C702.282 5.30871 702.644 5.64844 702.906 6.07599C703.167 6.50355 703.298 6.97917 703.298 7.50284C703.298 7.87737 703.23 8.24361 703.094 8.60156C702.962 8.9562 702.73 9.35227 702.398 9.78977C702.07 10.224 701.615 10.7543 701.031 11.3807L698.744 13.8267V13.9062H703.477V15H697.054ZM708.852 15.1392C708.103 15.1392 707.464 14.9354 706.938 14.5277C706.411 14.1167 706.008 13.5218 705.729 12.7429C705.451 11.9607 705.312 11.0161 705.312 9.90909C705.312 8.80871 705.451 7.86908 705.729 7.0902C706.011 6.308 706.415 5.71141 706.942 5.30043C707.473 4.88613 708.109 4.67898 708.852 4.67898C709.594 4.67898 710.229 4.88613 710.756 5.30043C711.286 5.71141 711.69 6.308 711.969 7.0902C712.25 7.86908 712.391 8.80871 712.391 9.90909C712.391 11.0161 712.252 11.9607 711.974 12.7429C711.695 13.5218 711.293 14.1167 710.766 14.5277C710.239 14.9354 709.601 15.1392 708.852 15.1392ZM708.852 14.0455C709.594 14.0455 710.171 13.6875 710.582 12.9716C710.993 12.2557 711.198 11.2348 711.198 9.90909C711.198 9.02746 711.104 8.27675 710.915 7.65696C710.729 7.03717 710.461 6.56487 710.109 6.24006C709.761 5.91525 709.342 5.75284 708.852 5.75284C708.116 5.75284 707.541 6.11577 707.126 6.84162C706.712 7.56416 706.505 8.58665 706.505 9.90909C706.505 10.7907 706.598 11.5398 706.783 12.1562C706.969 12.7727 707.236 13.2417 707.584 13.5632C707.935 13.8847 708.358 14.0455 708.852 14.0455ZM714.281 15V14.1051L717.641 10.4261C718.036 9.99526 718.361 9.62074 718.616 9.30256C718.871 8.98106 719.06 8.67945 719.183 8.39773C719.308 8.11269 719.371 7.81439 719.371 7.50284C719.371 7.14489 719.285 6.83499 719.113 6.57315C718.944 6.31132 718.712 6.10914 718.417 5.96662C718.122 5.8241 717.79 5.75284 717.423 5.75284C717.031 5.75284 716.69 5.83404 716.398 5.99645C716.11 6.15554 715.886 6.37926 715.727 6.66761C715.571 6.95597 715.494 7.29403 715.494 7.68182H714.32C714.32 7.08523 714.458 6.56155 714.733 6.1108C715.008 5.66004 715.383 5.30871 715.857 5.05682C716.334 4.80492 716.869 4.67898 717.462 4.67898C718.059 4.67898 718.588 4.80492 719.048 5.05682C719.509 5.30871 719.87 5.64844 720.132 6.07599C720.394 6.50355 720.525 6.97917 720.525 7.50284C720.525 7.87737 720.457 8.24361 720.321 8.60156C720.188 8.9562 719.956 9.35227 719.625 9.78977C719.297 10.224 718.841 10.7543 718.258 11.3807L715.971 13.8267V13.9062H720.704V15H714.281ZM726.078 15.1392C725.329 15.1392 724.691 14.9354 724.164 14.5277C723.637 14.1167 723.234 13.5218 722.956 12.7429C722.678 11.9607 722.538 11.0161 722.538 9.90909C722.538 8.80871 722.678 7.86908 722.956 7.0902C723.238 6.308 723.642 5.71141 724.169 5.30043C724.699 4.88613 725.336 4.67898 726.078 4.67898C726.821 4.67898 727.455 4.88613 727.982 5.30043C728.513 5.71141 728.917 6.308 729.195 7.0902C729.477 7.86908 729.618 8.80871 729.618 9.90909C729.618 11.0161 729.479 11.9607 729.2 12.7429C728.922 13.5218 728.519 14.1167 727.992 14.5277C727.465 14.9354 726.827 15.1392 726.078 15.1392ZM726.078 14.0455C726.821 14.0455 727.397 13.6875 727.808 12.9716C728.219 12.2557 728.425 11.2348 728.425 9.90909C728.425 9.02746 728.33 8.27675 728.141 7.65696C727.956 7.03717 727.687 6.56487 727.336 6.24006C726.988 5.91525 726.569 5.75284 726.078 5.75284C725.342 5.75284 724.767 6.11577 724.353 6.84162C723.939 7.56416 723.732 8.58665 723.732 9.90909C723.732 10.7907 723.824 11.5398 724.01 12.1562C724.196 12.7727 724.462 13.2417 724.81 13.5632C725.162 13.8847 725.584 14.0455 726.078 14.0455Z" fill="#667085"/>
<circle cx="748" cy="10" r="4" fill="#1849A9"/>
<path d="M761.054 15V14.1051L764.415 10.4261C764.809 9.99526 765.134 9.62074 765.389 9.30256C765.644 8.98106 765.833 8.67945 765.956 8.39773C766.082 8.11269 766.145 7.81439 766.145 7.50284C766.145 7.14489 766.059 6.83499 765.886 6.57315C765.717 6.31132 765.485 6.10914 765.19 5.96662C764.895 5.8241 764.564 5.75284 764.196 5.75284C763.805 5.75284 763.464 5.83404 763.172 5.99645C762.884 6.15554 762.66 6.37926 762.501 6.66761C762.345 6.95597 762.267 7.29403 762.267 7.68182H761.094C761.094 7.08523 761.231 6.56155 761.506 6.1108C761.781 5.66004 762.156 5.30871 762.63 5.05682C763.107 4.80492 763.643 4.67898 764.236 4.67898C764.832 4.67898 765.361 4.80492 765.822 5.05682C766.282 5.30871 766.644 5.64844 766.906 6.07599C767.167 6.50355 767.298 6.97917 767.298 7.50284C767.298 7.87737 767.23 8.24361 767.094 8.60156C766.962 8.9562 766.73 9.35227 766.398 9.78977C766.07 10.224 765.615 10.7543 765.031 11.3807L762.744 13.8267V13.9062H767.477V15H761.054ZM772.852 15.1392C772.103 15.1392 771.464 14.9354 770.938 14.5277C770.411 14.1167 770.008 13.5218 769.729 12.7429C769.451 11.9607 769.312 11.0161 769.312 9.90909C769.312 8.80871 769.451 7.86908 769.729 7.0902C770.011 6.308 770.415 5.71141 770.942 5.30043C771.473 4.88613 772.109 4.67898 772.852 4.67898C773.594 4.67898 774.229 4.88613 774.756 5.30043C775.286 5.71141 775.69 6.308 775.969 7.0902C776.25 7.86908 776.391 8.80871 776.391 9.90909C776.391 11.0161 776.252 11.9607 775.974 12.7429C775.695 13.5218 775.293 14.1167 774.766 14.5277C774.239 14.9354 773.601 15.1392 772.852 15.1392ZM772.852 14.0455C773.594 14.0455 774.171 13.6875 774.582 12.9716C774.993 12.2557 775.198 11.2348 775.198 9.90909C775.198 9.02746 775.104 8.27675 774.915 7.65696C774.729 7.03717 774.461 6.56487 774.109 6.24006C773.761 5.91525 773.342 5.75284 772.852 5.75284C772.116 5.75284 771.541 6.11577 771.126 6.84162C770.712 7.56416 770.505 8.58665 770.505 9.90909C770.505 10.7907 770.598 11.5398 770.783 12.1562C770.969 12.7727 771.236 13.2417 771.584 13.5632C771.935 13.8847 772.358 14.0455 772.852 14.0455ZM781.86 4.81818V15H780.627V6.1108H780.567L778.082 7.76136V6.50852L780.627 4.81818H781.86ZM788.03 4.67898C788.447 4.68229 788.865 4.76184 789.283 4.91761C789.7 5.07339 790.081 5.33191 790.426 5.69318C790.771 6.05114 791.048 6.54001 791.256 7.1598C791.465 7.77959 791.57 8.55682 791.57 9.49148C791.57 10.3963 791.483 11.2 791.311 11.9027C791.142 12.602 790.897 13.192 790.575 13.6726C790.257 14.1532 789.869 14.5178 789.412 14.7663C788.958 15.0149 788.444 15.1392 787.871 15.1392C787.301 15.1392 786.792 15.0265 786.344 14.8011C785.9 14.5724 785.536 14.2559 785.251 13.8516C784.969 13.4439 784.788 12.9716 784.709 12.4347H785.922C786.031 12.902 786.248 13.2881 786.573 13.593C786.901 13.8946 787.334 14.0455 787.871 14.0455C788.656 14.0455 789.276 13.7024 789.73 13.0163C790.188 12.3303 790.416 11.3608 790.416 10.108H790.337C790.151 10.3864 789.931 10.6267 789.675 10.8288C789.42 11.031 789.137 11.1868 788.825 11.2962C788.514 11.4055 788.182 11.4602 787.831 11.4602C787.248 11.4602 786.712 11.3161 786.225 11.0277C785.741 10.736 785.353 10.3366 785.062 9.82955C784.773 9.31913 784.629 8.7358 784.629 8.07955C784.629 7.45644 784.768 6.88636 785.047 6.36932C785.329 5.84896 785.723 5.43466 786.23 5.12642C786.741 4.81818 787.34 4.66903 788.03 4.67898ZM788.03 5.77273C787.612 5.77273 787.236 5.87713 786.901 6.08594C786.57 6.29143 786.306 6.56984 786.111 6.92116C785.919 7.26918 785.822 7.6553 785.822 8.07955C785.822 8.50379 785.915 8.88991 786.101 9.23793C786.29 9.58262 786.547 9.85772 786.871 10.0632C787.2 10.2654 787.572 10.3665 787.99 10.3665C788.305 10.3665 788.598 10.3052 788.87 10.1825C789.142 10.0566 789.379 9.88589 789.581 9.67045C789.786 9.4517 789.947 9.20478 790.063 8.92969C790.179 8.65128 790.237 8.36127 790.237 8.05966C790.237 7.66193 790.141 7.28906 789.949 6.94105C789.76 6.59304 789.498 6.31132 789.163 6.09588C788.832 5.88044 788.454 5.77273 788.03 5.77273Z" fill="#667085"/>
<line x1="1.5" y1="30.5" x2="792.5" y2="30.5" stroke="#F2F4F7" stroke-linecap="round"/>
<line x1="1.5" y1="69" x2="792.5" y2="69" stroke="#F2F4F7" stroke-linecap="round"/>
<line x1="1.5" y1="105" x2="792.5" y2="105" stroke="#F2F4F7" stroke-linecap="round"/>
<line x1="1.5" y1="141" x2="792.5" y2="141" stroke="#F2F4F7" stroke-linecap="round"/>
<line x1="1.5" y1="177" x2="792.5" y2="177" stroke="#F2F4F7" stroke-linecap="round"/>
<line x1="1.5" y1="213" x2="792.5" y2="213" stroke="#F2F4F7" stroke-linecap="round"/>
<path d="M29.7493 226.273H30.8061V232.511C30.8061 233.068 30.7038 233.541 30.4993 233.93C30.2947 234.32 30.0064 234.615 29.6342 234.817C29.2621 235.018 28.8232 235.119 28.3175 235.119C27.8402 235.119 27.4155 235.033 27.0433 234.859C26.6712 234.683 26.3786 234.433 26.1655 234.109C25.9524 233.786 25.8459 233.401 25.8459 232.955H26.8857C26.8857 233.202 26.9467 233.418 27.0689 233.602C27.1939 233.784 27.3643 233.926 27.5803 234.028C27.7962 234.131 28.0419 234.182 28.3175 234.182C28.6214 234.182 28.88 234.118 29.093 233.99C29.3061 233.862 29.468 233.675 29.5788 233.428C29.6925 233.178 29.7493 232.872 29.7493 232.511V226.273ZM34.7138 235.153C34.299 235.153 33.9226 235.075 33.5845 234.919C33.2464 234.76 32.978 234.531 32.7791 234.233C32.5803 233.932 32.4808 233.568 32.4808 233.142C32.4808 232.767 32.5547 232.463 32.7024 232.23C32.8501 231.994 33.0476 231.81 33.2947 231.676C33.5419 231.543 33.8146 231.443 34.1129 231.378C34.4141 231.31 34.7166 231.256 35.0206 231.216C35.4183 231.165 35.7408 231.126 35.9879 231.101C36.2379 231.072 36.4197 231.026 36.5334 230.96C36.6499 230.895 36.7081 230.781 36.7081 230.619V230.585C36.7081 230.165 36.593 229.838 36.3629 229.605C36.1357 229.372 35.7905 229.256 35.3274 229.256C34.8473 229.256 34.4709 229.361 34.1982 229.571C33.9254 229.781 33.7337 230.006 33.6229 230.244L32.6683 229.903C32.8388 229.506 33.0661 229.196 33.3501 228.974C33.6371 228.75 33.9496 228.594 34.2876 228.506C34.6286 228.415 34.9638 228.369 35.2933 228.369C35.5036 228.369 35.745 228.395 36.0178 228.446C36.2933 228.494 36.5589 228.595 36.8146 228.749C37.0732 228.902 37.2876 229.134 37.4581 229.443C37.6286 229.753 37.7138 230.168 37.7138 230.688V235H36.7081V234.114H36.657C36.5888 234.256 36.4751 234.408 36.3161 234.57C36.157 234.732 35.9453 234.869 35.6811 234.983C35.4169 235.097 35.0945 235.153 34.7138 235.153ZM34.8672 234.25C35.2649 234.25 35.6001 234.172 35.8729 234.016C36.1484 233.859 36.3558 233.658 36.495 233.411C36.6371 233.163 36.7081 232.903 36.7081 232.631V231.71C36.6655 231.761 36.5717 231.808 36.4268 231.851C36.2848 231.891 36.12 231.926 35.9325 231.957C35.7479 231.986 35.5675 232.011 35.3913 232.034C35.218 232.054 35.0774 232.071 34.9695 232.085C34.7081 232.119 34.4638 232.175 34.2365 232.251C34.0121 232.325 33.8303 232.437 33.6911 232.588C33.5547 232.736 33.4865 232.937 33.4865 233.193C33.4865 233.543 33.6158 233.807 33.8743 233.986C34.1357 234.162 34.4666 234.25 34.8672 234.25ZM40.555 231.062V235H39.5494V228.455H40.521V229.477H40.6062C40.7596 229.145 40.9925 228.878 41.305 228.676C41.6175 228.472 42.021 228.369 42.5153 228.369C42.9585 228.369 43.3462 228.46 43.6786 228.642C44.011 228.821 44.2695 229.094 44.4542 229.46C44.6388 229.824 44.7312 230.284 44.7312 230.841V235H43.7255V230.909C43.7255 230.395 43.592 229.994 43.3249 229.707C43.0579 229.418 42.6914 229.273 42.2255 229.273C41.9045 229.273 41.6175 229.342 41.3647 229.482C41.1147 229.621 40.9173 229.824 40.7724 230.091C40.6275 230.358 40.555 230.682 40.555 231.062Z" fill="#667085"/>
<path d="M91.2385 235V226.273H96.4714V227.21H92.2953V230.159H96.0794V231.097H92.2953V235H91.2385ZM100.409 235.136C99.7782 235.136 99.2342 234.997 98.7768 234.719C98.3223 234.438 97.9714 234.045 97.7243 233.543C97.4799 233.037 97.3578 232.449 97.3578 231.778C97.3578 231.108 97.4799 230.517 97.7243 230.006C97.9714 229.491 98.3152 229.091 98.7555 228.804C99.1987 228.514 99.7157 228.369 100.307 228.369C100.648 228.369 100.984 228.426 101.317 228.54C101.649 228.653 101.952 228.838 102.224 229.094C102.497 229.347 102.714 229.682 102.876 230.099C103.038 230.517 103.119 231.031 103.119 231.642V232.068H98.0737V231.199H102.096C102.096 230.83 102.023 230.5 101.875 230.21C101.73 229.92 101.523 229.692 101.253 229.524C100.986 229.357 100.67 229.273 100.307 229.273C99.9061 229.273 99.5595 229.372 99.2669 229.571C98.9771 229.767 98.7541 230.023 98.5978 230.338C98.4416 230.653 98.3635 230.991 98.3635 231.352V231.932C98.3635 232.426 98.4487 232.845 98.6191 233.189C98.7924 233.53 99.0325 233.79 99.3393 233.969C99.6461 234.145 100.003 234.233 100.409 234.233C100.673 234.233 100.912 234.196 101.125 234.122C101.341 234.045 101.527 233.932 101.683 233.781C101.839 233.628 101.96 233.437 102.045 233.21L103.017 233.483C102.915 233.812 102.743 234.102 102.501 234.352C102.26 234.599 101.961 234.793 101.606 234.932C101.251 235.068 100.852 235.136 100.409 235.136ZM104.785 235V226.273H105.791V229.494H105.876C105.95 229.381 106.052 229.236 106.183 229.06C106.317 228.881 106.507 228.722 106.754 228.582C107.004 228.44 107.342 228.369 107.768 228.369C108.319 228.369 108.805 228.507 109.226 228.783C109.646 229.058 109.974 229.449 110.21 229.955C110.446 230.46 110.564 231.057 110.564 231.744C110.564 232.438 110.446 233.038 110.21 233.547C109.974 234.053 109.648 234.445 109.23 234.723C108.812 234.999 108.331 235.136 107.785 235.136C107.365 235.136 107.028 235.067 106.775 234.928C106.523 234.786 106.328 234.625 106.192 234.446C106.055 234.264 105.95 234.114 105.876 233.994H105.757V235H104.785ZM105.774 231.727C105.774 232.222 105.846 232.658 105.991 233.036C106.136 233.411 106.348 233.705 106.626 233.918C106.905 234.128 107.246 234.233 107.649 234.233C108.069 234.233 108.42 234.122 108.702 233.901C108.986 233.676 109.199 233.375 109.341 232.997C109.486 232.616 109.558 232.193 109.558 231.727C109.558 231.267 109.487 230.852 109.345 230.483C109.206 230.111 108.994 229.817 108.71 229.601C108.429 229.382 108.075 229.273 107.649 229.273C107.24 229.273 106.896 229.376 106.618 229.584C106.339 229.788 106.129 230.075 105.987 230.445C105.845 230.811 105.774 231.239 105.774 231.727Z" fill="#667085"/>
<path d="M156.469 226.273H157.73L160.696 233.517H160.798L163.764 226.273H165.026V235H164.037V228.369H163.952L161.225 235H160.27L157.543 228.369H157.458V235H156.469V226.273ZM168.934 235.153C168.52 235.153 168.143 235.075 167.805 234.919C167.467 234.76 167.199 234.531 167 234.233C166.801 233.932 166.702 233.568 166.702 233.142C166.702 232.767 166.775 232.463 166.923 232.23C167.071 231.994 167.268 231.81 167.515 231.676C167.763 231.543 168.035 231.443 168.334 231.378C168.635 231.31 168.937 231.256 169.241 231.216C169.639 231.165 169.961 231.126 170.209 231.101C170.459 231.072 170.64 231.026 170.754 230.96C170.871 230.895 170.929 230.781 170.929 230.619V230.585C170.929 230.165 170.814 229.838 170.584 229.605C170.356 229.372 170.011 229.256 169.548 229.256C169.068 229.256 168.692 229.361 168.419 229.571C168.146 229.781 167.954 230.006 167.844 230.244L166.889 229.903C167.059 229.506 167.287 229.196 167.571 228.974C167.858 228.75 168.17 228.594 168.508 228.506C168.849 228.415 169.184 228.369 169.514 228.369C169.724 228.369 169.966 228.395 170.238 228.446C170.514 228.494 170.78 228.595 171.035 228.749C171.294 228.902 171.508 229.134 171.679 229.443C171.849 229.753 171.934 230.168 171.934 230.688V235H170.929V234.114H170.878C170.809 234.256 170.696 234.408 170.537 234.57C170.378 234.732 170.166 234.869 169.902 234.983C169.638 235.097 169.315 235.153 168.934 235.153ZM169.088 234.25C169.486 234.25 169.821 234.172 170.094 234.016C170.369 233.859 170.577 233.658 170.716 233.411C170.858 233.163 170.929 232.903 170.929 232.631V231.71C170.886 231.761 170.792 231.808 170.648 231.851C170.506 231.891 170.341 231.926 170.153 231.957C169.969 231.986 169.788 232.011 169.612 232.034C169.439 232.054 169.298 232.071 169.19 232.085C168.929 232.119 168.684 232.175 168.457 232.251C168.233 232.325 168.051 232.437 167.912 232.588C167.775 232.736 167.707 232.937 167.707 233.193C167.707 233.543 167.836 233.807 168.095 233.986C168.356 234.162 168.687 234.25 169.088 234.25ZM173.77 235V228.455H174.742V229.443H174.81C174.929 229.119 175.145 228.857 175.458 228.655C175.77 228.453 176.122 228.352 176.514 228.352C176.588 228.352 176.681 228.354 176.791 228.357C176.902 228.359 176.986 228.364 177.043 228.369V229.392C177.009 229.384 176.931 229.371 176.808 229.354C176.689 229.334 176.563 229.324 176.429 229.324C176.111 229.324 175.827 229.391 175.577 229.524C175.33 229.655 175.134 229.837 174.989 230.07C174.847 230.3 174.776 230.562 174.776 230.858V235H173.77Z" fill="#667085"/>
<path d="M223.017 235H221.909L225.114 226.273H226.205L229.409 235H228.301L225.693 227.653H225.625L223.017 235ZM223.426 231.591H227.892V232.528H223.426V231.591ZM230.632 237.455V228.455H231.604V229.494H231.723C231.797 229.381 231.899 229.236 232.03 229.06C232.164 228.881 232.354 228.722 232.601 228.582C232.851 228.44 233.189 228.369 233.615 228.369C234.166 228.369 234.652 228.507 235.073 228.783C235.493 229.058 235.821 229.449 236.057 229.955C236.293 230.46 236.411 231.057 236.411 231.744C236.411 232.438 236.293 233.038 236.057 233.547C235.821 234.053 235.495 234.445 235.077 234.723C234.659 234.999 234.178 235.136 233.632 235.136C233.212 235.136 232.875 235.067 232.622 234.928C232.37 234.786 232.175 234.625 232.039 234.446C231.902 234.264 231.797 234.114 231.723 233.994H231.638V237.455H230.632ZM231.621 231.727C231.621 232.222 231.693 232.658 231.838 233.036C231.983 233.411 232.195 233.705 232.473 233.918C232.752 234.128 233.093 234.233 233.496 234.233C233.916 234.233 234.267 234.122 234.549 233.901C234.833 233.676 235.046 233.375 235.188 232.997C235.333 232.616 235.405 232.193 235.405 231.727C235.405 231.267 235.334 230.852 235.192 230.483C235.053 230.111 234.841 229.817 234.557 229.601C234.276 229.382 233.922 229.273 233.496 229.273C233.087 229.273 232.743 229.376 232.465 229.584C232.186 229.788 231.976 230.075 231.834 230.445C231.692 230.811 231.621 231.239 231.621 231.727ZM237.945 235V228.455H238.916V229.443H238.985C239.104 229.119 239.32 228.857 239.632 228.655C239.945 228.453 240.297 228.352 240.689 228.352C240.763 228.352 240.855 228.354 240.966 228.357C241.077 228.359 241.161 228.364 241.218 228.369V229.392C241.184 229.384 241.105 229.371 240.983 229.354C240.864 229.334 240.737 229.324 240.604 229.324C240.286 229.324 240.002 229.391 239.752 229.524C239.505 229.655 239.309 229.837 239.164 230.07C239.022 230.3 238.951 230.562 238.951 230.858V235H237.945Z" fill="#667085"/>
<path d="M286.843 226.273H288.104L291.07 233.517H291.172L294.138 226.273H295.4V235H294.411V228.369H294.326L291.599 235H290.644L287.917 228.369H287.832V235H286.843V226.273ZM299.309 235.153C298.894 235.153 298.517 235.075 298.179 234.919C297.841 234.76 297.573 234.531 297.374 234.233C297.175 233.932 297.076 233.568 297.076 233.142C297.076 232.767 297.149 232.463 297.297 232.23C297.445 231.994 297.642 231.81 297.889 231.676C298.137 231.543 298.409 231.443 298.708 231.378C299.009 231.31 299.311 231.256 299.615 231.216C300.013 231.165 300.335 231.126 300.583 231.101C300.833 231.072 301.014 231.026 301.128 230.96C301.245 230.895 301.303 230.781 301.303 230.619V230.585C301.303 230.165 301.188 229.838 300.958 229.605C300.73 229.372 300.385 229.256 299.922 229.256C299.442 229.256 299.066 229.361 298.793 229.571C298.52 229.781 298.328 230.006 298.218 230.244L297.263 229.903C297.434 229.506 297.661 229.196 297.945 228.974C298.232 228.75 298.544 228.594 298.882 228.506C299.223 228.415 299.559 228.369 299.888 228.369C300.098 228.369 300.34 228.395 300.612 228.446C300.888 228.494 301.154 228.595 301.409 228.749C301.668 228.902 301.882 229.134 302.053 229.443C302.223 229.753 302.309 230.168 302.309 230.688V235H301.303V234.114H301.252C301.184 234.256 301.07 234.408 300.911 234.57C300.752 234.732 300.54 234.869 300.276 234.983C300.012 235.097 299.689 235.153 299.309 235.153ZM299.462 234.25C299.86 234.25 300.195 234.172 300.468 234.016C300.743 233.859 300.951 233.658 301.09 233.411C301.232 233.163 301.303 232.903 301.303 232.631V231.71C301.26 231.761 301.166 231.808 301.022 231.851C300.88 231.891 300.715 231.926 300.527 231.957C300.343 231.986 300.162 232.011 299.986 232.034C299.813 232.054 299.672 232.071 299.564 232.085C299.303 232.119 299.059 232.175 298.831 232.251C298.607 232.325 298.425 232.437 298.286 232.588C298.149 232.736 298.081 232.937 298.081 233.193C298.081 233.543 298.21 233.807 298.469 233.986C298.73 234.162 299.061 234.25 299.462 234.25ZM304.557 237.455C304.387 237.455 304.235 237.44 304.101 237.412C303.968 237.386 303.876 237.361 303.824 237.335L304.08 236.449C304.324 236.511 304.54 236.534 304.728 236.517C304.915 236.5 305.082 236.416 305.226 236.266C305.374 236.118 305.509 235.878 305.631 235.545L305.819 235.034L303.398 228.455H304.489L306.296 233.67H306.364L308.171 228.455H309.262L306.484 235.955C306.359 236.293 306.204 236.572 306.019 236.794C305.834 237.018 305.62 237.185 305.376 237.293C305.134 237.401 304.861 237.455 304.557 237.455Z" fill="#667085"/>
<path d="M358.553 226.273H359.61V232.511C359.61 233.068 359.508 233.541 359.303 233.93C359.098 234.32 358.81 234.615 358.438 234.817C358.066 235.018 357.627 235.119 357.121 235.119C356.644 235.119 356.219 235.033 355.847 234.859C355.475 234.683 355.182 234.433 354.969 234.109C354.756 233.786 354.65 233.401 354.65 232.955H355.689C355.689 233.202 355.75 233.418 355.873 233.602C355.998 233.784 356.168 233.926 356.384 234.028C356.6 234.131 356.846 234.182 357.121 234.182C357.425 234.182 357.684 234.118 357.897 233.99C358.11 233.862 358.272 233.675 358.383 233.428C358.496 233.178 358.553 232.872 358.553 232.511V226.273ZM365.716 232.324V228.455H366.722V235H365.716V233.892H365.648C365.495 234.224 365.256 234.507 364.932 234.74C364.608 234.97 364.199 235.085 363.705 235.085C363.296 235.085 362.932 234.996 362.614 234.817C362.296 234.635 362.046 234.362 361.864 233.999C361.682 233.632 361.591 233.17 361.591 232.614V228.455H362.597V232.545C362.597 233.023 362.731 233.403 362.998 233.688C363.267 233.972 363.611 234.114 364.029 234.114C364.279 234.114 364.533 234.05 364.792 233.922C365.053 233.794 365.272 233.598 365.448 233.334C365.627 233.07 365.716 232.733 365.716 232.324ZM369.57 231.062V235H368.564V228.455H369.536V229.477H369.621C369.774 229.145 370.007 228.878 370.32 228.676C370.632 228.472 371.036 228.369 371.53 228.369C371.973 228.369 372.361 228.46 372.693 228.642C373.026 228.821 373.284 229.094 373.469 229.46C373.653 229.824 373.746 230.284 373.746 230.841V235H372.74V230.909C372.74 230.395 372.607 229.994 372.34 229.707C372.073 229.418 371.706 229.273 371.24 229.273C370.919 229.273 370.632 229.342 370.379 229.482C370.129 229.621 369.932 229.824 369.787 230.091C369.642 230.358 369.57 230.682 369.57 231.062Z" fill="#667085"/>
<path d="M423.821 226.273H424.877V232.511C424.877 233.068 424.775 233.541 424.571 233.93C424.366 234.32 424.078 234.615 423.706 234.817C423.333 235.018 422.894 235.119 422.389 235.119C421.911 235.119 421.487 235.033 421.115 234.859C420.742 234.683 420.45 234.433 420.237 234.109C420.024 233.786 419.917 233.401 419.917 232.955H420.957C420.957 233.202 421.018 233.418 421.14 233.602C421.265 233.784 421.436 233.926 421.652 234.028C421.867 234.131 422.113 234.182 422.389 234.182C422.693 234.182 422.951 234.118 423.164 233.99C423.377 233.862 423.539 233.675 423.65 233.428C423.764 233.178 423.821 232.872 423.821 232.511V226.273ZM430.984 232.324V228.455H431.99V235H430.984V233.892H430.916C430.762 234.224 430.524 234.507 430.2 234.74C429.876 234.97 429.467 235.085 428.973 235.085C428.563 235.085 428.2 234.996 427.882 234.817C427.563 234.635 427.313 234.362 427.132 233.999C426.95 233.632 426.859 233.17 426.859 232.614V228.455H427.865V232.545C427.865 233.023 427.998 233.403 428.265 233.688C428.535 233.972 428.879 234.114 429.296 234.114C429.546 234.114 429.801 234.05 430.059 233.922C430.321 233.794 430.539 233.598 430.715 233.334C430.894 233.07 430.984 232.733 430.984 232.324ZM434.837 226.273V235H433.832V226.273H434.837Z" fill="#667085"/>
<path d="M481.991 235H480.883L484.088 226.273H485.178L488.383 235H487.275L484.667 227.653H484.599L481.991 235ZM482.4 231.591H486.866V232.528H482.4V231.591ZM493.731 232.324V228.455H494.737V235H493.731V233.892H493.663C493.509 234.224 493.271 234.507 492.947 234.74C492.623 234.97 492.214 235.085 491.72 235.085C491.311 235.085 490.947 234.996 490.629 234.817C490.311 234.635 490.061 234.362 489.879 233.999C489.697 233.632 489.606 233.17 489.606 232.614V228.455H490.612V232.545C490.612 233.023 490.745 233.403 491.012 233.688C491.282 233.972 491.626 234.114 492.044 234.114C492.294 234.114 492.548 234.05 492.806 233.922C493.068 233.794 493.286 233.598 493.463 233.334C493.642 233.07 493.731 232.733 493.731 232.324ZM499.221 237.591C498.735 237.591 498.317 237.528 497.968 237.403C497.618 237.281 497.327 237.119 497.094 236.918C496.864 236.719 496.681 236.506 496.545 236.278L497.346 235.716C497.437 235.835 497.552 235.972 497.691 236.125C497.83 236.281 498.02 236.416 498.262 236.53C498.506 236.646 498.826 236.705 499.221 236.705C499.749 236.705 500.185 236.577 500.529 236.321C500.873 236.065 501.045 235.665 501.045 235.119V233.79H500.959C500.885 233.909 500.78 234.057 500.644 234.233C500.51 234.406 500.317 234.561 500.064 234.697C499.814 234.831 499.476 234.898 499.05 234.898C498.522 234.898 498.047 234.773 497.627 234.523C497.209 234.273 496.878 233.909 496.634 233.432C496.393 232.955 496.272 232.375 496.272 231.693C496.272 231.023 496.39 230.439 496.626 229.942C496.861 229.442 497.189 229.055 497.61 228.783C498.03 228.507 498.516 228.369 499.067 228.369C499.493 228.369 499.831 228.44 500.081 228.582C500.334 228.722 500.528 228.881 500.661 229.06C500.797 229.236 500.903 229.381 500.976 229.494H501.079V228.455H502.05V235.188C502.05 235.75 501.922 236.207 501.667 236.56C501.414 236.915 501.073 237.175 500.644 237.339C500.218 237.507 499.743 237.591 499.221 237.591ZM499.187 233.994C499.59 233.994 499.931 233.902 500.209 233.717C500.488 233.533 500.699 233.267 500.844 232.92C500.989 232.574 501.062 232.159 501.062 231.676C501.062 231.205 500.991 230.788 500.849 230.428C500.706 230.067 500.496 229.784 500.218 229.58C499.939 229.375 499.596 229.273 499.187 229.273C498.76 229.273 498.405 229.381 498.121 229.597C497.84 229.812 497.628 230.102 497.486 230.466C497.347 230.83 497.278 231.233 497.278 231.676C497.278 232.131 497.349 232.533 497.491 232.882C497.635 233.229 497.849 233.501 498.13 233.7C498.414 233.896 498.766 233.994 499.187 233.994Z" fill="#667085"/>
<path d="M553.31 228.455C553.259 228.023 553.051 227.688 552.688 227.449C552.324 227.21 551.878 227.091 551.35 227.091C550.963 227.091 550.625 227.153 550.336 227.278C550.049 227.403 549.824 227.575 549.662 227.794C549.503 228.013 549.424 228.261 549.424 228.54C549.424 228.773 549.479 228.973 549.59 229.141C549.703 229.305 549.848 229.443 550.025 229.554C550.201 229.662 550.385 229.751 550.578 229.822C550.772 229.891 550.949 229.946 551.111 229.989L551.998 230.227C552.225 230.287 552.478 230.369 552.756 230.474C553.037 230.58 553.306 230.723 553.561 230.905C553.82 231.084 554.033 231.314 554.201 231.595C554.368 231.876 554.452 232.222 554.452 232.631C554.452 233.102 554.328 233.528 554.081 233.909C553.837 234.29 553.479 234.592 553.007 234.817C552.539 235.041 551.969 235.153 551.299 235.153C550.674 235.153 550.132 235.053 549.675 234.851C549.221 234.649 548.863 234.368 548.601 234.007C548.343 233.646 548.196 233.227 548.162 232.75H549.253C549.282 233.08 549.392 233.352 549.586 233.568C549.782 233.781 550.029 233.94 550.327 234.045C550.628 234.148 550.952 234.199 551.299 234.199C551.702 234.199 552.064 234.134 552.385 234.003C552.706 233.869 552.961 233.685 553.148 233.449C553.336 233.21 553.429 232.932 553.429 232.614C553.429 232.324 553.348 232.088 553.186 231.906C553.025 231.724 552.811 231.577 552.547 231.463C552.283 231.349 551.998 231.25 551.691 231.165L550.617 230.858C549.935 230.662 549.395 230.382 548.998 230.018C548.6 229.655 548.401 229.179 548.401 228.591C548.401 228.102 548.533 227.676 548.797 227.312C549.064 226.946 549.422 226.662 549.871 226.46C550.323 226.256 550.827 226.153 551.384 226.153C551.946 226.153 552.446 226.254 552.884 226.456C553.321 226.655 553.668 226.928 553.924 227.274C554.182 227.621 554.319 228.014 554.333 228.455H553.31ZM558.798 235.136C558.167 235.136 557.623 234.997 557.165 234.719C556.711 234.438 556.36 234.045 556.113 233.543C555.869 233.037 555.746 232.449 555.746 231.778C555.746 231.108 555.869 230.517 556.113 230.006C556.36 229.491 556.704 229.091 557.144 228.804C557.587 228.514 558.104 228.369 558.695 228.369C559.036 228.369 559.373 228.426 559.705 228.54C560.038 228.653 560.34 228.838 560.613 229.094C560.886 229.347 561.103 229.682 561.265 230.099C561.427 230.517 561.508 231.031 561.508 231.642V232.068H556.462V231.199H560.485C560.485 230.83 560.411 230.5 560.263 230.21C560.119 229.92 559.911 229.692 559.641 229.524C559.374 229.357 559.059 229.273 558.695 229.273C558.295 229.273 557.948 229.372 557.656 229.571C557.366 229.767 557.143 230.023 556.987 230.338C556.83 230.653 556.752 230.991 556.752 231.352V231.932C556.752 232.426 556.837 232.845 557.008 233.189C557.181 233.53 557.421 233.79 557.728 233.969C558.035 234.145 558.391 234.233 558.798 234.233C559.062 234.233 559.3 234.196 559.513 234.122C559.729 234.045 559.915 233.932 560.072 233.781C560.228 233.628 560.349 233.437 560.434 233.21L561.406 233.483C561.303 233.812 561.131 234.102 560.89 234.352C560.648 234.599 560.35 234.793 559.995 234.932C559.64 235.068 559.241 235.136 558.798 235.136ZM563.038 237.455V228.455H564.009V229.494H564.129C564.202 229.381 564.305 229.236 564.435 229.06C564.569 228.881 564.759 228.722 565.006 228.582C565.256 228.44 565.594 228.369 566.021 228.369C566.572 228.369 567.058 228.507 567.478 228.783C567.898 229.058 568.227 229.449 568.462 229.955C568.698 230.46 568.816 231.057 568.816 231.744C568.816 232.438 568.698 233.038 568.462 233.547C568.227 234.053 567.9 234.445 567.482 234.723C567.065 234.999 566.583 235.136 566.038 235.136C565.617 235.136 565.281 235.067 565.028 234.928C564.775 234.786 564.58 234.625 564.444 234.446C564.308 234.264 564.202 234.114 564.129 233.994H564.043V237.455H563.038ZM564.026 231.727C564.026 232.222 564.099 232.658 564.244 233.036C564.388 233.411 564.6 233.705 564.879 233.918C565.157 234.128 565.498 234.233 565.901 234.233C566.322 234.233 566.673 234.122 566.954 233.901C567.238 233.676 567.451 233.375 567.593 232.997C567.738 232.616 567.81 232.193 567.81 231.727C567.81 231.267 567.739 230.852 567.597 230.483C567.458 230.111 567.246 229.817 566.962 229.601C566.681 229.382 566.327 229.273 565.901 229.273C565.492 229.273 565.148 229.376 564.87 229.584C564.592 229.788 564.381 230.075 564.239 230.445C564.097 230.811 564.026 231.239 564.026 231.727Z" fill="#667085"/>
<path d="M622.456 230.636C622.456 231.557 622.289 232.352 621.957 233.023C621.625 233.693 621.169 234.21 620.589 234.574C620.01 234.938 619.348 235.119 618.603 235.119C617.859 235.119 617.197 234.938 616.618 234.574C616.038 234.21 615.582 233.693 615.25 233.023C614.917 232.352 614.751 231.557 614.751 230.636C614.751 229.716 614.917 228.92 615.25 228.25C615.582 227.58 616.038 227.062 616.618 226.699C617.197 226.335 617.859 226.153 618.603 226.153C619.348 226.153 620.01 226.335 620.589 226.699C621.169 227.062 621.625 227.58 621.957 228.25C622.289 228.92 622.456 229.716 622.456 230.636ZM621.433 230.636C621.433 229.881 621.306 229.243 621.054 228.723C620.804 228.203 620.464 227.81 620.035 227.543C619.609 227.276 619.132 227.142 618.603 227.142C618.075 227.142 617.596 227.276 617.167 227.543C616.741 227.81 616.402 228.203 616.149 228.723C615.899 229.243 615.774 229.881 615.774 230.636C615.774 231.392 615.899 232.03 616.149 232.55C616.402 233.07 616.741 233.463 617.167 233.73C617.596 233.997 618.075 234.131 618.603 234.131C619.132 234.131 619.609 233.997 620.035 233.73C620.464 233.463 620.804 233.07 621.054 232.55C621.306 232.03 621.433 231.392 621.433 230.636ZM626.755 235.136C626.142 235.136 625.613 234.991 625.17 234.702C624.727 234.412 624.386 234.013 624.147 233.504C623.909 232.996 623.789 232.415 623.789 231.761C623.789 231.097 623.912 230.51 624.156 230.001C624.403 229.49 624.747 229.091 625.187 228.804C625.63 228.514 626.147 228.369 626.738 228.369C627.199 228.369 627.613 228.455 627.983 228.625C628.352 228.795 628.654 229.034 628.89 229.341C629.126 229.648 629.272 230.006 629.329 230.415H628.324C628.247 230.116 628.076 229.852 627.812 229.622C627.551 229.389 627.199 229.273 626.755 229.273C626.363 229.273 626.02 229.375 625.724 229.58C625.431 229.781 625.203 230.067 625.038 230.436C624.876 230.803 624.795 231.233 624.795 231.727C624.795 232.233 624.875 232.673 625.034 233.048C625.196 233.423 625.423 233.714 625.716 233.922C626.011 234.129 626.358 234.233 626.755 234.233C627.017 234.233 627.254 234.188 627.467 234.097C627.68 234.006 627.86 233.875 628.008 233.705C628.156 233.534 628.261 233.33 628.324 233.091H629.329C629.272 233.477 629.132 233.825 628.907 234.135C628.686 234.442 628.392 234.686 628.025 234.868C627.662 235.047 627.238 235.136 626.755 235.136ZM633.646 228.455V229.307H630.254V228.455H633.646ZM631.243 226.886H632.248V233.125C632.248 233.409 632.289 233.622 632.372 233.764C632.457 233.903 632.565 233.997 632.696 234.045C632.829 234.091 632.97 234.114 633.118 234.114C633.228 234.114 633.319 234.108 633.39 234.097C633.461 234.082 633.518 234.071 633.561 234.062L633.765 234.966C633.697 234.991 633.602 235.017 633.48 235.043C633.358 235.071 633.203 235.085 633.015 235.085C632.731 235.085 632.453 235.024 632.18 234.902C631.91 234.78 631.686 234.594 631.507 234.344C631.331 234.094 631.243 233.778 631.243 233.398V226.886Z" fill="#667085"/>
<path d="M686.975 226.273V235H685.953L681.197 228.148H681.112V235H680.055V226.273H681.078L685.85 233.142H685.936V226.273H686.975ZM691.613 235.136C691.022 235.136 690.503 234.996 690.057 234.714C689.614 234.433 689.268 234.04 689.018 233.534C688.77 233.028 688.647 232.437 688.647 231.761C688.647 231.08 688.77 230.484 689.018 229.976C689.268 229.467 689.614 229.072 690.057 228.791C690.503 228.51 691.022 228.369 691.613 228.369C692.204 228.369 692.721 228.51 693.164 228.791C693.61 229.072 693.956 229.467 694.204 229.976C694.454 230.484 694.579 231.08 694.579 231.761C694.579 232.437 694.454 233.028 694.204 233.534C693.956 234.04 693.61 234.433 693.164 234.714C692.721 234.996 692.204 235.136 691.613 235.136ZM691.613 234.233C692.062 234.233 692.431 234.118 692.721 233.888C693.01 233.658 693.225 233.355 693.364 232.98C693.503 232.605 693.573 232.199 693.573 231.761C693.573 231.324 693.503 230.916 693.364 230.538C693.225 230.161 693.01 229.855 692.721 229.622C692.431 229.389 692.062 229.273 691.613 229.273C691.164 229.273 690.795 229.389 690.505 229.622C690.215 229.855 690.001 230.161 689.861 230.538C689.722 230.916 689.653 231.324 689.653 231.761C689.653 232.199 689.722 232.605 689.861 232.98C690.001 233.355 690.215 233.658 690.505 233.888C690.795 234.118 691.164 234.233 691.613 234.233ZM701.232 228.455L698.811 235H697.789L695.368 228.455H696.459L698.266 233.67H698.334L700.141 228.455H701.232Z" fill="#667085"/>
<path d="M750.094 235H747.401V226.273H750.213C751.06 226.273 751.784 226.447 752.386 226.797C752.989 227.143 753.45 227.642 753.771 228.293C754.092 228.94 754.253 229.716 754.253 230.619C754.253 231.528 754.091 232.311 753.767 232.967C753.443 233.621 752.972 234.124 752.352 234.476C751.733 234.825 750.98 235 750.094 235ZM748.457 234.062H750.026C750.747 234.062 751.345 233.923 751.82 233.645C752.294 233.366 752.648 232.97 752.881 232.456C753.114 231.942 753.23 231.33 753.23 230.619C753.23 229.915 753.115 229.308 752.885 228.8C752.655 228.288 752.311 227.896 751.854 227.624C751.396 227.348 750.827 227.21 750.145 227.21H748.457V234.062ZM758.634 235.136C758.003 235.136 757.459 234.997 757.001 234.719C756.547 234.438 756.196 234.045 755.949 233.543C755.705 233.037 755.582 232.449 755.582 231.778C755.582 231.108 755.705 230.517 755.949 230.006C756.196 229.491 756.54 229.091 756.98 228.804C757.423 228.514 757.94 228.369 758.531 228.369C758.872 228.369 759.209 228.426 759.541 228.54C759.874 228.653 760.176 228.838 760.449 229.094C760.722 229.347 760.939 229.682 761.101 230.099C761.263 230.517 761.344 231.031 761.344 231.642V232.068H756.298V231.199H760.321C760.321 230.83 760.247 230.5 760.099 230.21C759.955 229.92 759.747 229.692 759.477 229.524C759.21 229.357 758.895 229.273 758.531 229.273C758.131 229.273 757.784 229.372 757.491 229.571C757.202 229.767 756.979 230.023 756.822 230.338C756.666 230.653 756.588 230.991 756.588 231.352V231.932C756.588 232.426 756.673 232.845 756.844 233.189C757.017 233.53 757.257 233.79 757.564 233.969C757.871 234.145 758.227 234.233 758.634 234.233C758.898 234.233 759.136 234.196 759.349 234.122C759.565 234.045 759.751 233.932 759.908 233.781C760.064 233.628 760.185 233.437 760.27 233.21L761.241 233.483C761.139 233.812 760.967 234.102 760.726 234.352C760.484 234.599 760.186 234.793 759.831 234.932C759.476 235.068 759.077 235.136 758.634 235.136ZM765.533 235.136C764.919 235.136 764.391 234.991 763.947 234.702C763.504 234.412 763.163 234.013 762.925 233.504C762.686 232.996 762.567 232.415 762.567 231.761C762.567 231.097 762.689 230.51 762.933 230.001C763.18 229.49 763.524 229.091 763.964 228.804C764.408 228.514 764.925 228.369 765.516 228.369C765.976 228.369 766.391 228.455 766.76 228.625C767.129 228.795 767.432 229.034 767.668 229.341C767.903 229.648 768.05 230.006 768.107 230.415H767.101C767.024 230.116 766.854 229.852 766.589 229.622C766.328 229.389 765.976 229.273 765.533 229.273C765.141 229.273 764.797 229.375 764.501 229.58C764.209 229.781 763.98 230.067 763.815 230.436C763.653 230.803 763.572 231.233 763.572 231.727C763.572 232.233 763.652 232.673 763.811 233.048C763.973 233.423 764.2 233.714 764.493 233.922C764.788 234.129 765.135 234.233 765.533 234.233C765.794 234.233 766.031 234.188 766.244 234.097C766.457 234.006 766.638 233.875 766.786 233.705C766.933 233.534 767.038 233.33 767.101 233.091H768.107C768.05 233.477 767.909 233.825 767.685 234.135C767.463 234.442 767.169 234.686 766.803 234.868C766.439 235.047 766.016 235.136 765.533 235.136Z" fill="#667085"/>
<g style="mix-blend-mode:multiply" opacity="0.1">
<path d="M18.949 102.345L1 105.656V216H793V65.4375L776.173 70.9365H758.224L749.81 76.0855H738.592C735.601 76.9436 729.393 78.6599 728.496 78.6599C727.598 78.6599 721.765 79.6897 718.96 80.2046L694.841 81.7493L680.819 83.8089L658.382 81.7493L646.603 80.2046L629.776 83.8089H612.388L597.805 80.2046C592.195 79.6897 580.753 78.6599 579.856 78.6599C578.958 78.6599 571.629 77.6301 568.076 77.1153H559.102L537.788 78.6599L519.278 80.2046L510.864 83.8089L485.623 85.3536L472.722 86.8983L458.139 89.4728L444.116 95.6516H437.946L421.119 94.1069L404.853 89.4728L390.83 86.8983H382.416L367.833 85.3536L347.079 86.8983H327.448L307.816 89.4728L288.184 92.5622L273.601 95.6516L257.895 97.1963L236.581 95.6516L219.754 97.1963L202.926 98.741L187.221 97.1963L165.907 100.801L147.958 98.741L130.008 100.801H112.62L94.1105 102.345H75.0397L55.9688 103.89L37.4589 100.801L18.949 102.345Z" fill="url(#paint0_linear_198_18988)"/>
</g>
<path d="M1 105.656L18.949 102.345L37.4589 100.801L55.9688 103.89L75.0397 102.345H94.1105L112.62 100.801H130.009L147.958 98.741L165.907 100.801L187.221 97.1963L202.926 98.741L219.754 97.1963L236.581 95.6516L257.895 97.1963L273.601 95.6516L288.184 92.5622L307.816 89.4728L327.448 86.8983H347.079L367.833 85.3536L382.416 86.8983H390.83L404.853 89.4728L421.119 94.1069L437.946 95.6516H444.116L458.139 89.4728L472.722 86.8983L485.623 85.3536L510.864 83.8089L519.278 80.2046L537.788 78.6599L559.102 77.1153H568.077C571.629 77.6301 578.958 78.6599 579.856 78.6599C580.753 78.6599 592.195 79.6897 597.805 80.2046L612.388 83.8089H629.776L646.603 80.2046L658.382 81.7493L680.819 83.8089L694.841 81.7493L718.96 80.2046C721.765 79.6897 727.598 78.6599 728.496 78.6599C729.393 78.6599 735.601 76.9436 738.592 76.0855H749.81L758.224 70.9365H776.173L793 65.4375" stroke="#1570EF" stroke-width="2" stroke-linecap="round" stroke-linejoin="round"/>
<path d="M1 145.713L18.949 143.604L37.4589 142.62L55.9688 144.587L75.0397 143.604H94.1105L112.62 142.62H130.009L147.958 141.308L165.907 142.62L187.221 140.324L202.926 141.308L219.754 140.324L236.581 139.34L257.895 140.324L273.601 139.34L288.184 137.372L307.816 135.404L327.448 133.764H347.079L367.833 132.78L382.416 133.764H390.83L404.853 135.404L421.119 138.356L437.946 139.34H444.116L458.139 135.404L472.722 133.764L485.623 132.78L510.864 131.796L519.278 129.5L537.788 128.516L559.102 127.532H568.076C571.629 127.86 578.958 128.516 579.856 128.516C580.753 128.516 592.196 129.172 597.805 129.5L612.388 131.796H629.776L646.603 129.5L658.382 130.484L680.819 131.796L694.841 130.484L718.96 129.5C721.765 129.172 727.598 128.516 728.496 128.516C729.393 128.516 735.601 127.423 738.592 126.876H749.81L758.224 123.597H776.173L793 120.094" stroke="#53B1FD" stroke-width="2" stroke-linecap="round" stroke-linejoin="round"/>
<path d="M1 196.406L18.949 190.803L37.4589 188.189L55.9688 193.417L75.0397 190.803H94.1105L112.62 188.189H130.009L147.958 184.704L165.907 188.189L187.221 182.089L202.926 184.704L219.754 182.089L236.581 179.475L257.895 182.089L273.601 179.475L288.184 174.247L307.816 169.019L327.448 164.662H347.079L367.833 162.048L382.416 164.662H390.83L404.853 169.019L421.119 176.861L437.946 179.475H444.116L458.139 169.019L472.722 164.662L485.623 162.048L510.864 159.434L519.278 153.334L537.788 150.72L559.102 148.106H568.076C571.629 148.977 578.958 150.72 579.856 150.72C580.753 150.72 592.196 152.463 597.805 153.334L612.388 159.434H629.776L646.603 153.334L658.382 155.948L680.819 159.434L694.841 155.948L718.96 153.334C721.765 152.463 727.598 150.72 728.496 150.72C729.393 150.72 735.601 147.816 738.592 146.363H749.81L758.224 137.65H776.173L793 128.344" stroke="#1849A9" stroke-width="2" stroke-linecap="round" stroke-linejoin="round"/>
<line x1="608.5" y1="131" x2="608.5" y2="214" stroke="#1570EF" stroke-dasharray="4.4 4.4"/>
<g filter="url(#filter0_dd_198_18988)">
<path fill-rule="evenodd" clip-rule="evenodd" d="M399.198 105.244C397.779 107.585 395.479 107.585 394.06 105.244L391.492 101.212C390.631 99.8603 390.201 99.1843 389.622 98.6942C389.109 98.2604 388.515 97.9342 387.874 97.7351C387.149 97.5102 386.348 97.5102 384.745 97.5102H350.046C345.084 97.5102 343.285 96.8495 341.471 95.6089C339.657 94.3683 338.233 92.5478 337.263 90.2281C336.293 87.9083 335.776 85.6074 335.776 79.2621V32.2481C335.776 25.9028 336.293 23.6019 337.263 21.2821C338.233 18.9624 339.657 17.1419 341.471 15.9013C343.285 14.6607 345.084 14 350.046 14H443.954C448.916 14 450.715 14.6607 452.529 15.9013C454.343 17.1419 455.767 18.9624 456.737 21.2821C457.707 23.6019 458.224 25.9028 458.224 32.2481V79.2621C458.224 85.6074 457.707 87.9083 456.737 90.2281C455.767 92.5478 454.343 94.3683 452.529 95.6089C450.715 96.8495 448.916 97.5102 443.954 97.5102H412.902C409.696 97.5102 408.093 97.5102 406.645 97.9601C405.363 98.3583 404.174 99.0106 403.149 99.8782C401.991 100.858 401.13 102.21 399.408 104.914L399.198 105.244Z" fill="white"/>
</g>
<path d="M534.119 25.8182H535.983L539.224 33.733H539.344L542.585 25.8182H544.45V36H542.988V28.6321H542.893L539.891 35.9851H538.678L535.675 28.6271H535.58V36H534.119V25.8182ZM548.786 36.169C548.302 36.169 547.865 36.0795 547.474 35.9006C547.082 35.7183 546.773 35.4548 546.544 35.1101C546.318 34.7654 546.206 34.3428 546.206 33.8423C546.206 33.4115 546.289 33.0568 546.454 32.7784C546.62 32.5 546.844 32.2796 547.126 32.1172C547.407 31.9548 547.722 31.8321 548.07 31.7493C548.418 31.6664 548.773 31.6035 549.134 31.5604C549.591 31.5073 549.963 31.4643 550.248 31.4311C550.533 31.3946 550.74 31.3366 550.869 31.2571C550.998 31.1776 551.063 31.0483 551.063 30.8693V30.8345C551.063 30.4003 550.94 30.0639 550.695 29.8253C550.453 29.5866 550.092 29.4673 549.611 29.4673C549.111 29.4673 548.716 29.5784 548.428 29.8004C548.143 30.0192 547.946 30.2628 547.836 30.5312L546.439 30.2131C546.605 29.7491 546.847 29.3745 547.165 29.0895C547.487 28.8011 547.856 28.5923 548.274 28.4631C548.692 28.3305 549.131 28.2642 549.591 28.2642C549.896 28.2642 550.22 28.3007 550.561 28.3736C550.906 28.4432 551.227 28.5724 551.525 28.7614C551.827 28.9503 552.074 29.2204 552.266 29.5717C552.458 29.9197 552.555 30.3722 552.555 30.929V36H551.103V34.956H551.043C550.947 35.1482 550.803 35.3371 550.611 35.5227C550.418 35.7083 550.171 35.8625 549.87 35.9851C549.568 36.1077 549.207 36.169 548.786 36.169ZM549.109 34.9759C549.52 34.9759 549.872 34.8946 550.163 34.7322C550.458 34.5698 550.682 34.3577 550.834 34.0959C550.99 33.8307 551.068 33.5473 551.068 33.2457V32.2614C551.015 32.3144 550.912 32.3641 550.76 32.4105C550.611 32.4536 550.44 32.4917 550.248 32.5249C550.055 32.5547 549.868 32.5829 549.686 32.6094C549.504 32.6326 549.351 32.6525 549.229 32.669C548.94 32.7055 548.677 32.7668 548.438 32.853C548.203 32.9392 548.014 33.0634 547.871 33.2259C547.732 33.3849 547.662 33.5971 547.662 33.8622C547.662 34.2301 547.798 34.5085 548.07 34.6974C548.342 34.883 548.688 34.9759 549.109 34.9759ZM555.201 38.8636C554.979 38.8636 554.776 38.8454 554.594 38.8089C554.412 38.7758 554.276 38.7393 554.186 38.6996L554.544 37.4815C554.816 37.5545 555.058 37.5859 555.27 37.576C555.482 37.5661 555.67 37.4865 555.832 37.3374C555.998 37.1882 556.144 36.9446 556.27 36.6065L556.453 36.0994L553.659 28.3636H555.25L557.184 34.2898H557.264L559.198 28.3636H560.794L557.647 37.0192C557.501 37.4169 557.315 37.7533 557.09 38.0284C556.864 38.3068 556.596 38.5156 556.284 38.6548C555.973 38.794 555.612 38.8636 555.201 38.8636Z" fill="#667085"/>
<path d="M534.164 62V60.0057L538.823 55.6911C539.22 55.3075 539.552 54.9624 539.821 54.6555C540.093 54.3487 540.3 54.0483 540.441 53.7543C540.581 53.456 540.652 53.1342 540.652 52.7891C540.652 52.4055 540.564 52.0753 540.389 51.7983C540.215 51.517 539.976 51.3018 539.674 51.1527C539.371 50.9993 539.028 50.9226 538.644 50.9226C538.244 50.9226 537.894 51.0036 537.596 51.1655C537.298 51.3274 537.068 51.5597 536.906 51.8622C536.744 52.1648 536.663 52.5249 536.663 52.9425H534.036C534.036 52.0859 534.23 51.3423 534.617 50.7116C535.005 50.081 535.549 49.593 536.247 49.2479C536.946 48.9027 537.752 48.7301 538.664 48.7301C539.601 48.7301 540.417 48.8963 541.112 49.2287C541.811 49.5568 542.354 50.0128 542.742 50.5966C543.13 51.1804 543.323 51.8494 543.323 52.6037C543.323 53.098 543.225 53.5859 543.029 54.0675C542.838 54.549 542.495 55.0838 542 55.6719C541.506 56.2557 540.809 56.9567 539.91 57.7749L537.999 59.6477V59.7372H543.496V62H534.164ZM545.502 62V60.0057L550.161 55.6911C550.558 55.3075 550.89 54.9624 551.158 54.6555C551.431 54.3487 551.638 54.0483 551.778 53.7543C551.919 53.456 551.989 53.1342 551.989 52.7891C551.989 52.4055 551.902 52.0753 551.727 51.7983C551.553 51.517 551.314 51.3018 551.011 51.1527C550.709 50.9993 550.366 50.9226 549.982 50.9226C549.582 50.9226 549.232 51.0036 548.934 51.1655C548.636 51.3274 548.406 51.5597 548.244 51.8622C548.082 52.1648 548.001 52.5249 548.001 52.9425H545.374C545.374 52.0859 545.568 51.3423 545.955 50.7116C546.343 50.081 546.886 49.593 547.585 49.2479C548.284 48.9027 549.09 48.7301 550.002 48.7301C550.939 48.7301 551.755 48.8963 552.45 49.2287C553.149 49.5568 553.692 50.0128 554.08 50.5966C554.467 51.1804 554.661 51.8494 554.661 52.6037C554.661 53.098 554.563 53.5859 554.367 54.0675C554.176 54.549 553.832 55.0838 553.338 55.6719C552.844 56.2557 552.147 56.9567 551.248 57.7749L549.337 59.6477V59.7372H554.834V62H545.502ZM561.972 62.2876C560.873 62.2834 559.927 62.0128 559.134 61.4759C558.346 60.9389 557.739 60.1612 557.312 59.1428C556.891 58.1243 556.682 56.8991 556.686 55.4673C556.686 54.0398 556.897 52.8232 557.319 51.8175C557.745 50.8118 558.352 50.0469 559.141 49.5227C559.933 48.9943 560.877 48.7301 561.972 48.7301C563.067 48.7301 564.009 48.9943 564.797 49.5227C565.59 50.0511 566.199 50.8182 566.626 51.8239C567.052 52.8253 567.263 54.0398 567.258 55.4673C567.258 56.9034 567.045 58.1307 566.619 59.1491C566.197 60.1676 565.592 60.9453 564.804 61.4822C564.016 62.0192 563.072 62.2876 561.972 62.2876ZM561.972 59.9929C562.722 59.9929 563.321 59.6158 563.768 58.8615C564.216 58.1072 564.437 56.9759 564.433 55.4673C564.433 54.4744 564.331 53.6477 564.126 52.9872C563.926 52.3267 563.641 51.8303 563.27 51.4979C562.903 51.1655 562.471 50.9993 561.972 50.9993C561.226 50.9993 560.63 51.3722 560.182 52.1179C559.735 52.8636 559.509 53.9801 559.505 55.4673C559.505 56.473 559.605 57.3125 559.805 57.9858C560.01 58.6548 560.297 59.1577 560.668 59.4943C561.039 59.8267 561.474 59.9929 561.972 59.9929ZM571.69 60.2102L571.619 60.9134C571.564 61.4759 571.457 62.0362 571.3 62.5945C571.146 63.157 570.984 63.6662 570.814 64.1222C570.648 64.5781 570.514 64.9361 570.411 65.196H568.647C568.711 64.9446 568.798 64.593 568.909 64.1413C569.02 63.6939 569.124 63.1911 569.222 62.6328C569.32 62.0746 569.382 61.5057 569.408 60.9261L569.44 60.2102H571.69ZM578.571 62.179C577.616 62.179 576.766 62.0149 576.02 61.6868C575.279 61.3544 574.693 60.8984 574.263 60.3189C573.836 59.7351 573.617 59.0618 573.604 58.299H576.391C576.408 58.6186 576.513 58.8999 576.704 59.1428C576.9 59.3814 577.16 59.5668 577.484 59.6989C577.808 59.831 578.172 59.897 578.577 59.897C578.999 59.897 579.372 59.8224 579.696 59.6733C580.02 59.5241 580.273 59.3175 580.456 59.0533C580.64 58.7891 580.731 58.4844 580.731 58.1392C580.731 57.7898 580.633 57.4808 580.437 57.2124C580.245 56.9396 579.968 56.7266 579.606 56.5732C579.248 56.4197 578.822 56.343 578.328 56.343H577.107V54.3104H578.328C578.745 54.3104 579.114 54.2379 579.434 54.093C579.758 53.9482 580.009 53.7479 580.188 53.4922C580.367 53.2322 580.456 52.9297 580.456 52.5845C580.456 52.2564 580.378 51.9688 580.22 51.7216C580.066 51.4702 579.849 51.2741 579.568 51.1335C579.291 50.9929 578.967 50.9226 578.596 50.9226C578.221 50.9226 577.878 50.9908 577.567 51.1271C577.256 51.2592 577.007 51.4489 576.819 51.696C576.632 51.9432 576.532 52.233 576.519 52.5653H573.866C573.879 51.8111 574.094 51.1463 574.512 50.571C574.929 49.9957 575.492 49.5462 576.199 49.2223C576.911 48.8942 577.714 48.7301 578.609 48.7301C579.513 48.7301 580.303 48.8942 580.981 49.2223C581.658 49.5504 582.184 49.9936 582.559 50.5518C582.939 51.1058 583.126 51.728 583.122 52.4183C583.126 53.1513 582.898 53.7628 582.438 54.2528C581.982 54.7429 581.388 55.054 580.655 55.1861V55.2884C581.618 55.4119 582.351 55.7464 582.853 56.2919C583.361 56.8331 583.612 57.5107 583.608 58.3246C583.612 59.0703 583.397 59.733 582.962 60.3125C582.532 60.892 581.937 61.348 581.179 61.6804C580.42 62.0128 579.551 62.179 578.571 62.179ZM585.399 59.6989V57.5192L590.864 48.9091H592.744V51.9261H591.631L588.186 57.3786V57.4808H595.952V59.6989H585.399ZM591.682 62V59.0341L591.734 58.0689V48.9091H594.329V62H591.682ZM597.796 62V60.0057L602.456 55.6911C602.853 55.3075 603.185 54.9624 603.453 54.6555C603.726 54.3487 603.933 54.0483 604.073 53.7543C604.214 53.456 604.284 53.1342 604.284 52.7891C604.284 52.4055 604.197 52.0753 604.022 51.7983C603.848 51.517 603.609 51.3018 603.306 51.1527C603.004 50.9993 602.661 50.9226 602.277 50.9226C601.877 50.9226 601.527 51.0036 601.229 51.1655C600.931 51.3274 600.701 51.5597 600.539 51.8622C600.377 52.1648 600.296 52.5249 600.296 52.9425H597.669C597.669 52.0859 597.862 51.3423 598.25 50.7116C598.638 50.081 599.181 49.593 599.88 49.2479C600.579 48.9027 601.384 48.7301 602.296 48.7301C603.234 48.7301 604.05 48.8963 604.745 49.2287C605.443 49.5568 605.987 50.0128 606.375 50.5966C606.762 51.1804 606.956 51.8494 606.956 52.6037C606.956 53.098 606.858 53.5859 606.662 54.0675C606.47 54.549 606.127 55.0838 605.633 55.6719C605.139 56.2557 604.442 56.9567 603.543 57.7749L601.632 59.6477V59.7372H607.129V62H597.796ZM612.119 60.2102L612.049 60.9134C611.994 61.4759 611.887 62.0362 611.729 62.5945C611.576 63.157 611.414 63.6662 611.244 64.1222C611.078 64.5781 610.943 64.9361 610.841 65.196H609.077C609.141 64.9446 609.228 64.593 609.339 64.1413C609.45 63.6939 609.554 63.1911 609.652 62.6328C609.75 62.0746 609.812 61.5057 609.837 60.9261L609.869 60.2102H612.119ZM618.644 48.9091V62H615.876V51.5362H615.8L612.802 53.4155V50.9609L616.043 48.9091H618.644ZM621.755 62V60.0057L626.415 55.6911C626.812 55.3075 627.144 54.9624 627.412 54.6555C627.685 54.3487 627.892 54.0483 628.032 53.7543C628.173 53.456 628.243 53.1342 628.243 52.7891C628.243 52.4055 628.156 52.0753 627.981 51.7983C627.807 51.517 627.568 51.3018 627.265 51.1527C626.963 50.9993 626.62 50.9226 626.236 50.9226C625.836 50.9226 625.486 51.0036 625.188 51.1655C624.89 51.3274 624.66 51.5597 624.498 51.8622C624.336 52.1648 624.255 52.5249 624.255 52.9425H621.628C621.628 52.0859 621.821 51.3423 622.209 50.7116C622.597 50.081 623.14 49.593 623.839 49.2479C624.538 48.9027 625.343 48.7301 626.255 48.7301C627.193 48.7301 628.009 48.8963 628.704 49.2287C629.402 49.5568 629.946 50.0128 630.334 50.5966C630.721 51.1804 630.915 51.8494 630.915 52.6037C630.915 53.098 630.817 53.5859 630.621 54.0675C630.429 54.549 630.086 55.0838 629.592 55.6719C629.098 56.2557 628.401 56.9567 627.502 57.7749L625.591 59.6477V59.7372H631.088V62H621.755ZM637.932 62.179C636.978 62.179 636.127 62.0149 635.382 61.6868C634.64 61.3544 634.054 60.8984 633.624 60.3189C633.198 59.7351 632.978 59.0618 632.965 58.299H635.752C635.769 58.6186 635.874 58.8999 636.066 59.1428C636.262 59.3814 636.522 59.5668 636.845 59.6989C637.169 59.831 637.534 59.897 637.938 59.897C638.36 59.897 638.733 59.8224 639.057 59.6733C639.381 59.5241 639.634 59.3175 639.818 59.0533C640.001 58.7891 640.093 58.4844 640.093 58.1392C640.093 57.7898 639.995 57.4808 639.799 57.2124C639.607 56.9396 639.33 56.7266 638.968 56.5732C638.61 56.4197 638.184 56.343 637.689 56.343H636.468V54.3104H637.689C638.107 54.3104 638.475 54.2379 638.795 54.093C639.119 53.9482 639.37 53.7479 639.549 53.4922C639.728 53.2322 639.818 52.9297 639.818 52.5845C639.818 52.2564 639.739 51.9688 639.581 51.7216C639.428 51.4702 639.21 51.2741 638.929 51.1335C638.652 50.9929 638.328 50.9226 637.958 50.9226C637.583 50.9226 637.24 50.9908 636.929 51.1271C636.617 51.2592 636.368 51.4489 636.181 51.696C635.993 51.9432 635.893 52.233 635.88 52.5653H633.228C633.24 51.8111 633.456 51.1463 633.873 50.571C634.291 49.9957 634.853 49.5462 635.561 49.2223C636.272 48.8942 637.076 48.7301 637.97 48.7301C638.874 48.7301 639.664 48.8942 640.342 49.2223C641.019 49.5504 641.546 49.9936 641.921 50.5518C642.3 51.1058 642.487 51.728 642.483 52.4183C642.487 53.1513 642.259 53.7628 641.799 54.2528C641.343 54.7429 640.749 55.054 640.016 55.1861V55.2884C640.979 55.4119 641.712 55.7464 642.215 56.2919C642.722 56.8331 642.973 57.5107 642.969 58.3246C642.973 59.0703 642.758 59.733 642.323 60.3125C641.893 60.892 641.299 61.348 640.54 61.6804C639.782 62.0128 638.912 62.179 637.932 62.179Z" fill="black"/>
<path d="M534.057 73.2727H535.318L538.284 80.517H538.386L541.352 73.2727H542.614V82H541.625V75.3693H541.54L538.812 82H537.858L535.131 75.3693H535.045V82H534.057V73.2727ZM546.522 82.1534C546.108 82.1534 545.731 82.0753 545.393 81.919C545.055 81.7599 544.787 81.5312 544.588 81.233C544.389 80.9318 544.289 80.5682 544.289 80.142C544.289 79.767 544.363 79.4631 544.511 79.2301C544.659 78.9943 544.856 78.8097 545.103 78.6761C545.35 78.5426 545.623 78.4432 545.922 78.3778C546.223 78.3097 546.525 78.2557 546.829 78.2159C547.227 78.1648 547.549 78.1264 547.797 78.1009C548.047 78.0724 548.228 78.0256 548.342 77.9602C548.458 77.8949 548.517 77.7812 548.517 77.6193V77.5852C548.517 77.1648 548.402 76.8381 548.172 76.6051C547.944 76.3722 547.599 76.2557 547.136 76.2557C546.656 76.2557 546.279 76.3608 546.007 76.571C545.734 76.7812 545.542 77.0057 545.431 77.2443L544.477 76.9034C544.647 76.5057 544.875 76.196 545.159 75.9744C545.446 75.75 545.758 75.5937 546.096 75.5057C546.437 75.4148 546.772 75.3693 547.102 75.3693C547.312 75.3693 547.554 75.3949 547.826 75.446C548.102 75.4943 548.368 75.5952 548.623 75.7486C548.882 75.902 549.096 76.1335 549.267 76.4432C549.437 76.7528 549.522 77.1676 549.522 77.6875V82H548.517V81.1136H548.466C548.397 81.2557 548.284 81.4077 548.125 81.5696C547.966 81.7315 547.754 81.8693 547.49 81.983C547.225 82.0966 546.903 82.1534 546.522 82.1534ZM546.676 81.25C547.074 81.25 547.409 81.1719 547.681 81.0156C547.957 80.8594 548.164 80.6577 548.304 80.4105C548.446 80.1634 548.517 79.9034 548.517 79.6307V78.7102C548.474 78.7614 548.38 78.8082 548.235 78.8509C548.093 78.8906 547.929 78.9261 547.741 78.9574C547.556 78.9858 547.376 79.0114 547.2 79.0341C547.027 79.054 546.886 79.071 546.778 79.0852C546.517 79.1193 546.272 79.1747 546.045 79.2514C545.821 79.3253 545.639 79.4375 545.5 79.5881C545.363 79.7358 545.295 79.9375 545.295 80.1932C545.295 80.5426 545.424 80.8068 545.683 80.9858C545.944 81.1619 546.275 81.25 546.676 81.25ZM551.771 84.4545C551.601 84.4545 551.449 84.4403 551.315 84.4119C551.182 84.3864 551.089 84.3608 551.038 84.3352L551.294 83.4489C551.538 83.5114 551.754 83.5341 551.942 83.517C552.129 83.5 552.295 83.4162 552.44 83.2656C552.588 83.1179 552.723 82.8778 552.845 82.5455L553.033 82.0341L550.612 75.4545H551.703L553.51 80.6705H553.578L555.385 75.4545H556.476L553.697 82.9545C553.572 83.2926 553.418 83.5724 553.233 83.794C553.048 84.0185 552.834 84.1847 552.589 84.2926C552.348 84.4006 552.075 84.4545 551.771 84.4545Z" fill="#667085"/>
<g filter="url(#filter1_dd_198_18988)">
<rect x="388.533" y="110" width="16.2829" height="21" rx="8.14145" fill="#1570EF"/>
<rect x="390.533" y="112" width="12.2829" height="17" rx="6.14145" stroke="white" stroke-width="4"/>
</g>
<defs>
<filter id="filter0_dd_198_18988" x="319.776" y="6" width="154.447" height="125" filterUnits="userSpaceOnUse" color-interpolation-filters="sRGB">
<feFlood flood-opacity="0" result="BackgroundImageFix"/>
<feColorMatrix in="SourceAlpha" type="matrix" values="0 0 0 0 0 0 0 0 0 0 0 0 0 0 0 0 0 0 127 0" result="hardAlpha"/>
<feOffset dy="8"/>
<feGaussianBlur stdDeviation="8"/>
<feColorMatrix type="matrix" values="0 0 0 0 0.196487 0 0 0 0 0.196487 0 0 0 0 0.279476 0 0 0 0.06 0"/>
<feBlend mode="multiply" in2="BackgroundImageFix" result="effect1_dropShadow_198_18988"/>
<feColorMatrix in="SourceAlpha" type="matrix" values="0 0 0 0 0 0 0 0 0 0 0 0 0 0 0 0 0 0 127 0" result="hardAlpha"/>
<feOffset dy="8"/>
<feGaussianBlur stdDeviation="4"/>
<feColorMatrix type="matrix" values="0 0 0 0 0.196487 0 0 0 0 0.196487 0 0 0 0 0.279476 0 0 0 0.08 0"/>
<feBlend mode="multiply" in2="effect1_dropShadow_198_18988" result="effect2_dropShadow_198_18988"/>
<feBlend mode="normal" in="SourceGraphic" in2="effect2_dropShadow_198_18988" result="shape"/>
</filter>
<filter id="filter1_dd_198_18988" x="380.533" y="102" width="32.2832" height="39" filterUnits="userSpaceOnUse" color-interpolation-filters="sRGB">
<feFlood flood-opacity="0" result="BackgroundImageFix"/>
<feColorMatrix in="SourceAlpha" type="matrix" values="0 0 0 0 0 0 0 0 0 0 0 0 0 0 0 0 0 0 127 0" result="hardAlpha"/>
<feOffset dy="-2"/>
<feGaussianBlur stdDeviation="3"/>
<feColorMatrix type="matrix" values="0 0 0 0 1 0 0 0 0 1 0 0 0 0 1 0 0 0 0.03 0"/>
<feBlend mode="normal" in2="BackgroundImageFix" result="effect1_dropShadow_198_18988"/>
<feColorMatrix in="SourceAlpha" type="matrix" values="0 0 0 0 0 0 0 0 0 0 0 0 0 0 0 0 0 0 127 0" result="hardAlpha"/>
<feOffset dy="2"/>
<feGaussianBlur stdDeviation="4"/>
<feColorMatrix type="matrix" values="0 0 0 0 0.292917 0 0 0 0 0.303678 0 0 0 0 0.316667 0 0 0 0.08 0"/>
<feBlend mode="normal" in2="effect1_dropShadow_198_18988" result="effect2_dropShadow_198_18988"/>
<feBlend mode="normal" in="SourceGraphic" in2="effect2_dropShadow_198_18988" result="shape"/>
</filter>
<linearGradient id="paint0_linear_198_18988" x1="397" y1="65.4375" x2="397" y2="209.297" gradientUnits="userSpaceOnUse">
<stop stop-color="#7F56D9"/>
<stop offset="1" stop-color="#7F56D9" stop-opacity="0"/>
</linearGradient>
</defs>
</svg>
