<svg width="287" height="200" viewBox="0 0 287 200" fill="none" xmlns="http://www.w3.org/2000/svg">
<path d="M200 100C200 155.228 155.228 200 100 200C44.7715 200 0 155.228 0 100C0 44.7715 44.7715 0 100 0C155.228 0 200 44.7715 200 100ZM50 100C50 127.614 72.3858 150 100 150C127.614 150 150 127.614 150 100C150 72.3858 127.614 50 100 50C72.3858 50 50 72.3858 50 100Z" fill="#D1E9FF"/>
<path d="M100 0C121.118 2.51829e-07 141.694 6.6855 158.779 19.0983C175.863 31.5111 188.58 49.014 195.106 69.0983L147.553 84.5492C144.29 74.507 137.932 65.7556 129.389 59.5492C120.847 53.3427 110.559 50 100 50V0Z" fill="#1570EF"/>
<path d="M195.106 69.0983C200.805 86.6379 201.542 105.412 197.237 123.345C192.932 141.277 183.751 157.67 170.711 170.711C157.67 183.751 141.277 192.932 123.345 197.237C105.412 201.542 86.638 200.805 69.0984 195.106L84.5492 147.553C93.319 150.402 102.706 150.771 111.672 148.618C120.639 146.466 128.835 141.876 135.355 135.355C141.876 128.835 146.466 120.639 148.618 111.672C150.771 102.706 150.402 93.319 147.553 84.5492L195.106 69.0983Z" fill="#2E90FA"/>
<path d="M69.0983 195.106C49.014 188.58 31.5111 175.863 19.0983 158.779L59.5491 129.389C65.7555 137.932 74.507 144.29 84.5491 147.553L69.0983 195.106Z" fill="#53B1FD"/>
<path d="M19.0983 158.779C4.14816 138.201 -2.39928 112.701 0.788532 87.4667L50.3943 93.7333C48.8004 106.35 52.0741 119.101 59.5491 129.389L19.0983 158.779Z" fill="#84CAFF"/>
<circle cx="228" cy="10" r="4" fill="#1570EF"/>
<path d="M244.315 15.1392C243.633 15.1392 243.029 15.0182 242.506 14.7763C241.985 14.531 241.579 14.1946 241.288 13.767C240.996 13.3362 240.852 12.8456 240.855 12.2955C240.852 11.8646 240.936 11.4669 241.109 11.1023C241.281 10.7344 241.516 10.4278 241.815 10.1825C242.116 9.93395 242.453 9.77651 242.824 9.71023V9.65057C242.337 9.52462 241.949 9.25118 241.661 8.83026C241.372 8.40601 241.23 7.92377 241.233 7.38352C241.23 6.86648 241.361 6.40412 241.626 5.99645C241.891 5.58878 242.255 5.26728 242.719 5.03196C243.187 4.79664 243.719 4.67898 244.315 4.67898C244.905 4.67898 245.432 4.79664 245.896 5.03196C246.36 5.26728 246.725 5.58878 246.99 5.99645C247.259 6.40412 247.394 6.86648 247.398 7.38352C247.394 7.92377 247.247 8.40601 246.955 8.83026C246.667 9.25118 246.284 9.52462 245.807 9.65057V9.71023C246.175 9.77651 246.506 9.93395 246.801 10.1825C247.096 10.4278 247.331 10.7344 247.507 11.1023C247.683 11.4669 247.772 11.8646 247.776 12.2955C247.772 12.8456 247.623 13.3362 247.328 13.767C247.036 14.1946 246.63 14.531 246.11 14.7763C245.593 15.0182 244.995 15.1392 244.315 15.1392ZM244.315 14.0455C244.776 14.0455 245.174 13.9709 245.509 13.8217C245.843 13.6726 246.102 13.4621 246.284 13.1903C246.466 12.9186 246.559 12.6004 246.562 12.2358C246.559 11.8513 246.46 11.5116 246.264 11.2166C246.069 10.9216 245.802 10.6896 245.464 10.5206C245.129 10.3516 244.746 10.267 244.315 10.267C243.881 10.267 243.493 10.3516 243.152 10.5206C242.814 10.6896 242.547 10.9216 242.352 11.2166C242.159 11.5116 242.065 11.8513 242.068 12.2358C242.065 12.6004 242.153 12.9186 242.332 13.1903C242.514 13.4621 242.774 13.6726 243.112 13.8217C243.45 13.9709 243.851 14.0455 244.315 14.0455ZM244.315 9.21307C244.68 9.21307 245.003 9.14015 245.285 8.99432C245.57 8.84848 245.794 8.64465 245.956 8.38281C246.118 8.12098 246.201 7.81439 246.205 7.46307C246.201 7.11837 246.12 6.81842 245.961 6.56321C245.802 6.30469 245.581 6.10582 245.3 5.96662C245.018 5.8241 244.69 5.75284 244.315 5.75284C243.934 5.75284 243.601 5.8241 243.316 5.96662C243.031 6.10582 242.811 6.30469 242.655 6.56321C242.499 6.81842 242.423 7.11837 242.426 7.46307C242.423 7.81439 242.501 8.12098 242.66 8.38281C242.822 8.64465 243.046 8.84848 243.331 8.99432C243.616 9.14015 243.944 9.21307 244.315 9.21307ZM253.26 4.81818V15H252.028V6.1108H251.968L249.482 7.76136V6.50852L252.028 4.81818H253.26ZM262.135 9.36222V10.456H255.135V9.36222H262.135ZM266.768 4.81818V15H265.535V6.1108H265.476L262.99 7.76136V6.50852L265.535 4.81818H266.768ZM273.018 15.1392C272.269 15.1392 271.631 14.9354 271.104 14.5277C270.577 14.1167 270.174 13.5218 269.895 12.7429C269.617 11.9607 269.478 11.0161 269.478 9.90909C269.478 8.80871 269.617 7.86908 269.895 7.0902C270.177 6.308 270.581 5.71141 271.108 5.30043C271.639 4.88613 272.275 4.67898 273.018 4.67898C273.76 4.67898 274.395 4.88613 274.922 5.30043C275.452 5.71141 275.856 6.308 276.135 7.0902C276.416 7.86908 276.557 8.80871 276.557 9.90909C276.557 11.0161 276.418 11.9607 276.14 12.7429C275.861 13.5218 275.459 14.1167 274.932 14.5277C274.405 14.9354 273.767 15.1392 273.018 15.1392ZM273.018 14.0455C273.76 14.0455 274.337 13.6875 274.748 12.9716C275.159 12.2557 275.364 11.2348 275.364 9.90909C275.364 9.02746 275.27 8.27675 275.081 7.65696C274.895 7.03717 274.627 6.56487 274.275 6.24006C273.927 5.91525 273.508 5.75284 273.018 5.75284C272.282 5.75284 271.707 6.11577 271.292 6.84162C270.878 7.56416 270.671 8.58665 270.671 9.90909C270.671 10.7907 270.764 11.5398 270.949 12.1562C271.135 12.7727 271.402 13.2417 271.75 13.5632C272.101 13.8847 272.524 14.0455 273.018 14.0455ZM281.768 15.1392C281.019 15.1392 280.381 14.9354 279.854 14.5277C279.327 14.1167 278.924 13.5218 278.645 12.7429C278.367 11.9607 278.228 11.0161 278.228 9.90909C278.228 8.80871 278.367 7.86908 278.645 7.0902C278.927 6.308 279.331 5.71141 279.858 5.30043C280.389 4.88613 281.025 4.67898 281.768 4.67898C282.51 4.67898 283.145 4.88613 283.672 5.30043C284.202 5.71141 284.606 6.308 284.885 7.0902C285.166 7.86908 285.307 8.80871 285.307 9.90909C285.307 11.0161 285.168 11.9607 284.89 12.7429C284.611 13.5218 284.209 14.1167 283.682 14.5277C283.155 14.9354 282.517 15.1392 281.768 15.1392ZM281.768 14.0455C282.51 14.0455 283.087 13.6875 283.498 12.9716C283.909 12.2557 284.114 11.2348 284.114 9.90909C284.114 9.02746 284.02 8.27675 283.831 7.65696C283.645 7.03717 283.377 6.56487 283.025 6.24006C282.677 5.91525 282.258 5.75284 281.768 5.75284C281.032 5.75284 280.457 6.11577 280.042 6.84162C279.628 7.56416 279.421 8.58665 279.421 9.90909C279.421 10.7907 279.514 11.5398 279.699 12.1562C279.885 12.7727 280.152 13.2417 280.5 13.5632C280.851 13.8847 281.274 14.0455 281.768 14.0455Z" fill="#667085"/>
<circle cx="228" cy="34" r="4" fill="#D1E9FF"/>
<path d="M244.435 39.1392C244.017 39.1326 243.599 39.053 243.182 38.9006C242.764 38.7481 242.383 38.4912 242.038 38.13C241.694 37.7654 241.417 37.2732 241.208 36.6534C240.999 36.0303 240.895 35.2481 240.895 34.3068C240.895 33.4053 240.979 32.6065 241.148 31.9105C241.317 31.2112 241.563 30.6229 241.884 30.1456C242.206 29.665 242.594 29.3004 243.048 29.0518C243.505 28.8033 244.02 28.679 244.594 28.679C245.164 28.679 245.671 28.7933 246.115 29.022C246.563 29.2474 246.927 29.5623 247.209 29.9666C247.491 30.371 247.673 30.8366 247.756 31.3636H246.543C246.43 30.9062 246.211 30.5268 245.886 30.2251C245.562 29.9235 245.131 29.7727 244.594 29.7727C243.805 29.7727 243.183 30.1158 242.729 30.8018C242.279 31.4879 242.052 32.4508 242.048 33.6903H242.128C242.313 33.4086 242.534 33.1683 242.789 32.9695C243.048 32.7673 243.333 32.6115 243.644 32.5021C243.956 32.3928 244.286 32.3381 244.634 32.3381C245.217 32.3381 245.75 32.4839 246.234 32.7756C246.718 33.0639 247.106 33.4633 247.398 33.9737C247.689 34.4808 247.835 35.0625 247.835 35.7188C247.835 36.3485 247.694 36.9252 247.413 37.4489C247.131 37.9692 246.735 38.3835 246.224 38.6918C245.717 38.9967 245.121 39.1458 244.435 39.1392ZM244.435 38.0455C244.852 38.0455 245.227 37.9411 245.558 37.7322C245.893 37.5234 246.156 37.2434 246.349 36.892C246.544 36.5407 246.642 36.1496 246.642 35.7188C246.642 35.2978 246.548 34.915 246.359 34.5703C246.173 34.2223 245.916 33.9455 245.588 33.7401C245.263 33.5346 244.892 33.4318 244.474 33.4318C244.16 33.4318 243.866 33.4948 243.594 33.6207C243.323 33.7434 243.084 33.9124 242.879 34.1278C242.676 34.3433 242.517 34.5902 242.401 34.8686C242.285 35.1437 242.227 35.4337 242.227 35.7386C242.227 36.143 242.322 36.5208 242.511 36.8722C242.703 37.2235 242.965 37.5069 243.296 37.7223C243.631 37.9377 244.01 38.0455 244.435 38.0455ZM253.37 28.8182V39H252.137V30.1108H252.077L249.591 31.7614V30.5085L252.137 28.8182H253.37ZM262.244 33.3622V34.456H255.244V33.3622H262.244ZM266.559 39.1392C265.877 39.1392 265.273 39.0182 264.75 38.7763C264.229 38.531 263.823 38.1946 263.532 37.767C263.24 37.3362 263.096 36.8456 263.099 36.2955C263.096 35.8646 263.18 35.4669 263.353 35.1023C263.525 34.7344 263.76 34.4278 264.059 34.1825C264.36 33.9339 264.697 33.7765 265.068 33.7102V33.6506C264.581 33.5246 264.193 33.2512 263.905 32.8303C263.616 32.406 263.474 31.9238 263.477 31.3835C263.474 30.8665 263.605 30.4041 263.87 29.9964C264.135 29.5888 264.5 29.2673 264.964 29.032C265.431 28.7966 265.963 28.679 266.559 28.679C267.149 28.679 267.676 28.7966 268.14 29.032C268.604 29.2673 268.969 29.5888 269.234 29.9964C269.503 30.4041 269.639 30.8665 269.642 31.3835C269.639 31.9238 269.491 32.406 269.199 32.8303C268.911 33.2512 268.528 33.5246 268.051 33.6506V33.7102C268.419 33.7765 268.75 33.9339 269.045 34.1825C269.34 34.4278 269.576 34.7344 269.751 35.1023C269.927 35.4669 270.016 35.8646 270.02 36.2955C270.016 36.8456 269.867 37.3362 269.572 37.767C269.281 38.1946 268.875 38.531 268.354 38.7763C267.837 39.0182 267.239 39.1392 266.559 39.1392ZM266.559 38.0455C267.02 38.0455 267.418 37.9709 267.753 37.8217C268.087 37.6726 268.346 37.4621 268.528 37.1903C268.711 36.9186 268.803 36.6004 268.807 36.2358C268.803 35.8513 268.704 35.5116 268.508 35.2166C268.313 34.9216 268.046 34.6896 267.708 34.5206C267.373 34.3516 266.99 34.267 266.559 34.267C266.125 34.267 265.738 34.3516 265.396 34.5206C265.058 34.6896 264.791 34.9216 264.596 35.2166C264.403 35.5116 264.309 35.8513 264.312 36.2358C264.309 36.6004 264.397 36.9186 264.576 37.1903C264.758 37.4621 265.018 37.6726 265.356 37.8217C265.694 37.9709 266.095 38.0455 266.559 38.0455ZM266.559 33.2131C266.924 33.2131 267.247 33.1402 267.529 32.9943C267.814 32.8485 268.038 32.6446 268.2 32.3828C268.363 32.121 268.445 31.8144 268.449 31.4631C268.445 31.1184 268.364 30.8184 268.205 30.5632C268.046 30.3047 267.826 30.1058 267.544 29.9666C267.262 29.8241 266.934 29.7528 266.559 29.7528C266.178 29.7528 265.845 29.8241 265.56 29.9666C265.275 30.1058 265.055 30.3047 264.899 30.5632C264.743 30.8184 264.667 31.1184 264.67 31.4631C264.667 31.8144 264.745 32.121 264.904 32.3828C265.066 32.6446 265.29 32.8485 265.575 32.9943C265.86 33.1402 266.188 33.2131 266.559 33.2131ZM275.246 39.1392C274.497 39.1392 273.859 38.9354 273.332 38.5277C272.805 38.1167 272.402 37.5218 272.124 36.7429C271.846 35.9607 271.706 35.0161 271.706 33.9091C271.706 32.8087 271.846 31.8691 272.124 31.0902C272.406 30.308 272.81 29.7114 273.337 29.3004C273.867 28.8861 274.504 28.679 275.246 28.679C275.989 28.679 276.623 28.8861 277.15 29.3004C277.681 29.7114 278.085 30.308 278.363 31.0902C278.645 31.8691 278.786 32.8087 278.786 33.9091C278.786 35.0161 278.647 35.9607 278.368 36.7429C278.09 37.5218 277.687 38.1167 277.16 38.5277C276.633 38.9354 275.995 39.1392 275.246 39.1392ZM275.246 38.0455C275.989 38.0455 276.565 37.6875 276.976 36.9716C277.387 36.2557 277.593 35.2348 277.593 33.9091C277.593 33.0275 277.498 32.2768 277.309 31.657C277.124 31.0372 276.855 30.5649 276.504 30.2401C276.156 29.9152 275.737 29.7528 275.246 29.7528C274.51 29.7528 273.935 30.1158 273.521 30.8416C273.107 31.5642 272.9 32.5866 272.9 33.9091C272.9 34.7907 272.992 35.5398 273.178 36.1562C273.364 36.7727 273.63 37.2417 273.978 37.5632C274.33 37.8847 274.752 38.0455 275.246 38.0455Z" fill="#667085"/>
<circle cx="228" cy="58" r="4" fill="#2E90FA"/>
<path d="M240.815 60.9119V59.8977L245.29 52.8182H246.026V54.3892H245.528L242.148 59.7386V59.8182H248.173V60.9119H240.815ZM245.608 63V60.6037V60.1314V52.8182H246.781V63H245.608ZM253.479 52.8182V63H252.246V54.1108H252.187L249.701 55.7614V54.5085L252.246 52.8182H253.479ZM262.354 57.3622V58.456H255.354V57.3622H262.354ZM266.788 63.1392C266.371 63.1326 265.953 63.053 265.535 62.9006C265.118 62.7481 264.737 62.4912 264.392 62.13C264.047 61.7654 263.77 61.2732 263.562 60.6534C263.353 60.0303 263.248 59.2481 263.248 58.3068C263.248 57.4053 263.333 56.6065 263.502 55.9105C263.671 55.2112 263.916 54.6229 264.238 54.1456C264.559 53.665 264.947 53.3004 265.401 53.0518C265.858 52.8033 266.374 52.679 266.947 52.679C267.517 52.679 268.024 52.7933 268.469 53.022C268.916 53.2474 269.281 53.5623 269.562 53.9666C269.844 54.371 270.026 54.8366 270.109 55.3636H268.896C268.783 54.9062 268.565 54.5268 268.24 54.2251C267.915 53.9235 267.484 53.7727 266.947 53.7727C266.158 53.7727 265.537 54.1158 265.083 54.8018C264.632 55.4879 264.405 56.4508 264.402 57.6903H264.481C264.667 57.4086 264.887 57.1683 265.143 56.9695C265.401 56.7673 265.686 56.6115 265.998 56.5021C266.309 56.3928 266.639 56.3381 266.987 56.3381C267.57 56.3381 268.104 56.4839 268.588 56.7756C269.072 57.0639 269.46 57.4633 269.751 57.9737C270.043 58.4808 270.189 59.0625 270.189 59.7188C270.189 60.3485 270.048 60.9252 269.766 61.4489C269.484 61.9692 269.088 62.3835 268.578 62.6918C268.071 62.9967 267.474 63.1458 266.788 63.1392ZM266.788 62.0455C267.206 62.0455 267.58 61.9411 267.912 61.7322C268.247 61.5234 268.51 61.2434 268.702 60.892C268.898 60.5407 268.996 60.1496 268.996 59.7188C268.996 59.2978 268.901 58.915 268.712 58.5703C268.527 58.2223 268.27 57.9455 267.942 57.7401C267.617 57.5346 267.246 57.4318 266.828 57.4318C266.513 57.4318 266.22 57.4948 265.948 57.6207C265.676 57.7434 265.438 57.9124 265.232 58.1278C265.03 58.3433 264.871 58.5902 264.755 58.8686C264.639 59.1437 264.581 59.4337 264.581 59.7386C264.581 60.143 264.675 60.5208 264.864 60.8722C265.056 61.2235 265.318 61.5069 265.65 61.7223C265.984 61.9377 266.364 62.0455 266.788 62.0455ZM275.465 63.1392C274.716 63.1392 274.078 62.9354 273.551 62.5277C273.024 62.1167 272.621 61.5218 272.343 60.7429C272.064 59.9607 271.925 59.0161 271.925 57.9091C271.925 56.8087 272.064 55.8691 272.343 55.0902C272.624 54.308 273.029 53.7114 273.556 53.3004C274.086 52.8861 274.722 52.679 275.465 52.679C276.207 52.679 276.842 52.8861 277.369 53.3004C277.899 53.7114 278.304 54.308 278.582 55.0902C278.864 55.8691 279.005 56.8087 279.005 57.9091C279.005 59.0161 278.865 59.9607 278.587 60.7429C278.309 61.5218 277.906 62.1167 277.379 62.5277C276.852 62.9354 276.214 63.1392 275.465 63.1392ZM275.465 62.0455C276.207 62.0455 276.784 61.6875 277.195 60.9716C277.606 60.2557 277.811 59.2348 277.811 57.9091C277.811 57.0275 277.717 56.2768 277.528 55.657C277.342 55.0372 277.074 54.5649 276.723 54.2401C276.375 53.9152 275.955 53.7528 275.465 53.7528C274.729 53.7528 274.154 54.1158 273.74 54.8416C273.325 55.5642 273.118 56.5866 273.118 57.9091C273.118 58.7907 273.211 59.5398 273.397 60.1562C273.582 60.7727 273.849 61.2417 274.197 61.5632C274.548 61.8847 274.971 62.0455 275.465 62.0455Z" fill="#667085"/>
<circle cx="228" cy="82" r="4" fill="#53B1FD"/>
<path d="M241.054 87V86.1051L244.415 82.4261C244.809 81.9953 245.134 81.6207 245.389 81.3026C245.644 80.9811 245.833 80.6795 245.956 80.3977C246.082 80.1127 246.145 79.8144 246.145 79.5028C246.145 79.1449 246.059 78.835 245.886 78.5732C245.717 78.3113 245.485 78.1091 245.19 77.9666C244.895 77.8241 244.564 77.7528 244.196 77.7528C243.805 77.7528 243.464 77.834 243.172 77.9964C242.884 78.1555 242.66 78.3793 242.501 78.6676C242.345 78.956 242.267 79.294 242.267 79.6818H241.094C241.094 79.0852 241.231 78.5616 241.506 78.1108C241.781 77.66 242.156 77.3087 242.63 77.0568C243.107 76.8049 243.643 76.679 244.236 76.679C244.832 76.679 245.361 76.8049 245.822 77.0568C246.282 77.3087 246.644 77.6484 246.906 78.076C247.167 78.5036 247.298 78.9792 247.298 79.5028C247.298 79.8774 247.23 80.2436 247.094 80.6016C246.962 80.9562 246.73 81.3523 246.398 81.7898C246.07 82.224 245.615 82.7543 245.031 83.3807L242.744 85.8267V85.9062H247.477V87H241.054ZM253.11 76.8182V87H251.877V78.1108H251.817L249.332 79.7614V78.5085L251.877 76.8182H253.11ZM261.984 81.3622V82.456H254.984V81.3622H261.984ZM262.8 84.9119V83.8977L267.274 76.8182H268.01V78.3892H267.513L264.132 83.7386V83.8182H270.158V84.9119H262.8ZM267.592 87V84.6037V84.1314V76.8182H268.766V87H267.592ZM275.342 87.1392C274.593 87.1392 273.955 86.9354 273.428 86.5277C272.901 86.1167 272.498 85.5218 272.22 84.7429C271.941 83.9607 271.802 83.0161 271.802 81.9091C271.802 80.8087 271.941 79.8691 272.22 79.0902C272.501 78.308 272.906 77.7114 273.433 77.3004C273.963 76.8861 274.599 76.679 275.342 76.679C276.084 76.679 276.719 76.8861 277.246 77.3004C277.776 77.7114 278.181 78.308 278.459 79.0902C278.741 79.8691 278.882 80.8087 278.882 81.9091C278.882 83.0161 278.742 83.9607 278.464 84.7429C278.186 85.5218 277.783 86.1167 277.256 86.5277C276.729 86.9354 276.091 87.1392 275.342 87.1392ZM275.342 86.0455C276.084 86.0455 276.661 85.6875 277.072 84.9716C277.483 84.2557 277.688 83.2348 277.688 81.9091C277.688 81.0275 277.594 80.2768 277.405 79.657C277.219 79.0372 276.951 78.5649 276.6 78.2401C276.252 77.9152 275.832 77.7528 275.342 77.7528C274.606 77.7528 274.031 78.1158 273.617 78.8416C273.202 79.5642 272.995 80.5866 272.995 81.9091C272.995 82.7907 273.088 83.5398 273.274 84.1562C273.459 84.7727 273.726 85.2417 274.074 85.5632C274.425 85.8847 274.848 86.0455 275.342 86.0455Z" fill="#667085"/>
<circle cx="228" cy="106" r="4" fill="#84CAFF"/>
<path d="M244.375 111.139C243.626 111.139 242.988 110.935 242.461 110.528C241.934 110.117 241.531 109.522 241.253 108.743C240.974 107.961 240.835 107.016 240.835 105.909C240.835 104.809 240.974 103.869 241.253 103.09C241.535 102.308 241.939 101.711 242.466 101.3C242.996 100.886 243.633 100.679 244.375 100.679C245.117 100.679 245.752 100.886 246.279 101.3C246.809 101.711 247.214 102.308 247.492 103.09C247.774 103.869 247.915 104.809 247.915 105.909C247.915 107.016 247.776 107.961 247.497 108.743C247.219 109.522 246.816 110.117 246.289 110.528C245.762 110.935 245.124 111.139 244.375 111.139ZM244.375 110.045C245.117 110.045 245.694 109.687 246.105 108.972C246.516 108.256 246.722 107.235 246.722 105.909C246.722 105.027 246.627 104.277 246.438 103.657C246.253 103.037 245.984 102.565 245.633 102.24C245.285 101.915 244.866 101.753 244.375 101.753C243.639 101.753 243.064 102.116 242.65 102.842C242.236 103.564 242.028 104.587 242.028 105.909C242.028 106.791 242.121 107.54 242.307 108.156C242.492 108.773 242.759 109.242 243.107 109.563C243.459 109.885 243.881 110.045 244.375 110.045ZM255.75 105.362V106.456H248.75V105.362H255.75ZM256.804 111V110.105L260.165 106.426C260.559 105.995 260.884 105.621 261.139 105.303C261.394 104.981 261.583 104.679 261.706 104.398C261.832 104.113 261.895 103.814 261.895 103.503C261.895 103.145 261.809 102.835 261.636 102.573C261.467 102.311 261.235 102.109 260.94 101.967C260.645 101.824 260.314 101.753 259.946 101.753C259.555 101.753 259.214 101.834 258.922 101.996C258.634 102.156 258.41 102.379 258.251 102.668C258.095 102.956 258.017 103.294 258.017 103.682H256.844C256.844 103.085 256.981 102.562 257.256 102.111C257.531 101.66 257.906 101.309 258.38 101.057C258.857 100.805 259.393 100.679 259.986 100.679C260.582 100.679 261.111 100.805 261.572 101.057C262.032 101.309 262.394 101.648 262.656 102.076C262.917 102.504 263.048 102.979 263.048 103.503C263.048 103.877 262.98 104.244 262.844 104.602C262.712 104.956 262.48 105.352 262.148 105.79C261.82 106.224 261.365 106.754 260.781 107.381L258.494 109.827V109.906H263.227V111H256.804ZM268.602 111.139C267.853 111.139 267.214 110.935 266.688 110.528C266.161 110.117 265.758 109.522 265.479 108.743C265.201 107.961 265.062 107.016 265.062 105.909C265.062 104.809 265.201 103.869 265.479 103.09C265.761 102.308 266.165 101.711 266.692 101.3C267.223 100.886 267.859 100.679 268.602 100.679C269.344 100.679 269.979 100.886 270.506 101.3C271.036 101.711 271.44 102.308 271.719 103.09C272 103.869 272.141 104.809 272.141 105.909C272.141 107.016 272.002 107.961 271.724 108.743C271.445 109.522 271.043 110.117 270.516 110.528C269.989 110.935 269.351 111.139 268.602 111.139ZM268.602 110.045C269.344 110.045 269.921 109.687 270.332 108.972C270.743 108.256 270.948 107.235 270.948 105.909C270.948 105.027 270.854 104.277 270.665 103.657C270.479 103.037 270.211 102.565 269.859 102.24C269.511 101.915 269.092 101.753 268.602 101.753C267.866 101.753 267.291 102.116 266.876 102.842C266.462 103.564 266.255 104.587 266.255 105.909C266.255 106.791 266.348 107.54 266.533 108.156C266.719 108.773 266.986 109.242 267.334 109.563C267.685 109.885 268.108 110.045 268.602 110.045Z" fill="#667085"/>
</svg>
