<svg width="15" height="15" viewBox="0 0 15 15" fill="none" xmlns="http://www.w3.org/2000/svg">
<path fill-rule="evenodd" clip-rule="evenodd" d="M0.458909 0.459885C0.849433 0.0693611 1.4826 0.0693611 1.87312 0.459885L7.16602 5.75278L12.4589 0.459885C12.8494 0.0693611 13.4826 0.0693611 13.8731 0.459885C14.2636 0.85041 14.2636 1.48357 13.8731 1.8741L8.58023 7.16699L13.8731 12.4599C14.2636 12.8504 14.2636 13.4836 13.8731 13.8741C13.4826 14.2646 12.8494 14.2646 12.4589 13.8741L7.16602 8.58121L1.87312 13.8741C1.4826 14.2646 0.849433 14.2646 0.458909 13.8741C0.0683846 13.4836 0.0683846 12.8504 0.458909 12.4599L5.7518 7.16699L0.458909 1.8741C0.0683846 1.48357 0.0683846 0.85041 0.458909 0.459885Z" fill="#175CD3"/>
</svg>
