<svg width="15" height="14" viewBox="0 0 15 14" fill="none" xmlns="http://www.w3.org/2000/svg">
<path d="M5.9991 8.33333C5.9991 8.33333 6.8741 9.33333 8.33243 9.33333C9.79077 9.33333 10.6658 8.33333 10.6658 8.33333M10.1658 5H10.1724M6.4991 5H6.50577M8.33243 12.3333C11.462 12.3333 13.9991 9.79628 13.9991 6.66667C13.9991 3.53705 11.462 1 8.33243 1C5.20282 1 2.66577 3.53705 2.66577 6.66667C2.66577 7.3 2.76966 7.90906 2.96135 8.47774C3.03348 8.69175 3.06955 8.79875 3.07605 8.88095C3.08247 8.96213 3.07762 9.01905 3.05753 9.09797C3.0372 9.17788 2.9923 9.26099 2.90249 9.42721L1.81206 11.4456C1.65652 11.7335 1.57875 11.8774 1.59615 11.9885C1.61131 12.0853 1.66826 12.1705 1.75188 12.2215C1.84788 12.2801 2.01063 12.2632 2.33613 12.2296L5.75014 11.8767C5.85353 11.866 5.90522 11.8606 5.95234 11.8624C5.99868 11.8642 6.0314 11.8686 6.07659 11.879C6.12253 11.8896 6.18031 11.9118 6.29587 11.9564C6.9279 12.1999 7.61458 12.3333 8.33243 12.3333ZM10.4991 5C10.4991 5.18409 10.3499 5.33333 10.1658 5.33333C9.98167 5.33333 9.83243 5.18409 9.83243 5C9.83243 4.8159 9.98167 4.66667 10.1658 4.66667C10.3499 4.66667 10.4991 4.8159 10.4991 5ZM6.83243 5C6.83243 5.18409 6.68319 5.33333 6.4991 5.33333C6.315 5.33333 6.16577 5.18409 6.16577 5C6.16577 4.8159 6.315 4.66667 6.4991 4.66667C6.68319 4.66667 6.83243 4.8159 6.83243 5Z" stroke="#344054" stroke-width="1.5" stroke-linecap="round" stroke-linejoin="round"/>
</svg>
