<svg width="17" height="18" viewBox="0 0 17 18" fill="none" xmlns="http://www.w3.org/2000/svg">
<path fill-rule="evenodd" clip-rule="evenodd" d="M7.99518 6.92161e-07H9.33685C9.75857 -1.36702e-05 10.1224 -2.60872e-05 10.422 0.0244569C10.7383 0.0502978 11.0529 0.10735 11.3556 0.261586C11.8072 0.491682 12.1743 0.858835 12.4044 1.31042C12.5587 1.61313 12.6157 1.9277 12.6416 2.24398C12.6635 2.5126 12.6658 2.83277 12.666 3.2H15.866C16.3078 3.2 16.666 3.55817 16.666 4C16.666 4.44183 16.3078 4.8 15.866 4.8H15.066V12.9931C15.066 13.637 15.066 14.1685 15.0307 14.6015C14.9939 15.0511 14.9151 15.4645 14.7172 15.8528C14.4104 16.4549 13.9209 16.9444 13.3188 17.2512C12.9305 17.4491 12.5172 17.5279 12.0675 17.5646C11.6345 17.6 11.103 17.6 10.4591 17.6H6.87296C6.22899 17.6 5.69751 17.6 5.26455 17.5646C4.81488 17.5279 4.40151 17.4491 4.01325 17.2512C3.41113 16.9444 2.92159 16.4549 2.61479 15.8528C2.41696 15.4645 2.33811 15.0511 2.30137 14.6015C2.266 14.1685 2.26601 13.637 2.26602 12.993L2.26602 4.8H1.46602C1.02419 4.8 0.666016 4.44183 0.666016 4C0.666016 3.55817 1.02419 3.2 1.46602 3.2H4.66604C4.66626 2.83277 4.66852 2.5126 4.69047 2.24398C4.71631 1.9277 4.77336 1.61313 4.9276 1.31042C5.1577 0.858835 5.52485 0.491682 5.97644 0.261586C6.27914 0.10735 6.59372 0.0502978 6.90999 0.0244569C7.20965 -2.60872e-05 7.57346 -1.36702e-05 7.99518 6.92161e-07ZM3.86602 4.8V12.96C3.86602 13.6453 3.86664 14.1111 3.89606 14.4712C3.92471 14.8219 3.97665 15.0013 4.04041 15.1264C4.1938 15.4274 4.43857 15.6722 4.73963 15.8256C4.86475 15.8894 5.04411 15.9413 5.39485 15.97C5.75492 15.9994 6.22075 16 6.90602 16H10.426C11.1113 16 11.5771 15.9994 11.9372 15.97C12.2879 15.9413 12.4673 15.8894 12.5924 15.8256C12.8935 15.6722 13.1382 15.4274 13.2916 15.1264C13.3554 15.0013 13.4073 14.8219 13.436 14.4712C13.4654 14.1111 13.466 13.6453 13.466 12.96V4.8H3.86602ZM11.066 3.2H6.26607C6.26643 2.82792 6.26887 2.57359 6.28516 2.37427C6.30291 2.15694 6.33306 2.07636 6.35321 2.03681C6.42991 1.88628 6.55229 1.76389 6.70282 1.6872C6.74238 1.66704 6.82295 1.6369 7.04028 1.61914C7.26695 1.60062 7.56477 1.6 8.02602 1.6H9.30602C9.76726 1.6 10.0651 1.60062 10.2917 1.61914C10.5091 1.6369 10.5897 1.66704 10.6292 1.6872C10.7797 1.76389 10.9021 1.88628 10.9788 2.03681C10.999 2.07636 11.0291 2.15694 11.0469 2.37427C11.0632 2.57359 11.0656 2.82792 11.066 3.2ZM7.06602 7.6C7.50784 7.6 7.86602 7.95817 7.86602 8.4V12.4C7.86602 12.8418 7.50784 13.2 7.06602 13.2C6.62419 13.2 6.26602 12.8418 6.26602 12.4V8.4C6.26602 7.95817 6.62419 7.6 7.06602 7.6ZM10.266 7.6C10.7078 7.6 11.066 7.95817 11.066 8.4V12.4C11.066 12.8418 10.7078 13.2 10.266 13.2C9.82419 13.2 9.46602 12.8418 9.46602 12.4V8.4C9.46602 7.95817 9.82419 7.6 10.266 7.6Z" fill="#667085"/>
</svg>
