<svg width="421" height="433" viewBox="0 0 421 433" fill="none" xmlns="http://www.w3.org/2000/svg">
<circle cx="214.783" cy="218.998" r="44.9037" stroke="url(#paint0_linear_136_14823)" stroke-width="3.45413"/>
<path fill-rule="evenodd" clip-rule="evenodd" d="M177.912 5.0069e-06C175.806 5.19107e-06 173.885 0.796337 172.435 2.1044C171.541 2.74835 170.763 3.58439 170.169 4.59511L134.696 64.9321C133.906 66.2756 133.544 67.7521 133.568 69.2041C133.301 70.9865 133.619 72.8684 134.602 74.5443L170.676 136.097C172.568 139.326 176.332 140.778 179.784 139.882H243.7C247.152 140.778 250.915 139.326 252.808 136.097L288.882 74.5443C289.463 73.5529 289.812 72.4895 289.944 71.4171C290.452 69.4221 290.212 67.2348 289.101 65.3109L253.841 4.22177C252.444 1.80147 249.997 0.36514 247.407 0.156038C246.89 0.0536728 246.356 0 245.809 0L177.912 5.0069e-06ZM182.269 123.521L241.215 123.521L272.751 69.7115L241.957 16.3606L182.231 16.3606L150.799 69.8243L182.269 123.521Z" fill="url(#paint1_linear_136_14823)"/>
<path fill-rule="evenodd" clip-rule="evenodd" d="M168.122 426.119C169.177 427.946 170.831 429.212 172.692 429.813C173.695 430.263 174.805 430.517 175.975 430.527L245.965 431.079C247.536 431.091 249.006 430.66 250.258 429.902C251.921 429.239 253.378 428.027 254.332 426.35L289.601 364.333C291.451 361.08 290.826 357.094 288.325 354.553L256.372 299.209C255.423 295.769 252.283 293.233 248.539 293.209L177.195 292.744C176.057 292.736 174.971 292.962 173.984 293.376C171.991 293.929 170.205 295.234 169.088 297.167L133.814 358.248C132.418 360.665 132.396 363.499 133.506 365.845C133.676 366.348 133.898 366.841 134.174 367.319L168.122 426.119ZM272.914 360.58L243.443 309.536L181.072 309.13L150.267 362.472L180.132 414.198L242.143 414.687L272.914 360.58Z" fill="url(#paint2_linear_136_14823)"/>
<path fill-rule="evenodd" clip-rule="evenodd" d="M416.692 146.077C417.749 144.247 418.018 142.178 417.605 140.264C417.493 139.174 417.158 138.088 416.583 137.074L382.066 76.1847C381.293 74.8209 380.187 73.7643 378.908 73.0588C377.501 71.9463 375.719 71.2871 373.786 71.2997L302.442 71.7646C298.699 71.789 295.559 74.3245 294.609 77.7634L262.66 133.102C260.153 135.644 259.526 139.633 261.378 142.889L296.647 204.906C297.212 205.901 297.955 206.731 298.812 207.381C300.287 208.825 302.306 209.715 304.533 209.716L375.069 209.723C377.858 209.724 380.322 208.328 381.799 206.196C382.15 205.796 382.468 205.356 382.744 204.877L416.692 146.077ZM307.538 88.0923L278.066 139.139L308.899 193.355L370.5 193.362L400.364 141.638L369.78 87.6868L307.538 88.0923Z" fill="url(#paint3_linear_136_14823)"/>
<path fill-rule="evenodd" clip-rule="evenodd" d="M125.082 76.0066C124.032 74.1876 122.389 72.9245 120.538 72.3206C119.529 71.8646 118.412 71.6069 117.234 71.5976L47.2443 71.0457C45.6815 71.0334 44.2176 71.4602 42.9698 72.2107C41.2974 72.8722 39.8309 74.087 38.8727 75.772L3.60361 137.79C1.75463 141.041 2.37749 145.023 4.87502 147.565L36.836 202.923C37.787 206.36 40.9257 208.892 44.6676 208.917L116.011 209.382C117.158 209.389 118.251 209.16 119.245 208.74C121.229 208.184 123.006 206.881 124.118 204.956L159.392 143.874C160.793 141.449 160.81 138.605 159.69 136.256C159.521 135.761 159.302 135.276 159.03 134.807L125.082 76.0066ZM20.29 141.543L49.7612 192.589L112.132 192.995L142.937 139.653L113.072 87.9259L51.0601 87.4369L20.29 141.543Z" fill="url(#paint4_linear_136_14823)"/>
<path fill-rule="evenodd" clip-rule="evenodd" d="M47.4387 221.277C45.332 221.277 43.4114 222.074 41.9613 223.382C41.0674 224.026 40.2897 224.862 39.6955 225.872L4.22265 286.209C3.43282 287.553 3.07025 289.029 3.09402 290.481C2.82768 292.264 3.14577 294.146 4.12798 295.822L40.2022 357.374C42.0946 360.603 45.8584 362.055 49.3103 361.159H113.226C116.678 362.055 120.442 360.603 122.334 357.374L158.408 295.822C158.989 294.83 159.338 293.767 159.471 292.694C159.978 290.699 159.738 288.512 158.628 286.588L123.367 225.499C121.97 223.079 119.523 221.642 116.933 221.433C116.417 221.331 115.882 221.277 115.335 221.277L47.4387 221.277ZM51.7954 344.799L110.741 344.799L142.277 290.989L111.483 237.638L51.757 237.638L20.3251 291.102L51.7954 344.799Z" fill="url(#paint5_linear_136_14823)"/>
<path fill-rule="evenodd" clip-rule="evenodd" d="M261.395 285.695C260.339 287.525 260.07 289.593 260.483 291.508C260.595 292.598 260.93 293.683 261.505 294.698L296.022 355.587C296.795 356.95 297.901 358.007 299.18 358.713C300.587 359.825 302.369 360.484 304.302 360.472L375.645 360.007C379.389 359.982 382.529 357.447 383.478 354.008L415.43 298.667C417.934 296.125 418.56 292.138 416.709 288.883L381.44 226.865C380.876 225.872 380.135 225.043 379.279 224.394C377.804 222.948 375.783 222.056 373.555 222.056L303.019 222.048C300.23 222.048 297.766 223.444 296.289 225.576C295.938 225.976 295.62 226.416 295.344 226.895L261.395 285.695ZM370.55 343.679L400.021 292.634L369.188 238.416L307.587 238.409L277.724 290.134L308.308 344.085L370.55 343.679Z" fill="url(#paint6_linear_136_14823)"/>
<path d="M188.043 73.2842H185.467V66.017H188.064C188.795 66.017 189.425 66.1625 189.952 66.4535C190.48 66.7421 190.885 67.1573 191.169 67.699C191.455 68.2407 191.599 68.8889 191.599 69.6435C191.599 70.4005 191.455 71.0511 191.169 71.5951C190.885 72.1392 190.477 72.5568 189.945 72.8477C189.415 73.1387 188.781 73.2842 188.043 73.2842ZM187.003 71.9677H187.979C188.433 71.9677 188.815 71.8873 189.125 71.7264C189.438 71.5632 189.672 71.3113 189.828 70.9706C189.986 70.6276 190.066 70.1852 190.066 69.6435C190.066 69.1065 189.986 68.6677 189.828 68.3271C189.672 67.9864 189.439 67.7357 189.129 67.5748C188.819 67.4139 188.437 67.3335 187.983 67.3335H187.003V71.9677ZM193.697 73.2842H192.05L194.559 66.017H196.539L199.044 73.2842H197.398L195.577 67.6777H195.52L193.697 73.2842ZM193.594 70.4277H197.483V71.6271H193.594V70.4277ZM198.871 67.2838V66.017H204.839V67.2838H202.615V73.2842H201.096V67.2838H198.871ZM206.304 73.2842H204.658L207.166 66.017H209.146L211.651 73.2842H210.005L208.185 67.6777H208.128L206.304 73.2842ZM206.201 70.4277H210.09V71.6271H206.201V70.4277ZM212.643 73.2842V66.017H215.553C216.088 66.017 216.533 66.0963 216.891 66.2548C217.248 66.4133 217.516 66.6333 217.696 66.9148C217.876 67.1939 217.966 67.5157 217.966 67.88C217.966 68.1638 217.909 68.4134 217.796 68.6287C217.682 68.8416 217.526 69.0166 217.327 69.1538C217.131 69.2887 216.906 69.3845 216.653 69.4413V69.5122C216.93 69.5241 217.189 69.6021 217.43 69.7464C217.674 69.8907 217.871 70.093 218.023 70.3532C218.174 70.611 218.25 70.9186 218.25 71.2758C218.25 71.6614 218.154 72.0056 217.962 72.3084C217.773 72.6088 217.493 72.8465 217.121 73.0216C216.75 73.1967 216.292 73.2842 215.748 73.2842H212.643ZM214.18 72.028H215.432C215.86 72.028 216.173 71.9464 216.369 71.7832C216.565 71.6176 216.664 71.3976 216.664 71.1232C216.664 70.9221 216.615 70.7447 216.518 70.5909C216.421 70.4372 216.283 70.3165 216.103 70.229C215.926 70.1415 215.714 70.0977 215.468 70.0977H214.18V72.028ZM214.18 69.058H215.319C215.529 69.058 215.716 69.0214 215.879 68.948C216.045 68.8723 216.175 68.7659 216.27 68.6287C216.367 68.4915 216.415 68.3271 216.415 68.1354C216.415 67.8729 216.322 67.6611 216.135 67.5003C215.95 67.3394 215.688 67.259 215.347 67.259H214.18V69.058ZM220.619 73.2842H218.973L221.481 66.017H223.461L225.967 73.2842H224.32L222.5 67.6777H222.443L220.619 73.2842ZM220.516 70.4277H224.405V71.6271H220.516V70.4277ZM230.735 68.1071C230.706 67.8208 230.585 67.5985 230.369 67.44C230.154 67.2815 229.862 67.2022 229.493 67.2022C229.242 67.2022 229.03 67.2377 228.858 67.3087C228.685 67.3773 228.553 67.4731 228.46 67.5961C228.37 67.7191 228.325 67.8587 228.325 68.0148C228.321 68.1449 228.348 68.2585 228.407 68.3554C228.469 68.4524 228.553 68.5364 228.659 68.6074C228.765 68.676 228.888 68.7363 229.028 68.7884C229.168 68.838 229.317 68.8806 229.475 68.9161L230.128 69.0722C230.445 69.1432 230.736 69.2378 231.001 69.3561C231.266 69.4744 231.495 69.6199 231.689 69.7925C231.883 69.9652 232.033 70.1687 232.14 70.4029C232.249 70.6371 232.304 70.9056 232.307 71.2084C232.304 71.6531 232.191 72.0387 231.966 72.3651C231.744 72.6892 231.422 72.9412 231.001 73.121C230.582 73.2984 230.077 73.3871 229.486 73.3871C228.899 73.3871 228.388 73.2972 227.953 73.1174C227.52 72.9376 227.182 72.6715 226.938 72.319C226.697 71.9642 226.57 71.5254 226.558 71.0026H228.045C228.062 71.2462 228.131 71.4497 228.254 71.6129C228.38 71.7737 228.547 71.8956 228.755 71.9784C228.965 72.0588 229.203 72.099 229.468 72.099C229.728 72.099 229.954 72.0612 230.146 71.9855C230.34 71.9098 230.49 71.8045 230.596 71.6697C230.703 71.5348 230.756 71.3799 230.756 71.2048C230.756 71.0416 230.708 70.9044 230.611 70.7932C230.516 70.682 230.376 70.5874 230.192 70.5093C230.01 70.4313 229.786 70.3603 229.521 70.2964L228.73 70.0977C228.117 69.9487 227.633 69.7157 227.279 69.3987C226.924 69.0817 226.748 68.6547 226.75 68.1177C226.748 67.6777 226.865 67.2933 227.101 66.9645C227.34 66.6357 227.668 66.379 228.084 66.1945C228.5 66.0099 228.974 65.9177 229.503 65.9177C230.043 65.9177 230.514 66.0099 230.916 66.1945C231.32 66.379 231.635 66.6357 231.86 66.9645C232.084 67.2933 232.2 67.6742 232.207 68.1071H230.735ZM233.457 73.2842V66.017H238.354V67.2838H234.994V69.0154H238.102V70.2822H234.994V72.0174H238.368V73.2842H233.457Z" fill="#475467"/>
<path d="M315.115 136.569V129.302H317.982C318.533 129.302 319.003 129.407 319.391 129.618C319.779 129.826 320.074 130.116 320.278 130.487C320.484 130.856 320.586 131.282 320.586 131.765C320.586 132.247 320.482 132.673 320.274 133.042C320.066 133.411 319.764 133.699 319.369 133.904C318.977 134.11 318.501 134.213 317.943 134.213H316.115V132.982H317.695C317.99 132.982 318.234 132.931 318.426 132.829C318.619 132.725 318.764 132.582 318.858 132.4C318.955 132.215 319.004 132.004 319.004 131.765C319.004 131.524 318.955 131.313 318.858 131.133C318.764 130.951 318.619 130.81 318.426 130.711C318.232 130.609 317.986 130.558 317.687 130.558H316.651V136.569H315.115ZM321.702 136.569V129.302H324.569C325.117 129.302 325.586 129.4 325.974 129.597C326.364 129.791 326.661 130.066 326.864 130.423C327.07 130.778 327.173 131.196 327.173 131.676C327.173 132.159 327.069 132.574 326.861 132.922C326.653 133.267 326.351 133.532 325.956 133.716C325.563 133.901 325.088 133.993 324.53 133.993H322.61V132.758H324.281C324.575 132.758 324.818 132.718 325.012 132.638C325.206 132.557 325.351 132.437 325.445 132.276C325.542 132.115 325.591 131.915 325.591 131.676C325.591 131.435 325.542 131.231 325.445 131.066C325.351 130.9 325.205 130.775 325.009 130.69C324.815 130.602 324.57 130.558 324.274 130.558H323.238V136.569H321.702ZM325.626 133.262L327.432 136.569H325.736L323.969 133.262H325.626ZM335.054 132.936C335.054 133.728 334.904 134.402 334.604 134.958C334.306 135.514 333.899 135.939 333.383 136.232C332.87 136.523 332.292 136.669 331.651 136.669C331.005 136.669 330.426 136.522 329.913 136.229C329.399 135.935 328.994 135.511 328.695 134.955C328.397 134.399 328.248 133.726 328.248 132.936C328.248 132.143 328.397 131.469 328.695 130.913C328.994 130.357 329.399 129.934 329.913 129.643C330.426 129.35 331.005 129.203 331.651 129.203C332.292 129.203 332.87 129.35 333.383 129.643C333.899 129.934 334.306 130.357 334.604 130.913C334.904 131.469 335.054 132.143 335.054 132.936ZM333.496 132.936C333.496 132.422 333.42 131.99 333.266 131.637C333.114 131.285 332.9 131.017 332.624 130.835C332.347 130.653 332.023 130.562 331.651 130.562C331.28 130.562 330.956 130.653 330.679 130.835C330.402 131.017 330.187 131.285 330.033 131.637C329.882 131.99 329.806 132.422 329.806 132.936C329.806 133.449 329.882 133.882 330.033 134.234C330.187 134.587 330.402 134.854 330.679 135.036C330.956 135.219 331.28 135.31 331.651 135.31C332.023 135.31 332.347 135.219 332.624 135.036C332.9 134.854 333.114 134.587 333.266 134.234C333.42 133.882 333.496 133.449 333.496 132.936ZM338.886 136.569H336.309V129.302H338.907C339.638 129.302 340.267 129.448 340.795 129.739C341.322 130.027 341.728 130.442 342.012 130.984C342.298 131.526 342.441 132.174 342.441 132.929C342.441 133.686 342.298 134.336 342.012 134.88C341.728 135.424 341.32 135.842 340.788 136.133C340.258 136.424 339.624 136.569 338.886 136.569ZM337.846 135.253H338.822C339.276 135.253 339.658 135.172 339.968 135.012C340.28 134.848 340.514 134.596 340.67 134.256C340.829 133.913 340.908 133.47 340.908 132.929C340.908 132.392 340.829 131.953 340.67 131.612C340.514 131.272 340.281 131.021 339.971 130.86C339.662 130.699 339.279 130.619 338.825 130.619H337.846V135.253ZM348.185 129.302H349.722V134.022C349.722 134.551 349.595 135.015 349.342 135.413C349.091 135.81 348.74 136.12 348.288 136.342C347.836 136.562 347.31 136.672 346.709 136.672C346.106 136.672 345.578 136.562 345.126 136.342C344.675 136.12 344.323 135.81 344.072 135.413C343.822 135.015 343.696 134.551 343.696 134.022V129.302H345.233V133.89C345.233 134.167 345.293 134.413 345.414 134.628C345.537 134.844 345.709 135.013 345.932 135.136C346.154 135.259 346.413 135.32 346.709 135.32C347.007 135.32 347.266 135.259 347.486 135.136C347.708 135.013 347.88 134.844 348.001 134.628C348.124 134.413 348.185 134.167 348.185 133.89V129.302ZM357.515 131.846H355.961C355.932 131.645 355.874 131.467 355.787 131.311C355.699 131.152 355.587 131.017 355.45 130.906C355.312 130.795 355.154 130.71 354.974 130.651C354.797 130.591 354.604 130.562 354.396 130.562C354.02 130.562 353.692 130.655 353.413 130.842C353.134 131.027 352.917 131.296 352.763 131.651C352.61 132.004 352.533 132.432 352.533 132.936C352.533 133.454 352.61 133.889 352.763 134.242C352.92 134.594 353.137 134.86 353.416 135.04C353.695 135.22 354.018 135.31 354.385 135.31C354.591 135.31 354.781 135.282 354.956 135.228C355.134 135.174 355.291 135.094 355.428 134.99C355.565 134.884 355.679 134.755 355.769 134.604C355.861 134.452 355.925 134.279 355.961 134.085L357.515 134.093C357.475 134.426 357.374 134.748 357.213 135.058C357.055 135.365 356.841 135.641 356.571 135.884C356.304 136.126 355.984 136.317 355.613 136.459C355.244 136.599 354.826 136.669 354.36 136.669C353.712 136.669 353.132 136.522 352.621 136.229C352.113 135.935 351.711 135.511 351.415 134.955C351.122 134.399 350.975 133.726 350.975 132.936C350.975 132.143 351.124 131.469 351.422 130.913C351.72 130.357 352.125 129.934 352.636 129.643C353.147 129.35 353.721 129.203 354.36 129.203C354.781 129.203 355.172 129.262 355.531 129.38C355.893 129.499 356.214 129.671 356.493 129.898C356.772 130.123 356.999 130.399 357.174 130.725C357.352 131.052 357.465 131.425 357.515 131.846ZM358.457 130.569V129.302H364.425V130.569H362.2V136.569H360.682V130.569H358.457ZM306.308 143.302H308.203L310.204 148.185H310.289L312.291 143.302H314.186V150.569H312.695V145.839H312.635L310.754 150.534H309.739L307.859 145.822H307.798V150.569H306.308V143.302ZM316.821 150.569H315.175L317.683 143.302H319.663L322.169 150.569H320.522L318.702 144.963H318.645L316.821 150.569ZM316.718 147.713H320.607V148.912H316.718V147.713ZM329.239 143.302V150.569H327.912L324.75 145.995H324.697V150.569H323.16V143.302H324.509L327.646 147.873H327.709V143.302H329.239ZM335.444 145.651C335.394 145.479 335.325 145.326 335.235 145.194C335.145 145.059 335.035 144.945 334.905 144.853C334.777 144.758 334.63 144.686 334.465 144.636C334.302 144.587 334.121 144.562 333.922 144.562C333.55 144.562 333.224 144.654 332.942 144.839C332.663 145.023 332.446 145.292 332.29 145.644C332.133 145.994 332.055 146.422 332.055 146.929C332.055 147.435 332.132 147.865 332.286 148.22C332.44 148.575 332.657 148.846 332.939 149.033C333.22 149.217 333.553 149.31 333.936 149.31C334.284 149.31 334.581 149.248 334.827 149.125C335.075 149 335.264 148.824 335.394 148.596C335.527 148.369 335.593 148.101 335.593 147.791L335.905 147.837H334.032V146.68H337.073V147.596C337.073 148.234 336.938 148.783 336.668 149.242C336.399 149.699 336.027 150.051 335.554 150.3C335.081 150.546 334.539 150.669 333.929 150.669C333.248 150.669 332.649 150.518 332.133 150.218C331.618 149.915 331.216 149.486 330.927 148.93C330.641 148.372 330.498 147.709 330.498 146.943C330.498 146.354 330.583 145.829 330.753 145.367C330.926 144.904 331.167 144.511 331.477 144.189C331.787 143.868 332.148 143.623 332.559 143.455C332.971 143.287 333.417 143.203 333.897 143.203C334.309 143.203 334.692 143.263 335.047 143.384C335.402 143.502 335.716 143.67 335.991 143.888C336.267 144.105 336.493 144.364 336.668 144.665C336.843 144.963 336.956 145.292 337.005 145.651H335.444ZM338.344 150.569V143.302H343.241V144.569H339.88V146.301H342.989V147.567H339.88V149.303H343.255V150.569H338.344ZM344.579 143.302H346.474L348.476 148.185H348.561L350.562 143.302H352.457V150.569H350.967V145.839H350.906L349.026 150.534H348.011L346.13 145.822H346.07V150.569H344.579V143.302ZM353.84 150.569V143.302H358.737V144.569H355.376V146.301H358.485V147.567H355.376V149.303H358.751V150.569H353.84ZM366.154 143.302V150.569H364.827L361.665 145.995H361.612V150.569H360.075V143.302H361.424L364.561 147.873H364.624V143.302H366.154ZM367.264 144.569V143.302H373.232V144.569H371.007V150.569H369.488V144.569H367.264Z" fill="#475467"/>
<path d="M329.715 284.486C329.715 285.278 329.564 285.952 329.264 286.508C328.966 287.064 328.559 287.489 328.043 287.782C327.53 288.073 326.953 288.218 326.312 288.218C325.666 288.218 325.086 288.072 324.573 287.778C324.06 287.485 323.654 287.061 323.356 286.505C323.058 285.949 322.909 285.276 322.909 284.486C322.909 283.693 323.058 283.019 323.356 282.463C323.654 281.907 324.06 281.484 324.573 281.193C325.086 280.899 325.666 280.753 326.312 280.753C326.953 280.753 327.53 280.899 328.043 281.193C328.559 281.484 328.966 281.907 329.264 282.463C329.564 283.019 329.715 283.693 329.715 284.486ZM328.157 284.486C328.157 283.972 328.08 283.539 327.926 283.187C327.775 282.834 327.561 282.567 327.284 282.385C327.007 282.203 326.683 282.112 326.312 282.112C325.94 282.112 325.616 282.203 325.34 282.385C325.063 282.567 324.847 282.834 324.694 283.187C324.542 283.539 324.467 283.972 324.467 284.486C324.467 284.999 324.542 285.432 324.694 285.784C324.847 286.137 325.063 286.404 325.34 286.586C325.616 286.768 325.94 286.859 326.312 286.859C326.683 286.859 327.007 286.768 327.284 286.586C327.561 286.404 327.775 286.137 327.926 285.784C328.08 285.432 328.157 284.999 328.157 284.486ZM330.97 288.119V280.852H333.837C334.386 280.852 334.854 280.95 335.242 281.147C335.633 281.341 335.929 281.616 336.133 281.973C336.339 282.328 336.442 282.746 336.442 283.226C336.442 283.708 336.338 284.124 336.129 284.471C335.921 284.817 335.62 285.082 335.224 285.266C334.832 285.451 334.356 285.543 333.798 285.543H331.878V284.308H333.55C333.843 284.308 334.087 284.268 334.281 284.188C334.475 284.107 334.619 283.986 334.714 283.826C334.811 283.665 334.859 283.465 334.859 283.226C334.859 282.985 334.811 282.781 334.714 282.616C334.619 282.45 334.473 282.325 334.277 282.239C334.083 282.152 333.838 282.108 333.543 282.108H332.506V288.119H330.97ZM334.894 284.812L336.701 288.119H335.004L333.237 284.812H334.894ZM340.221 288.119H337.645V280.852H340.242C340.973 280.852 341.602 280.997 342.13 281.288C342.657 281.577 343.063 281.992 343.347 282.534C343.633 283.076 343.776 283.724 343.776 284.478C343.776 285.235 343.633 285.886 343.347 286.43C343.063 286.974 342.655 287.392 342.123 287.683C341.593 287.974 340.959 288.119 340.221 288.119ZM339.181 286.803H340.157C340.611 286.803 340.993 286.722 341.303 286.561C341.615 286.398 341.849 286.146 342.005 285.806C342.164 285.463 342.243 285.02 342.243 284.478C342.243 283.941 342.164 283.503 342.005 283.162C341.849 282.821 341.616 282.571 341.306 282.41C340.997 282.249 340.615 282.168 340.16 282.168H339.181V286.803ZM345.031 288.119V280.852H349.928V282.119H346.568V283.85H349.676V285.117H346.568V286.852H349.942V288.119H345.031ZM351.267 288.119V280.852H354.134C354.683 280.852 355.151 280.95 355.539 281.147C355.929 281.341 356.226 281.616 356.43 281.973C356.636 282.328 356.738 282.746 356.738 283.226C356.738 283.708 356.634 284.124 356.426 284.471C356.218 284.817 355.916 285.082 355.521 285.266C355.129 285.451 354.653 285.543 354.095 285.543H352.175V284.308H353.847C354.14 284.308 354.384 284.268 354.577 284.188C354.771 284.107 354.916 283.986 355.01 283.826C355.107 283.665 355.156 283.465 355.156 283.226C355.156 282.985 355.107 282.781 355.01 282.616C354.916 282.45 354.77 282.325 354.574 282.239C354.38 282.152 354.135 282.108 353.839 282.108H352.803V288.119H351.267ZM355.191 284.812L356.998 288.119H355.301L353.534 284.812H355.191ZM302.852 294.852H304.747L306.748 299.735H306.833L308.835 294.852H310.729V302.119H309.239V297.389H309.179L307.298 302.084H306.283L304.403 297.371H304.342V302.119H302.852V294.852ZM313.365 302.119H311.719L314.227 294.852H316.207L318.712 302.119H317.066L315.246 296.513H315.189L313.365 302.119ZM313.262 299.263H317.151V300.462H313.262V299.263ZM325.783 294.852V302.119H324.456L321.294 297.545H321.241V302.119H319.704V294.852H321.053L324.189 299.422H324.253V294.852H325.783ZM328.422 302.119H326.775L329.284 294.852H331.264L333.769 302.119H332.123L330.302 296.513H330.246L328.422 302.119ZM328.319 299.263H332.208V300.462H328.319V299.263ZM339.238 297.201C339.189 297.028 339.119 296.876 339.029 296.743C338.939 296.608 338.829 296.495 338.699 296.403C338.571 296.308 338.424 296.236 338.259 296.186C338.096 296.137 337.915 296.112 337.716 296.112C337.345 296.112 337.018 296.204 336.737 296.388C336.457 296.573 336.24 296.841 336.084 297.194C335.928 297.544 335.849 297.972 335.849 298.478C335.849 298.985 335.926 299.415 336.08 299.77C336.234 300.125 336.451 300.396 336.733 300.583C337.015 300.767 337.347 300.859 337.73 300.859C338.078 300.859 338.375 300.798 338.621 300.675C338.869 300.55 339.058 300.373 339.189 300.146C339.321 299.919 339.387 299.651 339.387 299.341L339.699 299.387H337.826V298.23H340.867V299.146C340.867 299.784 340.732 300.333 340.462 300.792C340.193 301.249 339.821 301.601 339.348 301.849C338.875 302.095 338.333 302.218 337.723 302.218C337.042 302.218 336.443 302.068 335.928 301.768C335.412 301.465 335.01 301.036 334.721 300.48C334.435 299.921 334.292 299.259 334.292 298.493C334.292 297.904 334.377 297.378 334.547 296.917C334.72 296.454 334.961 296.061 335.271 295.739C335.581 295.417 335.942 295.173 336.353 295.005C336.765 294.837 337.211 294.753 337.691 294.753C338.103 294.753 338.486 294.813 338.841 294.934C339.196 295.052 339.51 295.22 339.785 295.437C340.061 295.655 340.287 295.914 340.462 296.215C340.637 296.513 340.75 296.841 340.799 297.201H339.238ZM342.138 302.119V294.852H347.035V296.119H343.675V297.85H346.783V299.117H343.675V300.852H347.049V302.119H342.138ZM348.374 294.852H350.268L352.27 299.735H352.355L354.356 294.852H356.251V302.119H354.761V297.389H354.7L352.82 302.084H351.805L349.924 297.371H349.864V302.119H348.374V294.852ZM357.634 302.119V294.852H362.531V296.119H359.17V297.85H362.279V299.117H359.17V300.852H362.545V302.119H357.634ZM369.948 294.852V302.119H368.621L365.459 297.545H365.406V302.119H363.869V294.852H365.218L368.355 299.422H368.418V294.852H369.948ZM371.058 296.119V294.852H377.026V296.119H374.801V302.119H373.282V296.119H371.058Z" fill="#475467"/>
<path d="M176.24 364.727V357.459H181.052V358.726H177.777V360.458H180.733V361.725H177.777V364.727H176.24ZM186.691 357.459H188.228V362.179C188.228 362.709 188.101 363.172 187.848 363.57C187.597 363.967 187.246 364.277 186.794 364.499C186.342 364.719 185.816 364.829 185.215 364.829C184.612 364.829 184.084 364.719 183.633 364.499C183.181 364.277 182.829 363.967 182.579 363.57C182.328 363.172 182.203 362.709 182.203 362.179V357.459H183.739V362.048C183.739 362.324 183.799 362.57 183.92 362.786C184.043 363.001 184.216 363.17 184.438 363.293C184.66 363.416 184.919 363.478 185.215 363.478C185.513 363.478 185.772 363.416 185.992 363.293C186.215 363.17 186.386 363.001 186.507 362.786C186.63 362.57 186.691 362.324 186.691 362.048V357.459ZM189.609 364.727V357.459H191.145V363.46H194.261V364.727H189.609ZM195.395 364.727V357.459H200.207V358.726H196.932V360.458H199.888V361.725H196.932V364.727H195.395ZM202.894 357.459V364.727H201.358V357.459H202.894ZM204.275 364.727V357.459H205.812V363.46H208.927V364.727H204.275ZM210.062 364.727V357.459H211.598V363.46H214.714V364.727H210.062ZM215.848 357.459H217.743L219.745 362.342H219.83L221.831 357.459H223.726V364.727H222.236V359.997H222.175L220.295 364.691H219.28L217.399 359.979H217.339V364.727H215.848V357.459ZM225.109 364.727V357.459H230.006V358.726H226.645V360.458H229.754V361.725H226.645V363.46H230.02V364.727H225.109ZM237.423 357.459V364.727H236.096L232.934 360.153H232.881V364.727H231.344V357.459H232.693L235.83 362.03H235.893V357.459H237.423ZM238.533 358.726V357.459H244.501V358.726H242.276V364.727H240.757V358.726H238.533Z" fill="#475467"/>
<path d="M46.0762 288.119V280.852H50.8879V282.119H47.6127V283.85H50.5685V285.117H47.6127V288.119H46.0762ZM52.0384 288.119V280.852H56.9352V282.119H53.5749V283.85H56.6833V285.117H53.5749V286.852H56.9494V288.119H52.0384ZM58.2739 288.119V280.852H63.1707V282.119H59.8103V283.85H62.9187V285.117H59.8103V286.852H63.1849V288.119H58.2739ZM67.0855 288.119H64.5093V280.852H67.1067C67.8377 280.852 68.467 280.997 68.9945 281.288C69.522 281.577 69.9277 281.992 70.2116 282.534C70.4978 283.076 70.641 283.724 70.641 284.478C70.641 285.235 70.4978 285.886 70.2116 286.43C69.9277 286.974 69.5197 287.392 68.9874 287.683C68.4575 287.974 67.8235 288.119 67.0855 288.119ZM66.0458 286.803H67.0216C67.4758 286.803 67.8578 286.722 68.1677 286.561C68.48 286.398 68.7142 286.146 68.8703 285.806C69.0288 285.463 69.108 285.02 69.108 284.478C69.108 283.941 69.0288 283.503 68.8703 283.162C68.7142 282.821 68.4812 282.571 68.1713 282.41C67.8614 282.249 67.4793 282.168 67.0251 282.168H66.0458V286.803ZM78.1512 282.942C78.1228 282.656 78.0009 282.433 77.7857 282.275C77.5704 282.116 77.2782 282.037 76.9092 282.037C76.6585 282.037 76.4467 282.073 76.274 282.144C76.1014 282.212 75.9689 282.308 75.8766 282.431C75.7867 282.554 75.7418 282.694 75.7418 282.85C75.7371 282.98 75.7643 283.093 75.8234 283.19C75.8849 283.287 75.9689 283.371 76.0753 283.442C76.1818 283.511 76.3048 283.571 76.4444 283.623C76.5839 283.673 76.733 283.716 76.8915 283.751L77.5444 283.907C77.8614 283.978 78.1523 284.073 78.4173 284.191C78.6822 284.309 78.9117 284.455 79.1057 284.628C79.2997 284.8 79.4499 285.004 79.5563 285.238C79.6651 285.472 79.7207 285.741 79.7231 286.043C79.7207 286.488 79.6072 286.874 79.3824 287.2C79.1601 287.524 78.8384 287.776 78.4173 287.956C77.9986 288.133 77.4935 288.222 76.9021 288.222C76.3154 288.222 75.8045 288.132 75.3692 287.952C74.9363 287.773 74.598 287.506 74.3544 287.154C74.1131 286.799 73.9865 286.36 73.9747 285.838H75.4615C75.478 286.081 75.5478 286.285 75.6708 286.448C75.7962 286.609 75.963 286.731 76.1711 286.813C76.3817 286.894 76.6194 286.934 76.8844 286.934C77.1446 286.934 77.3705 286.896 77.5621 286.82C77.7561 286.745 77.9063 286.639 78.0128 286.505C78.1192 286.37 78.1724 286.215 78.1724 286.04C78.1724 285.877 78.1239 285.739 78.027 285.628C77.9323 285.517 77.7928 285.422 77.6082 285.344C77.4261 285.266 77.2025 285.195 76.9376 285.131L76.1463 284.933C75.5336 284.784 75.0498 284.551 74.695 284.234C74.3402 283.917 74.1639 283.49 74.1663 282.953C74.1639 282.513 74.281 282.128 74.5176 281.799C74.7565 281.471 75.0841 281.214 75.5005 281.029C75.9168 280.845 76.39 280.753 76.9199 280.753C77.4592 280.753 77.93 280.845 78.3321 281.029C78.7366 281.214 79.0513 281.471 79.276 281.799C79.5007 282.128 79.6166 282.509 79.6237 282.942H78.1512ZM80.8737 288.119V280.852H85.7705V282.119H82.4101V283.85H85.5185V285.117H82.4101V286.852H85.7847V288.119H80.8737ZM87.1091 288.119V280.852H89.9762C90.525 280.852 90.9934 280.95 91.3814 281.147C91.7717 281.341 92.0686 281.616 92.272 281.973C92.4778 282.328 92.5807 282.746 92.5807 283.226C92.5807 283.708 92.4767 284.124 92.2685 284.471C92.0603 284.817 91.7587 285.082 91.3636 285.266C90.9709 285.451 90.4955 285.543 89.9372 285.543H88.0175V284.308H89.6888C89.9821 284.308 90.2258 284.268 90.4198 284.188C90.6137 284.107 90.758 283.986 90.8527 283.826C90.9497 283.665 90.9981 283.465 90.9981 283.226C90.9981 282.985 90.9497 282.781 90.8527 282.616C90.758 282.45 90.6126 282.325 90.4162 282.239C90.2222 282.152 89.9774 282.108 89.6817 282.108H88.6456V288.119H87.1091ZM91.0336 284.812L92.8398 288.119H91.1436L89.3765 284.812H91.0336ZM94.9014 280.852L96.6579 286.373H96.7253L98.4853 280.852H100.189L97.6833 288.119H95.7033L93.1946 280.852H94.9014ZM102.717 280.852V288.119H101.18V280.852H102.717ZM110.51 283.396H108.956C108.927 283.195 108.869 283.017 108.782 282.86C108.694 282.702 108.582 282.567 108.445 282.456C108.308 282.345 108.149 282.26 107.969 282.2C107.792 282.141 107.599 282.112 107.391 282.112C107.015 282.112 106.687 282.205 106.408 282.392C106.129 282.577 105.912 282.846 105.759 283.201C105.605 283.554 105.528 283.982 105.528 284.486C105.528 285.004 105.605 285.439 105.759 285.791C105.915 286.144 106.132 286.41 106.412 286.59C106.691 286.77 107.014 286.859 107.38 286.859C107.586 286.859 107.776 286.832 107.952 286.778C108.129 286.723 108.286 286.644 108.423 286.54C108.561 286.434 108.674 286.305 108.764 286.153C108.856 286.002 108.92 285.829 108.956 285.635L110.51 285.642C110.47 285.976 110.369 286.298 110.208 286.608C110.05 286.915 109.836 287.191 109.566 287.434C109.299 287.676 108.979 287.867 108.608 288.009C108.239 288.149 107.821 288.218 107.355 288.218C106.707 288.218 106.128 288.072 105.617 287.778C105.108 287.485 104.706 287.061 104.41 286.505C104.117 285.949 103.97 285.276 103.97 284.486C103.97 283.693 104.119 283.019 104.417 282.463C104.715 281.907 105.12 281.484 105.631 281.193C106.142 280.899 106.717 280.753 107.355 280.753C107.776 280.753 108.167 280.812 108.526 280.93C108.888 281.048 109.209 281.221 109.488 281.448C109.767 281.673 109.994 281.948 110.169 282.275C110.347 282.601 110.46 282.975 110.51 283.396ZM111.729 288.119V280.852H116.626V282.119H113.265V283.85H116.374V285.117H113.265V286.852H116.64V288.119H111.729ZM56.2247 302.119V294.852H59.0918C59.643 294.852 60.1125 294.957 60.5005 295.168C60.8885 295.376 61.1842 295.666 61.3876 296.037C61.5934 296.406 61.6963 296.832 61.6963 297.315C61.6963 297.797 61.5922 298.223 61.3841 298.592C61.1759 298.961 60.8743 299.248 60.4792 299.454C60.0865 299.66 59.611 299.763 59.0528 299.763H57.2253V298.532H58.8044C59.1001 298.532 59.3437 298.481 59.5353 298.379C59.7293 298.275 59.8736 298.132 59.9682 297.95C60.0652 297.765 60.1137 297.554 60.1137 297.315C60.1137 297.073 60.0652 296.863 59.9682 296.683C59.8736 296.501 59.7293 296.36 59.5353 296.261C59.3414 296.159 59.0953 296.108 58.7973 296.108H57.7611V302.119H56.2247ZM62.8114 302.119V294.852H65.6785C66.2273 294.852 66.6957 294.95 67.0837 295.147C67.474 295.341 67.7709 295.616 67.9743 295.973C68.1801 296.328 68.283 296.746 68.283 297.226C68.283 297.708 68.179 298.124 67.9708 298.471C67.7626 298.817 67.461 299.082 67.0659 299.266C66.6732 299.451 66.1978 299.543 65.6395 299.543H63.7198V298.308H65.3911C65.6844 298.308 65.9281 298.268 66.1221 298.188C66.316 298.107 66.4603 297.986 66.555 297.826C66.652 297.665 66.7005 297.465 66.7005 297.226C66.7005 296.985 66.652 296.781 66.555 296.616C66.4603 296.45 66.3149 296.325 66.1185 296.239C65.9245 296.152 65.6797 296.108 65.384 296.108H64.3479V302.119H62.8114ZM66.7359 298.812L68.5421 302.119H66.8459L65.0788 298.812H66.7359ZM76.164 298.486C76.164 299.278 76.0138 299.952 75.7134 300.508C75.4153 301.064 75.0084 301.489 74.4927 301.782C73.9794 302.073 73.4022 302.218 72.7611 302.218C72.1153 302.218 71.5357 302.072 71.0224 301.778C70.5091 301.485 70.1034 301.061 69.8053 300.505C69.5072 299.949 69.3582 299.276 69.3582 298.486C69.3582 297.693 69.5072 297.019 69.8053 296.463C70.1034 295.907 70.5091 295.484 71.0224 295.193C71.5357 294.899 72.1153 294.753 72.7611 294.753C73.4022 294.753 73.9794 294.899 74.4927 295.193C75.0084 295.484 75.4153 295.907 75.7134 296.463C76.0138 297.019 76.164 297.693 76.164 298.486ZM74.6063 298.486C74.6063 297.972 74.5294 297.539 74.3756 297.187C74.2243 296.834 74.0102 296.567 73.7334 296.385C73.4566 296.203 73.1325 296.112 72.7611 296.112C72.3897 296.112 72.0656 296.203 71.7889 296.385C71.5121 296.567 71.2968 296.834 71.1431 297.187C70.9917 297.539 70.916 297.972 70.916 298.486C70.916 298.999 70.9917 299.432 71.1431 299.784C71.2968 300.137 71.5121 300.404 71.7889 300.586C72.0656 300.768 72.3897 300.859 72.7611 300.859C73.1325 300.859 73.4566 300.768 73.7334 300.586C74.0102 300.404 74.2243 300.137 74.3756 299.784C74.5294 299.432 74.6063 298.999 74.6063 298.486ZM78.3224 294.852L80.0788 300.373H80.1462L81.9063 294.852H83.6095L81.1043 302.119H79.1243L76.6156 294.852H78.3224ZM86.1377 294.852V302.119H84.6013V294.852H86.1377ZM90.0951 302.119H87.5189V294.852H90.1164C90.8473 294.852 91.4766 294.997 92.0041 295.288C92.5317 295.577 92.9374 295.992 93.2212 296.534C93.5075 297.076 93.6506 297.724 93.6506 298.478C93.6506 299.235 93.5075 299.886 93.2212 300.43C92.9374 300.974 92.5293 301.392 91.997 301.683C91.4671 301.974 90.8331 302.119 90.0951 302.119ZM89.0554 300.803H90.0312C90.4854 300.803 90.8674 300.722 91.1773 300.561C91.4896 300.398 91.7238 300.146 91.8799 299.806C92.0384 299.463 92.1177 299.02 92.1177 298.478C92.1177 297.941 92.0384 297.503 91.8799 297.162C91.7238 296.821 91.4908 296.571 91.1809 296.41C90.871 296.249 90.489 296.168 90.0348 296.168H89.0554V300.803ZM94.9058 302.119V294.852H99.8026V296.119H96.4423V297.85H99.5507V299.117H96.4423V300.852H99.8168V302.119H94.9058ZM101.141 302.119V294.852H104.008C104.557 294.852 105.026 294.95 105.414 295.147C105.804 295.341 106.101 295.616 106.304 295.973C106.51 296.328 106.613 296.746 106.613 297.226C106.613 297.708 106.509 298.124 106.301 298.471C106.092 298.817 105.791 299.082 105.396 299.266C105.003 299.451 104.528 299.543 103.969 299.543H102.05V298.308H103.721C104.014 298.308 104.258 298.268 104.452 298.188C104.646 298.107 104.79 297.986 104.885 297.826C104.982 297.665 105.03 297.465 105.03 297.226C105.03 296.985 104.982 296.781 104.885 296.616C104.79 296.45 104.645 296.325 104.448 296.239C104.254 296.152 104.01 296.108 103.714 296.108H102.678V302.119H101.141ZM105.066 298.812L106.872 302.119H105.176L103.409 298.812H105.066Z" fill="#475467"/>
<path d="M47.3411 143.23H45.6947L48.2034 135.963H50.1834L52.6886 143.23H51.0421L49.2218 137.624H49.165L47.3411 143.23ZM47.2382 140.374H51.1273V141.573H47.2382V140.374ZM58.1575 138.312C58.1079 138.14 58.0381 137.987 57.9482 137.855C57.8583 137.72 57.7483 137.606 57.6182 137.514C57.4904 137.419 57.3438 137.347 57.1782 137.298C57.015 137.248 56.834 137.223 56.6353 137.223C56.2639 137.223 55.9374 137.315 55.6559 137.5C55.3768 137.684 55.1591 137.953 55.003 138.305C54.8469 138.655 54.7688 139.084 54.7688 139.59C54.7688 140.096 54.8457 140.527 54.9995 140.881C55.1532 141.236 55.3709 141.507 55.6524 141.694C55.9339 141.879 56.2662 141.971 56.6495 141.971C56.9972 141.971 57.2941 141.909 57.5401 141.786C57.7885 141.661 57.9778 141.485 58.1079 141.258C58.2403 141.03 58.3066 140.762 58.3066 140.452L58.6188 140.498H56.7453V139.341H59.7863V140.257C59.7863 140.896 59.6514 141.444 59.3817 141.903C59.1121 142.36 58.7407 142.712 58.2675 142.961C57.7944 143.207 57.2527 143.33 56.6424 143.33C55.9611 143.33 55.3626 143.18 54.8469 142.879C54.3312 142.576 53.929 142.147 53.6404 141.591C53.3542 141.033 53.2111 140.37 53.2111 139.604C53.2111 139.015 53.2962 138.49 53.4666 138.029C53.6392 137.565 53.8805 137.172 54.1904 136.85C54.5003 136.529 54.8611 136.284 55.2727 136.116C55.6843 135.948 56.1302 135.864 56.6104 135.864C57.0221 135.864 57.4053 135.924 57.7601 136.045C58.115 136.163 58.4296 136.331 58.704 136.549C58.9808 136.766 59.2067 137.025 59.3817 137.326C59.5568 137.624 59.6692 137.953 59.7188 138.312H58.1575ZM65.8762 138.312C65.8265 138.14 65.7568 137.987 65.6669 137.855C65.577 137.72 65.467 137.606 65.3369 137.514C65.2091 137.419 65.0624 137.347 64.8969 137.298C64.7336 137.248 64.5527 137.223 64.3539 137.223C63.9825 137.223 63.6561 137.315 63.3746 137.5C63.0954 137.684 62.8778 137.953 62.7217 138.305C62.5656 138.655 62.4875 139.084 62.4875 139.59C62.4875 140.096 62.5644 140.527 62.7181 140.881C62.8719 141.236 63.0895 141.507 63.371 141.694C63.6525 141.879 63.9849 141.971 64.3681 141.971C64.7159 141.971 65.0128 141.909 65.2588 141.786C65.5072 141.661 65.6964 141.485 65.8265 141.258C65.959 141.03 66.0252 140.762 66.0252 140.452L66.3375 140.498H64.4639V139.341H67.5049V140.257C67.5049 140.896 67.3701 141.444 67.1004 141.903C66.8307 142.36 66.4593 142.712 65.9862 142.961C65.5131 143.207 64.9714 143.33 64.361 143.33C63.6798 143.33 63.0813 143.18 62.5656 142.879C62.0498 142.576 61.6477 142.147 61.3591 141.591C61.0729 141.033 60.9297 140.37 60.9297 139.604C60.9297 139.015 61.0149 138.49 61.1852 138.029C61.3579 137.565 61.5992 137.172 61.9091 136.85C62.219 136.529 62.5797 136.284 62.9914 136.116C63.403 135.948 63.8489 135.864 64.3291 135.864C64.7407 135.864 65.124 135.924 65.4788 136.045C65.8336 136.163 66.1483 136.331 66.4227 136.549C66.6994 136.766 66.9254 137.025 67.1004 137.326C67.2755 137.624 67.3878 137.953 67.4375 138.312H65.8762ZM68.7761 143.23V135.963H71.6433C72.1921 135.963 72.6605 136.062 73.0484 136.258C73.4388 136.452 73.7356 136.727 73.9391 137.085C74.1449 137.439 74.2478 137.857 74.2478 138.337C74.2478 138.82 74.1437 139.235 73.9355 139.583C73.7274 139.928 73.4257 140.193 73.0307 140.378C72.638 140.562 72.1625 140.654 71.6042 140.654H69.6845V139.419H71.3558C71.6492 139.419 71.8928 139.379 72.0868 139.299C72.2808 139.218 72.4251 139.098 72.5197 138.937C72.6167 138.776 72.6652 138.576 72.6652 138.337C72.6652 138.096 72.6167 137.892 72.5197 137.727C72.4251 137.561 72.2796 137.436 72.0833 137.351C71.8893 137.263 71.6444 137.219 71.3487 137.219H70.3126V143.23H68.7761ZM72.7007 139.923L74.5068 143.23H72.8107L71.0436 139.923H72.7007ZM75.4507 143.23V135.963H80.3475V137.23H76.9872V138.962H80.0956V140.229H76.9872V141.964H80.3617V143.23H75.4507ZM86.5049 138.312C86.4552 138.14 86.3854 137.987 86.2955 137.855C86.2056 137.72 86.0956 137.606 85.9655 137.514C85.8378 137.419 85.6911 137.347 85.5255 137.298C85.3623 137.248 85.1813 137.223 84.9826 137.223C84.6112 137.223 84.2847 137.315 84.0032 137.5C83.7241 137.684 83.5065 137.953 83.3503 138.305C83.1942 138.655 83.1161 139.084 83.1161 139.59C83.1161 140.096 83.193 140.527 83.3468 140.881C83.5005 141.236 83.7182 141.507 83.9997 141.694C84.2812 141.879 84.6136 141.971 84.9968 141.971C85.3445 141.971 85.6414 141.909 85.8874 141.786C86.1358 141.661 86.3251 141.485 86.4552 141.258C86.5877 141.03 86.6539 140.762 86.6539 140.452L86.9662 140.498H85.0926V139.341H88.1336V140.257C88.1336 140.896 87.9987 141.444 87.7291 141.903C87.4594 142.36 87.088 142.712 86.6149 142.961C86.1417 143.207 85.6 143.33 84.9897 143.33C84.3084 143.33 83.7099 143.18 83.1942 142.879C82.6785 142.576 82.2763 142.147 81.9877 141.591C81.7015 141.033 81.5584 140.37 81.5584 139.604C81.5584 139.015 81.6435 138.49 81.8139 138.029C81.9866 137.565 82.2279 137.172 82.5377 136.85C82.8476 136.529 83.2084 136.284 83.62 136.116C84.0316 135.948 84.4775 135.864 84.9578 135.864C85.3694 135.864 85.7526 135.924 86.1074 136.045C86.4623 136.163 86.7769 136.331 87.0513 136.549C87.3281 136.766 87.554 137.025 87.7291 137.326C87.9041 137.624 88.0165 137.953 88.0662 138.312H86.5049ZM90.4329 143.23H88.7865L91.2952 135.963H93.2752L95.7804 143.23H94.1339L92.3136 137.624H92.2568L90.4329 143.23ZM90.33 140.374H94.2191V141.573H90.33V140.374ZM95.6074 137.23V135.963H101.576V137.23H99.351V143.23H97.8323V137.23H95.6074ZM109.022 139.597C109.022 140.389 108.872 141.064 108.572 141.619C108.273 142.175 107.867 142.6 107.351 142.893C106.838 143.184 106.26 143.33 105.619 143.33C104.973 143.33 104.394 143.183 103.881 142.89C103.367 142.596 102.961 142.172 102.663 141.616C102.365 141.06 102.216 140.387 102.216 139.597C102.216 138.804 102.365 138.13 102.663 137.574C102.961 137.018 103.367 136.595 103.881 136.304C104.394 136.011 104.973 135.864 105.619 135.864C106.26 135.864 106.838 136.011 107.351 136.304C107.867 136.595 108.273 137.018 108.572 137.574C108.872 138.13 109.022 138.804 109.022 139.597ZM107.464 139.597C107.464 139.084 107.388 138.651 107.234 138.298C107.082 137.946 106.868 137.678 106.591 137.496C106.315 137.314 105.991 137.223 105.619 137.223C105.248 137.223 104.924 137.314 104.647 137.496C104.37 137.678 104.155 137.946 104.001 138.298C103.85 138.651 103.774 139.084 103.774 139.597C103.774 140.11 103.85 140.543 104.001 140.896C104.155 141.248 104.37 141.515 104.647 141.698C104.924 141.88 105.248 141.971 105.619 141.971C105.991 141.971 106.315 141.88 106.591 141.698C106.868 141.515 107.082 141.248 107.234 140.896C107.388 140.543 107.464 140.11 107.464 139.597ZM110.277 143.23V135.963H113.145C113.693 135.963 114.162 136.062 114.55 136.258C114.94 136.452 115.237 136.727 115.44 137.085C115.646 137.439 115.749 137.857 115.749 138.337C115.749 138.82 115.645 139.235 115.437 139.583C115.229 139.928 114.927 140.193 114.532 140.378C114.139 140.562 113.664 140.654 113.105 140.654H111.186V139.419H112.857C113.15 139.419 113.394 139.379 113.588 139.299C113.782 139.218 113.926 139.098 114.021 138.937C114.118 138.776 114.166 138.576 114.166 138.337C114.166 138.096 114.118 137.892 114.021 137.727C113.926 137.561 113.781 137.436 113.585 137.351C113.391 137.263 113.146 137.219 112.85 137.219H111.814V143.23H110.277ZM114.202 139.923L116.008 143.23H114.312L112.545 139.923H114.202Z" fill="#475467"/>
<path d="M214.028 190.037C223.966 190.037 232.023 181.981 232.023 172.043C232.023 162.104 223.966 154.048 214.028 154.048C204.09 154.048 196.033 162.104 196.033 172.043C196.033 181.981 204.09 190.037 214.028 190.037Z" fill="url(#paint7_linear_136_14823)"/>
<path d="M207.834 181.82H206.531C206.271 181.82 206.023 181.717 205.839 181.533C205.656 181.35 205.553 181.101 205.553 180.842V174.975C205.553 174.716 205.656 174.467 205.839 174.283C206.023 174.1 206.271 173.997 206.531 173.997H207.834C208.094 173.997 208.342 174.1 208.526 174.283C208.709 174.467 208.812 174.716 208.812 174.975V180.842C208.812 181.101 208.709 181.35 208.526 181.533C208.342 181.717 208.094 181.82 207.834 181.82V181.82Z" fill="white"/>
<path d="M216.961 181.821H215.658C215.398 181.821 215.149 181.718 214.966 181.535C214.783 181.351 214.68 181.102 214.68 180.843V171.065C214.68 170.805 214.783 170.557 214.966 170.373C215.149 170.19 215.398 170.087 215.658 170.087H216.961C217.221 170.087 217.469 170.19 217.653 170.373C217.836 170.557 217.939 170.805 217.939 171.065V180.843C217.939 181.102 217.836 181.351 217.653 181.535C217.469 181.718 217.221 181.821 216.961 181.821V181.821Z" fill="white"/>
<path d="M221.524 181.821H220.22C219.961 181.821 219.712 181.718 219.529 181.534C219.345 181.351 219.242 181.102 219.242 180.843V166.501C219.242 166.242 219.345 165.993 219.529 165.81C219.712 165.626 219.961 165.523 220.22 165.523H221.524C221.783 165.523 222.032 165.626 222.215 165.81C222.399 165.993 222.502 166.242 222.502 166.501V180.843C222.502 181.102 222.399 181.351 222.215 181.534C222.032 181.718 221.783 181.821 221.524 181.821V181.821Z" fill="white"/>
<path d="M212.399 181.822H211.095C210.836 181.822 210.587 181.719 210.404 181.536C210.22 181.353 210.117 181.104 210.117 180.844V163.243C210.117 162.984 210.22 162.735 210.404 162.552C210.587 162.369 210.836 162.266 211.095 162.266H212.399C212.658 162.266 212.907 162.369 213.09 162.552C213.274 162.735 213.377 162.984 213.377 163.243V180.844C213.377 180.973 213.351 181.1 213.302 181.219C213.253 181.337 213.181 181.445 213.09 181.536C212.999 181.627 212.892 181.699 212.773 181.748C212.654 181.797 212.527 181.822 212.399 181.822V181.822Z" fill="white"/>
<path d="M250.498 208.273C260.436 208.273 268.492 200.216 268.492 190.278C268.492 180.34 260.436 172.283 250.498 172.283C240.559 172.283 232.503 180.34 232.503 190.278C232.503 200.216 240.559 208.273 250.498 208.273Z" fill="url(#paint8_linear_136_14823)"/>
<path d="M253.1 186.733C252.879 186.734 252.665 186.81 252.495 186.95C252.324 187.09 252.208 187.285 252.165 187.501C252.122 187.718 252.155 187.942 252.259 188.137C252.363 188.332 252.532 188.484 252.736 188.568C252.939 188.653 253.166 188.664 253.377 188.599C253.588 188.535 253.771 188.4 253.893 188.217C254.016 188.033 254.071 187.813 254.049 187.593C254.027 187.374 253.93 187.168 253.774 187.012C253.686 186.924 253.58 186.854 253.465 186.806C253.349 186.758 253.225 186.733 253.1 186.733Z" fill="white"/>
<path d="M258.409 182.919V182.915C258.379 182.783 258.312 182.662 258.217 182.565C258.121 182.468 258.001 182.4 257.869 182.369C256.804 182.109 255.129 182.386 253.273 183.129C251.488 183.823 249.855 184.857 248.464 186.174C248.084 186.552 247.732 186.956 247.408 187.383C246.694 187.333 245.978 187.448 245.316 187.719C243.252 188.627 242.663 190.95 242.506 191.904C242.484 192.04 242.493 192.179 242.532 192.311C242.572 192.442 242.642 192.563 242.736 192.663C242.83 192.763 242.946 192.84 243.074 192.889C243.203 192.937 243.341 192.955 243.478 192.941H243.483L245.781 192.69C245.784 192.719 245.787 192.746 245.789 192.771C245.819 193.051 245.944 193.312 246.143 193.511L247.265 194.633C247.463 194.833 247.725 194.958 248.005 194.987L248.081 194.995L247.831 197.291V197.295C247.819 197.412 247.83 197.53 247.864 197.642C247.897 197.755 247.953 197.86 248.027 197.951C248.101 198.042 248.192 198.117 248.295 198.173C248.398 198.229 248.511 198.264 248.628 198.276C248.655 198.279 248.683 198.28 248.711 198.281C248.76 198.281 248.81 198.277 248.859 198.268C249.818 198.114 252.141 197.532 253.046 195.458C253.315 194.797 253.43 194.085 253.384 193.373C253.813 193.051 254.218 192.698 254.597 192.317C255.913 190.94 256.948 189.32 257.645 187.547C258.384 185.712 258.663 184.024 258.409 182.919ZM254.584 189.167C254.29 189.461 253.916 189.661 253.509 189.742C253.102 189.824 252.68 189.782 252.296 189.624C251.912 189.465 251.584 189.196 251.353 188.851C251.122 188.505 250.999 188.099 250.999 187.684C250.998 187.269 251.121 186.863 251.352 186.517C251.582 186.172 251.91 185.903 252.294 185.743C252.677 185.584 253.1 185.543 253.507 185.623C253.914 185.704 254.289 185.904 254.582 186.197L254.584 186.199C254.978 186.587 255.201 187.115 255.205 187.667C255.209 188.22 254.994 188.751 254.606 189.145L254.584 189.167Z" fill="white"/>
<path d="M247.136 194.939C246.998 194.922 246.858 194.955 246.743 195.034C246.515 195.19 246.286 195.345 246.054 195.495C245.954 195.56 245.834 195.589 245.715 195.577C245.596 195.566 245.485 195.515 245.398 195.433C245.311 195.35 245.255 195.241 245.238 195.123C245.221 195.005 245.244 194.884 245.304 194.78L245.738 194.03C245.8 193.939 245.834 193.832 245.837 193.723C245.84 193.613 245.811 193.504 245.754 193.41C245.697 193.316 245.614 193.241 245.515 193.193C245.416 193.145 245.305 193.127 245.196 193.14C244.714 193.201 244.267 193.42 243.923 193.764C243.792 193.895 243.395 194.293 243.181 195.81C243.12 196.245 243.081 196.684 243.066 197.124C243.064 197.199 243.077 197.273 243.103 197.343C243.13 197.413 243.171 197.478 243.223 197.532C243.274 197.586 243.336 197.63 243.405 197.661C243.473 197.691 243.547 197.708 243.622 197.71C243.627 197.71 243.632 197.71 243.637 197.71H243.652C244.092 197.694 244.53 197.656 244.966 197.596C246.484 197.381 246.882 196.983 247.013 196.852C247.358 196.509 247.577 196.059 247.634 195.575C247.652 195.425 247.61 195.273 247.517 195.154C247.424 195.035 247.287 194.957 247.136 194.939V194.939Z" fill="white"/>
<path d="M250.498 254.818C260.436 254.818 268.492 246.762 268.492 236.824C268.492 226.886 260.436 218.829 250.498 218.829C240.559 218.829 232.503 226.886 232.503 236.824C232.503 246.762 240.559 254.818 250.498 254.818Z" fill="url(#paint9_linear_136_14823)"/>
<path d="M253.354 235.752C253.213 235.752 253.075 235.71 252.957 235.632C252.84 235.553 252.748 235.442 252.694 235.311C252.64 235.181 252.626 235.037 252.653 234.899C252.681 234.76 252.749 234.633 252.849 234.533L254.487 232.895L252.849 231.257C252.715 231.123 252.64 230.942 252.64 230.752C252.64 230.563 252.715 230.381 252.849 230.247C252.983 230.113 253.164 230.038 253.354 230.038C253.543 230.038 253.725 230.113 253.859 230.247L256.002 232.39C256.068 232.456 256.121 232.535 256.157 232.622C256.193 232.708 256.211 232.801 256.211 232.895C256.211 232.989 256.193 233.082 256.157 233.168C256.121 233.255 256.068 233.334 256.002 233.4L253.859 235.543C253.793 235.609 253.714 235.662 253.627 235.698C253.541 235.734 253.448 235.752 253.354 235.752Z" fill="white"/>
<path d="M241.926 237.895C241.832 237.895 241.74 237.876 241.653 237.84C241.566 237.805 241.487 237.752 241.421 237.686C241.355 237.619 241.302 237.541 241.266 237.454C241.23 237.367 241.212 237.274 241.212 237.181V236.466C241.218 235.332 241.671 234.245 242.473 233.443C243.275 232.64 244.361 232.187 245.495 232.181H254.783C254.973 232.181 255.154 232.256 255.288 232.39C255.422 232.524 255.497 232.705 255.497 232.895C255.497 233.084 255.422 233.266 255.288 233.4C255.154 233.534 254.973 233.609 254.783 233.609H245.498C244.741 233.614 244.016 233.916 243.481 234.452C242.947 234.987 242.644 235.712 242.64 236.468V237.181C242.64 237.274 242.622 237.367 242.586 237.454C242.55 237.541 242.498 237.619 242.431 237.686C242.365 237.752 242.286 237.805 242.2 237.84C242.113 237.876 242.02 237.895 241.926 237.895Z" fill="white"/>
<path d="M247.64 243.608C247.546 243.608 247.454 243.59 247.367 243.554C247.28 243.518 247.201 243.465 247.135 243.399L244.992 241.256C244.926 241.19 244.873 241.111 244.838 241.024C244.802 240.938 244.783 240.845 244.783 240.751C244.783 240.657 244.802 240.564 244.838 240.478C244.873 240.391 244.926 240.312 244.992 240.246L247.135 238.103C247.269 237.97 247.451 237.894 247.64 237.895C247.829 237.895 248.011 237.97 248.145 238.104C248.279 238.238 248.354 238.419 248.354 238.608C248.354 238.798 248.279 238.979 248.145 239.113L246.508 240.751L248.145 242.389C248.245 242.489 248.313 242.616 248.341 242.755C248.368 242.893 248.354 243.037 248.3 243.167C248.246 243.298 248.155 243.409 248.037 243.488C247.92 243.566 247.782 243.608 247.64 243.608Z" fill="white"/>
<path d="M246.211 241.467C246.022 241.467 245.84 241.392 245.706 241.258C245.572 241.124 245.497 240.942 245.497 240.753C245.497 240.563 245.572 240.382 245.706 240.248C245.84 240.114 246.022 240.039 246.211 240.039H255.497C256.254 240.034 256.978 239.731 257.513 239.196C258.048 238.661 258.35 237.936 258.354 237.179V236.467C258.354 236.278 258.429 236.096 258.563 235.962C258.697 235.828 258.879 235.753 259.068 235.753C259.258 235.753 259.439 235.828 259.573 235.962C259.707 236.096 259.782 236.278 259.782 236.467V237.181C259.777 238.316 259.324 239.402 258.522 240.205C257.72 241.007 256.633 241.461 255.499 241.467L246.211 241.467Z" fill="white"/>
<path d="M214.028 279.291C223.966 279.291 232.023 271.235 232.023 261.296C232.023 251.358 223.966 243.302 214.028 243.302C204.09 243.302 196.033 251.358 196.033 261.296C196.033 271.235 204.09 279.291 214.028 279.291Z" fill="url(#paint10_linear_136_14823)"/>
<path d="M217.691 270.174H205.566C205.329 270.174 205.101 270.083 204.934 269.921C204.766 269.759 204.671 269.539 204.671 269.31V257.603C204.671 257.374 204.766 257.154 204.934 256.992C205.101 256.83 205.329 256.739 205.566 256.738H217.691C217.929 256.739 218.156 256.83 218.324 256.992C218.492 257.154 218.587 257.374 218.587 257.603V269.31C218.587 269.539 218.492 269.759 218.324 269.921C218.156 270.083 217.929 270.174 217.691 270.174V270.174Z" fill="white"/>
<mask id="path-30-inside-1_136_14823" fill="white">
<rect x="208.989" y="252.419" width="13.9159" height="12.9562" rx="0.959717"/>
</mask>
<rect x="208.989" y="252.419" width="13.9159" height="12.9562" rx="0.959717" stroke="white" stroke-width="2.87915" mask="url(#path-30-inside-1_136_14823)"/>
<path d="M173.24 254.818C183.178 254.818 191.234 246.762 191.234 236.824C191.234 226.886 183.178 218.829 173.24 218.829C163.302 218.829 155.245 226.886 155.245 236.824C155.245 246.762 163.302 254.818 173.24 254.818Z" fill="url(#paint11_linear_136_14823)"/>
<path d="M169.655 245.777C168.771 246.307 167.197 246.971 165.587 246.289L164.547 245.848L166.632 243.511C164.968 241.677 164.048 239.289 164.051 236.813C164.053 234.338 164.978 231.952 166.645 230.121C168.312 228.291 170.602 227.147 173.067 226.914C175.531 226.68 177.995 227.373 179.976 228.858C181.957 230.343 183.313 232.513 183.781 234.945C184.248 237.376 183.793 239.894 182.503 242.008C181.214 244.121 179.183 245.679 176.808 246.376C174.432 247.072 171.882 246.859 169.655 245.777V245.777Z" fill="white"/>
<path d="M174.93 234.423H168.384V235.031H174.93V234.423Z" fill="url(#paint12_linear_136_14823)"/>
<path d="M179.792 236.527H168.384V237.135H179.792V236.527Z" fill="url(#paint13_linear_136_14823)"/>
<path d="M179.781 238.63H168.384V239.238H179.781V238.63Z" fill="url(#paint14_linear_136_14823)"/>
<path d="M180.557 233.804L174.11 227.356C174.097 227.344 174.081 227.335 174.064 227.332C174.047 227.328 174.029 227.33 174.012 227.337C173.996 227.344 173.982 227.355 173.972 227.37C173.962 227.384 173.957 227.402 173.957 227.419V233.239C173.957 233.429 174.033 233.612 174.167 233.746C174.302 233.881 174.484 233.956 174.674 233.956H180.494C180.512 233.956 180.529 233.951 180.544 233.941C180.558 233.931 180.57 233.917 180.577 233.901C180.583 233.885 180.585 233.867 180.582 233.849C180.578 233.832 180.57 233.816 180.557 233.804L180.557 233.804Z" fill="white"/>
<path d="M173.24 208.273C183.178 208.273 191.234 200.216 191.234 190.278C191.234 180.34 183.178 172.283 173.24 172.283C163.302 172.283 155.245 180.34 155.245 190.278C155.245 200.216 163.302 208.273 173.24 208.273Z" fill="url(#paint15_linear_136_14823)"/>
<path d="M174.102 189.807L173.17 188.875C172.957 188.662 172.668 188.542 172.366 188.541C172.064 188.54 171.774 188.659 171.56 188.871L165.084 194.848C164.846 195.058 164.701 195.354 164.679 195.671C164.672 195.828 164.698 195.985 164.754 196.132C164.811 196.279 164.897 196.412 165.007 196.525L166.399 197.931L166.401 197.934C166.616 198.148 166.907 198.269 167.211 198.27H167.253C167.41 198.261 167.564 198.221 167.706 198.153C167.848 198.084 167.975 197.989 168.079 197.871L174.098 191.425C174.313 191.212 174.434 190.922 174.436 190.619C174.437 190.316 174.318 190.025 174.105 189.81L174.102 189.807Z" fill="white"/>
<path d="M181.588 187.922L181.577 187.911L180.354 186.701C180.283 186.629 180.198 186.573 180.104 186.535C180.01 186.496 179.91 186.477 179.809 186.478C179.645 186.478 179.486 186.529 179.353 186.625C179.353 186.61 179.355 186.595 179.356 186.582C179.405 186.269 179.339 185.949 179.17 185.682C178.901 185.319 178.605 184.976 178.286 184.657L178.283 184.654C177.389 183.796 176.339 183.119 175.189 182.658C174.588 182.412 173.945 182.285 173.295 182.285C172.455 182.278 171.638 182.564 170.986 183.094C170.8 183.272 170.631 183.465 170.48 183.673C170.408 183.773 170.369 183.893 170.371 184.016C170.373 184.138 170.414 184.258 170.489 184.355C170.564 184.453 170.668 184.524 170.786 184.557C170.904 184.591 171.03 184.585 171.145 184.541C171.245 184.504 171.347 184.473 171.451 184.448C171.667 184.402 171.889 184.388 172.109 184.407C172.566 184.454 173.003 184.615 173.383 184.874C173.595 185.053 173.764 185.278 173.877 185.531C173.99 185.785 174.044 186.062 174.034 186.339C173.876 186.791 173.633 187.208 173.32 187.57C173.237 187.68 173.196 187.816 173.206 187.954C173.215 188.092 173.274 188.221 173.372 188.319L174.6 189.546C174.703 189.65 174.842 189.71 174.988 189.714C175.134 189.718 175.276 189.666 175.385 189.568C175.732 189.258 176.26 188.791 176.445 188.677C176.603 188.571 176.782 188.5 176.97 188.47C177.109 188.456 177.25 188.486 177.372 188.554C177.373 188.561 177.372 188.567 177.37 188.573C177.369 188.578 177.365 188.584 177.361 188.588L177.296 188.65L177.286 188.66C177.142 188.804 177.06 188.999 177.06 189.203C177.059 189.406 177.14 189.602 177.284 189.746L177.288 189.75L178.51 190.959C178.581 191.031 178.666 191.087 178.76 191.125C178.854 191.164 178.954 191.183 179.055 191.182C179.258 191.183 179.453 191.103 179.598 190.961L181.578 189.005C181.585 188.999 181.591 188.992 181.598 188.984C181.731 188.839 181.803 188.648 181.802 188.451C181.8 188.254 181.723 188.065 181.588 187.922Z" fill="white"/>
<defs>
<linearGradient id="paint0_linear_136_14823" x1="181.15" y1="222.884" x2="249.042" y2="222.884" gradientUnits="userSpaceOnUse">
<stop stop-color="#1570EF"/>
<stop offset="1" stop-color="#7A5AF8"/>
</linearGradient>
<linearGradient id="paint1_linear_136_14823" x1="155.319" y1="75.9105" x2="269.407" y2="75.9105" gradientUnits="userSpaceOnUse">
<stop stop-color="#1570EF"/>
<stop offset="1" stop-color="#7A5AF8"/>
</linearGradient>
<linearGradient id="paint2_linear_136_14823" x1="245.157" y1="407.725" x2="188.114" y2="308.923" gradientUnits="userSpaceOnUse">
<stop stop-color="#1570EF"/>
<stop offset="1" stop-color="#7A5AF8"/>
</linearGradient>
<linearGradient id="paint3_linear_136_14823" x1="362.244" y1="88.5587" x2="305.201" y2="187.361" gradientUnits="userSpaceOnUse">
<stop stop-color="#1570EF"/>
<stop offset="1" stop-color="#7A5AF8"/>
</linearGradient>
<linearGradient id="paint4_linear_136_14823" x1="48.047" y1="94.3978" x2="105.091" y2="193.2" gradientUnits="userSpaceOnUse">
<stop stop-color="#1570EF"/>
<stop offset="1" stop-color="#7A5AF8"/>
</linearGradient>
<linearGradient id="paint5_linear_136_14823" x1="24.8457" y1="297.188" x2="138.934" y2="297.188" gradientUnits="userSpaceOnUse">
<stop stop-color="#1570EF"/>
<stop offset="1" stop-color="#7A5AF8"/>
</linearGradient>
<linearGradient id="paint6_linear_136_14823" x1="315.843" y1="343.213" x2="372.886" y2="244.411" gradientUnits="userSpaceOnUse">
<stop stop-color="#1570EF"/>
<stop offset="1" stop-color="#7A5AF8"/>
</linearGradient>
<linearGradient id="paint7_linear_136_14823" x1="201.049" y1="173.542" x2="227.248" y2="173.542" gradientUnits="userSpaceOnUse">
<stop stop-color="#1570EF"/>
<stop offset="1" stop-color="#7A5AF8"/>
</linearGradient>
<linearGradient id="paint8_linear_136_14823" x1="237.519" y1="191.777" x2="263.718" y2="191.777" gradientUnits="userSpaceOnUse">
<stop stop-color="#1570EF"/>
<stop offset="1" stop-color="#7A5AF8"/>
</linearGradient>
<linearGradient id="paint9_linear_136_14823" x1="237.519" y1="238.323" x2="263.718" y2="238.323" gradientUnits="userSpaceOnUse">
<stop stop-color="#1570EF"/>
<stop offset="1" stop-color="#7A5AF8"/>
</linearGradient>
<linearGradient id="paint10_linear_136_14823" x1="201.049" y1="262.796" x2="227.248" y2="262.796" gradientUnits="userSpaceOnUse">
<stop stop-color="#1570EF"/>
<stop offset="1" stop-color="#7A5AF8"/>
</linearGradient>
<linearGradient id="paint11_linear_136_14823" x1="160.261" y1="238.323" x2="186.46" y2="238.323" gradientUnits="userSpaceOnUse">
<stop stop-color="#1570EF"/>
<stop offset="1" stop-color="#7A5AF8"/>
</linearGradient>
<linearGradient id="paint12_linear_136_14823" x1="169.296" y1="234.752" x2="174.061" y2="234.752" gradientUnits="userSpaceOnUse">
<stop stop-color="#1570EF"/>
<stop offset="1" stop-color="#7A5AF8"/>
</linearGradient>
<linearGradient id="paint13_linear_136_14823" x1="169.974" y1="236.857" x2="178.279" y2="236.857" gradientUnits="userSpaceOnUse">
<stop stop-color="#1570EF"/>
<stop offset="1" stop-color="#7A5AF8"/>
</linearGradient>
<linearGradient id="paint14_linear_136_14823" x1="169.972" y1="238.959" x2="178.269" y2="238.959" gradientUnits="userSpaceOnUse">
<stop stop-color="#1570EF"/>
<stop offset="1" stop-color="#7A5AF8"/>
</linearGradient>
<linearGradient id="paint15_linear_136_14823" x1="160.261" y1="191.777" x2="186.46" y2="191.777" gradientUnits="userSpaceOnUse">
<stop stop-color="#1570EF"/>
<stop offset="1" stop-color="#7A5AF8"/>
</linearGradient>
</defs>
</svg>
