<svg width="4" height="15" viewBox="0 0 4 15" fill="none" xmlns="http://www.w3.org/2000/svg">
<path fill-rule="evenodd" clip-rule="evenodd" d="M0 1.66667C0 0.746192 0.746192 0 1.66667 0C2.58714 0 3.33333 0.746192 3.33333 1.66667C3.33333 2.58714 2.58714 3.33333 1.66667 3.33333C0.746191 3.33333 0 2.58714 0 1.66667ZM0 7.5C0 6.57953 0.746192 5.83333 1.66667 5.83333C2.58714 5.83333 3.33333 6.57953 3.33333 7.5C3.33333 8.42047 2.58714 9.16667 1.66667 9.16667C0.746191 9.16667 0 8.42047 0 7.5ZM0 13.3333C0 12.4129 0.746192 11.6667 1.66667 11.6667C2.58714 11.6667 3.33333 12.4129 3.33333 13.3333C3.33333 14.2538 2.58714 15 1.66667 15C0.746191 15 0 14.2538 0 13.3333Z" fill="#98A2B3"/>
</svg>
