<svg width="16" height="16" viewBox="0 0 16 16" fill="none" xmlns="http://www.w3.org/2000/svg">
<path d="M8.00065 10.0007C9.10522 10.0007 10.0007 9.10522 10.0007 8.00065C10.0007 6.89608 9.10522 6.00065 8.00065 6.00065C6.89608 6.00065 6.00065 6.89608 6.00065 8.00065C6.00065 9.10522 6.89608 10.0007 8.00065 10.0007Z" stroke="#344054" stroke-width="1.5" stroke-linecap="round" stroke-linejoin="round"/>
<path d="M12.4855 9.81883C12.4048 10.0016 12.3808 10.2044 12.4164 10.401C12.4521 10.5976 12.5458 10.779 12.6855 10.9219L12.7219 10.9582C12.8346 11.0708 12.924 11.2045 12.985 11.3516C13.046 11.4988 13.0774 11.6565 13.0774 11.8158C13.0774 11.9751 13.046 12.1328 12.985 12.28C12.924 12.4271 12.8346 12.5608 12.7219 12.6734C12.6093 12.7861 12.4756 12.8755 12.3285 12.9365C12.1813 12.9975 12.0236 13.0289 11.8643 13.0289C11.705 13.0289 11.5473 12.9975 11.4001 12.9365C11.253 12.8755 11.1193 12.7861 11.0067 12.6734L10.9703 12.637C10.8275 12.4973 10.6461 12.4036 10.4495 12.3679C10.2529 12.3323 10.0501 12.3563 9.86732 12.437C9.68806 12.5138 9.53519 12.6414 9.4275 12.804C9.31982 12.9666 9.26204 13.1571 9.26126 13.3522V13.4552C9.26126 13.7767 9.13355 14.085 8.90623 14.3123C8.67892 14.5396 8.37061 14.6673 8.04914 14.6673C7.72766 14.6673 7.41935 14.5396 7.19204 14.3123C6.96472 14.085 6.83701 13.7767 6.83701 13.4552V13.4007C6.83232 13.2 6.76739 13.0055 6.65066 12.8423C6.53393 12.6791 6.37079 12.5548 6.18247 12.4855C5.99967 12.4048 5.7969 12.3808 5.60029 12.4164C5.40369 12.4521 5.22227 12.5458 5.07944 12.6855L5.04308 12.7219C4.9305 12.8346 4.79682 12.924 4.64967 12.985C4.50252 13.046 4.34479 13.0774 4.1855 13.0774C4.02621 13.0774 3.86848 13.046 3.72133 12.985C3.57418 12.924 3.4405 12.8346 3.32792 12.7219C3.21523 12.6093 3.12582 12.4756 3.06482 12.3285C3.00382 12.1813 2.97242 12.0236 2.97242 11.8643C2.97242 11.705 3.00382 11.5473 3.06482 11.4001C3.12582 11.253 3.21523 11.1193 3.32792 11.0067L3.36429 10.9703C3.50401 10.8275 3.59773 10.6461 3.63338 10.4495C3.66903 10.2529 3.64496 10.0501 3.56429 9.86732C3.48746 9.68806 3.3599 9.53519 3.1973 9.4275C3.0347 9.31982 2.84416 9.26204 2.64914 9.26126H2.54611C2.22463 9.26126 1.91632 9.13355 1.68901 8.90623C1.46169 8.67892 1.33398 8.37061 1.33398 8.04914C1.33398 7.72766 1.46169 7.41935 1.68901 7.19204C1.91632 6.96472 2.22463 6.83701 2.54611 6.83701H2.60065C2.80125 6.83232 2.99581 6.76739 3.15901 6.65066C3.32222 6.53393 3.44654 6.37079 3.5158 6.18247C3.59648 5.99967 3.62054 5.7969 3.5849 5.60029C3.54925 5.40369 3.45552 5.22227 3.3158 5.07944L3.27944 5.04308C3.16674 4.9305 3.07734 4.79682 3.01634 4.64967C2.95534 4.50252 2.92394 4.34479 2.92394 4.1855C2.92394 4.02621 2.95534 3.86848 3.01634 3.72133C3.07734 3.57418 3.16674 3.4405 3.27944 3.32792C3.39201 3.21523 3.5257 3.12582 3.67284 3.06482C3.81999 3.00382 3.97772 2.97242 4.13701 2.97242C4.29631 2.97242 4.45404 3.00382 4.60118 3.06482C4.74833 3.12582 4.88202 3.21523 4.99459 3.32792L5.03095 3.36429C5.17379 3.50401 5.35521 3.59773 5.55181 3.63338C5.74841 3.66903 5.95119 3.64496 6.13398 3.56429H6.18247C6.36172 3.48746 6.5146 3.3599 6.62228 3.1973C6.72997 3.0347 6.78775 2.84416 6.78853 2.64914V2.54611C6.78853 2.22463 6.91624 1.91632 7.14355 1.68901C7.37087 1.46169 7.67918 1.33398 8.00065 1.33398C8.32213 1.33398 8.63043 1.46169 8.85775 1.68901C9.08507 1.91632 9.21277 2.22463 9.21277 2.54611V2.60065C9.21355 2.79567 9.27134 2.98621 9.37902 3.14881C9.4867 3.31141 9.63958 3.43898 9.81883 3.5158C10.0016 3.59648 10.2044 3.62054 10.401 3.5849C10.5976 3.54925 10.779 3.45552 10.9219 3.3158L10.9582 3.27944C11.0708 3.16674 11.2045 3.07734 11.3516 3.01634C11.4988 2.95534 11.6565 2.92394 11.8158 2.92394C11.9751 2.92394 12.1328 2.95534 12.28 3.01634C12.4271 3.07734 12.5608 3.16674 12.6734 3.27944C12.7861 3.39201 12.8755 3.5257 12.9365 3.67284C12.9975 3.81999 13.0289 3.97772 13.0289 4.13701C13.0289 4.29631 12.9975 4.45404 12.9365 4.60118C12.8755 4.74833 12.7861 4.88202 12.6734 4.99459L12.637 5.03095C12.4973 5.17379 12.4036 5.35521 12.3679 5.55181C12.3323 5.74841 12.3563 5.95119 12.437 6.13398V6.18247C12.5138 6.36172 12.6414 6.5146 12.804 6.62228C12.9666 6.72997 13.1571 6.78775 13.3522 6.78853H13.4552C13.7767 6.78853 14.085 6.91624 14.3123 7.14355C14.5396 7.37087 14.6673 7.67918 14.6673 8.00065C14.6673 8.32213 14.5396 8.63043 14.3123 8.85775C14.085 9.08507 13.7767 9.21277 13.4552 9.21277H13.4007C13.2056 9.21355 13.0151 9.27134 12.8525 9.37902C12.6899 9.4867 12.5623 9.63958 12.4855 9.81883Z" stroke="#344054" stroke-width="1.5" stroke-linecap="round" stroke-linejoin="round"/>
</svg>
