<svg width="17" height="16" viewBox="0 0 17 16" fill="none" xmlns="http://www.w3.org/2000/svg">
<path fill-rule="evenodd" clip-rule="evenodd" d="M11.3472 0.841181C12.4688 -0.280395 14.2872 -0.280393 15.4088 0.841183C16.5304 1.96276 16.5304 3.7812 15.4088 4.90277L5.50183 14.8097C5.48926 14.8223 5.4768 14.8348 5.46444 14.8472C5.28072 15.0312 5.11867 15.1935 4.92612 15.3205C4.75684 15.4321 4.57324 15.5203 4.38033 15.5828C4.16089 15.6538 3.9329 15.679 3.67444 15.7075C3.65706 15.7094 3.63954 15.7113 3.62187 15.7133L1.08302 15.9954C0.856523 16.0206 0.630867 15.9414 0.469725 15.7803C0.308583 15.6191 0.229427 15.3935 0.254593 15.167L0.536688 12.6281C0.538652 12.6104 0.540585 12.5929 0.542504 12.5755C0.571012 12.3171 0.596159 12.0891 0.667193 11.8697C0.729647 11.6767 0.817887 11.4931 0.929517 11.3239C1.05649 11.1313 1.2188 10.9693 1.40281 10.7855C1.41519 10.7732 1.42767 10.7607 1.44024 10.7482L11.3472 0.841181ZM14.3479 1.90209C13.8123 1.36643 12.9438 1.36643 12.4081 1.90208L2.50115 11.8091C2.25921 12.051 2.2143 12.1009 2.18205 12.1498C2.14483 12.2062 2.11542 12.2674 2.0946 12.3317C2.07656 12.3875 2.06564 12.4537 2.02785 12.7938L1.84931 14.4007L3.45619 14.2221C3.79624 14.1843 3.8625 14.1734 3.91824 14.1554C3.98254 14.1346 4.04374 14.1051 4.10017 14.0679C4.14908 14.0357 4.19899 13.9908 4.44093 13.7488L14.3479 3.84187C14.8836 3.30621 14.8836 2.43774 14.3479 1.90209Z" fill="#667085"/>
</svg>
