<svg width="16" height="12" viewBox="0 0 16 12" fill="none" xmlns="http://www.w3.org/2000/svg">
<path d="M1.33331 2.66675L6.77659 6.47704C7.21737 6.78559 7.43776 6.93986 7.67749 6.99962C7.88924 7.0524 8.11072 7.0524 8.32247 6.99962C8.5622 6.93986 8.78259 6.78559 9.22337 6.47704L14.6666 2.66675M4.53331 11.3334H11.4666C12.5868 11.3334 13.1468 11.3334 13.5746 11.1154C13.951 10.9237 14.2569 10.6177 14.4487 10.2414C14.6666 9.81357 14.6666 9.25352 14.6666 8.13341V3.86675C14.6666 2.74664 14.6666 2.18659 14.4487 1.75877C14.2569 1.38244 13.951 1.07648 13.5746 0.884735C13.1468 0.666748 12.5868 0.666748 11.4666 0.666748H4.53331C3.41321 0.666748 2.85316 0.666748 2.42533 0.884735C2.04901 1.07648 1.74305 1.38244 1.5513 1.75877C1.33331 2.18659 1.33331 2.74664 1.33331 3.86675V8.13341C1.33331 9.25352 1.33331 9.81357 1.5513 10.2414C1.74305 10.6177 2.04901 10.9237 2.42533 11.1154C2.85316 11.3334 3.41321 11.3334 4.53331 11.3334Z" stroke="#667085" stroke-width="1.33333" stroke-linecap="round" stroke-linejoin="round"/>
</svg>
