<svg width="56" height="57" viewBox="0 0 56 57" fill="none" xmlns="http://www.w3.org/2000/svg">
<path d="M4 28.5C4 15.2452 14.7452 4.5 28 4.5V4.5C41.2548 4.5 52 15.2452 52 28.5V28.5C52 41.7548 41.2548 52.5 28 52.5V52.5C14.7452 52.5 4 41.7548 4 28.5V28.5Z" fill="#D1E9FF"/>
<path d="M33 25.4999C33 24.9881 32.8047 24.4763 32.4142 24.0858C32.0237 23.6953 31.5118 23.5 31 23.5M31 31.5C34.3137 31.5 37 28.8137 37 25.5C37 22.1863 34.3137 19.5 31 19.5C27.6863 19.5 25 22.1863 25 25.5C25 25.7737 25.0183 26.0431 25.0538 26.307C25.1122 26.7412 25.1414 26.9583 25.1217 27.0956C25.1013 27.2387 25.0752 27.3157 25.0047 27.4419C24.937 27.563 24.8177 27.6823 24.5791 27.9209L19.4686 33.0314C19.2957 33.2043 19.2092 33.2908 19.1474 33.3917C19.0925 33.4812 19.0521 33.5787 19.0276 33.6808C19 33.7959 19 33.9182 19 34.1627V35.9C19 36.4601 19 36.7401 19.109 36.954C19.2049 37.1422 19.3578 37.2951 19.546 37.391C19.7599 37.5 20.0399 37.5 20.6 37.5H23V35.5H25V33.5H27L28.5791 31.9209C28.8177 31.6823 28.937 31.563 29.0581 31.4953C29.1843 31.4248 29.2613 31.3987 29.4044 31.3783C29.5417 31.3586 29.7588 31.3878 30.193 31.4462C30.4569 31.4817 30.7263 31.5 31 31.5Z" stroke="#1570EF" stroke-width="2" stroke-linecap="round" stroke-linejoin="round"/>
<path d="M28 48.5C16.9543 48.5 8 39.5457 8 28.5H0C0 43.964 12.536 56.5 28 56.5V48.5ZM48 28.5C48 39.5457 39.0457 48.5 28 48.5V56.5C43.464 56.5 56 43.964 56 28.5H48ZM28 8.5C39.0457 8.5 48 17.4543 48 28.5H56C56 13.036 43.464 0.5 28 0.5V8.5ZM28 0.5C12.536 0.5 0 13.036 0 28.5H8C8 17.4543 16.9543 8.5 28 8.5V0.5Z" fill="#EFF8FF"/>
</svg>
