<svg width="26" height="20" viewBox="0 0 26 20" fill="none" xmlns="http://www.w3.org/2000/svg">
<path d="M16.81 8.57131C16.6216 8.5713 16.4374 8.51543 16.2808 8.41075C16.1241 8.30608 16.002 8.15729 15.9299 7.98322C15.8578 7.80915 15.839 7.61762 15.8757 7.43283C15.9125 7.24804 16.0032 7.0783 16.1364 6.94507L18.3207 4.76074L16.1364 2.57642C15.9578 2.39777 15.8574 2.15546 15.8574 1.90281C15.8574 1.65016 15.9578 1.40787 16.1364 1.22922C16.3151 1.05057 16.5574 0.950195 16.81 0.950195C17.0627 0.950195 17.305 1.05057 17.4836 1.22922L20.3416 4.08713C20.43 4.17558 20.5002 4.2806 20.5481 4.39618C20.596 4.51176 20.6206 4.63563 20.6206 4.76074C20.6206 4.88584 20.596 5.00972 20.5481 5.1253C20.5002 5.24087 20.43 5.34589 20.3416 5.43435L17.4836 8.29227C17.3953 8.38087 17.2903 8.45113 17.1747 8.49902C17.0591 8.54691 16.9352 8.57147 16.81 8.57131Z" fill="white"/>
<path d="M1.56788 11.4287C1.44278 11.4288 1.3189 11.4041 1.20331 11.3562C1.08773 11.3084 0.98271 11.2382 0.894248 11.1497C0.805786 11.0613 0.735617 10.9563 0.687744 10.8407C0.639871 10.7251 0.61523 10.6012 0.615234 10.4761V9.52347C0.622706 8.01032 1.22692 6.56124 2.29663 5.491C3.36633 4.42077 4.81512 3.81584 6.32826 3.80762H18.7154C18.9681 3.80762 19.2104 3.90798 19.3891 4.08664C19.5677 4.26529 19.6681 4.50759 19.6681 4.76025C19.6681 5.0129 19.5677 5.25522 19.3891 5.43387C19.2104 5.61253 18.9681 5.7129 18.7154 5.7129H6.33109C5.32182 5.71888 4.35562 6.12266 3.64222 6.8366C2.92881 7.55054 2.52575 8.51705 2.52052 9.52632V10.4761C2.52053 10.6012 2.49588 10.7251 2.44801 10.8407C2.40014 10.9562 2.32997 11.0613 2.24151 11.1497C2.15305 11.2382 2.04803 11.3084 1.93245 11.3562C1.81687 11.4041 1.69299 11.4288 1.56788 11.4287Z" fill="white"/>
<path d="M9.18949 19.0492C9.06437 19.0494 8.94044 19.0248 8.82484 18.9769C8.70924 18.929 8.60425 18.8588 8.51588 18.7702L5.65796 15.9122C5.56949 15.8238 5.49931 15.7188 5.45143 15.6032C5.40355 15.4876 5.37891 15.3637 5.37891 15.2386C5.37891 15.1135 5.40355 14.9897 5.45143 14.8741C5.49931 14.7585 5.56949 14.6535 5.65796 14.565L8.51588 11.7071C8.69459 11.5287 8.93681 11.4286 9.18931 11.4287C9.44181 11.4288 9.68394 11.5292 9.86248 11.7077C10.041 11.8863 10.1414 12.1284 10.1415 12.3809C10.1416 12.6334 10.0415 12.8756 9.86309 13.0543L7.67884 15.2386L9.86309 17.423C9.99631 17.5562 10.087 17.7259 10.1238 17.9107C10.1606 18.0955 10.1417 18.287 10.0696 18.4611C9.99748 18.6352 9.8754 18.784 9.71874 18.8886C9.56208 18.9933 9.3779 19.0492 9.18949 19.0492Z" fill="white"/>
<path d="M7.28369 16.1914C7.03103 16.1914 6.78873 16.0911 6.61008 15.9124C6.43142 15.7338 6.33105 15.4915 6.33105 15.2388C6.33105 14.9862 6.43142 14.7438 6.61008 14.5652C6.78873 14.3865 7.03103 14.2862 7.28369 14.2862H19.668C20.6773 14.2802 21.6435 13.8764 22.3569 13.1625C23.0703 12.4485 23.4733 11.482 23.4786 10.4727V9.52296C23.4786 9.2703 23.5789 9.02799 23.7576 8.84933C23.9363 8.67068 24.1786 8.57031 24.4312 8.57031C24.6839 8.57031 24.9262 8.67068 25.1049 8.84933C25.2835 9.02799 25.3839 9.2703 25.3839 9.52296V10.4756C25.3764 11.9888 24.7722 13.4378 23.7025 14.5081C22.6328 15.5783 21.184 16.1832 19.6708 16.1915L7.28369 16.1914Z" fill="white"/>
</svg>
