<svg width="28" height="28" viewBox="0 0 28 28" fill="none" xmlns="http://www.w3.org/2000/svg">
<path d="M8.21943 25.9418C7.04072 26.6487 4.94068 27.5344 2.79466 26.6241L1.40743 26.0357L4.18735 22.9195C1.969 20.4735 0.741745 17.2887 0.745124 13.9866C0.748503 10.6846 1.98227 7.50225 4.20562 5.06086C6.42896 2.61947 9.48231 1.09422 12.7697 0.782826C16.057 0.471435 19.3424 1.39625 21.9846 3.37676C24.6268 5.35727 26.4362 8.25132 27.0595 11.494C27.6828 14.7367 27.0754 18.0953 25.3558 20.9143C23.6361 23.7333 20.9277 25.8102 17.7592 26.7398C14.5907 27.6694 11.1895 27.3849 8.21943 25.9418V25.9418Z" fill="white"/>
<path d="M15.2537 10.7988H6.52344V11.6096H15.2537V10.7988Z" fill="#53B1FD"/>
<path d="M21.7395 13.6045H6.52344V14.4152H21.7395V13.6045Z" fill="#53B1FD"/>
<path d="M21.7246 16.4082H6.52344V17.2189H21.7246V16.4082Z" fill="#53B1FD"/>
</svg>
