<svg width="25" height="24" viewBox="0 0 25 24" fill="none" xmlns="http://www.w3.org/2000/svg">
<path d="M17.8851 23.8399H1.71399C1.39731 23.8396 1.0937 23.718 0.869778 23.5018C0.645852 23.2855 0.519894 22.9924 0.519531 22.6867V7.07319C0.519893 6.76743 0.645852 6.47429 0.869778 6.25809C1.0937 6.04189 1.39731 5.92027 1.71399 5.91992H17.8851C18.2018 5.92027 18.5054 6.04189 18.7293 6.2581C18.9532 6.4743 19.0792 6.76743 19.0795 7.07319V22.6867C19.0792 22.9924 18.9532 23.2855 18.7293 23.5018C18.5054 23.718 18.2018 23.8396 17.8851 23.8399V23.8399Z" fill="white"/>
<mask id="path-2-inside-1_121_14424" fill="white">
<rect x="6.28027" y="0.160156" width="18.56" height="17.28" rx="1.28047"/>
</mask>
<rect x="6.28027" y="0.160156" width="18.56" height="17.28" rx="1.28047" stroke="white" stroke-width="3.8414" mask="url(#path-2-inside-1_121_14424)"/>
</svg>
