<svg width="17" height="12" viewBox="0 0 17 12" fill="none" xmlns="http://www.w3.org/2000/svg">
<path fill-rule="evenodd" clip-rule="evenodd" d="M0.166016 1.00033C0.166016 0.540088 0.539112 0.166992 0.999349 0.166992H15.9993C16.4596 0.166992 16.8327 0.540088 16.8327 1.00033C16.8327 1.46056 16.4596 1.83366 15.9993 1.83366H0.999349C0.539112 1.83366 0.166016 1.46056 0.166016 1.00033ZM2.66602 6.00033C2.66602 5.54009 3.03911 5.16699 3.49935 5.16699H13.4993C13.9596 5.16699 14.3327 5.54009 14.3327 6.00033C14.3327 6.46056 13.9596 6.83366 13.4993 6.83366H3.49935C3.03911 6.83366 2.66602 6.46056 2.66602 6.00033ZM5.16602 11.0003C5.16602 10.5401 5.53911 10.167 5.99935 10.167H10.9993C11.4596 10.167 11.8327 10.5401 11.8327 11.0003C11.8327 11.4606 11.4596 11.8337 10.9993 11.8337H5.99935C5.53911 11.8337 5.16602 11.4606 5.16602 11.0003Z" fill="#344054"/>
</svg>
