<svg width="240" height="240" viewBox="0 0 240 240" fill="none" xmlns="http://www.w3.org/2000/svg">
<path d="M120 8C134.708 8 149.272 10.897 162.861 16.5255C176.449 22.154 188.796 30.4039 199.196 40.804C209.596 51.2042 217.846 63.551 223.475 77.1395C229.103 90.7279 232 105.292 232 120C232 134.708 229.103 149.272 223.474 162.861C217.846 176.449 209.596 188.796 199.196 199.196C188.796 209.596 176.449 217.846 162.861 223.475C149.272 229.103 134.708 232 120 232C105.292 232 90.7279 229.103 77.1394 223.474C63.551 217.846 51.2042 209.596 40.804 199.196C30.4038 188.796 22.154 176.449 16.5255 162.86C10.897 149.272 7.99999 134.708 8 120C8.00001 105.292 10.897 90.7279 16.5255 77.1394C22.1541 63.5509 30.4039 51.2042 40.8041 40.804C51.2043 30.4038 63.551 22.154 77.1395 16.5255C90.728 10.8969 105.292 7.99999 120 8L120 8Z" stroke="#EFF8FF" stroke-width="16" stroke-linecap="round" stroke-linejoin="round"/>
<path d="M120 8C145.635 8 170.494 16.7939 190.427 32.9134C210.359 49.0329 224.159 71.5024 229.522 96.5701C234.885 121.638 231.486 147.787 219.893 170.65C208.3 193.514 189.214 211.709 165.823 222.197C142.432 232.685 116.15 234.832 91.3674 228.278C66.5843 221.725 44.7994 206.868 29.65 186.188C14.5006 165.509 6.90372 140.258 8.12775 114.652C9.35178 89.0465 19.3226 64.6356 36.3755 45.4953" stroke="#1849A9" stroke-width="16" stroke-linecap="round" stroke-linejoin="round"/>
<path d="M120 28C132.082 28 144.045 30.3797 155.207 35.0031C166.369 39.6265 176.511 46.4032 185.054 54.9462C193.597 63.4892 200.373 73.6312 204.997 84.7931C209.62 95.9551 212 107.918 212 120C212 132.082 209.62 144.045 204.997 155.207C200.373 166.369 193.597 176.511 185.054 185.054C176.511 193.597 166.369 200.373 155.207 204.997C144.045 209.62 132.082 212 120 212C107.918 212 95.955 209.62 84.7931 204.997C73.6311 200.373 63.4891 193.597 54.9461 185.054C46.4032 176.511 39.6265 166.369 35.0031 155.207C30.3796 144.045 28 132.082 28 120C28 107.918 30.3797 95.955 35.0031 84.7931C39.6265 73.6311 46.4032 63.4891 54.9462 54.9461C63.4892 46.4032 73.6312 39.6265 84.7932 35.0031C95.9551 30.3796 107.918 28 120 28L120 28Z" stroke="#EFF8FF" stroke-width="16" stroke-linecap="round" stroke-linejoin="round"/>
<path d="M120 28C138.791 28 157.132 33.7544 172.556 44.4892C187.979 55.224 199.746 70.4243 206.272 88.0459C212.799 105.668 213.773 124.865 209.064 143.057C204.354 161.249 194.187 177.562 179.929 189.803C165.672 202.044 148.008 209.625 129.313 211.527C110.618 213.43 91.7887 209.561 75.3578 200.443C58.9269 191.325 45.6823 177.393 37.4053 160.523C29.1282 143.653 26.2158 124.652 29.0596 106.077" stroke="#1570EF" stroke-width="16" stroke-linecap="round" stroke-linejoin="round"/>
<path d="M120 48C129.455 48 138.818 49.8623 147.553 53.4807C156.289 57.099 164.226 62.4025 170.912 69.0883C177.598 75.7741 182.901 83.7114 186.519 92.4468C190.138 101.182 192 110.545 192 120C192 129.455 190.138 138.818 186.519 147.553C182.901 156.289 177.597 164.226 170.912 170.912C164.226 177.598 156.289 182.901 147.553 186.519C138.818 190.138 129.455 192 120 192C110.545 192 101.182 190.138 92.4468 186.519C83.7113 182.901 75.7741 177.597 69.0883 170.912C62.4025 164.226 57.099 156.289 53.4807 147.553C49.8623 138.818 48 129.455 48 120C48 110.545 49.8623 101.182 53.4807 92.4468C57.099 83.7113 62.4025 75.7741 69.0883 69.0883C75.7742 62.4025 83.7114 57.099 92.4468 53.4807C101.182 49.8623 110.545 48 120 48L120 48Z" stroke="#EFF8FF" stroke-width="16" stroke-linecap="round" stroke-linejoin="round"/>
<path d="M120 48C132.526 48 144.835 51.2678 155.712 57.4807C166.588 63.6936 175.656 72.6365 182.019 83.4261C188.382 94.2156 191.82 106.478 191.993 119.003C192.167 131.528 189.069 143.881 183.008 154.843C176.946 165.805 168.129 174.995 157.429 181.507C146.729 188.018 134.514 191.626 121.993 191.972C109.472 192.319 97.0771 189.393 86.0326 183.484C74.9882 177.575 65.6765 168.886 59.0174 158.277" stroke="#53B1FD" stroke-width="16" stroke-linecap="round" stroke-linejoin="round"/>
<path d="M102.065 131.298C100.531 131.298 99.1673 131.036 97.9742 130.51C96.7881 129.984 95.8506 129.253 95.1617 128.315C94.4727 127.378 94.107 126.295 94.0644 125.066H98.07C98.1056 125.656 98.3009 126.17 98.656 126.611C99.0111 127.044 99.4834 127.381 100.073 127.623C100.662 127.864 101.323 127.985 102.054 127.985C102.836 127.985 103.528 127.85 104.132 127.58C104.736 127.303 105.208 126.92 105.549 126.43C105.89 125.94 106.057 125.375 106.049 124.736C106.057 124.075 105.886 123.493 105.538 122.989C105.19 122.484 104.686 122.09 104.025 121.806C103.372 121.522 102.584 121.38 101.66 121.38H99.732V118.333H101.66C102.42 118.333 103.084 118.202 103.652 117.939C104.228 117.676 104.679 117.307 105.005 116.831C105.332 116.348 105.492 115.79 105.485 115.158C105.492 114.54 105.353 114.004 105.069 113.55C104.792 113.088 104.398 112.729 103.887 112.474C103.383 112.218 102.79 112.09 102.108 112.09C101.44 112.09 100.822 112.211 100.254 112.452C99.6858 112.694 99.2277 113.038 98.8797 113.486C98.5317 113.926 98.347 114.452 98.3257 115.062H94.5225C94.5509 113.841 94.9024 112.768 95.5771 111.845C96.259 110.915 97.1681 110.19 98.3044 109.672C99.4408 109.146 100.716 108.884 102.129 108.884C103.585 108.884 104.849 109.157 105.922 109.704C107.001 110.244 107.836 110.972 108.425 111.888C109.015 112.804 109.309 113.816 109.309 114.924C109.316 116.153 108.954 117.183 108.223 118.013C107.498 118.844 106.547 119.388 105.368 119.643V119.814C106.902 120.027 108.077 120.595 108.894 121.518C109.718 122.435 110.126 123.575 110.119 124.938C110.119 126.16 109.771 127.254 109.075 128.219C108.386 129.178 107.434 129.931 106.22 130.478C105.013 131.025 103.628 131.298 102.065 131.298ZM122.65 109.182V131H118.698V113.028H118.57L113.467 116.288V112.665L118.889 109.182H122.65ZM136.18 131.298C135.136 131.291 134.117 131.11 133.122 130.755C132.128 130.393 131.233 129.807 130.438 128.997C129.642 128.18 129.01 127.097 128.541 125.748C128.073 124.391 127.842 122.712 127.849 120.709C127.849 118.841 128.048 117.175 128.446 115.712C128.843 114.249 129.415 113.013 130.161 112.005C130.907 110.989 131.805 110.215 132.856 109.683C133.914 109.15 135.097 108.884 136.404 108.884C137.774 108.884 138.989 109.153 140.047 109.693C141.112 110.233 141.972 110.972 142.625 111.909C143.279 112.839 143.684 113.891 143.84 115.062H139.951C139.752 114.224 139.344 113.557 138.726 113.06C138.115 112.555 137.341 112.303 136.404 112.303C134.891 112.303 133.726 112.96 132.909 114.274C132.1 115.588 131.691 117.392 131.684 119.686H131.833C132.181 119.061 132.632 118.525 133.186 118.077C133.74 117.63 134.365 117.286 135.061 117.044C135.764 116.795 136.507 116.671 137.288 116.671C138.566 116.671 139.713 116.977 140.729 117.587C141.752 118.198 142.561 119.04 143.158 120.112C143.755 121.178 144.049 122.399 144.042 123.777C144.049 125.212 143.723 126.501 143.062 127.644C142.402 128.781 141.482 129.675 140.303 130.329C139.124 130.982 137.75 131.305 136.18 131.298ZM136.159 128.102C136.933 128.102 137.625 127.914 138.236 127.538C138.847 127.161 139.33 126.653 139.685 126.014C140.04 125.375 140.214 124.658 140.207 123.862C140.214 123.081 140.044 122.374 139.696 121.742C139.355 121.11 138.882 120.609 138.279 120.24C137.675 119.871 136.986 119.686 136.212 119.686C135.637 119.686 135.1 119.796 134.603 120.016C134.106 120.237 133.673 120.542 133.304 120.933C132.934 121.316 132.643 121.763 132.43 122.275C132.224 122.779 132.117 123.319 132.11 123.894C132.117 124.654 132.295 125.354 132.643 125.993C132.991 126.632 133.47 127.143 134.081 127.527C134.692 127.911 135.384 128.102 136.159 128.102Z" fill="#101828"/>
</svg>
