<svg width="770" height="214" viewBox="0 0 770 214" fill="none" xmlns="http://www.w3.org/2000/svg">
<line x1="1.5" y1="10.5" x2="768.5" y2="10.5" stroke="#F2F4F7" stroke-linecap="round"/>
<line x1="1.5" y1="45" x2="768.5" y2="45" stroke="#F2F4F7" stroke-linecap="round"/>
<line x1="1.5" y1="77" x2="768.5" y2="77" stroke="#F2F4F7" stroke-linecap="round"/>
<line x1="1.5" y1="109" x2="768.5" y2="109" stroke="#F2F4F7" stroke-linecap="round"/>
<line x1="1.5" y1="141" x2="768.5" y2="141" stroke="#F2F4F7" stroke-linecap="round"/>
<line x1="1.5" y1="173" x2="768.5" y2="173" stroke="#F2F4F7" stroke-linecap="round"/>
<path d="M29.7493 186.273H30.8061V192.511C30.8061 193.068 30.7038 193.541 30.4993 193.93C30.2947 194.32 30.0064 194.615 29.6342 194.817C29.2621 195.018 28.8232 195.119 28.3175 195.119C27.8402 195.119 27.4155 195.033 27.0433 194.859C26.6712 194.683 26.3786 194.433 26.1655 194.109C25.9524 193.786 25.8459 193.401 25.8459 192.955H26.8857C26.8857 193.202 26.9467 193.418 27.0689 193.602C27.1939 193.784 27.3643 193.926 27.5803 194.028C27.7962 194.131 28.0419 194.182 28.3175 194.182C28.6214 194.182 28.88 194.118 29.093 193.99C29.3061 193.862 29.468 193.675 29.5788 193.428C29.6925 193.178 29.7493 192.872 29.7493 192.511V186.273ZM34.7138 195.153C34.299 195.153 33.9226 195.075 33.5845 194.919C33.2464 194.76 32.978 194.531 32.7791 194.233C32.5803 193.932 32.4808 193.568 32.4808 193.142C32.4808 192.767 32.5547 192.463 32.7024 192.23C32.8501 191.994 33.0476 191.81 33.2947 191.676C33.5419 191.543 33.8146 191.443 34.1129 191.378C34.4141 191.31 34.7166 191.256 35.0206 191.216C35.4183 191.165 35.7408 191.126 35.9879 191.101C36.2379 191.072 36.4197 191.026 36.5334 190.96C36.6499 190.895 36.7081 190.781 36.7081 190.619V190.585C36.7081 190.165 36.593 189.838 36.3629 189.605C36.1357 189.372 35.7905 189.256 35.3274 189.256C34.8473 189.256 34.4709 189.361 34.1982 189.571C33.9254 189.781 33.7337 190.006 33.6229 190.244L32.6683 189.903C32.8388 189.506 33.0661 189.196 33.3501 188.974C33.6371 188.75 33.9496 188.594 34.2876 188.506C34.6286 188.415 34.9638 188.369 35.2933 188.369C35.5036 188.369 35.745 188.395 36.0178 188.446C36.2933 188.494 36.5589 188.595 36.8146 188.749C37.0732 188.902 37.2876 189.134 37.4581 189.443C37.6286 189.753 37.7138 190.168 37.7138 190.688V195H36.7081V194.114H36.657C36.5888 194.256 36.4751 194.408 36.3161 194.57C36.157 194.732 35.9453 194.869 35.6811 194.983C35.4169 195.097 35.0945 195.153 34.7138 195.153ZM34.8672 194.25C35.2649 194.25 35.6001 194.172 35.8729 194.016C36.1484 193.859 36.3558 193.658 36.495 193.411C36.6371 193.163 36.7081 192.903 36.7081 192.631V191.71C36.6655 191.761 36.5717 191.808 36.4268 191.851C36.2848 191.891 36.12 191.926 35.9325 191.957C35.7479 191.986 35.5675 192.011 35.3913 192.034C35.218 192.054 35.0774 192.071 34.9695 192.085C34.7081 192.119 34.4638 192.175 34.2365 192.251C34.0121 192.325 33.8303 192.437 33.6911 192.588C33.5547 192.736 33.4865 192.937 33.4865 193.193C33.4865 193.543 33.6158 193.807 33.8743 193.986C34.1357 194.162 34.4666 194.25 34.8672 194.25ZM40.555 191.062V195H39.5494V188.455H40.521V189.477H40.6062C40.7596 189.145 40.9925 188.878 41.305 188.676C41.6175 188.472 42.021 188.369 42.5153 188.369C42.9585 188.369 43.3462 188.46 43.6786 188.642C44.011 188.821 44.2695 189.094 44.4542 189.46C44.6388 189.824 44.7312 190.284 44.7312 190.841V195H43.7255V190.909C43.7255 190.395 43.592 189.994 43.3249 189.707C43.0579 189.418 42.6914 189.273 42.2255 189.273C41.9045 189.273 41.6175 189.342 41.3647 189.482C41.1147 189.621 40.9173 189.824 40.7724 190.091C40.6275 190.358 40.555 190.682 40.555 191.062Z" fill="#667085"/>
<path d="M89.0568 195V186.273H94.2898V187.21H90.1136V190.159H93.8977V191.097H90.1136V195H89.0568ZM98.2273 195.136C97.5966 195.136 97.0526 194.997 96.5952 194.719C96.1406 194.438 95.7898 194.045 95.5426 193.543C95.2983 193.037 95.1761 192.449 95.1761 191.778C95.1761 191.108 95.2983 190.517 95.5426 190.006C95.7898 189.491 96.1335 189.091 96.5739 188.804C97.017 188.514 97.5341 188.369 98.125 188.369C98.4659 188.369 98.8026 188.426 99.1349 188.54C99.4673 188.653 99.7699 188.838 100.043 189.094C100.315 189.347 100.533 189.682 100.695 190.099C100.857 190.517 100.938 191.031 100.938 191.642V192.068H95.892V191.199H99.9148C99.9148 190.83 99.8409 190.5 99.6932 190.21C99.5483 189.92 99.3409 189.692 99.071 189.524C98.804 189.357 98.4886 189.273 98.125 189.273C97.7244 189.273 97.3778 189.372 97.0852 189.571C96.7955 189.767 96.5724 190.023 96.4162 190.338C96.2599 190.653 96.1818 190.991 96.1818 191.352V191.932C96.1818 192.426 96.267 192.845 96.4375 193.189C96.6108 193.53 96.8509 193.79 97.1577 193.969C97.4645 194.145 97.821 194.233 98.2273 194.233C98.4915 194.233 98.7301 194.196 98.9432 194.122C99.1591 194.045 99.3452 193.932 99.5014 193.781C99.6577 193.628 99.7784 193.437 99.8636 193.21L100.835 193.483C100.733 193.812 100.561 194.102 100.32 194.352C100.078 194.599 99.7798 194.793 99.4247 194.932C99.0696 195.068 98.6705 195.136 98.2273 195.136ZM102.604 195V186.273H103.609V189.494H103.695C103.768 189.381 103.871 189.236 104.001 189.06C104.135 188.881 104.325 188.722 104.572 188.582C104.822 188.44 105.161 188.369 105.587 188.369C106.138 188.369 106.624 188.507 107.044 188.783C107.464 189.058 107.793 189.449 108.028 189.955C108.264 190.46 108.382 191.057 108.382 191.744C108.382 192.438 108.264 193.038 108.028 193.547C107.793 194.053 107.466 194.445 107.048 194.723C106.631 194.999 106.149 195.136 105.604 195.136C105.183 195.136 104.847 195.067 104.594 194.928C104.341 194.786 104.146 194.625 104.01 194.446C103.874 194.264 103.768 194.114 103.695 193.994H103.575V195H102.604ZM103.592 191.727C103.592 192.222 103.665 192.658 103.81 193.036C103.955 193.411 104.166 193.705 104.445 193.918C104.723 194.128 105.064 194.233 105.467 194.233C105.888 194.233 106.239 194.122 106.52 193.901C106.804 193.676 107.017 193.375 107.159 192.997C107.304 192.616 107.376 192.193 107.376 191.727C107.376 191.267 107.305 190.852 107.163 190.483C107.024 190.111 106.813 189.817 106.528 189.601C106.247 189.382 105.893 189.273 105.467 189.273C105.058 189.273 104.714 189.376 104.436 189.584C104.158 189.788 103.947 190.075 103.805 190.445C103.663 190.811 103.592 191.239 103.592 191.727Z" fill="#667085"/>
<path d="M152.106 186.273H153.367L156.333 193.517H156.435L159.401 186.273H160.662V195H159.674V188.369H159.589L156.861 195H155.907L153.18 188.369H153.094V195H152.106V186.273ZM164.571 195.153C164.156 195.153 163.78 195.075 163.442 194.919C163.104 194.76 162.835 194.531 162.637 194.233C162.438 193.932 162.338 193.568 162.338 193.142C162.338 192.767 162.412 192.463 162.56 192.23C162.708 191.994 162.905 191.81 163.152 191.676C163.399 191.543 163.672 191.443 163.97 191.378C164.271 191.31 164.574 191.256 164.878 191.216C165.276 191.165 165.598 191.126 165.845 191.101C166.095 191.072 166.277 191.026 166.391 190.96C166.507 190.895 166.566 190.781 166.566 190.619V190.585C166.566 190.165 166.45 189.838 166.22 189.605C165.993 189.372 165.648 189.256 165.185 189.256C164.705 189.256 164.328 189.361 164.056 189.571C163.783 189.781 163.591 190.006 163.48 190.244L162.526 189.903C162.696 189.506 162.923 189.196 163.208 188.974C163.494 188.75 163.807 188.594 164.145 188.506C164.486 188.415 164.821 188.369 165.151 188.369C165.361 188.369 165.602 188.395 165.875 188.446C166.151 188.494 166.416 188.595 166.672 188.749C166.931 188.902 167.145 189.134 167.316 189.443C167.486 189.753 167.571 190.168 167.571 190.688V195H166.566V194.114H166.514C166.446 194.256 166.333 194.408 166.173 194.57C166.014 194.732 165.803 194.869 165.539 194.983C165.274 195.097 164.952 195.153 164.571 195.153ZM164.725 194.25C165.122 194.25 165.458 194.172 165.73 194.016C166.006 193.859 166.213 193.658 166.352 193.411C166.494 193.163 166.566 192.903 166.566 192.631V191.71C166.523 191.761 166.429 191.808 166.284 191.851C166.142 191.891 165.977 191.926 165.79 191.957C165.605 191.986 165.425 192.011 165.249 192.034C165.075 192.054 164.935 192.071 164.827 192.085C164.566 192.119 164.321 192.175 164.094 192.251C163.869 192.325 163.688 192.437 163.548 192.588C163.412 192.736 163.344 192.937 163.344 193.193C163.344 193.543 163.473 193.807 163.732 193.986C163.993 194.162 164.324 194.25 164.725 194.25ZM169.407 195V188.455H170.378V189.443H170.447C170.566 189.119 170.782 188.857 171.094 188.655C171.407 188.453 171.759 188.352 172.151 188.352C172.225 188.352 172.317 188.354 172.428 188.357C172.539 188.359 172.623 188.364 172.68 188.369V189.392C172.645 189.384 172.567 189.371 172.445 189.354C172.326 189.334 172.199 189.324 172.066 189.324C171.748 189.324 171.464 189.391 171.214 189.524C170.966 189.655 170.77 189.837 170.626 190.07C170.483 190.3 170.412 190.562 170.412 190.858V195H169.407Z" fill="#667085"/>
<path d="M216.471 195H215.363L218.568 186.273H219.659L222.863 195H221.756L219.148 187.653H219.079L216.471 195ZM216.881 191.591H221.346V192.528H216.881V191.591ZM224.086 197.455V188.455H225.058V189.494H225.177C225.251 189.381 225.354 189.236 225.484 189.06C225.618 188.881 225.808 188.722 226.055 188.582C226.305 188.44 226.643 188.369 227.069 188.369C227.621 188.369 228.106 188.507 228.527 188.783C228.947 189.058 229.275 189.449 229.511 189.955C229.747 190.46 229.865 191.057 229.865 191.744C229.865 192.438 229.747 193.038 229.511 193.547C229.275 194.053 228.949 194.445 228.531 194.723C228.113 194.999 227.632 195.136 227.086 195.136C226.666 195.136 226.329 195.067 226.077 194.928C225.824 194.786 225.629 194.625 225.493 194.446C225.356 194.264 225.251 194.114 225.177 193.994H225.092V197.455H224.086ZM225.075 191.727C225.075 192.222 225.148 192.658 225.292 193.036C225.437 193.411 225.649 193.705 225.927 193.918C226.206 194.128 226.547 194.233 226.95 194.233C227.371 194.233 227.721 194.122 228.003 193.901C228.287 193.676 228.5 193.375 228.642 192.997C228.787 192.616 228.859 192.193 228.859 191.727C228.859 191.267 228.788 190.852 228.646 190.483C228.507 190.111 228.295 189.817 228.011 189.601C227.73 189.382 227.376 189.273 226.95 189.273C226.541 189.273 226.197 189.376 225.919 189.584C225.64 189.788 225.43 190.075 225.288 190.445C225.146 190.811 225.075 191.239 225.075 191.727ZM231.399 195V188.455H232.371V189.443H232.439C232.558 189.119 232.774 188.857 233.086 188.655C233.399 188.453 233.751 188.352 234.143 188.352C234.217 188.352 234.309 188.354 234.42 188.357C234.531 188.359 234.615 188.364 234.672 188.369V189.392C234.638 189.384 234.559 189.371 234.437 189.354C234.318 189.334 234.192 189.324 234.058 189.324C233.74 189.324 233.456 189.391 233.206 189.524C232.959 189.655 232.763 189.837 232.618 190.07C232.476 190.3 232.405 190.562 232.405 190.858V195H231.399Z" fill="#667085"/>
<path d="M278.115 186.273H279.377L282.343 193.517H282.445L285.411 186.273H286.672V195H285.684V188.369H285.598L282.871 195H281.917L279.189 188.369H279.104V195H278.115V186.273ZM290.581 195.153C290.166 195.153 289.79 195.075 289.452 194.919C289.114 194.76 288.845 194.531 288.646 194.233C288.447 193.932 288.348 193.568 288.348 193.142C288.348 192.767 288.422 192.463 288.57 192.23C288.717 191.994 288.915 191.81 289.162 191.676C289.409 191.543 289.682 191.443 289.98 191.378C290.281 191.31 290.584 191.256 290.888 191.216C291.286 191.165 291.608 191.126 291.855 191.101C292.105 191.072 292.287 191.026 292.401 190.96C292.517 190.895 292.575 190.781 292.575 190.619V190.585C292.575 190.165 292.46 189.838 292.23 189.605C292.003 189.372 291.658 189.256 291.195 189.256C290.714 189.256 290.338 189.361 290.065 189.571C289.793 189.781 289.601 190.006 289.49 190.244L288.536 189.903C288.706 189.506 288.933 189.196 289.217 188.974C289.504 188.75 289.817 188.594 290.155 188.506C290.496 188.415 290.831 188.369 291.161 188.369C291.371 188.369 291.612 188.395 291.885 188.446C292.161 188.494 292.426 188.595 292.682 188.749C292.94 188.902 293.155 189.134 293.325 189.443C293.496 189.753 293.581 190.168 293.581 190.688V195H292.575V194.114H292.524C292.456 194.256 292.342 194.408 292.183 194.57C292.024 194.732 291.813 194.869 291.548 194.983C291.284 195.097 290.962 195.153 290.581 195.153ZM290.734 194.25C291.132 194.25 291.467 194.172 291.74 194.016C292.016 193.859 292.223 193.658 292.362 193.411C292.504 193.163 292.575 192.903 292.575 192.631V191.71C292.533 191.761 292.439 191.808 292.294 191.851C292.152 191.891 291.987 191.926 291.8 191.957C291.615 191.986 291.435 192.011 291.259 192.034C291.085 192.054 290.945 192.071 290.837 192.085C290.575 192.119 290.331 192.175 290.104 192.251C289.879 192.325 289.697 192.437 289.558 192.588C289.422 192.736 289.354 192.937 289.354 193.193C289.354 193.543 289.483 193.807 289.741 193.986C290.003 194.162 290.334 194.25 290.734 194.25ZM295.83 197.455C295.659 197.455 295.507 197.44 295.374 197.412C295.24 197.386 295.148 197.361 295.097 197.335L295.353 196.449C295.597 196.511 295.813 196.534 296 196.517C296.188 196.5 296.354 196.416 296.499 196.266C296.647 196.118 296.782 195.878 296.904 195.545L297.091 195.034L294.671 188.455H295.762L297.569 193.67H297.637L299.444 188.455H300.534L297.756 195.955C297.631 196.293 297.476 196.572 297.292 196.794C297.107 197.018 296.892 197.185 296.648 197.293C296.407 197.401 296.134 197.455 295.83 197.455Z" fill="#667085"/>
<path d="M347.644 186.273H348.701V192.511C348.701 193.068 348.598 193.541 348.394 193.93C348.189 194.32 347.901 194.615 347.529 194.817C347.157 195.018 346.718 195.119 346.212 195.119C345.735 195.119 345.31 195.033 344.938 194.859C344.566 194.683 344.273 194.433 344.06 194.109C343.847 193.786 343.74 193.401 343.74 192.955H344.78C344.78 193.202 344.841 193.418 344.963 193.602C345.088 193.784 345.259 193.926 345.475 194.028C345.691 194.131 345.936 194.182 346.212 194.182C346.516 194.182 346.775 194.118 346.988 193.99C347.201 193.862 347.363 193.675 347.473 193.428C347.587 193.178 347.644 192.872 347.644 192.511V186.273ZM354.807 192.324V188.455H355.813V195H354.807V193.892H354.739C354.586 194.224 354.347 194.507 354.023 194.74C353.699 194.97 353.29 195.085 352.796 195.085C352.387 195.085 352.023 194.996 351.705 194.817C351.387 194.635 351.137 194.362 350.955 193.999C350.773 193.632 350.682 193.17 350.682 192.614V188.455H351.688V192.545C351.688 193.023 351.821 193.403 352.088 193.688C352.358 193.972 352.702 194.114 353.12 194.114C353.37 194.114 353.624 194.05 353.882 193.922C354.144 193.794 354.363 193.598 354.539 193.334C354.718 193.07 354.807 192.733 354.807 192.324ZM358.661 191.062V195H357.655V188.455H358.626V189.477H358.712C358.865 189.145 359.098 188.878 359.411 188.676C359.723 188.472 360.126 188.369 360.621 188.369C361.064 188.369 361.452 188.46 361.784 188.642C362.116 188.821 362.375 189.094 362.56 189.46C362.744 189.824 362.837 190.284 362.837 190.841V195H361.831V190.909C361.831 190.395 361.697 189.994 361.43 189.707C361.163 189.418 360.797 189.273 360.331 189.273C360.01 189.273 359.723 189.342 359.47 189.482C359.22 189.621 359.023 189.824 358.878 190.091C358.733 190.358 358.661 190.682 358.661 191.062Z" fill="#667085"/>
<path d="M410.73 186.273H411.787V192.511C411.787 193.068 411.684 193.541 411.48 193.93C411.275 194.32 410.987 194.615 410.615 194.817C410.243 195.018 409.804 195.119 409.298 195.119C408.821 195.119 408.396 195.033 408.024 194.859C407.652 194.683 407.359 194.433 407.146 194.109C406.933 193.786 406.826 193.401 406.826 192.955H407.866C407.866 193.202 407.927 193.418 408.049 193.602C408.174 193.784 408.345 193.926 408.561 194.028C408.777 194.131 409.022 194.182 409.298 194.182C409.602 194.182 409.86 194.118 410.074 193.99C410.287 193.862 410.449 193.675 410.559 193.428C410.673 193.178 410.73 192.872 410.73 192.511V186.273ZM417.893 192.324V188.455H418.899V195H417.893V193.892H417.825C417.672 194.224 417.433 194.507 417.109 194.74C416.785 194.97 416.376 195.085 415.882 195.085C415.473 195.085 415.109 194.996 414.791 194.817C414.473 194.635 414.223 194.362 414.041 193.999C413.859 193.632 413.768 193.17 413.768 192.614V188.455H414.774V192.545C414.774 193.023 414.907 193.403 415.174 193.688C415.444 193.972 415.788 194.114 416.206 194.114C416.456 194.114 416.71 194.05 416.968 193.922C417.23 193.794 417.449 193.598 417.625 193.334C417.804 193.07 417.893 192.733 417.893 192.324ZM421.746 186.273V195H420.741V186.273H421.746Z" fill="#667085"/>
<path d="M466.718 195H465.61L468.814 186.273H469.905L473.11 195H472.002L469.394 187.653H469.325L466.718 195ZM467.127 191.591H471.593V192.528H467.127V191.591ZM478.458 192.324V188.455H479.463V195H478.458V193.892H478.389C478.236 194.224 477.997 194.507 477.673 194.74C477.35 194.97 476.941 195.085 476.446 195.085C476.037 195.085 475.673 194.996 475.355 194.817C475.037 194.635 474.787 194.362 474.605 193.999C474.423 193.632 474.333 193.17 474.333 192.614V188.455H475.338V192.545C475.338 193.023 475.472 193.403 475.739 193.688C476.009 193.972 476.352 194.114 476.77 194.114C477.02 194.114 477.274 194.05 477.533 193.922C477.794 193.794 478.013 193.598 478.189 193.334C478.368 193.07 478.458 192.733 478.458 192.324ZM483.947 197.591C483.461 197.591 483.044 197.528 482.694 197.403C482.345 197.281 482.054 197.119 481.821 196.918C481.591 196.719 481.407 196.506 481.271 196.278L482.072 195.716C482.163 195.835 482.278 195.972 482.417 196.125C482.557 196.281 482.747 196.416 482.988 196.53C483.233 196.646 483.552 196.705 483.947 196.705C484.476 196.705 484.912 196.577 485.256 196.321C485.599 196.065 485.771 195.665 485.771 195.119V193.79H485.686C485.612 193.909 485.507 194.057 485.371 194.233C485.237 194.406 485.044 194.561 484.791 194.697C484.541 194.831 484.203 194.898 483.777 194.898C483.248 194.898 482.774 194.773 482.354 194.523C481.936 194.273 481.605 193.909 481.361 193.432C481.119 192.955 480.998 192.375 480.998 191.693C480.998 191.023 481.116 190.439 481.352 189.942C481.588 189.442 481.916 189.055 482.336 188.783C482.757 188.507 483.243 188.369 483.794 188.369C484.22 188.369 484.558 188.44 484.808 188.582C485.061 188.722 485.254 188.881 485.388 189.06C485.524 189.236 485.629 189.381 485.703 189.494H485.805V188.455H486.777V195.188C486.777 195.75 486.649 196.207 486.393 196.56C486.14 196.915 485.8 197.175 485.371 197.339C484.944 197.507 484.47 197.591 483.947 197.591ZM483.913 193.994C484.317 193.994 484.657 193.902 484.936 193.717C485.214 193.533 485.426 193.267 485.571 192.92C485.716 192.574 485.788 192.159 485.788 191.676C485.788 191.205 485.717 190.788 485.575 190.428C485.433 190.067 485.223 189.784 484.944 189.58C484.666 189.375 484.322 189.273 483.913 189.273C483.487 189.273 483.132 189.381 482.848 189.597C482.567 189.812 482.355 190.102 482.213 190.466C482.074 190.83 482.004 191.233 482.004 191.676C482.004 192.131 482.075 192.533 482.217 192.882C482.362 193.229 482.575 193.501 482.856 193.7C483.14 193.896 483.493 193.994 483.913 193.994Z" fill="#667085"/>
<path d="M535.855 188.455C535.804 188.023 535.596 187.688 535.233 187.449C534.869 187.21 534.423 187.091 533.895 187.091C533.508 187.091 533.17 187.153 532.881 187.278C532.594 187.403 532.369 187.575 532.207 187.794C532.048 188.013 531.969 188.261 531.969 188.54C531.969 188.773 532.024 188.973 532.135 189.141C532.248 189.305 532.393 189.443 532.569 189.554C532.746 189.662 532.93 189.751 533.123 189.822C533.317 189.891 533.494 189.946 533.656 189.989L534.542 190.227C534.77 190.287 535.023 190.369 535.301 190.474C535.582 190.58 535.851 190.723 536.106 190.905C536.365 191.084 536.578 191.314 536.746 191.595C536.913 191.876 536.997 192.222 536.997 192.631C536.997 193.102 536.873 193.528 536.626 193.909C536.382 194.29 536.024 194.592 535.552 194.817C535.084 195.041 534.514 195.153 533.844 195.153C533.219 195.153 532.677 195.053 532.22 194.851C531.765 194.649 531.407 194.368 531.146 194.007C530.888 193.646 530.741 193.227 530.707 192.75H531.798C531.827 193.08 531.937 193.352 532.131 193.568C532.327 193.781 532.574 193.94 532.872 194.045C533.173 194.148 533.497 194.199 533.844 194.199C534.247 194.199 534.609 194.134 534.93 194.003C535.251 193.869 535.506 193.685 535.693 193.449C535.881 193.21 535.974 192.932 535.974 192.614C535.974 192.324 535.893 192.088 535.731 191.906C535.569 191.724 535.356 191.577 535.092 191.463C534.828 191.349 534.542 191.25 534.236 191.165L533.162 190.858C532.48 190.662 531.94 190.382 531.542 190.018C531.145 189.655 530.946 189.179 530.946 188.591C530.946 188.102 531.078 187.676 531.342 187.312C531.609 186.946 531.967 186.662 532.416 186.46C532.868 186.256 533.372 186.153 533.929 186.153C534.491 186.153 534.991 186.254 535.429 186.456C535.866 186.655 536.213 186.928 536.469 187.274C536.727 187.621 536.863 188.014 536.878 188.455H535.855ZM541.343 195.136C540.712 195.136 540.168 194.997 539.71 194.719C539.256 194.438 538.905 194.045 538.658 193.543C538.414 193.037 538.291 192.449 538.291 191.778C538.291 191.108 538.414 190.517 538.658 190.006C538.905 189.491 539.249 189.091 539.689 188.804C540.132 188.514 540.649 188.369 541.24 188.369C541.581 188.369 541.918 188.426 542.25 188.54C542.583 188.653 542.885 188.838 543.158 189.094C543.431 189.347 543.648 189.682 543.81 190.099C543.972 190.517 544.053 191.031 544.053 191.642V192.068H539.007V191.199H543.03C543.03 190.83 542.956 190.5 542.808 190.21C542.664 189.92 542.456 189.692 542.186 189.524C541.919 189.357 541.604 189.273 541.24 189.273C540.84 189.273 540.493 189.372 540.2 189.571C539.911 189.767 539.688 190.023 539.531 190.338C539.375 190.653 539.297 190.991 539.297 191.352V191.932C539.297 192.426 539.382 192.845 539.553 193.189C539.726 193.53 539.966 193.79 540.273 193.969C540.58 194.145 540.936 194.233 541.343 194.233C541.607 194.233 541.845 194.196 542.058 194.122C542.274 194.045 542.46 193.932 542.617 193.781C542.773 193.628 542.894 193.437 542.979 193.21L543.95 193.483C543.848 193.812 543.676 194.102 543.435 194.352C543.193 194.599 542.895 194.793 542.54 194.932C542.185 195.068 541.786 195.136 541.343 195.136ZM545.583 197.455V188.455H546.554V189.494H546.673C546.747 189.381 546.85 189.236 546.98 189.06C547.114 188.881 547.304 188.722 547.551 188.582C547.801 188.44 548.139 188.369 548.566 188.369C549.117 188.369 549.602 188.507 550.023 188.783C550.443 189.058 550.771 189.449 551.007 189.955C551.243 190.46 551.361 191.057 551.361 191.744C551.361 192.438 551.243 193.038 551.007 193.547C550.771 194.053 550.445 194.445 550.027 194.723C549.61 194.999 549.128 195.136 548.583 195.136C548.162 195.136 547.825 195.067 547.573 194.928C547.32 194.786 547.125 194.625 546.989 194.446C546.852 194.264 546.747 194.114 546.673 193.994H546.588V197.455H545.583ZM546.571 191.727C546.571 192.222 546.644 192.658 546.789 193.036C546.933 193.411 547.145 193.705 547.423 193.918C547.702 194.128 548.043 194.233 548.446 194.233C548.867 194.233 549.218 194.122 549.499 193.901C549.783 193.676 549.996 193.375 550.138 192.997C550.283 192.616 550.355 192.193 550.355 191.727C550.355 191.267 550.284 190.852 550.142 190.483C550.003 190.111 549.791 189.817 549.507 189.601C549.226 189.382 548.872 189.273 548.446 189.273C548.037 189.273 547.693 189.376 547.415 189.584C547.137 189.788 546.926 190.075 546.784 190.445C546.642 190.811 546.571 191.239 546.571 191.727Z" fill="#667085"/>
<path d="M602.819 190.636C602.819 191.557 602.653 192.352 602.32 193.023C601.988 193.693 601.532 194.21 600.952 194.574C600.373 194.938 599.711 195.119 598.967 195.119C598.222 195.119 597.56 194.938 596.981 194.574C596.401 194.21 595.945 193.693 595.613 193.023C595.281 192.352 595.114 191.557 595.114 190.636C595.114 189.716 595.281 188.92 595.613 188.25C595.945 187.58 596.401 187.062 596.981 186.699C597.56 186.335 598.222 186.153 598.967 186.153C599.711 186.153 600.373 186.335 600.952 186.699C601.532 187.062 601.988 187.58 602.32 188.25C602.653 188.92 602.819 189.716 602.819 190.636ZM601.796 190.636C601.796 189.881 601.67 189.243 601.417 188.723C601.167 188.203 600.827 187.81 600.398 187.543C599.972 187.276 599.495 187.142 598.967 187.142C598.438 187.142 597.96 187.276 597.531 187.543C597.104 187.81 596.765 188.203 596.512 188.723C596.262 189.243 596.137 189.881 596.137 190.636C596.137 191.392 596.262 192.03 596.512 192.55C596.765 193.07 597.104 193.463 597.531 193.73C597.96 193.997 598.438 194.131 598.967 194.131C599.495 194.131 599.972 193.997 600.398 193.73C600.827 193.463 601.167 193.07 601.417 192.55C601.67 192.03 601.796 191.392 601.796 190.636ZM607.119 195.136C606.505 195.136 605.977 194.991 605.533 194.702C605.09 194.412 604.749 194.013 604.511 193.504C604.272 192.996 604.153 192.415 604.153 191.761C604.153 191.097 604.275 190.51 604.519 190.001C604.766 189.49 605.11 189.091 605.55 188.804C605.994 188.514 606.511 188.369 607.102 188.369C607.562 188.369 607.977 188.455 608.346 188.625C608.715 188.795 609.018 189.034 609.254 189.341C609.489 189.648 609.636 190.006 609.692 190.415H608.687C608.61 190.116 608.44 189.852 608.175 189.622C607.914 189.389 607.562 189.273 607.119 189.273C606.727 189.273 606.383 189.375 606.087 189.58C605.795 189.781 605.566 190.067 605.401 190.436C605.239 190.803 605.158 191.233 605.158 191.727C605.158 192.233 605.238 192.673 605.397 193.048C605.559 193.423 605.786 193.714 606.079 193.922C606.374 194.129 606.721 194.233 607.119 194.233C607.38 194.233 607.617 194.188 607.83 194.097C608.043 194.006 608.224 193.875 608.371 193.705C608.519 193.534 608.624 193.33 608.687 193.091H609.692C609.636 193.477 609.495 193.825 609.271 194.135C609.049 194.442 608.755 194.686 608.388 194.868C608.025 195.047 607.602 195.136 607.119 195.136ZM614.009 188.455V189.307H610.617V188.455H614.009ZM611.606 186.886H612.612V193.125C612.612 193.409 612.653 193.622 612.735 193.764C612.82 193.903 612.928 193.997 613.059 194.045C613.192 194.091 613.333 194.114 613.481 194.114C613.592 194.114 613.683 194.108 613.754 194.097C613.825 194.082 613.881 194.071 613.924 194.062L614.129 194.966C614.06 194.991 613.965 195.017 613.843 195.043C613.721 195.071 613.566 195.085 613.379 195.085C613.094 195.085 612.816 195.024 612.543 194.902C612.273 194.78 612.049 194.594 611.87 194.344C611.694 194.094 611.606 193.778 611.606 193.398V186.886Z" fill="#667085"/>
<path d="M665.157 186.273V195H664.134L659.379 188.148H659.293V195H658.237V186.273H659.259L664.032 193.142H664.117V186.273H665.157ZM669.794 195.136C669.203 195.136 668.685 194.996 668.239 194.714C667.796 194.433 667.449 194.04 667.199 193.534C666.952 193.028 666.828 192.437 666.828 191.761C666.828 191.08 666.952 190.484 667.199 189.976C667.449 189.467 667.796 189.072 668.239 188.791C668.685 188.51 669.203 188.369 669.794 188.369C670.385 188.369 670.902 188.51 671.346 188.791C671.792 189.072 672.138 189.467 672.385 189.976C672.635 190.484 672.76 191.08 672.76 191.761C672.76 192.437 672.635 193.028 672.385 193.534C672.138 194.04 671.792 194.433 671.346 194.714C670.902 194.996 670.385 195.136 669.794 195.136ZM669.794 194.233C670.243 194.233 670.613 194.118 670.902 193.888C671.192 193.658 671.407 193.355 671.546 192.98C671.685 192.605 671.755 192.199 671.755 191.761C671.755 191.324 671.685 190.916 671.546 190.538C671.407 190.161 671.192 189.855 670.902 189.622C670.613 189.389 670.243 189.273 669.794 189.273C669.346 189.273 668.976 189.389 668.686 189.622C668.397 189.855 668.182 190.161 668.043 190.538C667.904 190.916 667.834 191.324 667.834 191.761C667.834 192.199 667.904 192.605 668.043 192.98C668.182 193.355 668.397 193.658 668.686 193.888C668.976 194.118 669.346 194.233 669.794 194.233ZM679.413 188.455L676.993 195H675.97L673.55 188.455H674.641L676.447 193.67H676.516L678.322 188.455H679.413Z" fill="#667085"/>
<path d="M726.094 195H723.401V186.273H726.213C727.06 186.273 727.784 186.447 728.386 186.797C728.989 187.143 729.45 187.642 729.771 188.293C730.092 188.94 730.253 189.716 730.253 190.619C730.253 191.528 730.091 192.311 729.767 192.967C729.443 193.621 728.972 194.124 728.352 194.476C727.733 194.825 726.98 195 726.094 195ZM724.457 194.062H726.026C726.747 194.062 727.345 193.923 727.82 193.645C728.294 193.366 728.648 192.97 728.881 192.456C729.114 191.942 729.23 191.33 729.23 190.619C729.23 189.915 729.115 189.308 728.885 188.8C728.655 188.288 728.311 187.896 727.854 187.624C727.396 187.348 726.827 187.21 726.145 187.21H724.457V194.062ZM734.634 195.136C734.003 195.136 733.459 194.997 733.001 194.719C732.547 194.438 732.196 194.045 731.949 193.543C731.705 193.037 731.582 192.449 731.582 191.778C731.582 191.108 731.705 190.517 731.949 190.006C732.196 189.491 732.54 189.091 732.98 188.804C733.423 188.514 733.94 188.369 734.531 188.369C734.872 188.369 735.209 188.426 735.541 188.54C735.874 188.653 736.176 188.838 736.449 189.094C736.722 189.347 736.939 189.682 737.101 190.099C737.263 190.517 737.344 191.031 737.344 191.642V192.068H732.298V191.199H736.321C736.321 190.83 736.247 190.5 736.099 190.21C735.955 189.92 735.747 189.692 735.477 189.524C735.21 189.357 734.895 189.273 734.531 189.273C734.131 189.273 733.784 189.372 733.491 189.571C733.202 189.767 732.979 190.023 732.822 190.338C732.666 190.653 732.588 190.991 732.588 191.352V191.932C732.588 192.426 732.673 192.845 732.844 193.189C733.017 193.53 733.257 193.79 733.564 193.969C733.871 194.145 734.227 194.233 734.634 194.233C734.898 194.233 735.136 194.196 735.349 194.122C735.565 194.045 735.751 193.932 735.908 193.781C736.064 193.628 736.185 193.437 736.27 193.21L737.241 193.483C737.139 193.812 736.967 194.102 736.726 194.352C736.484 194.599 736.186 194.793 735.831 194.932C735.476 195.068 735.077 195.136 734.634 195.136ZM741.533 195.136C740.919 195.136 740.391 194.991 739.947 194.702C739.504 194.412 739.163 194.013 738.925 193.504C738.686 192.996 738.567 192.415 738.567 191.761C738.567 191.097 738.689 190.51 738.933 190.001C739.18 189.49 739.524 189.091 739.964 188.804C740.408 188.514 740.925 188.369 741.516 188.369C741.976 188.369 742.391 188.455 742.76 188.625C743.129 188.795 743.432 189.034 743.668 189.341C743.903 189.648 744.05 190.006 744.107 190.415H743.101C743.024 190.116 742.854 189.852 742.589 189.622C742.328 189.389 741.976 189.273 741.533 189.273C741.141 189.273 740.797 189.375 740.501 189.58C740.209 189.781 739.98 190.067 739.815 190.436C739.653 190.803 739.572 191.233 739.572 191.727C739.572 192.233 739.652 192.673 739.811 193.048C739.973 193.423 740.2 193.714 740.493 193.922C740.788 194.129 741.135 194.233 741.533 194.233C741.794 194.233 742.031 194.188 742.244 194.097C742.457 194.006 742.638 193.875 742.786 193.705C742.933 193.534 743.038 193.33 743.101 193.091H744.107C744.05 193.477 743.909 193.825 743.685 194.135C743.463 194.442 743.169 194.686 742.803 194.868C742.439 195.047 742.016 195.136 741.533 195.136Z" fill="#667085"/>
<g style="mix-blend-mode:multiply" opacity="0.1">
<path d="M747.057 35.2545C758.029 35.2545 758.029 22.916 769 22.916V175.999H1V101.794C12.8857 101.794 11.9714 106.333 22.9429 106.333C33.9143 106.333 33.9143 93.4434 44.8857 93.4434C55.8572 93.4434 54.0286 97.4093 66.8286 97.4093C79.6286 97.4093 75.9714 104.834 88.7714 104.834C101.571 104.834 98.8286 102.014 110.714 102.014C122.6 102.014 120.314 88.5741 132.657 88.5741C145 88.5741 141.8 92.9587 154.6 92.9587C167.4 92.9587 165.114 98.9957 176.543 98.9957C187.971 98.9957 186.143 78.9458 198.486 78.9458C210.829 78.9458 209.457 85.8861 220.429 85.8861C231.4 85.8861 229.571 76.1696 242.371 76.1696C255.171 76.1696 252.429 82.3829 264.314 82.3829C276.2 82.3829 274.371 56.9789 286.257 56.9789C298.143 56.9789 295.857 64.0515 308.2 64.0515C320.543 64.0515 317.343 68.7225 330.143 68.7225C342.943 68.7225 339.743 56.6044 352.086 56.6044C364.429 56.6044 361.229 62.5533 374.029 62.5533C386.829 62.5533 384.543 52.7486 395.971 52.7486C407.4 52.7486 406.029 36.3561 417.914 36.3561C429.8 36.3561 427.971 63.7871 439.857 63.7871C451.743 63.7871 450.371 44.5744 461.8 44.5744C473.229 44.5744 470.943 52.991 483.743 52.991C496.543 52.991 493.8 60.5483 505.686 60.5483C517.571 60.5483 516.2 48.0336 527.629 48.0336C539.057 48.0336 538.143 59.9313 549.571 59.9313C561 59.9313 559.629 54.6434 571.514 54.6434C583.4 54.6434 581.571 43.7371 593.457 43.7371C605.343 43.7371 603.514 48.0997 615.4 48.0997C627.286 48.0997 626.371 32.1698 637.343 32.1698C648.314 32.1698 646.486 54.0045 659.286 54.0045C672.086 54.0045 668.886 39.1763 681.229 39.1763C693.571 39.1763 691.743 45.2794 703.171 45.2794C714.6 45.2794 713.686 30.0767 725.114 30.0767C736.543 30.0767 736.086 35.2545 747.057 35.2545Z" fill="url(#paint0_linear_287_21445)"/>
</g>
<path d="M769 22.916C758.029 22.916 758.029 35.2545 747.057 35.2545C736.086 35.2545 736.543 30.0767 725.114 30.0767C713.686 30.0767 714.6 45.2794 703.171 45.2794C691.743 45.2794 693.571 39.1763 681.229 39.1763C668.886 39.1763 672.086 54.0045 659.286 54.0045C646.486 54.0045 648.314 32.1698 637.343 32.1698C626.371 32.1698 627.286 48.0997 615.4 48.0997C603.514 48.0997 605.343 43.7371 593.457 43.7371C581.571 43.7371 583.4 54.6434 571.514 54.6434C559.629 54.6434 561 59.9313 549.571 59.9313C538.143 59.9313 539.057 48.0336 527.629 48.0336C516.2 48.0336 517.571 60.5483 505.686 60.5483C493.8 60.5483 496.543 52.991 483.743 52.991C470.943 52.991 473.229 44.5744 461.8 44.5744C450.371 44.5744 451.743 63.7871 439.857 63.7871C427.971 63.7871 429.8 36.3561 417.914 36.3561C406.029 36.3561 407.4 52.7486 395.971 52.7486C384.543 52.7486 386.829 62.5533 374.029 62.5533C361.229 62.5533 364.429 56.6044 352.086 56.6044C339.743 56.6044 342.943 68.7225 330.143 68.7225C317.343 68.7225 320.543 64.0515 308.2 64.0515C295.857 64.0515 298.143 56.9789 286.257 56.9789C274.371 56.9789 276.2 82.3829 264.314 82.3829C252.429 82.3829 255.171 76.1696 242.371 76.1696C229.571 76.1696 231.4 85.8861 220.429 85.8861C209.457 85.8861 210.829 78.9458 198.486 78.9458C186.143 78.9458 187.971 98.9957 176.543 98.9957C165.114 98.9957 167.4 92.9587 154.6 92.9587C141.8 92.9587 145 88.5742 132.657 88.5742C120.314 88.5742 122.6 102.014 110.714 102.014C98.8286 102.014 101.571 104.834 88.7714 104.834C75.9714 104.834 79.6286 97.4094 66.8286 97.4094C54.0286 97.4094 55.8572 93.4434 44.8857 93.4434C33.9143 93.4434 33.9143 106.333 22.9429 106.333C11.9715 106.333 12.8857 101.794 1.00001 101.794" stroke="#1570EF" stroke-width="2" stroke-linecap="round" stroke-linejoin="round"/>
<path d="M769 86.166C758.029 86.166 758.029 91.6526 747.057 91.6526C736.086 91.6526 736.543 92.3782 725.114 92.3782C713.686 92.3782 714.6 96.1105 703.171 96.1105C691.743 96.1105 693.571 93.3966 681.229 93.3966C668.886 93.3966 672.086 99.9903 659.286 99.9903C646.486 99.9903 648.314 94.823 637.343 94.823C626.371 94.823 627.286 97.3646 615.4 97.3646C603.514 97.3646 605.343 95.4247 593.457 95.4247C581.571 95.4247 583.4 100.274 571.514 100.274C559.629 100.274 561 102.626 549.571 102.626C538.143 102.626 539.057 97.3352 527.629 97.3352C516.2 97.3352 517.571 90.7881 505.686 90.7881C493.8 90.7881 496.543 99.5396 483.743 99.5396C470.943 99.5396 473.229 95.797 461.8 95.797C450.371 95.797 448.462 97.8162 439.857 98.2844C431.299 98.75 429.8 98.1986 417.914 98.1986C406.029 98.1986 407.4 99.4319 395.971 99.4319C384.543 99.4319 386.829 103.792 374.029 103.792C361.229 103.792 364.429 101.146 352.086 101.146C339.743 101.146 342.943 106.535 330.143 106.535C317.343 106.535 320.543 104.458 308.2 104.458C295.857 104.458 298.143 101.313 286.257 101.313C274.371 101.313 276.2 106.553 264.314 106.553C252.429 106.553 255.171 109.847 242.371 109.847C229.571 109.847 228.587 110.863 220.429 114.167C210.924 118.016 210.829 129.249 198.486 129.249C186.143 129.249 185.479 122.342 176.543 119.997C168.161 117.797 167.4 117.312 154.6 117.312C141.8 117.312 145 115.363 132.657 115.363C120.314 115.363 122.6 121.339 110.714 121.339C98.8286 121.339 101.571 122.593 88.7714 122.593C75.9714 122.593 79.6286 119.291 66.8286 119.291C54.0286 119.291 55.8572 117.528 44.8857 117.528C33.9143 117.528 33.9143 123.259 22.9429 123.259C11.9715 123.259 12.8857 121.241 1.00001 121.241" stroke="#53B1FD" stroke-width="2" stroke-linecap="round" stroke-linejoin="round"/>
<line x1="608.5" y1="131" x2="608.5" y2="214" stroke="#1570EF" stroke-dasharray="4.4 4.4"/>
<g filter="url(#filter0_dd_287_21445)">
<path fill-rule="evenodd" clip-rule="evenodd" d="M387.13 87.7024C385.755 89.6539 383.524 89.6539 382.148 87.7024L379.771 84.4941C378.891 83.3078 378.452 82.7147 377.892 82.2867C377.397 81.9077 376.835 81.6247 376.235 81.4524C375.558 81.2579 374.82 81.2579 373.343 81.2579H339.468C334.657 81.2579 332.912 80.7073 331.153 79.6735C329.394 78.6396 328.013 77.1225 327.073 75.1894C326.132 73.2563 325.631 71.3388 325.631 66.0511V26.8727C325.631 21.585 326.132 19.6676 327.073 17.7345C328.013 15.8014 329.394 14.2842 331.153 13.2504C332.912 12.2166 334.657 11.666 339.468 11.666H430.53C435.342 11.666 437.087 12.2166 438.846 13.2504C440.605 14.2842 441.985 15.8014 442.926 17.7345C443.867 19.6676 444.368 21.585 444.368 26.8727V66.0511C444.368 71.3388 443.867 73.2563 442.926 75.1894C441.985 77.1225 440.605 78.6396 438.846 79.6735C437.087 80.7073 435.342 81.2579 430.53 81.2579H399.929C397.01 81.2579 395.55 81.2579 394.211 81.6381C392.99 81.9848 391.846 82.5608 390.841 83.3353C389.738 84.1848 388.869 85.3573 387.13 87.7024V87.7024Z" fill="white"/>
</g>
<path d="M534.119 25.8182H535.983L539.224 33.733H539.344L542.585 25.8182H544.45V36H542.988V28.6321H542.893L539.891 35.9851H538.678L535.675 28.6271H535.58V36H534.119V25.8182ZM548.786 36.169C548.302 36.169 547.865 36.0795 547.474 35.9006C547.082 35.7183 546.773 35.4548 546.544 35.1101C546.318 34.7654 546.206 34.3428 546.206 33.8423C546.206 33.4115 546.289 33.0568 546.454 32.7784C546.62 32.5 546.844 32.2796 547.126 32.1172C547.407 31.9548 547.722 31.8321 548.07 31.7493C548.418 31.6664 548.773 31.6035 549.134 31.5604C549.591 31.5073 549.963 31.4643 550.248 31.4311C550.533 31.3946 550.74 31.3366 550.869 31.2571C550.998 31.1776 551.063 31.0483 551.063 30.8693V30.8345C551.063 30.4003 550.94 30.0639 550.695 29.8253C550.453 29.5866 550.092 29.4673 549.611 29.4673C549.111 29.4673 548.716 29.5784 548.428 29.8004C548.143 30.0192 547.946 30.2628 547.836 30.5312L546.439 30.2131C546.605 29.7491 546.847 29.3745 547.165 29.0895C547.487 28.8011 547.856 28.5923 548.274 28.4631C548.692 28.3305 549.131 28.2642 549.591 28.2642C549.896 28.2642 550.22 28.3007 550.561 28.3736C550.906 28.4432 551.227 28.5724 551.525 28.7614C551.827 28.9503 552.074 29.2204 552.266 29.5717C552.458 29.9197 552.555 30.3722 552.555 30.929V36H551.103V34.956H551.043C550.947 35.1482 550.803 35.3371 550.611 35.5227C550.418 35.7083 550.171 35.8625 549.87 35.9851C549.568 36.1077 549.207 36.169 548.786 36.169ZM549.109 34.9759C549.52 34.9759 549.872 34.8946 550.163 34.7322C550.458 34.5698 550.682 34.3577 550.834 34.0959C550.99 33.8307 551.068 33.5473 551.068 33.2457V32.2614C551.015 32.3144 550.912 32.3641 550.76 32.4105C550.611 32.4536 550.44 32.4917 550.248 32.5249C550.055 32.5547 549.868 32.5829 549.686 32.6094C549.504 32.6326 549.351 32.6525 549.229 32.669C548.94 32.7055 548.677 32.7668 548.438 32.853C548.203 32.9392 548.014 33.0634 547.871 33.2259C547.732 33.3849 547.662 33.5971 547.662 33.8622C547.662 34.2301 547.798 34.5085 548.07 34.6974C548.342 34.883 548.688 34.9759 549.109 34.9759ZM555.201 38.8636C554.979 38.8636 554.776 38.8454 554.594 38.8089C554.412 38.7758 554.276 38.7393 554.186 38.6996L554.544 37.4815C554.816 37.5545 555.058 37.5859 555.27 37.576C555.482 37.5661 555.67 37.4865 555.832 37.3374C555.998 37.1882 556.144 36.9446 556.27 36.6065L556.453 36.0994L553.659 28.3636H555.25L557.184 34.2898H557.264L559.198 28.3636H560.794L557.647 37.0192C557.501 37.4169 557.315 37.7533 557.09 38.0284C556.864 38.3068 556.596 38.5156 556.284 38.6548C555.973 38.794 555.612 38.8636 555.201 38.8636Z" fill="#667085"/>
<path d="M534.164 62V60.0057L538.823 55.6911C539.22 55.3075 539.552 54.9624 539.821 54.6555C540.093 54.3487 540.3 54.0483 540.441 53.7543C540.581 53.456 540.652 53.1342 540.652 52.7891C540.652 52.4055 540.564 52.0753 540.389 51.7983C540.215 51.517 539.976 51.3018 539.674 51.1527C539.371 50.9993 539.028 50.9226 538.644 50.9226C538.244 50.9226 537.894 51.0036 537.596 51.1655C537.298 51.3274 537.068 51.5597 536.906 51.8622C536.744 52.1648 536.663 52.5249 536.663 52.9425H534.036C534.036 52.0859 534.23 51.3423 534.617 50.7116C535.005 50.081 535.549 49.593 536.247 49.2479C536.946 48.9027 537.752 48.7301 538.664 48.7301C539.601 48.7301 540.417 48.8963 541.112 49.2287C541.811 49.5568 542.354 50.0128 542.742 50.5966C543.13 51.1804 543.323 51.8494 543.323 52.6037C543.323 53.098 543.225 53.5859 543.029 54.0675C542.838 54.549 542.495 55.0838 542 55.6719C541.506 56.2557 540.809 56.9567 539.91 57.7749L537.999 59.6477V59.7372H543.496V62H534.164ZM545.502 62V60.0057L550.161 55.6911C550.558 55.3075 550.89 54.9624 551.158 54.6555C551.431 54.3487 551.638 54.0483 551.778 53.7543C551.919 53.456 551.989 53.1342 551.989 52.7891C551.989 52.4055 551.902 52.0753 551.727 51.7983C551.553 51.517 551.314 51.3018 551.011 51.1527C550.709 50.9993 550.366 50.9226 549.982 50.9226C549.582 50.9226 549.232 51.0036 548.934 51.1655C548.636 51.3274 548.406 51.5597 548.244 51.8622C548.082 52.1648 548.001 52.5249 548.001 52.9425H545.374C545.374 52.0859 545.568 51.3423 545.955 50.7116C546.343 50.081 546.886 49.593 547.585 49.2479C548.284 48.9027 549.09 48.7301 550.002 48.7301C550.939 48.7301 551.755 48.8963 552.45 49.2287C553.149 49.5568 553.692 50.0128 554.08 50.5966C554.467 51.1804 554.661 51.8494 554.661 52.6037C554.661 53.098 554.563 53.5859 554.367 54.0675C554.176 54.549 553.832 55.0838 553.338 55.6719C552.844 56.2557 552.147 56.9567 551.248 57.7749L549.337 59.6477V59.7372H554.834V62H545.502ZM561.972 62.2876C560.873 62.2834 559.927 62.0128 559.134 61.4759C558.346 60.9389 557.739 60.1612 557.312 59.1428C556.891 58.1243 556.682 56.8991 556.686 55.4673C556.686 54.0398 556.897 52.8232 557.319 51.8175C557.745 50.8118 558.352 50.0469 559.141 49.5227C559.933 48.9943 560.877 48.7301 561.972 48.7301C563.067 48.7301 564.009 48.9943 564.797 49.5227C565.59 50.0511 566.199 50.8182 566.626 51.8239C567.052 52.8253 567.263 54.0398 567.258 55.4673C567.258 56.9034 567.045 58.1307 566.619 59.1491C566.197 60.1676 565.592 60.9453 564.804 61.4822C564.016 62.0192 563.072 62.2876 561.972 62.2876ZM561.972 59.9929C562.722 59.9929 563.321 59.6158 563.768 58.8615C564.216 58.1072 564.437 56.9759 564.433 55.4673C564.433 54.4744 564.331 53.6477 564.126 52.9872C563.926 52.3267 563.641 51.8303 563.27 51.4979C562.903 51.1655 562.471 50.9993 561.972 50.9993C561.226 50.9993 560.63 51.3722 560.182 52.1179C559.735 52.8636 559.509 53.9801 559.505 55.4673C559.505 56.473 559.605 57.3125 559.805 57.9858C560.01 58.6548 560.297 59.1577 560.668 59.4943C561.039 59.8267 561.474 59.9929 561.972 59.9929ZM571.69 60.2102L571.619 60.9134C571.564 61.4759 571.457 62.0362 571.3 62.5945C571.146 63.157 570.984 63.6662 570.814 64.1222C570.648 64.5781 570.514 64.9361 570.411 65.196H568.647C568.711 64.9446 568.798 64.593 568.909 64.1413C569.02 63.6939 569.124 63.1911 569.222 62.6328C569.32 62.0746 569.382 61.5057 569.408 60.9261L569.44 60.2102H571.69ZM578.571 62.179C577.616 62.179 576.766 62.0149 576.02 61.6868C575.279 61.3544 574.693 60.8984 574.263 60.3189C573.836 59.7351 573.617 59.0618 573.604 58.299H576.391C576.408 58.6186 576.513 58.8999 576.704 59.1428C576.9 59.3814 577.16 59.5668 577.484 59.6989C577.808 59.831 578.172 59.897 578.577 59.897C578.999 59.897 579.372 59.8224 579.696 59.6733C580.02 59.5241 580.273 59.3175 580.456 59.0533C580.64 58.7891 580.731 58.4844 580.731 58.1392C580.731 57.7898 580.633 57.4808 580.437 57.2124C580.245 56.9396 579.968 56.7266 579.606 56.5732C579.248 56.4197 578.822 56.343 578.328 56.343H577.107V54.3104H578.328C578.745 54.3104 579.114 54.2379 579.434 54.093C579.758 53.9482 580.009 53.7479 580.188 53.4922C580.367 53.2322 580.456 52.9297 580.456 52.5845C580.456 52.2564 580.378 51.9688 580.22 51.7216C580.066 51.4702 579.849 51.2741 579.568 51.1335C579.291 50.9929 578.967 50.9226 578.596 50.9226C578.221 50.9226 577.878 50.9908 577.567 51.1271C577.256 51.2592 577.007 51.4489 576.819 51.696C576.632 51.9432 576.532 52.233 576.519 52.5653H573.866C573.879 51.8111 574.094 51.1463 574.512 50.571C574.929 49.9957 575.492 49.5462 576.199 49.2223C576.911 48.8942 577.714 48.7301 578.609 48.7301C579.513 48.7301 580.303 48.8942 580.981 49.2223C581.658 49.5504 582.184 49.9936 582.559 50.5518C582.939 51.1058 583.126 51.728 583.122 52.4183C583.126 53.1513 582.898 53.7628 582.438 54.2528C581.982 54.7429 581.388 55.054 580.655 55.1861V55.2884C581.618 55.4119 582.351 55.7464 582.853 56.2919C583.361 56.8331 583.612 57.5107 583.608 58.3246C583.612 59.0703 583.397 59.733 582.962 60.3125C582.532 60.892 581.937 61.348 581.179 61.6804C580.42 62.0128 579.551 62.179 578.571 62.179ZM585.399 59.6989V57.5192L590.864 48.9091H592.744V51.9261H591.631L588.186 57.3786V57.4808H595.952V59.6989H585.399ZM591.682 62V59.0341L591.734 58.0689V48.9091H594.329V62H591.682ZM597.796 62V60.0057L602.456 55.6911C602.853 55.3075 603.185 54.9624 603.453 54.6555C603.726 54.3487 603.933 54.0483 604.073 53.7543C604.214 53.456 604.284 53.1342 604.284 52.7891C604.284 52.4055 604.197 52.0753 604.022 51.7983C603.848 51.517 603.609 51.3018 603.306 51.1527C603.004 50.9993 602.661 50.9226 602.277 50.9226C601.877 50.9226 601.527 51.0036 601.229 51.1655C600.931 51.3274 600.701 51.5597 600.539 51.8622C600.377 52.1648 600.296 52.5249 600.296 52.9425H597.669C597.669 52.0859 597.862 51.3423 598.25 50.7116C598.638 50.081 599.181 49.593 599.88 49.2479C600.579 48.9027 601.384 48.7301 602.296 48.7301C603.234 48.7301 604.05 48.8963 604.745 49.2287C605.443 49.5568 605.987 50.0128 606.375 50.5966C606.762 51.1804 606.956 51.8494 606.956 52.6037C606.956 53.098 606.858 53.5859 606.662 54.0675C606.47 54.549 606.127 55.0838 605.633 55.6719C605.139 56.2557 604.442 56.9567 603.543 57.7749L601.632 59.6477V59.7372H607.129V62H597.796ZM612.119 60.2102L612.049 60.9134C611.994 61.4759 611.887 62.0362 611.729 62.5945C611.576 63.157 611.414 63.6662 611.244 64.1222C611.078 64.5781 610.943 64.9361 610.841 65.196H609.077C609.141 64.9446 609.228 64.593 609.339 64.1413C609.45 63.6939 609.554 63.1911 609.652 62.6328C609.75 62.0746 609.812 61.5057 609.837 60.9261L609.869 60.2102H612.119ZM618.644 48.9091V62H615.876V51.5362H615.8L612.802 53.4155V50.9609L616.043 48.9091H618.644ZM621.755 62V60.0057L626.415 55.6911C626.812 55.3075 627.144 54.9624 627.412 54.6555C627.685 54.3487 627.892 54.0483 628.032 53.7543C628.173 53.456 628.243 53.1342 628.243 52.7891C628.243 52.4055 628.156 52.0753 627.981 51.7983C627.807 51.517 627.568 51.3018 627.265 51.1527C626.963 50.9993 626.62 50.9226 626.236 50.9226C625.836 50.9226 625.486 51.0036 625.188 51.1655C624.89 51.3274 624.66 51.5597 624.498 51.8622C624.336 52.1648 624.255 52.5249 624.255 52.9425H621.628C621.628 52.0859 621.821 51.3423 622.209 50.7116C622.597 50.081 623.14 49.593 623.839 49.2479C624.538 48.9027 625.343 48.7301 626.255 48.7301C627.193 48.7301 628.009 48.8963 628.704 49.2287C629.402 49.5568 629.946 50.0128 630.334 50.5966C630.721 51.1804 630.915 51.8494 630.915 52.6037C630.915 53.098 630.817 53.5859 630.621 54.0675C630.429 54.549 630.086 55.0838 629.592 55.6719C629.098 56.2557 628.401 56.9567 627.502 57.7749L625.591 59.6477V59.7372H631.088V62H621.755ZM637.932 62.179C636.978 62.179 636.127 62.0149 635.382 61.6868C634.64 61.3544 634.054 60.8984 633.624 60.3189C633.198 59.7351 632.978 59.0618 632.965 58.299H635.752C635.769 58.6186 635.874 58.8999 636.066 59.1428C636.262 59.3814 636.522 59.5668 636.845 59.6989C637.169 59.831 637.534 59.897 637.938 59.897C638.36 59.897 638.733 59.8224 639.057 59.6733C639.381 59.5241 639.634 59.3175 639.818 59.0533C640.001 58.7891 640.093 58.4844 640.093 58.1392C640.093 57.7898 639.995 57.4808 639.799 57.2124C639.607 56.9396 639.33 56.7266 638.968 56.5732C638.61 56.4197 638.184 56.343 637.689 56.343H636.468V54.3104H637.689C638.107 54.3104 638.475 54.2379 638.795 54.093C639.119 53.9482 639.37 53.7479 639.549 53.4922C639.728 53.2322 639.818 52.9297 639.818 52.5845C639.818 52.2564 639.739 51.9688 639.581 51.7216C639.428 51.4702 639.21 51.2741 638.929 51.1335C638.652 50.9929 638.328 50.9226 637.958 50.9226C637.583 50.9226 637.24 50.9908 636.929 51.1271C636.617 51.2592 636.368 51.4489 636.181 51.696C635.993 51.9432 635.893 52.233 635.88 52.5653H633.228C633.24 51.8111 633.456 51.1463 633.873 50.571C634.291 49.9957 634.853 49.5462 635.561 49.2223C636.272 48.8942 637.076 48.7301 637.97 48.7301C638.874 48.7301 639.664 48.8942 640.342 49.2223C641.019 49.5504 641.546 49.9936 641.921 50.5518C642.3 51.1058 642.487 51.728 642.483 52.4183C642.487 53.1513 642.259 53.7628 641.799 54.2528C641.343 54.7429 640.749 55.054 640.016 55.1861V55.2884C640.979 55.4119 641.712 55.7464 642.215 56.2919C642.722 56.8331 642.973 57.5107 642.969 58.3246C642.973 59.0703 642.758 59.733 642.323 60.3125C641.893 60.892 641.299 61.348 640.54 61.6804C639.782 62.0128 638.912 62.179 637.932 62.179Z" fill="black"/>
<path d="M534.057 73.2727H535.318L538.284 80.517H538.386L541.352 73.2727H542.614V82H541.625V75.3693H541.54L538.812 82H537.858L535.131 75.3693H535.045V82H534.057V73.2727ZM546.522 82.1534C546.108 82.1534 545.731 82.0753 545.393 81.919C545.055 81.7599 544.787 81.5312 544.588 81.233C544.389 80.9318 544.289 80.5682 544.289 80.142C544.289 79.767 544.363 79.4631 544.511 79.2301C544.659 78.9943 544.856 78.8097 545.103 78.6761C545.35 78.5426 545.623 78.4432 545.922 78.3778C546.223 78.3097 546.525 78.2557 546.829 78.2159C547.227 78.1648 547.549 78.1264 547.797 78.1009C548.047 78.0724 548.228 78.0256 548.342 77.9602C548.458 77.8949 548.517 77.7812 548.517 77.6193V77.5852C548.517 77.1648 548.402 76.8381 548.172 76.6051C547.944 76.3722 547.599 76.2557 547.136 76.2557C546.656 76.2557 546.279 76.3608 546.007 76.571C545.734 76.7812 545.542 77.0057 545.431 77.2443L544.477 76.9034C544.647 76.5057 544.875 76.196 545.159 75.9744C545.446 75.75 545.758 75.5937 546.096 75.5057C546.437 75.4148 546.772 75.3693 547.102 75.3693C547.312 75.3693 547.554 75.3949 547.826 75.446C548.102 75.4943 548.368 75.5952 548.623 75.7486C548.882 75.902 549.096 76.1335 549.267 76.4432C549.437 76.7528 549.522 77.1676 549.522 77.6875V82H548.517V81.1136H548.466C548.397 81.2557 548.284 81.4077 548.125 81.5696C547.966 81.7315 547.754 81.8693 547.49 81.983C547.225 82.0966 546.903 82.1534 546.522 82.1534ZM546.676 81.25C547.074 81.25 547.409 81.1719 547.681 81.0156C547.957 80.8594 548.164 80.6577 548.304 80.4105C548.446 80.1634 548.517 79.9034 548.517 79.6307V78.7102C548.474 78.7614 548.38 78.8082 548.235 78.8509C548.093 78.8906 547.929 78.9261 547.741 78.9574C547.556 78.9858 547.376 79.0114 547.2 79.0341C547.027 79.054 546.886 79.071 546.778 79.0852C546.517 79.1193 546.272 79.1747 546.045 79.2514C545.821 79.3253 545.639 79.4375 545.5 79.5881C545.363 79.7358 545.295 79.9375 545.295 80.1932C545.295 80.5426 545.424 80.8068 545.683 80.9858C545.944 81.1619 546.275 81.25 546.676 81.25ZM551.771 84.4545C551.601 84.4545 551.449 84.4403 551.315 84.4119C551.182 84.3864 551.089 84.3608 551.038 84.3352L551.294 83.4489C551.538 83.5114 551.754 83.5341 551.942 83.517C552.129 83.5 552.295 83.4162 552.44 83.2656C552.588 83.1179 552.723 82.8778 552.845 82.5455L553.033 82.0341L550.612 75.4545H551.703L553.51 80.6705H553.578L555.385 75.4545H556.476L553.697 82.9545C553.572 83.2926 553.418 83.5724 553.233 83.794C553.048 84.0185 552.834 84.1847 552.589 84.2926C552.348 84.4006 552.075 84.4545 551.771 84.4545Z" fill="#667085"/>
<g filter="url(#filter1_dd_287_21445)">
<rect x="376.789" y="91.666" width="15.7895" height="17.5" rx="7.89474" fill="#1570EF"/>
<rect x="378.789" y="93.666" width="11.7895" height="13.5" rx="5.89474" stroke="white" stroke-width="4"/>
</g>
<defs>
<filter id="filter0_dd_287_21445" x="309.631" y="3.66602" width="150.736" height="109.5" filterUnits="userSpaceOnUse" color-interpolation-filters="sRGB">
<feFlood flood-opacity="0" result="BackgroundImageFix"/>
<feColorMatrix in="SourceAlpha" type="matrix" values="0 0 0 0 0 0 0 0 0 0 0 0 0 0 0 0 0 0 127 0" result="hardAlpha"/>
<feOffset dy="8"/>
<feGaussianBlur stdDeviation="8"/>
<feColorMatrix type="matrix" values="0 0 0 0 0.196487 0 0 0 0 0.196487 0 0 0 0 0.279476 0 0 0 0.06 0"/>
<feBlend mode="multiply" in2="BackgroundImageFix" result="effect1_dropShadow_287_21445"/>
<feColorMatrix in="SourceAlpha" type="matrix" values="0 0 0 0 0 0 0 0 0 0 0 0 0 0 0 0 0 0 127 0" result="hardAlpha"/>
<feOffset dy="8"/>
<feGaussianBlur stdDeviation="4"/>
<feColorMatrix type="matrix" values="0 0 0 0 0.196487 0 0 0 0 0.196487 0 0 0 0 0.279476 0 0 0 0.08 0"/>
<feBlend mode="multiply" in2="effect1_dropShadow_287_21445" result="effect2_dropShadow_287_21445"/>
<feBlend mode="normal" in="SourceGraphic" in2="effect2_dropShadow_287_21445" result="shape"/>
</filter>
<filter id="filter1_dd_287_21445" x="368.789" y="83.666" width="31.7891" height="35.5" filterUnits="userSpaceOnUse" color-interpolation-filters="sRGB">
<feFlood flood-opacity="0" result="BackgroundImageFix"/>
<feColorMatrix in="SourceAlpha" type="matrix" values="0 0 0 0 0 0 0 0 0 0 0 0 0 0 0 0 0 0 127 0" result="hardAlpha"/>
<feOffset dy="-2"/>
<feGaussianBlur stdDeviation="3"/>
<feColorMatrix type="matrix" values="0 0 0 0 1 0 0 0 0 1 0 0 0 0 1 0 0 0 0.03 0"/>
<feBlend mode="normal" in2="BackgroundImageFix" result="effect1_dropShadow_287_21445"/>
<feColorMatrix in="SourceAlpha" type="matrix" values="0 0 0 0 0 0 0 0 0 0 0 0 0 0 0 0 0 0 127 0" result="hardAlpha"/>
<feOffset dy="2"/>
<feGaussianBlur stdDeviation="4"/>
<feColorMatrix type="matrix" values="0 0 0 0 0.292917 0 0 0 0 0.303678 0 0 0 0 0.316667 0 0 0 0.08 0"/>
<feBlend mode="normal" in2="effect1_dropShadow_287_21445" result="effect2_dropShadow_287_21445"/>
<feBlend mode="normal" in="SourceGraphic" in2="effect2_dropShadow_287_21445" result="shape"/>
</filter>
<linearGradient id="paint0_linear_287_21445" x1="385" y1="22.916" x2="385" y2="169.184" gradientUnits="userSpaceOnUse">
<stop stop-color="#7F56D9"/>
<stop offset="1" stop-color="#7F56D9" stop-opacity="0"/>
</linearGradient>
</defs>
</svg>
