<svg width="298" height="152" viewBox="0 0 298 152" fill="none" xmlns="http://www.w3.org/2000/svg">
<line x1="203.24" y1="12.7244" x2="207.5" y2="1.01986" stroke="white" stroke-width="2"/>
<line x1="229.864" y1="12.1777" x2="236.092" y2="1.39079" stroke="white" stroke-width="2"/>
<line x1="256.656" y1="11.6453" x2="264.662" y2="2.10368" stroke="white" stroke-width="2"/>
<line x1="283.65" y1="10.7437" x2="293.192" y2="2.73735" stroke="white" stroke-width="2"/>
<line x1="17.7088" y1="12.2758" x2="8.16716" y2="4.26944" stroke="white" stroke-width="2"/>
<line x1="44.4605" y1="12.9309" x2="36.4542" y2="3.38926" stroke="white" stroke-width="2"/>
<line x1="71.0519" y1="13.1777" x2="64.8241" y2="2.39079" stroke="white" stroke-width="2"/>
<line x1="97.5291" y1="13.4084" x2="93.269" y2="1.7039" stroke="white" stroke-width="2"/>
<line x1="123.937" y1="13.6297" x2="121.774" y2="1.36324" stroke="white" stroke-width="2"/>
<line x1="150.324" y1="13.4561" x2="150.324" y2="1.00036" stroke="white" stroke-width="2"/>
<line x1="176.742" y1="13.2824" x2="178.905" y2="1.01594" stroke="white" stroke-width="2"/>
<line x1="175.217" y1="34.5222" x2="179.477" y2="22.8177" stroke="white" stroke-width="2"/>
<line x1="201.837" y1="33.9746" x2="208.065" y2="23.1877" stroke="white" stroke-width="2"/>
<line x1="228.628" y1="33.4431" x2="236.635" y2="23.9015" stroke="white" stroke-width="2"/>
<line x1="255.627" y1="32.5416" x2="265.168" y2="24.5352" stroke="white" stroke-width="2"/>
<line x1="282.859" y1="31.2736" x2="293.646" y2="25.0458" stroke="white" stroke-width="2"/>
<line x1="16.4371" y1="34.7287" x2="8.43071" y2="25.1871" stroke="white" stroke-width="2"/>
<line x1="43.0285" y1="34.9746" x2="36.8007" y2="24.1877" stroke="white" stroke-width="2"/>
<line x1="69.5017" y1="35.2063" x2="65.2416" y2="23.5018" stroke="white" stroke-width="2"/>
<line x1="95.9097" y1="35.4266" x2="93.7468" y2="23.1601" stroke="white" stroke-width="2"/>
<line x1="122.297" y1="35.2529" x2="122.297" y2="22.7972" stroke="white" stroke-width="2"/>
<line x1="148.718" y1="35.0793" x2="150.881" y2="22.8128" stroke="white" stroke-width="2"/>
<line x1="147.189" y1="56.3201" x2="151.449" y2="44.6156" stroke="white" stroke-width="2"/>
<line x1="173.814" y1="55.7725" x2="180.042" y2="44.9855" stroke="white" stroke-width="2"/>
<line x1="200.605" y1="55.24" x2="208.611" y2="45.6984" stroke="white" stroke-width="2"/>
<line x1="227.603" y1="54.3384" x2="237.145" y2="46.3321" stroke="white" stroke-width="2"/>
<line x1="254.836" y1="53.0705" x2="265.623" y2="46.8427" stroke="white" stroke-width="2"/>
<line x1="282.33" y1="52.2185" x2="294.034" y2="47.9584" stroke="white" stroke-width="2"/>
<line x1="15.0012" y1="56.7725" x2="8.77331" y2="45.9855" stroke="white" stroke-width="2"/>
<line x1="41.4783" y1="57.0041" x2="37.2182" y2="45.2996" stroke="white" stroke-width="2"/>
<line x1="67.8863" y1="57.2244" x2="65.7234" y2="44.958" stroke="white" stroke-width="2"/>
<line x1="94.2734" y1="57.0508" x2="94.2734" y2="44.5951" stroke="white" stroke-width="2"/>
<line x1="120.691" y1="56.8771" x2="122.854" y2="44.6107" stroke="white" stroke-width="2"/>
<line x1="119.166" y1="78.117" x2="123.426" y2="66.4124" stroke="white" stroke-width="2"/>
<line x1="145.786" y1="77.5703" x2="152.014" y2="66.7834" stroke="white" stroke-width="2"/>
<line x1="172.578" y1="77.0379" x2="180.584" y2="67.4963" stroke="white" stroke-width="2"/>
<line x1="199.576" y1="76.1363" x2="209.118" y2="68.1299" stroke="white" stroke-width="2"/>
<line x1="226.812" y1="74.8683" x2="237.599" y2="68.6405" stroke="white" stroke-width="2"/>
<line x1="254.306" y1="74.0164" x2="266.011" y2="69.7563" stroke="white" stroke-width="2"/>
<line x1="282.08" y1="72.8033" x2="294.347" y2="70.6404" stroke="white" stroke-width="2"/>
<line x1="13.4509" y1="78.801" x2="9.19083" y2="67.0965" stroke="white" stroke-width="2"/>
<line x1="39.8589" y1="79.0223" x2="37.696" y2="66.7558" stroke="white" stroke-width="2"/>
<line x1="66.2461" y1="78.8486" x2="66.2461" y2="66.3929" stroke="white" stroke-width="2"/>
<line x1="92.6675" y1="78.675" x2="94.8304" y2="66.4085" stroke="white" stroke-width="2"/>
<line x1="91.1384" y1="99.9148" x2="95.3985" y2="88.2103" stroke="white" stroke-width="2"/>
<line x1="117.763" y1="99.3672" x2="123.991" y2="88.5802" stroke="white" stroke-width="2"/>
<line x1="144.554" y1="98.8357" x2="152.561" y2="89.2941" stroke="white" stroke-width="2"/>
<line x1="171.553" y1="97.9332" x2="181.094" y2="89.9268" stroke="white" stroke-width="2"/>
<line x1="198.785" y1="96.6662" x2="209.572" y2="90.4384" stroke="white" stroke-width="2"/>
<line x1="226.279" y1="95.8132" x2="237.984" y2="91.5531" stroke="white" stroke-width="2"/>
<line x1="254.053" y1="94.6011" x2="266.319" y2="92.4382" stroke="white" stroke-width="2"/>
<line x1="11.8355" y1="100.819" x2="9.6726" y2="88.5527" stroke="white" stroke-width="2"/>
<line x1="38.2227" y1="100.646" x2="38.2227" y2="88.1898" stroke="white" stroke-width="2"/>
<line x1="64.6402" y1="100.472" x2="66.8031" y2="88.2054" stroke="white" stroke-width="2"/>
<line x1="297.68" y1="95.418" x2="285.224" y2="95.418" stroke="white" stroke-width="2"/>
<line x1="63.115" y1="121.712" x2="67.3751" y2="110.007" stroke="white" stroke-width="2"/>
<line x1="89.7355" y1="121.165" x2="95.9634" y2="110.378" stroke="white" stroke-width="2"/>
<line x1="116.527" y1="120.633" x2="124.533" y2="111.091" stroke="white" stroke-width="2"/>
<line x1="143.525" y1="119.731" x2="153.067" y2="111.725" stroke="white" stroke-width="2"/>
<line x1="170.762" y1="118.463" x2="181.549" y2="112.235" stroke="white" stroke-width="2"/>
<line x1="198.256" y1="117.611" x2="209.96" y2="113.351" stroke="white" stroke-width="2"/>
<line x1="226.029" y1="116.398" x2="238.296" y2="114.235" stroke="white" stroke-width="2"/>
<line x1="10.1953" y1="122.443" x2="10.1953" y2="109.988" stroke="white" stroke-width="2"/>
<line x1="36.6168" y1="122.27" x2="38.7797" y2="110.003" stroke="white" stroke-width="2"/>
<line x1="269.652" y1="117.216" x2="257.197" y2="117.216" stroke="white" stroke-width="2"/>
<line x1="297.365" y1="118.368" x2="285.099" y2="116.205" stroke="white" stroke-width="2"/>
<line x1="35.0877" y1="143.51" x2="39.3478" y2="131.805" stroke="white" stroke-width="2"/>
<line x1="61.7121" y1="142.962" x2="67.9399" y2="132.175" stroke="white" stroke-width="2"/>
<line x1="88.5035" y1="142.43" x2="96.5099" y2="132.889" stroke="white" stroke-width="2"/>
<line x1="115.502" y1="141.529" x2="125.043" y2="133.523" stroke="white" stroke-width="2"/>
<line x1="142.734" y1="140.261" x2="153.521" y2="134.033" stroke="white" stroke-width="2"/>
<line x1="170.228" y1="139.409" x2="181.933" y2="135.149" stroke="white" stroke-width="2"/>
<line x1="198.002" y1="138.196" x2="210.269" y2="136.033" stroke="white" stroke-width="2"/>
<line x1="8.58941" y1="144.068" x2="10.7523" y2="131.801" stroke="white" stroke-width="2"/>
<line x1="241.629" y1="139.013" x2="229.173" y2="139.013" stroke="white" stroke-width="2"/>
<line x1="269.338" y1="140.165" x2="257.072" y2="138.003" stroke="white" stroke-width="2"/>
<line x1="296.775" y1="141.288" x2="285.071" y2="137.028" stroke="white" stroke-width="2"/>
</svg>
