<svg width="16" height="12" viewBox="0 0 16 12" fill="none" xmlns="http://www.w3.org/2000/svg">
<path d="M1.33398 7.66638L7.76214 10.8805C7.84959 10.9242 7.89332 10.9461 7.93919 10.9547C7.97981 10.9623 8.02149 10.9623 8.06212 10.9547C8.10798 10.9461 8.15171 10.9242 8.23917 10.8805L14.6673 7.66638M1.33398 4.33305L7.76214 1.11897C7.84959 1.07525 7.89332 1.05338 7.93919 1.04478C7.97981 1.03716 8.02149 1.03716 8.06212 1.04478C8.10798 1.05338 8.15171 1.07525 8.23917 1.11897L14.6673 4.33305L8.23917 7.54713C8.15171 7.59085 8.10798 7.61272 8.06212 7.62132C8.02149 7.62895 7.97981 7.62895 7.93919 7.62132C7.89332 7.61272 7.84959 7.59085 7.76214 7.54713L1.33398 4.33305Z" stroke="#344054" stroke-width="1.5" stroke-linecap="round" stroke-linejoin="round"/>
</svg>
