<svg width="1194" height="235" viewBox="0 0 1194 235" fill="none" xmlns="http://www.w3.org/2000/svg">
<circle cx="1020" cy="10" r="4" fill="#1570EF"/>
<path d="M1033.05 15V14.1051L1036.41 10.4261C1036.81 9.99526 1037.13 9.62074 1037.39 9.30256C1037.64 8.98106 1037.83 8.67945 1037.96 8.39773C1038.08 8.11269 1038.14 7.81439 1038.14 7.50284C1038.14 7.14489 1038.06 6.83499 1037.89 6.57315C1037.72 6.31132 1037.49 6.10914 1037.19 5.96662C1036.9 5.8241 1036.56 5.75284 1036.2 5.75284C1035.8 5.75284 1035.46 5.83404 1035.17 5.99645C1034.88 6.15554 1034.66 6.37926 1034.5 6.66761C1034.34 6.95597 1034.27 7.29403 1034.27 7.68182H1033.09C1033.09 7.08523 1033.23 6.56155 1033.51 6.1108C1033.78 5.66004 1034.16 5.30871 1034.63 5.05682C1035.11 4.80492 1035.64 4.67898 1036.24 4.67898C1036.83 4.67898 1037.36 4.80492 1037.82 5.05682C1038.28 5.30871 1038.64 5.64844 1038.91 6.07599C1039.17 6.50355 1039.3 6.97917 1039.3 7.50284C1039.3 7.87737 1039.23 8.24361 1039.09 8.60156C1038.96 8.9562 1038.73 9.35227 1038.4 9.78977C1038.07 10.224 1037.61 10.7543 1037.03 11.3807L1034.74 13.8267V13.9062H1039.48V15H1033.05ZM1044.85 15.1392C1044.1 15.1392 1043.46 14.9354 1042.94 14.5277C1042.41 14.1167 1042.01 13.5218 1041.73 12.7429C1041.45 11.9607 1041.31 11.0161 1041.31 9.90909C1041.31 8.80871 1041.45 7.86908 1041.73 7.0902C1042.01 6.308 1042.42 5.71141 1042.94 5.30043C1043.47 4.88613 1044.11 4.67898 1044.85 4.67898C1045.59 4.67898 1046.23 4.88613 1046.76 5.30043C1047.29 5.71141 1047.69 6.308 1047.97 7.0902C1048.25 7.86908 1048.39 8.80871 1048.39 9.90909C1048.39 11.0161 1048.25 11.9607 1047.97 12.7429C1047.7 13.5218 1047.29 14.1167 1046.77 14.5277C1046.24 14.9354 1045.6 15.1392 1044.85 15.1392ZM1044.85 14.0455C1045.59 14.0455 1046.17 13.6875 1046.58 12.9716C1046.99 12.2557 1047.2 11.2348 1047.2 9.90909C1047.2 9.02746 1047.1 8.27675 1046.91 7.65696C1046.73 7.03717 1046.46 6.56487 1046.11 6.24006C1045.76 5.91525 1045.34 5.75284 1044.85 5.75284C1044.12 5.75284 1043.54 6.11577 1043.13 6.84162C1042.71 7.56416 1042.5 8.58665 1042.5 9.90909C1042.5 10.7907 1042.6 11.5398 1042.78 12.1562C1042.97 12.7727 1043.24 13.2417 1043.58 13.5632C1043.94 13.8847 1044.36 14.0455 1044.85 14.0455ZM1050.28 15V14.1051L1053.64 10.4261C1054.04 9.99526 1054.36 9.62074 1054.62 9.30256C1054.87 8.98106 1055.06 8.67945 1055.18 8.39773C1055.31 8.11269 1055.37 7.81439 1055.37 7.50284C1055.37 7.14489 1055.29 6.83499 1055.11 6.57315C1054.94 6.31132 1054.71 6.10914 1054.42 5.96662C1054.12 5.8241 1053.79 5.75284 1053.42 5.75284C1053.03 5.75284 1052.69 5.83404 1052.4 5.99645C1052.11 6.15554 1051.89 6.37926 1051.73 6.66761C1051.57 6.95597 1051.49 7.29403 1051.49 7.68182H1050.32C1050.32 7.08523 1050.46 6.56155 1050.73 6.1108C1051.01 5.66004 1051.38 5.30871 1051.86 5.05682C1052.33 4.80492 1052.87 4.67898 1053.46 4.67898C1054.06 4.67898 1054.59 4.80492 1055.05 5.05682C1055.51 5.30871 1055.87 5.64844 1056.13 6.07599C1056.39 6.50355 1056.52 6.97917 1056.52 7.50284C1056.52 7.87737 1056.46 8.24361 1056.32 8.60156C1056.19 8.9562 1055.96 9.35227 1055.62 9.78977C1055.3 10.224 1054.84 10.7543 1054.26 11.3807L1051.97 13.8267V13.9062H1056.7V15H1050.28ZM1058.76 15V14.1051L1062.12 10.4261C1062.51 9.99526 1062.84 9.62074 1063.09 9.30256C1063.35 8.98106 1063.54 8.67945 1063.66 8.39773C1063.79 8.11269 1063.85 7.81439 1063.85 7.50284C1063.85 7.14489 1063.76 6.83499 1063.59 6.57315C1063.42 6.31132 1063.19 6.10914 1062.89 5.96662C1062.6 5.8241 1062.27 5.75284 1061.9 5.75284C1061.51 5.75284 1061.17 5.83404 1060.88 5.99645C1060.59 6.15554 1060.36 6.37926 1060.2 6.66761C1060.05 6.95597 1059.97 7.29403 1059.97 7.68182H1058.8C1058.8 7.08523 1058.93 6.56155 1059.21 6.1108C1059.48 5.66004 1059.86 5.30871 1060.33 5.05682C1060.81 4.80492 1061.35 4.67898 1061.94 4.67898C1062.54 4.67898 1063.06 4.80492 1063.52 5.05682C1063.99 5.30871 1064.35 5.64844 1064.61 6.07599C1064.87 6.50355 1065 6.97917 1065 7.50284C1065 7.87737 1064.93 8.24361 1064.8 8.60156C1064.67 8.9562 1064.43 9.35227 1064.1 9.78977C1063.77 10.224 1063.32 10.7543 1062.73 11.3807L1060.45 13.8267V13.9062H1065.18V15H1058.76Z" fill="#667085"/>
<circle cx="1084" cy="10" r="4" fill="#53B1FD"/>
<path d="M1097.05 15V14.1051L1100.41 10.4261C1100.81 9.99526 1101.13 9.62074 1101.39 9.30256C1101.64 8.98106 1101.83 8.67945 1101.96 8.39773C1102.08 8.11269 1102.14 7.81439 1102.14 7.50284C1102.14 7.14489 1102.06 6.83499 1101.89 6.57315C1101.72 6.31132 1101.49 6.10914 1101.19 5.96662C1100.9 5.8241 1100.56 5.75284 1100.2 5.75284C1099.8 5.75284 1099.46 5.83404 1099.17 5.99645C1098.88 6.15554 1098.66 6.37926 1098.5 6.66761C1098.34 6.95597 1098.27 7.29403 1098.27 7.68182H1097.09C1097.09 7.08523 1097.23 6.56155 1097.51 6.1108C1097.78 5.66004 1098.16 5.30871 1098.63 5.05682C1099.11 4.80492 1099.64 4.67898 1100.24 4.67898C1100.83 4.67898 1101.36 4.80492 1101.82 5.05682C1102.28 5.30871 1102.64 5.64844 1102.91 6.07599C1103.17 6.50355 1103.3 6.97917 1103.3 7.50284C1103.3 7.87737 1103.23 8.24361 1103.09 8.60156C1102.96 8.9562 1102.73 9.35227 1102.4 9.78977C1102.07 10.224 1101.61 10.7543 1101.03 11.3807L1098.74 13.8267V13.9062H1103.48V15H1097.05ZM1108.85 15.1392C1108.1 15.1392 1107.46 14.9354 1106.94 14.5277C1106.41 14.1167 1106.01 13.5218 1105.73 12.7429C1105.45 11.9607 1105.31 11.0161 1105.31 9.90909C1105.31 8.80871 1105.45 7.86908 1105.73 7.0902C1106.01 6.308 1106.42 5.71141 1106.94 5.30043C1107.47 4.88613 1108.11 4.67898 1108.85 4.67898C1109.59 4.67898 1110.23 4.88613 1110.76 5.30043C1111.29 5.71141 1111.69 6.308 1111.97 7.0902C1112.25 7.86908 1112.39 8.80871 1112.39 9.90909C1112.39 11.0161 1112.25 11.9607 1111.97 12.7429C1111.7 13.5218 1111.29 14.1167 1110.77 14.5277C1110.24 14.9354 1109.6 15.1392 1108.85 15.1392ZM1108.85 14.0455C1109.59 14.0455 1110.17 13.6875 1110.58 12.9716C1110.99 12.2557 1111.2 11.2348 1111.2 9.90909C1111.2 9.02746 1111.1 8.27675 1110.91 7.65696C1110.73 7.03717 1110.46 6.56487 1110.11 6.24006C1109.76 5.91525 1109.34 5.75284 1108.85 5.75284C1108.12 5.75284 1107.54 6.11577 1107.13 6.84162C1106.71 7.56416 1106.5 8.58665 1106.5 9.90909C1106.5 10.7907 1106.6 11.5398 1106.78 12.1562C1106.97 12.7727 1107.24 13.2417 1107.58 13.5632C1107.94 13.8847 1108.36 14.0455 1108.85 14.0455ZM1114.28 15V14.1051L1117.64 10.4261C1118.04 9.99526 1118.36 9.62074 1118.62 9.30256C1118.87 8.98106 1119.06 8.67945 1119.18 8.39773C1119.31 8.11269 1119.37 7.81439 1119.37 7.50284C1119.37 7.14489 1119.29 6.83499 1119.11 6.57315C1118.94 6.31132 1118.71 6.10914 1118.42 5.96662C1118.12 5.8241 1117.79 5.75284 1117.42 5.75284C1117.03 5.75284 1116.69 5.83404 1116.4 5.99645C1116.11 6.15554 1115.89 6.37926 1115.73 6.66761C1115.57 6.95597 1115.49 7.29403 1115.49 7.68182H1114.32C1114.32 7.08523 1114.46 6.56155 1114.73 6.1108C1115.01 5.66004 1115.38 5.30871 1115.86 5.05682C1116.33 4.80492 1116.87 4.67898 1117.46 4.67898C1118.06 4.67898 1118.59 4.80492 1119.05 5.05682C1119.51 5.30871 1119.87 5.64844 1120.13 6.07599C1120.39 6.50355 1120.52 6.97917 1120.52 7.50284C1120.52 7.87737 1120.46 8.24361 1120.32 8.60156C1120.19 8.9562 1119.96 9.35227 1119.62 9.78977C1119.3 10.224 1118.84 10.7543 1118.26 11.3807L1115.97 13.8267V13.9062H1120.7V15H1114.28ZM1126.34 4.81818V15H1125.1V6.1108H1125.04L1122.56 7.76136V6.50852L1125.1 4.81818H1126.34Z" fill="#667085"/>
<circle cx="1146" cy="10" r="4" fill="#1849A9"/>
<path d="M1159.05 15V14.1051L1162.41 10.4261C1162.81 9.99526 1163.13 9.62074 1163.39 9.30256C1163.64 8.98106 1163.83 8.67945 1163.96 8.39773C1164.08 8.11269 1164.14 7.81439 1164.14 7.50284C1164.14 7.14489 1164.06 6.83499 1163.89 6.57315C1163.72 6.31132 1163.49 6.10914 1163.19 5.96662C1162.9 5.8241 1162.56 5.75284 1162.2 5.75284C1161.8 5.75284 1161.46 5.83404 1161.17 5.99645C1160.88 6.15554 1160.66 6.37926 1160.5 6.66761C1160.34 6.95597 1160.27 7.29403 1160.27 7.68182H1159.09C1159.09 7.08523 1159.23 6.56155 1159.51 6.1108C1159.78 5.66004 1160.16 5.30871 1160.63 5.05682C1161.11 4.80492 1161.64 4.67898 1162.24 4.67898C1162.83 4.67898 1163.36 4.80492 1163.82 5.05682C1164.28 5.30871 1164.64 5.64844 1164.91 6.07599C1165.17 6.50355 1165.3 6.97917 1165.3 7.50284C1165.3 7.87737 1165.23 8.24361 1165.09 8.60156C1164.96 8.9562 1164.73 9.35227 1164.4 9.78977C1164.07 10.224 1163.61 10.7543 1163.03 11.3807L1160.74 13.8267V13.9062H1165.48V15H1159.05ZM1170.85 15.1392C1170.1 15.1392 1169.46 14.9354 1168.94 14.5277C1168.41 14.1167 1168.01 13.5218 1167.73 12.7429C1167.45 11.9607 1167.31 11.0161 1167.31 9.90909C1167.31 8.80871 1167.45 7.86908 1167.73 7.0902C1168.01 6.308 1168.42 5.71141 1168.94 5.30043C1169.47 4.88613 1170.11 4.67898 1170.85 4.67898C1171.59 4.67898 1172.23 4.88613 1172.76 5.30043C1173.29 5.71141 1173.69 6.308 1173.97 7.0902C1174.25 7.86908 1174.39 8.80871 1174.39 9.90909C1174.39 11.0161 1174.25 11.9607 1173.97 12.7429C1173.7 13.5218 1173.29 14.1167 1172.77 14.5277C1172.24 14.9354 1171.6 15.1392 1170.85 15.1392ZM1170.85 14.0455C1171.59 14.0455 1172.17 13.6875 1172.58 12.9716C1172.99 12.2557 1173.2 11.2348 1173.2 9.90909C1173.2 9.02746 1173.1 8.27675 1172.91 7.65696C1172.73 7.03717 1172.46 6.56487 1172.11 6.24006C1171.76 5.91525 1171.34 5.75284 1170.85 5.75284C1170.12 5.75284 1169.54 6.11577 1169.13 6.84162C1168.71 7.56416 1168.5 8.58665 1168.5 9.90909C1168.5 10.7907 1168.6 11.5398 1168.78 12.1562C1168.97 12.7727 1169.24 13.2417 1169.58 13.5632C1169.94 13.8847 1170.36 14.0455 1170.85 14.0455ZM1176.28 15V14.1051L1179.64 10.4261C1180.04 9.99526 1180.36 9.62074 1180.62 9.30256C1180.87 8.98106 1181.06 8.67945 1181.18 8.39773C1181.31 8.11269 1181.37 7.81439 1181.37 7.50284C1181.37 7.14489 1181.29 6.83499 1181.11 6.57315C1180.94 6.31132 1180.71 6.10914 1180.42 5.96662C1180.12 5.8241 1179.79 5.75284 1179.42 5.75284C1179.03 5.75284 1178.69 5.83404 1178.4 5.99645C1178.11 6.15554 1177.89 6.37926 1177.73 6.66761C1177.57 6.95597 1177.49 7.29403 1177.49 7.68182H1176.32C1176.32 7.08523 1176.46 6.56155 1176.73 6.1108C1177.01 5.66004 1177.38 5.30871 1177.86 5.05682C1178.33 4.80492 1178.87 4.67898 1179.46 4.67898C1180.06 4.67898 1180.59 4.80492 1181.05 5.05682C1181.51 5.30871 1181.87 5.64844 1182.13 6.07599C1182.39 6.50355 1182.52 6.97917 1182.52 7.50284C1182.52 7.87737 1182.46 8.24361 1182.32 8.60156C1182.19 8.9562 1181.96 9.35227 1181.62 9.78977C1181.3 10.224 1180.84 10.7543 1180.26 11.3807L1177.97 13.8267V13.9062H1182.7V15H1176.28ZM1188.08 15.1392C1187.33 15.1392 1186.69 14.9354 1186.16 14.5277C1185.64 14.1167 1185.23 13.5218 1184.96 12.7429C1184.68 11.9607 1184.54 11.0161 1184.54 9.90909C1184.54 8.80871 1184.68 7.86908 1184.96 7.0902C1185.24 6.308 1185.64 5.71141 1186.17 5.30043C1186.7 4.88613 1187.34 4.67898 1188.08 4.67898C1188.82 4.67898 1189.46 4.88613 1189.98 5.30043C1190.51 5.71141 1190.92 6.308 1191.2 7.0902C1191.48 7.86908 1191.62 8.80871 1191.62 9.90909C1191.62 11.0161 1191.48 11.9607 1191.2 12.7429C1190.92 13.5218 1190.52 14.1167 1189.99 14.5277C1189.47 14.9354 1188.83 15.1392 1188.08 15.1392ZM1188.08 14.0455C1188.82 14.0455 1189.4 13.6875 1189.81 12.9716C1190.22 12.2557 1190.42 11.2348 1190.42 9.90909C1190.42 9.02746 1190.33 8.27675 1190.14 7.65696C1189.96 7.03717 1189.69 6.56487 1189.34 6.24006C1188.99 5.91525 1188.57 5.75284 1188.08 5.75284C1187.34 5.75284 1186.77 6.11577 1186.35 6.84162C1185.94 7.56416 1185.73 8.58665 1185.73 9.90909C1185.73 10.7907 1185.82 11.5398 1186.01 12.1562C1186.2 12.7727 1186.46 13.2417 1186.81 13.5632C1187.16 13.8847 1187.58 14.0455 1188.08 14.0455Z" fill="#667085"/>
<line x1="1.5" y1="30.5" x2="1192.5" y2="30.5" stroke="#F2F4F7" stroke-linecap="round"/>
<line x1="1.5" y1="68" x2="1192.5" y2="68" stroke="#F2F4F7" stroke-linecap="round"/>
<line x1="1.5" y1="103" x2="1192.5" y2="103" stroke="#F2F4F7" stroke-linecap="round"/>
<line x1="1.5" y1="138" x2="1192.5" y2="138" stroke="#F2F4F7" stroke-linecap="round"/>
<line x1="1.5" y1="173" x2="1192.5" y2="173" stroke="#F2F4F7" stroke-linecap="round"/>
<line x1="1.5" y1="208" x2="1192.5" y2="208" stroke="#F2F4F7" stroke-linecap="round"/>
<path d="M29.3977 221.273H30.4545V227.511C30.4545 228.068 30.3523 228.541 30.1477 228.93C29.9432 229.32 29.6548 229.615 29.2827 229.817C28.9105 230.018 28.4716 230.119 27.9659 230.119C27.4886 230.119 27.0639 230.033 26.6918 229.859C26.3196 229.683 26.027 229.433 25.8139 229.109C25.6009 228.786 25.4943 228.401 25.4943 227.955H26.5341C26.5341 228.202 26.5952 228.418 26.7173 228.602C26.8423 228.784 27.0128 228.926 27.2287 229.028C27.4446 229.131 27.6903 229.182 27.9659 229.182C28.2699 229.182 28.5284 229.118 28.7415 228.99C28.9545 228.862 29.1165 228.675 29.2273 228.428C29.3409 228.178 29.3977 227.872 29.3977 227.511V221.273ZM34.3622 230.153C33.9474 230.153 33.571 230.075 33.233 229.919C32.8949 229.76 32.6264 229.531 32.4276 229.233C32.2287 228.932 32.1293 228.568 32.1293 228.142C32.1293 227.767 32.2031 227.463 32.3509 227.23C32.4986 226.994 32.696 226.81 32.9432 226.676C33.1903 226.543 33.4631 226.443 33.7614 226.378C34.0625 226.31 34.3651 226.256 34.669 226.216C35.0668 226.165 35.3892 226.126 35.6364 226.101C35.8864 226.072 36.0682 226.026 36.1818 225.96C36.2983 225.895 36.3565 225.781 36.3565 225.619V225.585C36.3565 225.165 36.2415 224.838 36.0114 224.605C35.7841 224.372 35.4389 224.256 34.9759 224.256C34.4957 224.256 34.1193 224.361 33.8466 224.571C33.5739 224.781 33.3821 225.006 33.2713 225.244L32.3168 224.903C32.4872 224.506 32.7145 224.196 32.9986 223.974C33.2855 223.75 33.598 223.594 33.9361 223.506C34.277 223.415 34.6122 223.369 34.9418 223.369C35.152 223.369 35.3935 223.395 35.6662 223.446C35.9418 223.494 36.2074 223.595 36.4631 223.749C36.7216 223.902 36.9361 224.134 37.1065 224.443C37.277 224.753 37.3622 225.168 37.3622 225.688V230H36.3565V229.114H36.3054C36.2372 229.256 36.1236 229.408 35.9645 229.57C35.8054 229.732 35.5938 229.869 35.3295 229.983C35.0653 230.097 34.7429 230.153 34.3622 230.153ZM34.5156 229.25C34.9134 229.25 35.2486 229.172 35.5213 229.016C35.7969 228.859 36.0043 228.658 36.1435 228.411C36.2855 228.163 36.3565 227.903 36.3565 227.631V226.71C36.3139 226.761 36.2202 226.808 36.0753 226.851C35.9332 226.891 35.7685 226.926 35.581 226.957C35.3963 226.986 35.2159 227.011 35.0398 227.034C34.8665 227.054 34.7259 227.071 34.6179 227.085C34.3565 227.119 34.1122 227.175 33.8849 227.251C33.6605 227.325 33.4787 227.437 33.3395 227.588C33.2031 227.736 33.1349 227.937 33.1349 228.193C33.1349 228.543 33.2642 228.807 33.5227 228.986C33.7841 229.162 34.1151 229.25 34.5156 229.25ZM40.2035 226.062V230H39.1978V223.455H40.1694V224.477H40.2546C40.408 224.145 40.641 223.878 40.9535 223.676C41.266 223.472 41.6694 223.369 42.1637 223.369C42.6069 223.369 42.9947 223.46 43.3271 223.642C43.6594 223.821 43.918 224.094 44.1026 224.46C44.2873 224.824 44.3796 225.284 44.3796 225.841V230H43.3739V225.909C43.3739 225.395 43.2404 224.994 42.9734 224.707C42.7063 224.418 42.3398 224.273 41.8739 224.273C41.5529 224.273 41.266 224.342 41.0131 224.482C40.7631 224.621 40.5657 224.824 40.4208 225.091C40.2759 225.358 40.2035 225.682 40.2035 226.062Z" fill="#667085"/>
<path d="M127.602 230V221.273H132.835V222.21H128.659V225.159H132.443V226.097H128.659V230H127.602ZM136.772 230.136C136.142 230.136 135.597 229.997 135.14 229.719C134.686 229.438 134.335 229.045 134.088 228.543C133.843 228.037 133.721 227.449 133.721 226.778C133.721 226.108 133.843 225.517 134.088 225.006C134.335 224.491 134.678 224.091 135.119 223.804C135.562 223.514 136.079 223.369 136.67 223.369C137.011 223.369 137.347 223.426 137.68 223.54C138.012 223.653 138.315 223.838 138.588 224.094C138.86 224.347 139.078 224.682 139.24 225.099C139.401 225.517 139.482 226.031 139.482 226.642V227.068H134.437V226.199H138.46C138.46 225.83 138.386 225.5 138.238 225.21C138.093 224.92 137.886 224.692 137.616 224.524C137.349 224.357 137.034 224.273 136.67 224.273C136.269 224.273 135.923 224.372 135.63 224.571C135.34 224.767 135.117 225.023 134.961 225.338C134.805 225.653 134.727 225.991 134.727 226.352V226.932C134.727 227.426 134.812 227.845 134.982 228.189C135.156 228.53 135.396 228.79 135.703 228.969C136.009 229.145 136.366 229.233 136.772 229.233C137.036 229.233 137.275 229.196 137.488 229.122C137.704 229.045 137.89 228.932 138.046 228.781C138.203 228.628 138.323 228.437 138.409 228.21L139.38 228.483C139.278 228.812 139.106 229.102 138.865 229.352C138.623 229.599 138.325 229.793 137.97 229.932C137.615 230.068 137.215 230.136 136.772 230.136ZM141.149 230V221.273H142.154V224.494H142.24C142.313 224.381 142.416 224.236 142.546 224.06C142.68 223.881 142.87 223.722 143.117 223.582C143.367 223.44 143.705 223.369 144.132 223.369C144.683 223.369 145.169 223.507 145.589 223.783C146.009 224.058 146.338 224.449 146.573 224.955C146.809 225.46 146.927 226.057 146.927 226.744C146.927 227.438 146.809 228.038 146.573 228.547C146.338 229.053 146.011 229.445 145.593 229.723C145.176 229.999 144.694 230.136 144.149 230.136C143.728 230.136 143.392 230.067 143.139 229.928C142.886 229.786 142.691 229.625 142.555 229.446C142.419 229.264 142.313 229.114 142.24 228.994H142.12V230H141.149ZM142.137 226.727C142.137 227.222 142.21 227.658 142.355 228.036C142.499 228.411 142.711 228.705 142.99 228.918C143.268 229.128 143.609 229.233 144.012 229.233C144.433 229.233 144.784 229.122 145.065 228.901C145.349 228.676 145.562 228.375 145.704 227.997C145.849 227.616 145.921 227.193 145.921 226.727C145.921 226.267 145.85 225.852 145.708 225.483C145.569 225.111 145.357 224.817 145.073 224.601C144.792 224.382 144.438 224.273 144.012 224.273C143.603 224.273 143.259 224.376 142.981 224.584C142.703 224.788 142.492 225.075 142.35 225.445C142.208 225.811 142.137 226.239 142.137 226.727Z" fill="#667085"/>
<path d="M229.149 221.273H230.41L233.376 228.517H233.478L236.444 221.273H237.705V230H236.717V223.369H236.632L233.904 230H232.95L230.222 223.369H230.137V230H229.149V221.273ZM241.614 230.153C241.199 230.153 240.823 230.075 240.485 229.919C240.147 229.76 239.878 229.531 239.68 229.233C239.481 228.932 239.381 228.568 239.381 228.142C239.381 227.767 239.455 227.463 239.603 227.23C239.751 226.994 239.948 226.81 240.195 226.676C240.442 226.543 240.715 226.443 241.013 226.378C241.314 226.31 241.617 226.256 241.921 226.216C242.319 226.165 242.641 226.126 242.888 226.101C243.138 226.072 243.32 226.026 243.434 225.96C243.55 225.895 243.608 225.781 243.608 225.619V225.585C243.608 225.165 243.493 224.838 243.263 224.605C243.036 224.372 242.691 224.256 242.228 224.256C241.748 224.256 241.371 224.361 241.099 224.571C240.826 224.781 240.634 225.006 240.523 225.244L239.569 224.903C239.739 224.506 239.966 224.196 240.251 223.974C240.537 223.75 240.85 223.594 241.188 223.506C241.529 223.415 241.864 223.369 242.194 223.369C242.404 223.369 242.645 223.395 242.918 223.446C243.194 223.494 243.459 223.595 243.715 223.749C243.974 223.902 244.188 224.134 244.358 224.443C244.529 224.753 244.614 225.168 244.614 225.688V230H243.608V229.114H243.557C243.489 229.256 243.376 229.408 243.216 229.57C243.057 229.732 242.846 229.869 242.581 229.983C242.317 230.097 241.995 230.153 241.614 230.153ZM241.768 229.25C242.165 229.25 242.501 229.172 242.773 229.016C243.049 228.859 243.256 228.658 243.395 228.411C243.537 228.163 243.608 227.903 243.608 227.631V226.71C243.566 226.761 243.472 226.808 243.327 226.851C243.185 226.891 243.02 226.926 242.833 226.957C242.648 226.986 242.468 227.011 242.292 227.034C242.118 227.054 241.978 227.071 241.87 227.085C241.608 227.119 241.364 227.175 241.137 227.251C240.912 227.325 240.731 227.437 240.591 227.588C240.455 227.736 240.387 227.937 240.387 228.193C240.387 228.543 240.516 228.807 240.775 228.986C241.036 229.162 241.367 229.25 241.768 229.25ZM246.45 230V223.455H247.421V224.443H247.49C247.609 224.119 247.825 223.857 248.137 223.655C248.45 223.453 248.802 223.352 249.194 223.352C249.268 223.352 249.36 223.354 249.471 223.357C249.582 223.359 249.666 223.364 249.722 223.369V224.392C249.688 224.384 249.61 224.371 249.488 224.354C249.369 224.334 249.242 224.324 249.109 224.324C248.791 224.324 248.507 224.391 248.257 224.524C248.009 224.655 247.813 224.837 247.669 225.07C247.526 225.3 247.455 225.562 247.455 225.858V230H246.45Z" fill="#667085"/>
<path d="M332.051 230H330.944L334.148 221.273H335.239L338.444 230H337.336L334.728 222.653H334.659L332.051 230ZM332.461 226.591H336.926V227.528H332.461V226.591ZM339.667 232.455V223.455H340.638V224.494H340.757C340.831 224.381 340.934 224.236 341.064 224.06C341.198 223.881 341.388 223.722 341.635 223.582C341.885 223.44 342.223 223.369 342.65 223.369C343.201 223.369 343.686 223.507 344.107 223.783C344.527 224.058 344.855 224.449 345.091 224.955C345.327 225.46 345.445 226.057 345.445 226.744C345.445 227.438 345.327 228.038 345.091 228.547C344.855 229.053 344.529 229.445 344.111 229.723C343.694 229.999 343.212 230.136 342.667 230.136C342.246 230.136 341.909 230.067 341.657 229.928C341.404 229.786 341.209 229.625 341.073 229.446C340.936 229.264 340.831 229.114 340.757 228.994H340.672V232.455H339.667ZM340.655 226.727C340.655 227.222 340.728 227.658 340.873 228.036C341.017 228.411 341.229 228.705 341.507 228.918C341.786 229.128 342.127 229.233 342.53 229.233C342.951 229.233 343.301 229.122 343.583 228.901C343.867 228.676 344.08 228.375 344.222 227.997C344.367 227.616 344.439 227.193 344.439 226.727C344.439 226.267 344.368 225.852 344.226 225.483C344.087 225.111 343.875 224.817 343.591 224.601C343.31 224.382 342.956 224.273 342.53 224.273C342.121 224.273 341.777 224.376 341.499 224.584C341.221 224.788 341.01 225.075 340.868 225.445C340.726 225.811 340.655 226.239 340.655 226.727ZM346.979 230V223.455H347.951V224.443H348.019C348.138 224.119 348.354 223.857 348.667 223.655C348.979 223.453 349.331 223.352 349.723 223.352C349.797 223.352 349.89 223.354 350 223.357C350.111 223.359 350.195 223.364 350.252 223.369V224.392C350.218 224.384 350.14 224.371 350.017 224.354C349.898 224.334 349.772 224.324 349.638 224.324C349.32 224.324 349.036 224.391 348.786 224.524C348.539 224.655 348.343 224.837 348.198 225.07C348.056 225.3 347.985 225.562 347.985 225.858V230H346.979Z" fill="#667085"/>
<path d="M432.238 221.273H433.5L436.466 228.517H436.568L439.534 221.273H440.795V230H439.807V223.369H439.721L436.994 230H436.04L433.312 223.369H433.227V230H432.238V221.273ZM444.704 230.153C444.289 230.153 443.913 230.075 443.575 229.919C443.237 229.76 442.968 229.531 442.769 229.233C442.57 228.932 442.471 228.568 442.471 228.142C442.471 227.767 442.545 227.463 442.693 227.23C442.84 226.994 443.038 226.81 443.285 226.676C443.532 226.543 443.805 226.443 444.103 226.378C444.404 226.31 444.707 226.256 445.011 226.216C445.409 226.165 445.731 226.126 445.978 226.101C446.228 226.072 446.41 226.026 446.524 225.96C446.64 225.895 446.698 225.781 446.698 225.619V225.585C446.698 225.165 446.583 224.838 446.353 224.605C446.126 224.372 445.781 224.256 445.318 224.256C444.838 224.256 444.461 224.361 444.188 224.571C443.916 224.781 443.724 225.006 443.613 225.244L442.659 224.903C442.829 224.506 443.056 224.196 443.34 223.974C443.627 223.75 443.94 223.594 444.278 223.506C444.619 223.415 444.954 223.369 445.284 223.369C445.494 223.369 445.735 223.395 446.008 223.446C446.284 223.494 446.549 223.595 446.805 223.749C447.063 223.902 447.278 224.134 447.448 224.443C447.619 224.753 447.704 225.168 447.704 225.688V230H446.698V229.114H446.647C446.579 229.256 446.465 229.408 446.306 229.57C446.147 229.732 445.936 229.869 445.671 229.983C445.407 230.097 445.085 230.153 444.704 230.153ZM444.857 229.25C445.255 229.25 445.59 229.172 445.863 229.016C446.139 228.859 446.346 228.658 446.485 228.411C446.627 228.163 446.698 227.903 446.698 227.631V226.71C446.656 226.761 446.562 226.808 446.417 226.851C446.275 226.891 446.11 226.926 445.923 226.957C445.738 226.986 445.558 227.011 445.382 227.034C445.208 227.054 445.068 227.071 444.96 227.085C444.698 227.119 444.454 227.175 444.227 227.251C444.002 227.325 443.82 227.437 443.681 227.588C443.545 227.736 443.477 227.937 443.477 228.193C443.477 228.543 443.606 228.807 443.865 228.986C444.126 229.162 444.457 229.25 444.857 229.25ZM449.953 232.455C449.782 232.455 449.631 232.44 449.497 232.412C449.363 232.386 449.271 232.361 449.22 232.335L449.476 231.449C449.72 231.511 449.936 231.534 450.123 231.517C450.311 231.5 450.477 231.416 450.622 231.266C450.77 231.118 450.905 230.878 451.027 230.545L451.214 230.034L448.794 223.455H449.885L451.692 228.67H451.76L453.567 223.455H454.657L451.879 230.955C451.754 231.293 451.599 231.572 451.415 231.794C451.23 232.018 451.015 232.185 450.771 232.293C450.53 232.401 450.257 232.455 449.953 232.455Z" fill="#667085"/>
<path d="M540.124 221.273H541.181V227.511C541.181 228.068 541.079 228.541 540.874 228.93C540.67 229.32 540.381 229.615 540.009 229.817C539.637 230.018 539.198 230.119 538.692 230.119C538.215 230.119 537.79 230.033 537.418 229.859C537.046 229.683 536.754 229.433 536.54 229.109C536.327 228.786 536.221 228.401 536.221 227.955H537.261C537.261 228.202 537.322 228.418 537.444 228.602C537.569 228.784 537.739 228.926 537.955 229.028C538.171 229.131 538.417 229.182 538.692 229.182C538.996 229.182 539.255 229.118 539.468 228.99C539.681 228.862 539.843 228.675 539.954 228.428C540.067 228.178 540.124 227.872 540.124 227.511V221.273ZM547.288 227.324V223.455H548.293V230H547.288V228.892H547.219C547.066 229.224 546.827 229.507 546.504 229.74C546.18 229.97 545.771 230.085 545.276 230.085C544.867 230.085 544.504 229.996 544.185 229.817C543.867 229.635 543.617 229.362 543.435 228.999C543.254 228.632 543.163 228.17 543.163 227.614V223.455H544.168V227.545C544.168 228.023 544.302 228.403 544.569 228.688C544.839 228.972 545.183 229.114 545.6 229.114C545.85 229.114 546.104 229.05 546.363 228.922C546.624 228.794 546.843 228.598 547.019 228.334C547.198 228.07 547.288 227.733 547.288 227.324ZM551.141 226.062V230H550.135V223.455H551.107V224.477H551.192C551.346 224.145 551.578 223.878 551.891 223.676C552.203 223.472 552.607 223.369 553.101 223.369C553.544 223.369 553.932 223.46 554.265 223.642C554.597 223.821 554.855 224.094 555.04 224.46C555.225 224.824 555.317 225.284 555.317 225.841V230H554.311V225.909C554.311 225.395 554.178 224.994 553.911 224.707C553.644 224.418 553.277 224.273 552.811 224.273C552.49 224.273 552.203 224.342 551.951 224.482C551.701 224.621 551.503 224.824 551.358 225.091C551.213 225.358 551.141 225.682 551.141 226.062Z" fill="#667085"/>
<path d="M641.671 221.273H642.728V227.511C642.728 228.068 642.626 228.541 642.421 228.93C642.217 229.32 641.928 229.615 641.556 229.817C641.184 230.018 640.745 230.119 640.239 230.119C639.762 230.119 639.337 230.033 638.965 229.859C638.593 229.683 638.3 229.433 638.087 229.109C637.874 228.786 637.768 228.401 637.768 227.955H638.808C638.808 228.202 638.869 228.418 638.991 228.602C639.116 228.784 639.286 228.926 639.502 229.028C639.718 229.131 639.964 229.182 640.239 229.182C640.543 229.182 640.802 229.118 641.015 228.99C641.228 228.862 641.39 228.675 641.501 228.428C641.614 228.178 641.671 227.872 641.671 227.511V221.273ZM648.835 227.324V223.455H649.84V230H648.835V228.892H648.766C648.613 229.224 648.374 229.507 648.05 229.74C647.727 229.97 647.317 230.085 646.823 230.085C646.414 230.085 646.05 229.996 645.732 229.817C645.414 229.635 645.164 229.362 644.982 228.999C644.8 228.632 644.71 228.17 644.71 227.614V223.455H645.715V227.545C645.715 228.023 645.849 228.403 646.116 228.688C646.386 228.972 646.729 229.114 647.147 229.114C647.397 229.114 647.651 229.05 647.91 228.922C648.171 228.794 648.39 228.598 648.566 228.334C648.745 228.07 648.835 227.733 648.835 227.324ZM652.688 221.273V230H651.682V221.273H652.688Z" fill="#667085"/>
<path d="M736.233 230H735.125L738.33 221.273H739.421L742.625 230H741.517L738.909 222.653H738.841L736.233 230ZM736.642 226.591H741.108V227.528H736.642V226.591ZM747.973 227.324V223.455H748.979V230H747.973V228.892H747.905C747.752 229.224 747.513 229.507 747.189 229.74C746.865 229.97 746.456 230.085 745.962 230.085C745.553 230.085 745.189 229.996 744.871 229.817C744.553 229.635 744.303 229.362 744.121 228.999C743.939 228.632 743.848 228.17 743.848 227.614V223.455H744.854V227.545C744.854 228.023 744.987 228.403 745.254 228.688C745.524 228.972 745.868 229.114 746.286 229.114C746.536 229.114 746.79 229.05 747.048 228.922C747.31 228.794 747.529 228.598 747.705 228.334C747.884 228.07 747.973 227.733 747.973 227.324ZM753.463 232.591C752.977 232.591 752.559 232.528 752.21 232.403C751.861 232.281 751.569 232.119 751.336 231.918C751.106 231.719 750.923 231.506 750.787 231.278L751.588 230.716C751.679 230.835 751.794 230.972 751.933 231.125C752.072 231.281 752.263 231.416 752.504 231.53C752.748 231.646 753.068 231.705 753.463 231.705C753.991 231.705 754.427 231.577 754.771 231.321C755.115 231.065 755.287 230.665 755.287 230.119V228.79H755.202C755.128 228.909 755.023 229.057 754.886 229.233C754.753 229.406 754.559 229.561 754.307 229.697C754.057 229.831 753.719 229.898 753.292 229.898C752.764 229.898 752.29 229.773 751.869 229.523C751.452 229.273 751.121 228.909 750.876 228.432C750.635 227.955 750.514 227.375 750.514 226.693C750.514 226.023 750.632 225.439 750.868 224.942C751.104 224.442 751.432 224.055 751.852 223.783C752.273 223.507 752.758 223.369 753.309 223.369C753.736 223.369 754.074 223.44 754.324 223.582C754.577 223.722 754.77 223.881 754.903 224.06C755.04 224.236 755.145 224.381 755.219 224.494H755.321V223.455H756.292V230.188C756.292 230.75 756.165 231.207 755.909 231.56C755.656 231.915 755.315 232.175 754.886 232.339C754.46 232.507 753.986 232.591 753.463 232.591ZM753.429 228.994C753.832 228.994 754.173 228.902 754.452 228.717C754.73 228.533 754.942 228.267 755.086 227.92C755.231 227.574 755.304 227.159 755.304 226.676C755.304 226.205 755.233 225.788 755.091 225.428C754.949 225.067 754.738 224.784 754.46 224.58C754.182 224.375 753.838 224.273 753.429 224.273C753.003 224.273 752.648 224.381 752.363 224.597C752.082 224.812 751.871 225.102 751.729 225.466C751.589 225.83 751.52 226.233 751.52 226.676C751.52 227.131 751.591 227.533 751.733 227.882C751.878 228.229 752.091 228.501 752.372 228.7C752.656 228.896 753.008 228.994 753.429 228.994Z" fill="#667085"/>
<path d="M844.193 223.455C844.142 223.023 843.934 222.688 843.571 222.449C843.207 222.21 842.761 222.091 842.233 222.091C841.846 222.091 841.508 222.153 841.218 222.278C840.931 222.403 840.707 222.575 840.545 222.794C840.386 223.013 840.306 223.261 840.306 223.54C840.306 223.773 840.362 223.973 840.473 224.141C840.586 224.305 840.731 224.443 840.907 224.554C841.083 224.662 841.268 224.751 841.461 224.822C841.654 224.891 841.832 224.946 841.994 224.989L842.88 225.227C843.108 225.287 843.36 225.369 843.639 225.474C843.92 225.58 844.189 225.723 844.444 225.905C844.703 226.084 844.916 226.314 845.083 226.595C845.251 226.876 845.335 227.222 845.335 227.631C845.335 228.102 845.211 228.528 844.964 228.909C844.72 229.29 844.362 229.592 843.89 229.817C843.422 230.041 842.852 230.153 842.181 230.153C841.556 230.153 841.015 230.053 840.558 229.851C840.103 229.649 839.745 229.368 839.484 229.007C839.225 228.646 839.079 228.227 839.045 227.75H840.136C840.164 228.08 840.275 228.352 840.468 228.568C840.664 228.781 840.912 228.94 841.21 229.045C841.511 229.148 841.835 229.199 842.181 229.199C842.585 229.199 842.947 229.134 843.268 229.003C843.589 228.869 843.843 228.685 844.031 228.449C844.218 228.21 844.312 227.932 844.312 227.614C844.312 227.324 844.231 227.088 844.069 226.906C843.907 226.724 843.694 226.577 843.43 226.463C843.166 226.349 842.88 226.25 842.574 226.165L841.5 225.858C840.818 225.662 840.278 225.382 839.88 225.018C839.483 224.655 839.284 224.179 839.284 223.591C839.284 223.102 839.416 222.676 839.68 222.312C839.947 221.946 840.305 221.662 840.754 221.46C841.206 221.256 841.71 221.153 842.267 221.153C842.829 221.153 843.329 221.254 843.767 221.456C844.204 221.655 844.551 221.928 844.806 222.274C845.065 222.621 845.201 223.014 845.216 223.455H844.193ZM849.68 230.136C849.05 230.136 848.506 229.997 848.048 229.719C847.594 229.438 847.243 229.045 846.996 228.543C846.751 228.037 846.629 227.449 846.629 226.778C846.629 226.108 846.751 225.517 846.996 225.006C847.243 224.491 847.587 224.091 848.027 223.804C848.47 223.514 848.987 223.369 849.578 223.369C849.919 223.369 850.256 223.426 850.588 223.54C850.92 223.653 851.223 223.838 851.496 224.094C851.768 224.347 851.986 224.682 852.148 225.099C852.31 225.517 852.391 226.031 852.391 226.642V227.068H847.345V226.199H851.368C851.368 225.83 851.294 225.5 851.146 225.21C851.001 224.92 850.794 224.692 850.524 224.524C850.257 224.357 849.942 224.273 849.578 224.273C849.178 224.273 848.831 224.372 848.538 224.571C848.249 224.767 848.026 225.023 847.869 225.338C847.713 225.653 847.635 225.991 847.635 226.352V226.932C847.635 227.426 847.72 227.845 847.891 228.189C848.064 228.53 848.304 228.79 848.611 228.969C848.918 229.145 849.274 229.233 849.68 229.233C849.945 229.233 850.183 229.196 850.396 229.122C850.612 229.045 850.798 228.932 850.955 228.781C851.111 228.628 851.232 228.437 851.317 228.21L852.288 228.483C852.186 228.812 852.014 229.102 851.773 229.352C851.531 229.599 851.233 229.793 850.878 229.932C850.523 230.068 850.124 230.136 849.68 230.136ZM853.92 232.455V223.455H854.892V224.494H855.011C855.085 224.381 855.188 224.236 855.318 224.06C855.452 223.881 855.642 223.722 855.889 223.582C856.139 223.44 856.477 223.369 856.903 223.369C857.455 223.369 857.94 223.507 858.361 223.783C858.781 224.058 859.109 224.449 859.345 224.955C859.581 225.46 859.699 226.057 859.699 226.744C859.699 227.438 859.581 228.038 859.345 228.547C859.109 229.053 858.783 229.445 858.365 229.723C857.947 229.999 857.466 230.136 856.92 230.136C856.5 230.136 856.163 230.067 855.911 229.928C855.658 229.786 855.463 229.625 855.327 229.446C855.19 229.264 855.085 229.114 855.011 228.994H854.926V232.455H853.92ZM854.909 226.727C854.909 227.222 854.982 227.658 855.126 228.036C855.271 228.411 855.483 228.705 855.761 228.918C856.04 229.128 856.381 229.233 856.784 229.233C857.205 229.233 857.555 229.122 857.837 228.901C858.121 228.676 858.334 228.375 858.476 227.997C858.621 227.616 858.693 227.193 858.693 226.727C858.693 226.267 858.622 225.852 858.48 225.483C858.341 225.111 858.129 224.817 857.845 224.601C857.564 224.382 857.21 224.273 856.784 224.273C856.375 224.273 856.031 224.376 855.753 224.584C855.474 224.788 855.264 225.075 855.122 225.445C854.98 225.811 854.909 226.239 854.909 226.727Z" fill="#667085"/>
<path d="M949.331 225.636C949.331 226.557 949.164 227.352 948.832 228.023C948.5 228.693 948.044 229.21 947.464 229.574C946.885 229.938 946.223 230.119 945.478 230.119C944.734 230.119 944.072 229.938 943.493 229.574C942.913 229.21 942.457 228.693 942.125 228.023C941.792 227.352 941.626 226.557 941.626 225.636C941.626 224.716 941.792 223.92 942.125 223.25C942.457 222.58 942.913 222.062 943.493 221.699C944.072 221.335 944.734 221.153 945.478 221.153C946.223 221.153 946.885 221.335 947.464 221.699C948.044 222.062 948.5 222.58 948.832 223.25C949.164 223.92 949.331 224.716 949.331 225.636ZM948.308 225.636C948.308 224.881 948.181 224.243 947.929 223.723C947.679 223.203 947.339 222.81 946.91 222.543C946.484 222.276 946.007 222.142 945.478 222.142C944.95 222.142 944.471 222.276 944.042 222.543C943.616 222.81 943.277 223.203 943.024 223.723C942.774 224.243 942.649 224.881 942.649 225.636C942.649 226.392 942.774 227.03 943.024 227.55C943.277 228.07 943.616 228.463 944.042 228.73C944.471 228.997 944.95 229.131 945.478 229.131C946.007 229.131 946.484 228.997 946.91 228.73C947.339 228.463 947.679 228.07 947.929 227.55C948.181 227.03 948.308 226.392 948.308 225.636ZM953.63 230.136C953.017 230.136 952.488 229.991 952.045 229.702C951.602 229.412 951.261 229.013 951.022 228.504C950.784 227.996 950.664 227.415 950.664 226.761C950.664 226.097 950.787 225.51 951.031 225.001C951.278 224.49 951.622 224.091 952.062 223.804C952.505 223.514 953.022 223.369 953.613 223.369C954.074 223.369 954.488 223.455 954.858 223.625C955.227 223.795 955.529 224.034 955.765 224.341C956.001 224.648 956.147 225.006 956.204 225.415H955.199C955.122 225.116 954.951 224.852 954.687 224.622C954.426 224.389 954.074 224.273 953.63 224.273C953.238 224.273 952.895 224.375 952.599 224.58C952.306 224.781 952.078 225.067 951.913 225.436C951.751 225.803 951.67 226.233 951.67 226.727C951.67 227.233 951.75 227.673 951.909 228.048C952.071 228.423 952.298 228.714 952.591 228.922C952.886 229.129 953.233 229.233 953.63 229.233C953.892 229.233 954.129 229.188 954.342 229.097C954.555 229.006 954.735 228.875 954.883 228.705C955.031 228.534 955.136 228.33 955.199 228.091H956.204C956.147 228.477 956.007 228.825 955.782 229.135C955.561 229.442 955.267 229.686 954.9 229.868C954.537 230.047 954.113 230.136 953.63 230.136ZM960.521 223.455V224.307H957.129V223.455H960.521ZM958.118 221.886H959.123V228.125C959.123 228.409 959.164 228.622 959.247 228.764C959.332 228.903 959.44 228.997 959.571 229.045C959.704 229.091 959.845 229.114 959.993 229.114C960.103 229.114 960.194 229.108 960.265 229.097C960.336 229.082 960.393 229.071 960.436 229.062L960.64 229.966C960.572 229.991 960.477 230.017 960.355 230.043C960.233 230.071 960.078 230.085 959.89 230.085C959.606 230.085 959.328 230.024 959.055 229.902C958.785 229.78 958.561 229.594 958.382 229.344C958.206 229.094 958.118 228.778 958.118 228.398V221.886Z" fill="#667085"/>
<path d="M1050.43 221.273V230H1049.41L1044.65 223.148H1044.57V230H1043.51V221.273H1044.53L1049.31 228.142H1049.39V221.273H1050.43ZM1055.07 230.136C1054.48 230.136 1053.96 229.996 1053.51 229.714C1053.07 229.433 1052.72 229.04 1052.47 228.534C1052.23 228.028 1052.1 227.437 1052.1 226.761C1052.1 226.08 1052.23 225.484 1052.47 224.976C1052.72 224.467 1053.07 224.072 1053.51 223.791C1053.96 223.51 1054.48 223.369 1055.07 223.369C1055.66 223.369 1056.18 223.51 1056.62 223.791C1057.07 224.072 1057.41 224.467 1057.66 224.976C1057.91 225.484 1058.04 226.08 1058.04 226.761C1058.04 227.437 1057.91 228.028 1057.66 228.534C1057.41 229.04 1057.07 229.433 1056.62 229.714C1056.18 229.996 1055.66 230.136 1055.07 230.136ZM1055.07 229.233C1055.52 229.233 1055.89 229.118 1056.18 228.888C1056.47 228.658 1056.68 228.355 1056.82 227.98C1056.96 227.605 1057.03 227.199 1057.03 226.761C1057.03 226.324 1056.96 225.916 1056.82 225.538C1056.68 225.161 1056.47 224.855 1056.18 224.622C1055.89 224.389 1055.52 224.273 1055.07 224.273C1054.62 224.273 1054.25 224.389 1053.96 224.622C1053.67 224.855 1053.46 225.161 1053.32 225.538C1053.18 225.916 1053.11 226.324 1053.11 226.761C1053.11 227.199 1053.18 227.605 1053.32 227.98C1053.46 228.355 1053.67 228.658 1053.96 228.888C1054.25 229.118 1054.62 229.233 1055.07 229.233ZM1064.69 223.455L1062.27 230H1061.25L1058.83 223.455H1059.92L1061.72 228.67H1061.79L1063.6 223.455H1064.69Z" fill="#667085"/>
<path d="M1149.75 230H1147.06V221.273H1149.87C1150.72 221.273 1151.44 221.447 1152.04 221.797C1152.64 222.143 1153.11 222.642 1153.43 223.293C1153.75 223.94 1153.91 224.716 1153.91 225.619C1153.91 226.528 1153.75 227.311 1153.42 227.967C1153.1 228.621 1152.63 229.124 1152.01 229.476C1151.39 229.825 1150.64 230 1149.75 230ZM1148.11 229.062H1149.68C1150.4 229.062 1151 228.923 1151.48 228.645C1151.95 228.366 1152.3 227.97 1152.54 227.456C1152.77 226.942 1152.89 226.33 1152.89 225.619C1152.89 224.915 1152.77 224.308 1152.54 223.8C1152.31 223.288 1151.97 222.896 1151.51 222.624C1151.05 222.348 1150.48 222.21 1149.8 222.21H1148.11V229.062ZM1158.29 230.136C1157.66 230.136 1157.12 229.997 1156.66 229.719C1156.2 229.438 1155.85 229.045 1155.61 228.543C1155.36 228.037 1155.24 227.449 1155.24 226.778C1155.24 226.108 1155.36 225.517 1155.61 225.006C1155.85 224.491 1156.2 224.091 1156.64 223.804C1157.08 223.514 1157.6 223.369 1158.19 223.369C1158.53 223.369 1158.87 223.426 1159.2 223.54C1159.53 223.653 1159.83 223.838 1160.11 224.094C1160.38 224.347 1160.6 224.682 1160.76 225.099C1160.92 225.517 1161 226.031 1161 226.642V227.068H1155.95V226.199H1159.98C1159.98 225.83 1159.9 225.5 1159.76 225.21C1159.61 224.92 1159.4 224.692 1159.13 224.524C1158.87 224.357 1158.55 224.273 1158.19 224.273C1157.79 224.273 1157.44 224.372 1157.15 224.571C1156.86 224.767 1156.63 225.023 1156.48 225.338C1156.32 225.653 1156.24 225.991 1156.24 226.352V226.932C1156.24 227.426 1156.33 227.845 1156.5 228.189C1156.67 228.53 1156.91 228.79 1157.22 228.969C1157.53 229.145 1157.88 229.233 1158.29 229.233C1158.55 229.233 1158.79 229.196 1159.01 229.122C1159.22 229.045 1159.41 228.932 1159.56 228.781C1159.72 228.628 1159.84 228.437 1159.93 228.21L1160.9 228.483C1160.8 228.812 1160.62 229.102 1160.38 229.352C1160.14 229.599 1159.84 229.793 1159.49 229.932C1159.13 230.068 1158.73 230.136 1158.29 230.136ZM1165.19 230.136C1164.58 230.136 1164.05 229.991 1163.6 229.702C1163.16 229.412 1162.82 229.013 1162.58 228.504C1162.34 227.996 1162.22 227.415 1162.22 226.761C1162.22 226.097 1162.35 225.51 1162.59 225.001C1162.84 224.49 1163.18 224.091 1163.62 223.804C1164.06 223.514 1164.58 223.369 1165.17 223.369C1165.63 223.369 1166.05 223.455 1166.42 223.625C1166.79 223.795 1167.09 224.034 1167.32 224.341C1167.56 224.648 1167.71 225.006 1167.76 225.415H1166.76C1166.68 225.116 1166.51 224.852 1166.25 224.622C1165.98 224.389 1165.63 224.273 1165.19 224.273C1164.8 224.273 1164.45 224.375 1164.16 224.58C1163.87 224.781 1163.64 225.067 1163.47 225.436C1163.31 225.803 1163.23 226.233 1163.23 226.727C1163.23 227.233 1163.31 227.673 1163.47 228.048C1163.63 228.423 1163.86 228.714 1164.15 228.922C1164.44 229.129 1164.79 229.233 1165.19 229.233C1165.45 229.233 1165.69 229.188 1165.9 229.097C1166.11 229.006 1166.29 228.875 1166.44 228.705C1166.59 228.534 1166.69 228.33 1166.76 228.091H1167.76C1167.71 228.477 1167.57 228.825 1167.34 229.135C1167.12 229.442 1166.83 229.686 1166.46 229.868C1166.1 230.047 1165.67 230.136 1165.19 230.136Z" fill="#667085"/>
<g style="mix-blend-mode:multiply" opacity="0.1">
<path d="M28.0142 100.216L1 103.443V211.001H1193V64.2402L1167.67 69.6003H1140.66L1128 74.6193H1111.11C1106.61 75.4558 1097.27 77.1288 1095.92 77.1288C1094.57 77.1288 1085.79 78.1326 1081.57 78.6345L1045.27 80.1402L1024.16 82.1477L990.394 80.1402L972.666 78.6345L947.34 82.1477H921.17L899.221 78.6345C890.779 78.1326 873.558 77.1288 872.207 77.1288C870.856 77.1288 859.825 76.125 854.479 75.6231H840.972L808.892 77.1288L781.034 78.6345L768.371 82.1477L730.382 83.6534L710.966 85.1591L689.017 87.6686L667.912 93.6914H658.626L633.3 92.1857L608.819 87.6686L587.714 85.1591H575.051L553.102 83.6534L521.867 85.1591H492.32L462.773 87.6686L433.227 90.68L411.278 93.6914L387.64 95.1971L355.561 93.6914L330.235 95.1971L304.909 96.7028L281.272 95.1971L249.193 98.7103L222.178 96.7028L195.164 98.7103H168.994L141.136 100.216H112.433L83.7309 101.722L55.8725 98.7103L28.0142 100.216Z" fill="url(#paint0_linear_299_21286)"/>
</g>
<path d="M1 103.443L28.0142 100.216L55.8725 98.7103L83.7309 101.722L112.433 100.216H141.136L168.994 98.7103H195.164L222.178 96.7028L249.193 98.7103L281.272 95.1971L304.909 96.7028L330.235 95.1971L355.561 93.6914L387.64 95.1971L411.278 93.6914L433.227 90.68L462.773 87.6686L492.32 85.1591H521.867L553.102 83.6534L575.051 85.1591H587.714L608.819 87.6686L633.3 92.1857L658.626 93.6914H667.912L689.017 87.6686L710.966 85.1591L730.382 83.6534L768.371 82.1477L781.034 78.6345L808.892 77.1288L840.972 75.6231H854.479C859.825 76.125 870.856 77.1288 872.207 77.1288C873.557 77.1288 890.779 78.1326 899.221 78.6345L921.17 82.1477H947.34L972.666 78.6345L990.394 80.1402L1024.16 82.1477L1045.27 80.1402L1081.57 78.6345C1085.79 78.1326 1094.57 77.1288 1095.92 77.1288C1097.27 77.1288 1106.61 75.4558 1111.11 74.6193H1128L1140.66 69.6003H1167.67L1193 64.2402" stroke="#1570EF" stroke-width="2" stroke-linecap="round" stroke-linejoin="round"/>
<path d="M1 142.487L28.0142 140.432L55.8725 139.473L83.7309 141.391L112.433 140.432H141.136L168.994 139.473H195.164L222.178 138.194L249.193 139.473L281.272 137.235L304.909 138.194L330.235 137.235L355.561 136.276L387.64 137.235L411.278 136.276L433.227 134.357L462.773 132.439L492.32 130.841H521.867L553.102 129.882L575.051 130.841H587.714L608.819 132.439L633.3 135.316L658.626 136.276H667.912L689.017 132.439L710.966 130.841L730.382 129.882L768.371 128.922L781.034 126.685L808.892 125.725L840.972 124.766H854.479C859.825 125.086 870.856 125.725 872.207 125.725C873.558 125.725 890.779 126.365 899.221 126.685L921.17 128.922H947.34L972.666 126.685L990.394 127.644L1024.16 128.922L1045.27 127.644L1081.57 126.685C1085.79 126.365 1094.57 125.725 1095.92 125.725C1097.27 125.725 1106.61 124.66 1111.11 124.127H1128L1140.66 120.93H1167.67L1193 117.516" stroke="#53B1FD" stroke-width="2" stroke-linecap="round" stroke-linejoin="round"/>
<path d="M1 191.9L28.0142 186.439L55.8725 183.891L83.7309 188.987L112.433 186.439H141.136L168.994 183.891H195.164L222.178 180.493L249.193 183.891L281.272 177.945L304.909 180.493L330.235 177.945L355.561 175.397L387.64 177.945L411.278 175.397L433.227 170.301L462.773 165.205L492.32 160.958H521.867L553.102 158.41L575.051 160.958H587.714L608.819 165.205L633.3 172.849L658.626 175.397H667.912L689.017 165.205L710.966 160.958L730.382 158.41L768.371 155.862L781.034 149.916L808.892 147.368L840.972 144.82H854.479C859.825 145.669 870.856 147.368 872.207 147.368C873.558 147.368 890.779 149.067 899.221 149.916L921.17 155.862H947.34L972.666 149.916L990.394 152.464L1024.16 155.862L1045.27 152.464L1081.57 149.916C1085.79 149.067 1094.57 147.368 1095.92 147.368C1097.27 147.368 1106.61 144.537 1111.11 143.121H1128L1140.66 134.628H1167.67L1193 125.557" stroke="#1849A9" stroke-width="2" stroke-linecap="round" stroke-linejoin="round"/>
<line x1="608.5" y1="131" x2="608.5" y2="214" stroke="#1570EF" stroke-dasharray="4.4 4.4"/>
<g filter="url(#filter0_dd_299_21286)">
<path fill-rule="evenodd" clip-rule="evenodd" d="M600.308 103.052C598.173 105.345 594.711 105.345 592.576 103.052L587.515 97.8827C586.647 96.9961 586.213 96.5528 585.704 96.2357C585.252 95.9545 584.759 95.7471 584.242 95.6213C583.659 95.4794 583.039 95.4794 581.798 95.4794H526.333C518.865 95.4794 516.156 94.8325 513.426 93.6177C510.696 92.403 508.553 90.6204 507.093 88.349C505.633 86.0776 504.855 83.8246 504.855 77.6115V31.5769C504.855 25.3638 505.633 23.1108 507.093 20.8394C508.553 18.568 510.696 16.7854 513.426 15.5707C516.156 14.3559 518.865 13.709 526.333 13.709H667.668C675.136 13.709 677.844 14.3559 680.574 15.5707C683.304 16.7854 685.447 18.568 686.907 20.8394C688.367 23.1108 689.145 25.3638 689.145 31.5769V77.6115C689.145 83.8246 688.367 86.0776 686.907 88.349C685.447 90.6204 683.304 92.403 680.574 93.6177C677.844 94.8325 675.136 95.4794 667.668 95.4794H614.449C611.967 95.4794 610.726 95.4794 609.561 95.7631C608.527 96.0147 607.541 96.4295 606.638 96.9919C605.62 97.6263 604.752 98.5129 603.016 100.286L600.308 103.052Z" fill="white"/>
</g>
<path d="M534.119 25.8182H535.983L539.224 33.733H539.344L542.585 25.8182H544.45V36H542.988V28.6321H542.893L539.891 35.9851H538.678L535.675 28.6271H535.58V36H534.119V25.8182ZM548.786 36.169C548.302 36.169 547.865 36.0795 547.474 35.9006C547.082 35.7183 546.773 35.4548 546.544 35.1101C546.318 34.7654 546.206 34.3428 546.206 33.8423C546.206 33.4115 546.289 33.0568 546.454 32.7784C546.62 32.5 546.844 32.2796 547.126 32.1172C547.407 31.9548 547.722 31.8321 548.07 31.7493C548.418 31.6664 548.773 31.6035 549.134 31.5604C549.591 31.5073 549.963 31.4643 550.248 31.4311C550.533 31.3946 550.74 31.3366 550.869 31.2571C550.998 31.1776 551.063 31.0483 551.063 30.8693V30.8345C551.063 30.4003 550.94 30.0639 550.695 29.8253C550.453 29.5866 550.092 29.4673 549.611 29.4673C549.111 29.4673 548.716 29.5784 548.428 29.8004C548.143 30.0192 547.946 30.2628 547.836 30.5312L546.439 30.2131C546.605 29.7491 546.847 29.3745 547.165 29.0895C547.487 28.8011 547.856 28.5923 548.274 28.4631C548.692 28.3305 549.131 28.2642 549.591 28.2642C549.896 28.2642 550.22 28.3007 550.561 28.3736C550.906 28.4432 551.227 28.5724 551.525 28.7614C551.827 28.9503 552.074 29.2204 552.266 29.5717C552.458 29.9197 552.555 30.3722 552.555 30.929V36H551.103V34.956H551.043C550.947 35.1482 550.803 35.3371 550.611 35.5227C550.418 35.7083 550.171 35.8625 549.87 35.9851C549.568 36.1077 549.207 36.169 548.786 36.169ZM549.109 34.9759C549.52 34.9759 549.872 34.8946 550.163 34.7322C550.458 34.5698 550.682 34.3577 550.834 34.0959C550.99 33.8307 551.068 33.5473 551.068 33.2457V32.2614C551.015 32.3144 550.912 32.3641 550.76 32.4105C550.611 32.4536 550.44 32.4917 550.248 32.5249C550.055 32.5547 549.868 32.5829 549.686 32.6094C549.504 32.6326 549.351 32.6525 549.229 32.669C548.94 32.7055 548.677 32.7668 548.438 32.853C548.203 32.9392 548.014 33.0634 547.871 33.2259C547.732 33.3849 547.662 33.5971 547.662 33.8622C547.662 34.2301 547.798 34.5085 548.07 34.6974C548.342 34.883 548.688 34.9759 549.109 34.9759ZM555.201 38.8636C554.979 38.8636 554.776 38.8454 554.594 38.8089C554.412 38.7758 554.276 38.7393 554.186 38.6996L554.544 37.4815C554.816 37.5545 555.058 37.5859 555.27 37.576C555.482 37.5661 555.67 37.4865 555.832 37.3374C555.998 37.1882 556.144 36.9446 556.27 36.6065L556.453 36.0994L553.659 28.3636H555.25L557.184 34.2898H557.264L559.198 28.3636H560.794L557.647 37.0192C557.501 37.4169 557.315 37.7533 557.09 38.0284C556.864 38.3068 556.596 38.5156 556.284 38.6548C555.973 38.794 555.612 38.8636 555.201 38.8636Z" fill="#667085"/>
<path d="M534.164 62V60.0057L538.823 55.6911C539.22 55.3075 539.552 54.9624 539.821 54.6555C540.093 54.3487 540.3 54.0483 540.441 53.7543C540.581 53.456 540.652 53.1342 540.652 52.7891C540.652 52.4055 540.564 52.0753 540.389 51.7983C540.215 51.517 539.976 51.3018 539.674 51.1527C539.371 50.9993 539.028 50.9226 538.644 50.9226C538.244 50.9226 537.894 51.0036 537.596 51.1655C537.298 51.3274 537.068 51.5597 536.906 51.8622C536.744 52.1648 536.663 52.5249 536.663 52.9425H534.036C534.036 52.0859 534.23 51.3423 534.617 50.7116C535.005 50.081 535.549 49.593 536.247 49.2479C536.946 48.9027 537.752 48.7301 538.664 48.7301C539.601 48.7301 540.417 48.8963 541.112 49.2287C541.811 49.5568 542.354 50.0128 542.742 50.5966C543.13 51.1804 543.323 51.8494 543.323 52.6037C543.323 53.098 543.225 53.5859 543.029 54.0675C542.838 54.549 542.495 55.0838 542 55.6719C541.506 56.2557 540.809 56.9567 539.91 57.7749L537.999 59.6477V59.7372H543.496V62H534.164ZM545.502 62V60.0057L550.161 55.6911C550.558 55.3075 550.89 54.9624 551.158 54.6555C551.431 54.3487 551.638 54.0483 551.778 53.7543C551.919 53.456 551.989 53.1342 551.989 52.7891C551.989 52.4055 551.902 52.0753 551.727 51.7983C551.553 51.517 551.314 51.3018 551.011 51.1527C550.709 50.9993 550.366 50.9226 549.982 50.9226C549.582 50.9226 549.232 51.0036 548.934 51.1655C548.636 51.3274 548.406 51.5597 548.244 51.8622C548.082 52.1648 548.001 52.5249 548.001 52.9425H545.374C545.374 52.0859 545.568 51.3423 545.955 50.7116C546.343 50.081 546.886 49.593 547.585 49.2479C548.284 48.9027 549.09 48.7301 550.002 48.7301C550.939 48.7301 551.755 48.8963 552.45 49.2287C553.149 49.5568 553.692 50.0128 554.08 50.5966C554.467 51.1804 554.661 51.8494 554.661 52.6037C554.661 53.098 554.563 53.5859 554.367 54.0675C554.176 54.549 553.832 55.0838 553.338 55.6719C552.844 56.2557 552.147 56.9567 551.248 57.7749L549.337 59.6477V59.7372H554.834V62H545.502ZM561.972 62.2876C560.873 62.2834 559.927 62.0128 559.134 61.4759C558.346 60.9389 557.739 60.1612 557.312 59.1428C556.891 58.1243 556.682 56.8991 556.686 55.4673C556.686 54.0398 556.897 52.8232 557.319 51.8175C557.745 50.8118 558.352 50.0469 559.141 49.5227C559.933 48.9943 560.877 48.7301 561.972 48.7301C563.067 48.7301 564.009 48.9943 564.797 49.5227C565.59 50.0511 566.199 50.8182 566.626 51.8239C567.052 52.8253 567.263 54.0398 567.258 55.4673C567.258 56.9034 567.045 58.1307 566.619 59.1491C566.197 60.1676 565.592 60.9453 564.804 61.4822C564.016 62.0192 563.072 62.2876 561.972 62.2876ZM561.972 59.9929C562.722 59.9929 563.321 59.6158 563.768 58.8615C564.216 58.1072 564.437 56.9759 564.433 55.4673C564.433 54.4744 564.331 53.6477 564.126 52.9872C563.926 52.3267 563.641 51.8303 563.27 51.4979C562.903 51.1655 562.471 50.9993 561.972 50.9993C561.226 50.9993 560.63 51.3722 560.182 52.1179C559.735 52.8636 559.509 53.9801 559.505 55.4673C559.505 56.473 559.605 57.3125 559.805 57.9858C560.01 58.6548 560.297 59.1577 560.668 59.4943C561.039 59.8267 561.474 59.9929 561.972 59.9929ZM571.69 60.2102L571.619 60.9134C571.564 61.4759 571.457 62.0362 571.3 62.5945C571.146 63.157 570.984 63.6662 570.814 64.1222C570.648 64.5781 570.514 64.9361 570.411 65.196H568.647C568.711 64.9446 568.798 64.593 568.909 64.1413C569.02 63.6939 569.124 63.1911 569.222 62.6328C569.32 62.0746 569.382 61.5057 569.408 60.9261L569.44 60.2102H571.69ZM578.571 62.179C577.616 62.179 576.766 62.0149 576.02 61.6868C575.279 61.3544 574.693 60.8984 574.263 60.3189C573.836 59.7351 573.617 59.0618 573.604 58.299H576.391C576.408 58.6186 576.513 58.8999 576.704 59.1428C576.9 59.3814 577.16 59.5668 577.484 59.6989C577.808 59.831 578.172 59.897 578.577 59.897C578.999 59.897 579.372 59.8224 579.696 59.6733C580.02 59.5241 580.273 59.3175 580.456 59.0533C580.64 58.7891 580.731 58.4844 580.731 58.1392C580.731 57.7898 580.633 57.4808 580.437 57.2124C580.245 56.9396 579.968 56.7266 579.606 56.5732C579.248 56.4197 578.822 56.343 578.328 56.343H577.107V54.3104H578.328C578.745 54.3104 579.114 54.2379 579.434 54.093C579.758 53.9482 580.009 53.7479 580.188 53.4922C580.367 53.2322 580.456 52.9297 580.456 52.5845C580.456 52.2564 580.378 51.9688 580.22 51.7216C580.066 51.4702 579.849 51.2741 579.568 51.1335C579.291 50.9929 578.967 50.9226 578.596 50.9226C578.221 50.9226 577.878 50.9908 577.567 51.1271C577.256 51.2592 577.007 51.4489 576.819 51.696C576.632 51.9432 576.532 52.233 576.519 52.5653H573.866C573.879 51.8111 574.094 51.1463 574.512 50.571C574.929 49.9957 575.492 49.5462 576.199 49.2223C576.911 48.8942 577.714 48.7301 578.609 48.7301C579.513 48.7301 580.303 48.8942 580.981 49.2223C581.658 49.5504 582.184 49.9936 582.559 50.5518C582.939 51.1058 583.126 51.728 583.122 52.4183C583.126 53.1513 582.898 53.7628 582.438 54.2528C581.982 54.7429 581.388 55.054 580.655 55.1861V55.2884C581.618 55.4119 582.351 55.7464 582.853 56.2919C583.361 56.8331 583.612 57.5107 583.608 58.3246C583.612 59.0703 583.397 59.733 582.962 60.3125C582.532 60.892 581.937 61.348 581.179 61.6804C580.42 62.0128 579.551 62.179 578.571 62.179ZM585.399 59.6989V57.5192L590.864 48.9091H592.744V51.9261H591.631L588.186 57.3786V57.4808H595.952V59.6989H585.399ZM591.682 62V59.0341L591.734 58.0689V48.9091H594.329V62H591.682ZM597.796 62V60.0057L602.456 55.6911C602.853 55.3075 603.185 54.9624 603.453 54.6555C603.726 54.3487 603.933 54.0483 604.073 53.7543C604.214 53.456 604.284 53.1342 604.284 52.7891C604.284 52.4055 604.197 52.0753 604.022 51.7983C603.848 51.517 603.609 51.3018 603.306 51.1527C603.004 50.9993 602.661 50.9226 602.277 50.9226C601.877 50.9226 601.527 51.0036 601.229 51.1655C600.931 51.3274 600.701 51.5597 600.539 51.8622C600.377 52.1648 600.296 52.5249 600.296 52.9425H597.669C597.669 52.0859 597.862 51.3423 598.25 50.7116C598.638 50.081 599.181 49.593 599.88 49.2479C600.579 48.9027 601.384 48.7301 602.296 48.7301C603.234 48.7301 604.05 48.8963 604.745 49.2287C605.443 49.5568 605.987 50.0128 606.375 50.5966C606.762 51.1804 606.956 51.8494 606.956 52.6037C606.956 53.098 606.858 53.5859 606.662 54.0675C606.47 54.549 606.127 55.0838 605.633 55.6719C605.139 56.2557 604.442 56.9567 603.543 57.7749L601.632 59.6477V59.7372H607.129V62H597.796ZM612.119 60.2102L612.049 60.9134C611.994 61.4759 611.887 62.0362 611.729 62.5945C611.576 63.157 611.414 63.6662 611.244 64.1222C611.078 64.5781 610.943 64.9361 610.841 65.196H609.077C609.141 64.9446 609.228 64.593 609.339 64.1413C609.45 63.6939 609.554 63.1911 609.652 62.6328C609.75 62.0746 609.812 61.5057 609.837 60.9261L609.869 60.2102H612.119ZM618.644 48.9091V62H615.876V51.5362H615.8L612.802 53.4155V50.9609L616.043 48.9091H618.644ZM621.755 62V60.0057L626.415 55.6911C626.812 55.3075 627.144 54.9624 627.412 54.6555C627.685 54.3487 627.892 54.0483 628.032 53.7543C628.173 53.456 628.243 53.1342 628.243 52.7891C628.243 52.4055 628.156 52.0753 627.981 51.7983C627.807 51.517 627.568 51.3018 627.265 51.1527C626.963 50.9993 626.62 50.9226 626.236 50.9226C625.836 50.9226 625.486 51.0036 625.188 51.1655C624.89 51.3274 624.66 51.5597 624.498 51.8622C624.336 52.1648 624.255 52.5249 624.255 52.9425H621.628C621.628 52.0859 621.821 51.3423 622.209 50.7116C622.597 50.081 623.14 49.593 623.839 49.2479C624.538 48.9027 625.343 48.7301 626.255 48.7301C627.193 48.7301 628.009 48.8963 628.704 49.2287C629.402 49.5568 629.946 50.0128 630.334 50.5966C630.721 51.1804 630.915 51.8494 630.915 52.6037C630.915 53.098 630.817 53.5859 630.621 54.0675C630.429 54.549 630.086 55.0838 629.592 55.6719C629.098 56.2557 628.401 56.9567 627.502 57.7749L625.591 59.6477V59.7372H631.088V62H621.755ZM637.932 62.179C636.978 62.179 636.127 62.0149 635.382 61.6868C634.64 61.3544 634.054 60.8984 633.624 60.3189C633.198 59.7351 632.978 59.0618 632.965 58.299H635.752C635.769 58.6186 635.874 58.8999 636.066 59.1428C636.262 59.3814 636.522 59.5668 636.845 59.6989C637.169 59.831 637.534 59.897 637.938 59.897C638.36 59.897 638.733 59.8224 639.057 59.6733C639.381 59.5241 639.634 59.3175 639.818 59.0533C640.001 58.7891 640.093 58.4844 640.093 58.1392C640.093 57.7898 639.995 57.4808 639.799 57.2124C639.607 56.9396 639.33 56.7266 638.968 56.5732C638.61 56.4197 638.184 56.343 637.689 56.343H636.468V54.3104H637.689C638.107 54.3104 638.475 54.2379 638.795 54.093C639.119 53.9482 639.37 53.7479 639.549 53.4922C639.728 53.2322 639.818 52.9297 639.818 52.5845C639.818 52.2564 639.739 51.9688 639.581 51.7216C639.428 51.4702 639.21 51.2741 638.929 51.1335C638.652 50.9929 638.328 50.9226 637.958 50.9226C637.583 50.9226 637.24 50.9908 636.929 51.1271C636.617 51.2592 636.368 51.4489 636.181 51.696C635.993 51.9432 635.893 52.233 635.88 52.5653H633.228C633.24 51.8111 633.456 51.1463 633.873 50.571C634.291 49.9957 634.853 49.5462 635.561 49.2223C636.272 48.8942 637.076 48.7301 637.97 48.7301C638.874 48.7301 639.664 48.8942 640.342 49.2223C641.019 49.5504 641.546 49.9936 641.921 50.5518C642.3 51.1058 642.487 51.728 642.483 52.4183C642.487 53.1513 642.259 53.7628 641.799 54.2528C641.343 54.7429 640.749 55.054 640.016 55.1861V55.2884C640.979 55.4119 641.712 55.7464 642.215 56.2919C642.722 56.8331 642.973 57.5107 642.969 58.3246C642.973 59.0703 642.758 59.733 642.323 60.3125C641.893 60.892 641.299 61.348 640.54 61.6804C639.782 62.0128 638.912 62.179 637.932 62.179Z" fill="black"/>
<path d="M534.057 73.2727H535.318L538.284 80.517H538.386L541.352 73.2727H542.614V82H541.625V75.3693H541.54L538.812 82H537.858L535.131 75.3693H535.045V82H534.057V73.2727ZM546.522 82.1534C546.108 82.1534 545.731 82.0753 545.393 81.919C545.055 81.7599 544.787 81.5312 544.588 81.233C544.389 80.9318 544.289 80.5682 544.289 80.142C544.289 79.767 544.363 79.4631 544.511 79.2301C544.659 78.9943 544.856 78.8097 545.103 78.6761C545.35 78.5426 545.623 78.4432 545.922 78.3778C546.223 78.3097 546.525 78.2557 546.829 78.2159C547.227 78.1648 547.549 78.1264 547.797 78.1009C548.047 78.0724 548.228 78.0256 548.342 77.9602C548.458 77.8949 548.517 77.7812 548.517 77.6193V77.5852C548.517 77.1648 548.402 76.8381 548.172 76.6051C547.944 76.3722 547.599 76.2557 547.136 76.2557C546.656 76.2557 546.279 76.3608 546.007 76.571C545.734 76.7812 545.542 77.0057 545.431 77.2443L544.477 76.9034C544.647 76.5057 544.875 76.196 545.159 75.9744C545.446 75.75 545.758 75.5937 546.096 75.5057C546.437 75.4148 546.772 75.3693 547.102 75.3693C547.312 75.3693 547.554 75.3949 547.826 75.446C548.102 75.4943 548.368 75.5952 548.623 75.7486C548.882 75.902 549.096 76.1335 549.267 76.4432C549.437 76.7528 549.522 77.1676 549.522 77.6875V82H548.517V81.1136H548.466C548.397 81.2557 548.284 81.4077 548.125 81.5696C547.966 81.7315 547.754 81.8693 547.49 81.983C547.225 82.0966 546.903 82.1534 546.522 82.1534ZM546.676 81.25C547.074 81.25 547.409 81.1719 547.681 81.0156C547.957 80.8594 548.164 80.6577 548.304 80.4105C548.446 80.1634 548.517 79.9034 548.517 79.6307V78.7102C548.474 78.7614 548.38 78.8082 548.235 78.8509C548.093 78.8906 547.929 78.9261 547.741 78.9574C547.556 78.9858 547.376 79.0114 547.2 79.0341C547.027 79.054 546.886 79.071 546.778 79.0852C546.517 79.1193 546.272 79.1747 546.045 79.2514C545.821 79.3253 545.639 79.4375 545.5 79.5881C545.363 79.7358 545.295 79.9375 545.295 80.1932C545.295 80.5426 545.424 80.8068 545.683 80.9858C545.944 81.1619 546.275 81.25 546.676 81.25ZM551.771 84.4545C551.601 84.4545 551.449 84.4403 551.315 84.4119C551.182 84.3864 551.089 84.3608 551.038 84.3352L551.294 83.4489C551.538 83.5114 551.754 83.5341 551.942 83.517C552.129 83.5 552.295 83.4162 552.44 83.2656C552.588 83.1179 552.723 82.8778 552.845 82.5455L553.033 82.0341L550.612 75.4545H551.703L553.51 80.6705H553.578L555.385 75.4545H556.476L553.697 82.9545C553.572 83.2926 553.418 83.5724 553.233 83.794C553.048 84.0185 552.834 84.1847 552.589 84.2926C552.348 84.4006 552.075 84.4545 551.771 84.4545Z" fill="#667085"/>
<g filter="url(#filter1_dd_299_21286)">
<rect x="584.256" y="107.709" width="24.5066" height="20.5625" rx="10" fill="#1570EF"/>
<rect x="586.256" y="109.709" width="20.5066" height="16.5625" rx="8" stroke="white" stroke-width="4"/>
</g>
<defs>
<filter id="filter0_dd_299_21286" x="488.855" y="5.70898" width="216.289" height="123.062" filterUnits="userSpaceOnUse" color-interpolation-filters="sRGB">
<feFlood flood-opacity="0" result="BackgroundImageFix"/>
<feColorMatrix in="SourceAlpha" type="matrix" values="0 0 0 0 0 0 0 0 0 0 0 0 0 0 0 0 0 0 127 0" result="hardAlpha"/>
<feOffset dy="8"/>
<feGaussianBlur stdDeviation="8"/>
<feColorMatrix type="matrix" values="0 0 0 0 0.196487 0 0 0 0 0.196487 0 0 0 0 0.279476 0 0 0 0.06 0"/>
<feBlend mode="multiply" in2="BackgroundImageFix" result="effect1_dropShadow_299_21286"/>
<feColorMatrix in="SourceAlpha" type="matrix" values="0 0 0 0 0 0 0 0 0 0 0 0 0 0 0 0 0 0 127 0" result="hardAlpha"/>
<feOffset dy="8"/>
<feGaussianBlur stdDeviation="4"/>
<feColorMatrix type="matrix" values="0 0 0 0 0.196487 0 0 0 0 0.196487 0 0 0 0 0.279476 0 0 0 0.08 0"/>
<feBlend mode="multiply" in2="effect1_dropShadow_299_21286" result="effect2_dropShadow_299_21286"/>
<feBlend mode="normal" in="SourceGraphic" in2="effect2_dropShadow_299_21286" result="shape"/>
</filter>
<filter id="filter1_dd_299_21286" x="576.256" y="99.709" width="40.5059" height="38.5625" filterUnits="userSpaceOnUse" color-interpolation-filters="sRGB">
<feFlood flood-opacity="0" result="BackgroundImageFix"/>
<feColorMatrix in="SourceAlpha" type="matrix" values="0 0 0 0 0 0 0 0 0 0 0 0 0 0 0 0 0 0 127 0" result="hardAlpha"/>
<feOffset dy="-2"/>
<feGaussianBlur stdDeviation="3"/>
<feColorMatrix type="matrix" values="0 0 0 0 1 0 0 0 0 1 0 0 0 0 1 0 0 0 0.03 0"/>
<feBlend mode="normal" in2="BackgroundImageFix" result="effect1_dropShadow_299_21286"/>
<feColorMatrix in="SourceAlpha" type="matrix" values="0 0 0 0 0 0 0 0 0 0 0 0 0 0 0 0 0 0 127 0" result="hardAlpha"/>
<feOffset dy="2"/>
<feGaussianBlur stdDeviation="4"/>
<feColorMatrix type="matrix" values="0 0 0 0 0.292917 0 0 0 0 0.303678 0 0 0 0 0.316667 0 0 0 0.08 0"/>
<feBlend mode="normal" in2="effect1_dropShadow_299_21286" result="effect2_dropShadow_299_21286"/>
<feBlend mode="normal" in="SourceGraphic" in2="effect2_dropShadow_299_21286" result="shape"/>
</filter>
<linearGradient id="paint0_linear_299_21286" x1="597" y1="64.2402" x2="597" y2="204.467" gradientUnits="userSpaceOnUse">
<stop stop-color="#7F56D9"/>
<stop offset="1" stop-color="#7F56D9" stop-opacity="0"/>
</linearGradient>
</defs>
</svg>
