<svg width="10" height="11" viewBox="0 0 10 11" fill="none" xmlns="http://www.w3.org/2000/svg">
<path fill-rule="evenodd" clip-rule="evenodd" d="M3.53033 0.96967C3.82322 1.26256 3.82322 1.73744 3.53033 2.03033L2.81066 2.75H6C8.07107 2.75 9.75 4.42893 9.75 6.5C9.75 8.57107 8.07107 10.25 6 10.25H1C0.585786 10.25 0.25 9.91421 0.25 9.5C0.25 9.08579 0.585786 8.75 1 8.75H6C7.24264 8.75 8.25 7.74264 8.25 6.5C8.25 5.25736 7.24264 4.25 6 4.25H2.81066L3.53033 4.96967C3.82322 5.26256 3.82322 5.73744 3.53033 6.03033C3.23744 6.32322 2.76256 6.32322 2.46967 6.03033L0.46967 4.03033C0.176777 3.73744 0.176777 3.26256 0.46967 2.96967L2.46967 0.96967C2.76256 0.676777 3.23744 0.676777 3.53033 0.96967Z" fill="#667085"/>
</svg>
