<svg width="14" height="14" viewBox="0 0 14 14" fill="none" xmlns="http://www.w3.org/2000/svg">
<path d="M12.3327 13C12.3327 12.0696 12.3327 11.6044 12.2179 11.2259C11.9593 10.3736 11.2924 9.70669 10.4401 9.44816C10.0616 9.33333 9.59639 9.33333 8.66601 9.33333H5.33268C4.40231 9.33333 3.93712 9.33333 3.55859 9.44816C2.70632 9.70669 2.03938 10.3736 1.78084 11.2259C1.66602 11.6044 1.66602 12.0696 1.66602 13M9.99935 4C9.99935 5.65685 8.6562 7 6.99935 7C5.34249 7 3.99935 5.65685 3.99935 4C3.99935 2.34315 5.34249 1 6.99935 1C8.6562 1 9.99935 2.34315 9.99935 4Z" stroke="#344054" stroke-width="1.5" stroke-linecap="round" stroke-linejoin="round"/>
</svg>
