<svg width="18" height="20" viewBox="0 0 18 20" fill="none" xmlns="http://www.w3.org/2000/svg">
<path fill-rule="evenodd" clip-rule="evenodd" d="M5.66667 0.916016C6.08088 0.916016 6.41667 1.2518 6.41667 1.66602V2.58268H11.5833V1.66602C11.5833 1.2518 11.9191 0.916016 12.3333 0.916016C12.7475 0.916016 13.0833 1.2518 13.0833 1.66602V2.58355C13.5135 2.5857 13.8844 2.5932 14.2031 2.61923C14.6663 2.65708 15.0847 2.73782 15.4755 2.93691C16.087 3.2485 16.5842 3.74569 16.8958 4.35721C17.0949 4.74795 17.1756 5.16635 17.2134 5.62961C17.25 6.07718 17.25 6.6279 17.25 7.30129V14.3641C17.25 15.0375 17.25 15.5882 17.2134 16.0358C17.1756 16.499 17.0949 16.9174 16.8958 17.3082C16.5842 17.9197 16.087 18.4169 15.4755 18.7285C15.0847 18.9275 14.6663 19.0083 14.2031 19.0461C13.7555 19.0827 13.2048 19.0827 12.5314 19.0827H5.46856C4.79519 19.0827 4.24449 19.0827 3.79693 19.0461C3.33367 19.0083 2.91527 18.9275 2.52453 18.7285C1.913 18.4169 1.41582 17.9197 1.10423 17.3082C0.905137 16.9174 0.824402 16.499 0.786552 16.0358C0.749984 15.5882 0.749992 15.0375 0.75 14.3641V7.30126C0.749992 6.62789 0.749984 6.07718 0.786552 5.62961C0.824402 5.16635 0.905137 4.74795 1.10423 4.35721C1.41582 3.74569 1.913 3.2485 2.52453 2.93691C2.91527 2.73782 3.33367 2.65708 3.79693 2.61923C4.11555 2.5932 4.48645 2.5857 4.91667 2.58355V1.66602C4.91667 1.2518 5.25245 0.916016 5.66667 0.916016ZM4.91667 4.08364C4.50426 4.08576 4.1847 4.09255 3.91908 4.11425C3.54858 4.14452 3.34956 4.20003 3.20552 4.27342C2.87623 4.4412 2.60852 4.70892 2.44074 5.0382C2.36735 5.18224 2.31184 5.38126 2.28157 5.75176C2.25058 6.13102 2.25 6.62024 2.25 7.33268V7.58268H15.75V7.33268C15.75 6.62024 15.7494 6.13102 15.7184 5.75176C15.6882 5.38126 15.6327 5.18224 15.5593 5.0382C15.3915 4.70892 15.1238 4.4412 14.7945 4.27342C14.6504 4.20003 14.4514 4.14452 14.0809 4.11425C13.8153 4.09255 13.4957 4.08576 13.0833 4.08364V4.99935C13.0833 5.41356 12.7475 5.74935 12.3333 5.74935C11.9191 5.74935 11.5833 5.41356 11.5833 4.99935V4.08268H6.41667V4.99935C6.41667 5.41356 6.08088 5.74935 5.66667 5.74935C5.25245 5.74935 4.91667 5.41356 4.91667 4.99935V4.08364ZM15.75 9.08268H2.25V14.3327C2.25 15.0451 2.25058 15.5343 2.28157 15.9136C2.31184 16.2841 2.36735 16.4831 2.44074 16.6272C2.60852 16.9564 2.87623 17.2242 3.20552 17.3919C3.34956 17.4653 3.54858 17.5208 3.91908 17.5511C4.29833 17.5821 4.78756 17.5827 5.5 17.5827H12.5C13.2124 17.5827 13.7017 17.5821 14.0809 17.5511C14.4514 17.5208 14.6504 17.4653 14.7945 17.3919C15.1238 17.2242 15.3915 16.9564 15.5593 16.6272C15.6327 16.4831 15.6882 16.2841 15.7184 15.9136C15.7494 15.5343 15.75 15.0451 15.75 14.3327V9.08268Z" fill="#344054"/>
</svg>
