<svg width="24" height="22" viewBox="0 0 24 22" fill="none" xmlns="http://www.w3.org/2000/svg">
<path d="M13.1501 10.3705L11.9077 9.12772C11.6232 8.84309 11.2375 8.68272 10.835 8.68165C10.4325 8.68058 10.046 8.8389 9.75991 9.12202L1.12257 17.0932C0.805515 17.3739 0.611531 17.768 0.582507 18.1904C0.573351 18.4002 0.60756 18.6097 0.682958 18.8057C0.758356 19.0016 0.873343 19.18 1.02075 19.3295L2.87639 21.2057L2.87973 21.209C3.16648 21.4948 3.55448 21.6559 3.95935 21.6572H4.01551C4.22518 21.6454 4.43048 21.5924 4.61965 21.5012C4.80882 21.41 4.97816 21.2824 5.11798 21.1257L13.1448 12.5279C13.4316 12.2436 13.5937 11.857 13.5954 11.4532C13.5971 11.0494 13.4384 10.6614 13.1541 10.3746L13.1501 10.3705Z" fill="white"/>
<path d="M23.1339 7.85979L23.1191 7.84505L21.4885 6.2311C21.393 6.13591 21.2796 6.06057 21.1548 6.00944C21.03 5.95832 20.8964 5.93242 20.7615 5.93324C20.543 5.93345 20.3301 6.00236 20.153 6.13023C20.153 6.10977 20.1558 6.08979 20.1572 6.07218C20.223 5.65541 20.1351 5.22893 19.9098 4.87218C19.5506 4.38799 19.1562 3.93092 18.7298 3.50469L18.726 3.50088C17.534 2.35726 16.1332 1.45362 14.5998 0.839215C13.7984 0.510314 12.9404 0.341399 12.0742 0.341994C10.9529 0.331849 9.8632 0.713514 8.99331 1.42112C8.74571 1.65761 8.51989 1.91591 8.3186 2.19289C8.22244 2.32562 8.1717 2.48585 8.1739 2.64975C8.17609 2.81364 8.23113 2.97246 8.33082 3.10257C8.43051 3.23268 8.56952 3.32714 8.7272 3.3719C8.88488 3.41666 9.0528 3.40934 9.20599 3.35102C9.33943 3.30113 9.47577 3.25935 9.61424 3.22588C9.90263 3.16489 10.1984 3.14645 10.4921 3.17115C11.1011 3.2347 11.6846 3.44874 12.1903 3.79399C12.4738 4.03274 12.6993 4.3328 12.8498 4.6715C13.0003 5.01019 13.0719 5.37866 13.0591 5.74908C12.8478 6.35088 12.5249 6.90746 12.1075 7.38967C11.9962 7.53639 11.9418 7.71849 11.9545 7.90221C11.9672 8.08593 12.0461 8.25883 12.1765 8.38887L13.8137 10.0261C13.9513 10.164 14.1365 10.244 14.3312 10.2495C14.5259 10.2549 14.7154 10.1856 14.8605 10.0556C15.3235 9.64214 16.0286 9.01884 16.2751 8.86611C16.4858 8.72514 16.7243 8.63104 16.9745 8.59014C17.161 8.57186 17.3485 8.6114 17.5117 8.70339C17.5125 8.71153 17.5116 8.71976 17.5091 8.72754C17.5066 8.73532 17.5024 8.74248 17.497 8.74858L17.4104 8.83091L17.3961 8.84421C17.2037 9.03588 17.0953 9.29613 17.0948 9.56769C17.0943 9.83926 17.2017 10.0999 17.3934 10.2923L17.3985 10.2973L19.0286 11.9108C19.1241 12.0059 19.2376 12.0812 19.3623 12.1322C19.4871 12.1833 19.6208 12.2091 19.7556 12.2082C20.0263 12.2086 20.2864 12.1027 20.4798 11.9132L23.1205 9.3048C23.1296 9.29576 23.1386 9.28625 23.1472 9.27672C23.3243 9.08253 23.4214 8.82849 23.419 8.56564C23.4165 8.3028 23.3146 8.05063 23.1339 7.85979Z" fill="white"/>
</svg>
