<svg width="24" height="28" viewBox="0 0 24 28" fill="none" xmlns="http://www.w3.org/2000/svg">
<path d="M3.74031 27.0417H2.00143C1.65554 27.0417 1.32383 26.9043 1.07925 26.6597C0.834668 26.4152 0.697266 26.0834 0.697266 25.7376V17.9126C0.697266 17.5667 0.834668 17.235 1.07925 16.9904C1.32383 16.7458 1.65554 16.6084 2.00143 16.6084H3.74031C4.08619 16.6084 4.41793 16.7458 4.6625 16.9904C4.90708 17.235 5.04449 17.5667 5.04449 17.9126V25.7376C5.04449 26.0834 4.90708 26.4152 4.6625 26.6597C4.41793 26.9043 4.08619 27.0417 3.74031 27.0417V27.0417Z" fill="white"/>
<path d="M15.9122 27.0416H14.1733C13.8274 27.0416 13.4957 26.9042 13.2511 26.6596C13.0065 26.415 12.8691 26.0833 12.8691 25.7374V12.6957C12.8691 12.3499 13.0065 12.0182 13.2511 11.7736C13.4957 11.529 13.8274 11.3916 14.1733 11.3916H15.9122C16.2581 11.3916 16.5898 11.529 16.8344 11.7736C17.079 12.0182 17.2164 12.3499 17.2164 12.6957V25.7374C17.2164 26.0833 17.079 26.415 16.8344 26.6596C16.5898 26.9042 16.2581 27.0416 15.9122 27.0416V27.0416Z" fill="white"/>
<path d="M21.9981 27.0407H20.2592C19.9134 27.0407 19.5816 26.9033 19.3371 26.6588C19.0925 26.4142 18.9551 26.0824 18.9551 25.7366V6.60885C18.9551 6.26296 19.0925 5.93125 19.3371 5.68667C19.5816 5.44209 19.9134 5.30469 20.2592 5.30469H21.9981C22.344 5.30469 22.6757 5.44209 22.9203 5.68667C23.1649 5.93125 23.3023 6.26296 23.3023 6.60885V25.7366C23.3023 26.0824 23.1649 26.4142 22.9203 26.6588C22.6757 26.9033 22.344 27.0407 21.9981 27.0407V27.0407Z" fill="white"/>
<path d="M9.82623 27.0422H8.08737C7.74148 27.0422 7.40976 26.9048 7.16518 26.6603C6.92061 26.4157 6.7832 26.084 6.7832 25.7381V2.26315C6.7832 1.91726 6.92061 1.58555 7.16518 1.34097C7.40976 1.09639 7.74148 0.958984 8.08737 0.958984H9.82624C10.1721 0.958984 10.5039 1.09639 10.7484 1.34097C10.993 1.58555 11.1304 1.91726 11.1304 2.26315V25.7381C11.1304 25.9093 11.0967 26.0789 11.0311 26.2372C10.9656 26.3954 10.8695 26.5392 10.7484 26.6603C10.6273 26.7814 10.4836 26.8774 10.3253 26.943C10.1671 27.0085 9.9975 27.0422 9.82623 27.0422Z" fill="white"/>
</svg>
