<svg width="22" height="22" viewBox="0 0 22 22" fill="none" xmlns="http://www.w3.org/2000/svg">
<path d="M14.4719 6.27246C14.1775 6.27262 13.8923 6.37484 13.6649 6.5617C13.4374 6.74856 13.2818 7.00849 13.2245 7.29723C13.1672 7.58596 13.2118 7.88563 13.3507 8.14517C13.4896 8.4047 13.7142 8.60806 13.9862 8.72058C14.2582 8.8331 14.5608 8.84781 14.8425 8.76223C15.1241 8.67666 15.3674 8.49609 15.5308 8.25127C15.6942 8.00644 15.7677 7.71252 15.7387 7.41959C15.7098 7.12666 15.5801 6.85284 15.3719 6.64478C15.2537 6.52665 15.1134 6.43297 14.9589 6.36908C14.8045 6.3052 14.639 6.27237 14.4719 6.27246Z" fill="white"/>
<path d="M21.5526 1.18573V1.18144C21.5123 1.0048 21.4235 0.842913 21.2961 0.714081C21.1687 0.585249 21.0078 0.494593 20.8316 0.452326C19.4115 0.105878 17.1775 0.475193 14.7018 1.4664C12.3211 2.39186 10.143 3.77113 8.28847 5.52751C7.78197 6.03132 7.3114 6.57003 6.88026 7.13966C5.92783 7.07386 4.97299 7.22727 4.08911 7.58809C1.33754 8.799 0.551737 11.898 0.342533 13.1703C0.312263 13.3511 0.324103 13.5364 0.37716 13.7119C0.430217 13.8874 0.523061 14.0482 0.648436 14.1819C0.773812 14.3157 0.928334 14.4186 1.10001 14.4829C1.27169 14.5471 1.4559 14.5709 1.63827 14.5523H1.64444L4.70958 14.2178C4.71339 14.2569 4.71768 14.2926 4.72101 14.3255C4.76038 14.699 4.92694 15.0476 5.19279 15.3129L6.68867 16.8097C6.95356 17.0759 7.30212 17.2427 7.6756 17.282L7.77805 17.2929L7.44447 20.3543V20.3605C7.42838 20.5161 7.44311 20.6733 7.48779 20.8233C7.53248 20.9732 7.60627 21.1129 7.70493 21.2343C7.8036 21.3557 7.9252 21.4565 8.06282 21.5309C8.20044 21.6053 8.35136 21.6519 8.50698 21.668C8.54362 21.6718 8.58039 21.6739 8.61728 21.6743C8.68354 21.6743 8.74967 21.6689 8.81503 21.6581C10.0946 21.4522 13.1921 20.6759 14.3997 17.9096C14.7576 17.0287 14.9115 16.0782 14.85 15.1294C15.4222 14.6992 15.9629 14.2286 16.4679 13.7212C18.2232 11.8843 19.604 9.7231 20.5333 7.35839C21.5193 4.91088 21.8905 2.66017 21.5526 1.18573ZM16.4507 9.51955C16.0593 9.91143 15.5604 10.1784 15.0172 10.2868C14.4739 10.3951 13.9108 10.3399 13.3989 10.1282C12.887 9.9165 12.4495 9.55777 12.1415 9.09737C11.8335 8.63696 11.669 8.09556 11.6687 7.54164C11.6684 6.98772 11.8324 6.44617 12.1399 5.98545C12.4474 5.52472 12.8846 5.16553 13.3963 4.95329C13.9079 4.74105 14.471 4.68529 15.0143 4.79308C15.5576 4.90086 16.0568 5.16734 16.4487 5.55882L16.4507 5.56086C16.9757 6.07793 17.2737 6.78235 17.2793 7.51917C17.2849 8.25599 16.9975 8.96484 16.4804 9.48979L16.4507 9.51955Z" fill="white"/>
<path d="M6.51741 17.2161C6.33301 17.1933 6.14658 17.2385 5.99319 17.3434C5.68867 17.5516 5.38275 17.7575 5.07395 17.9581C4.93988 18.0444 4.78072 18.0831 4.62203 18.068C4.46333 18.0529 4.31431 17.9849 4.19888 17.875C4.08344 17.7651 4.0083 17.6195 3.98551 17.4618C3.96272 17.304 3.99361 17.1431 4.07321 17.005L4.6522 16.0043C4.73498 15.8832 4.78106 15.7408 4.78494 15.5941C4.78882 15.4475 4.75033 15.3029 4.67408 15.1776C4.59782 15.0523 4.48704 14.9516 4.35502 14.8877C4.223 14.8238 4.07534 14.7993 3.92975 14.8172C3.28713 14.8985 2.68982 15.1912 2.23184 15.6492C2.05742 15.8241 1.52702 16.355 1.24158 18.3779C1.16032 18.959 1.10912 19.5439 1.08814 20.1302C1.08558 20.2303 1.10273 20.3299 1.13866 20.4234C1.1746 20.5168 1.22859 20.6023 1.29755 20.6749C1.36652 20.7475 1.4491 20.8058 1.54059 20.8465C1.63209 20.8871 1.73072 20.9094 1.83082 20.912C1.83741 20.9121 1.84401 20.9122 1.85061 20.9122H1.86965C2.45644 20.8914 3.04178 20.8405 3.62335 20.7597C5.64723 20.4738 6.17809 19.9429 6.35251 19.7685C6.8127 19.3103 7.10473 18.7102 7.18124 18.0653C7.20574 17.8647 7.14957 17.6626 7.02509 17.5033C6.90061 17.3441 6.71802 17.2408 6.51741 17.2161V17.2161Z" fill="white"/>
</svg>
