<svg width="142" height="32" viewBox="0 0 142 32" fill="none" xmlns="http://www.w3.org/2000/svg">
<path d="M16 1C7.71887 1 1 7.71886 1 16C1 24.2811 7.71887 31 16 31C24.2811 31 31 24.2811 31 16C31 7.71886 24.2811 1 16 1ZM25.2535 25.0677C20.2498 30.0605 12.1435 30.0495 7.15077 25.0459C2.15805 20.0422 2.16897 11.9359 7.17262 6.94319C12.1653 1.9614 20.2498 1.9614 25.2425 6.94319L25.7232 7.42389L25.2425 8.01384C24.8383 8.53824 24.4559 8.71304 24.0954 8.62564C23.9752 8.56009 23.866 8.48361 23.7677 8.39621C21.823 6.42972 19.0481 5.30444 16.1311 5.30444C13.2251 5.30444 10.5484 6.39694 8.58194 8.38529C4.38674 12.5259 4.34305 19.2884 8.48361 23.4836C8.51639 23.5164 8.54916 23.5492 8.58194 23.5819C10.5157 25.5375 13.2578 26.5972 16.2622 26.5645C19.2119 26.5426 22.0087 25.4283 23.7677 23.5929C23.8878 23.4836 24.0189 23.3744 24.161 23.287C24.5215 23.1559 25.0131 23.6256 25.3299 24.0736L25.6905 24.598L25.2535 25.0677ZM27.5586 19.7145C27.3401 19.9767 27.0779 20.2061 26.7939 20.3918C26.5098 20.5776 26.2039 20.7305 25.8871 20.8398C25.5703 20.949 25.2425 21.0364 24.9039 21.091C24.5761 21.1457 24.2484 21.1675 23.9206 21.1675C23.3197 21.1675 22.7298 21.0583 22.1726 20.8507C21.6373 20.6322 21.1566 20.3154 20.7524 19.8893C20.6431 19.78 20.5448 19.6599 20.4465 19.5288L19.9767 20.949H18.4472C18.3052 20.949 17.9665 20.8944 17.8463 20.4137L16.1202 15.126L14.3722 20.4246C14.3066 20.7305 14.0335 20.949 13.7276 20.9381H12.2746L9.33576 11.8267H11.0401C11.2149 11.8267 11.3897 11.8813 11.5317 11.9796C11.6737 12.0779 11.772 12.209 11.8157 12.3729L13.3452 17.5951C13.3452 17.606 13.3452 17.606 13.3452 17.6169V17.5951L15.0605 12.3292C15.1042 12.1763 15.2025 12.0452 15.3227 11.9578C15.4538 11.8594 15.6176 11.8048 15.7924 11.8048H16.5026C16.6774 11.8048 16.8412 11.8485 16.9833 11.9468C17.1144 12.0452 17.2127 12.1763 17.2564 12.3401L18.917 17.5951C18.917 17.6169 18.9279 17.6278 18.9279 17.6387C18.9279 17.6278 18.9279 17.6169 18.9388 17.6169C18.9388 17.6169 19.6489 14.8529 19.78 14.4924C19.9658 13.957 20.2607 13.4654 20.6431 13.0393C21.0255 12.6133 21.4953 12.2855 22.0197 12.0561C22.5987 11.8157 23.2105 11.6956 23.8332 11.7065C24.3685 11.7065 24.8929 11.7939 25.3955 11.9905C25.8653 12.1763 26.3023 12.4494 26.6519 12.8099C27.0124 13.1814 27.2964 13.6293 27.4822 14.1209C27.6897 14.6781 27.7881 15.268 27.7771 15.8689C27.7771 16.1967 27.7334 16.4152 27.6351 16.5681C27.5368 16.7211 27.3729 16.8522 27.0342 16.8522H21.8339C21.8558 17.1471 21.9213 17.4312 22.0087 17.7152C22.1071 18.0211 22.26 18.2942 22.4676 18.5346C22.6533 18.7422 22.8827 18.906 23.1449 19.0044C23.713 19.201 24.3248 19.2119 24.9039 19.0481C25.1224 18.9825 25.3299 18.8951 25.5375 18.7968C25.7232 18.6985 25.8762 18.622 25.9964 18.5346C26.4552 18.2505 26.8922 18.327 27.1216 18.6548L27.7553 19.4632L27.5586 19.7145Z" fill="#349AFA"/>
<path d="M25.4829 14.7107C25.4065 14.4922 25.2972 14.2955 25.1443 14.1207C24.9913 13.9568 24.8165 13.8257 24.6089 13.7383C24.3686 13.64 24.1173 13.5963 23.8551 13.6072C23.2652 13.6072 22.8172 13.7711 22.4895 14.0989C22.2054 14.3938 22.0088 14.7544 21.9214 15.1477H25.5813C25.5594 14.9947 25.5266 14.8527 25.4829 14.7107Z" fill="#349AFA"/>
<path d="M41.4957 22.9999L37.3906 8.45448H40.2244L42.8452 19.1434H42.9801L45.7784 8.45448H48.3565L51.1619 19.1505H51.2898L53.9105 8.45448H56.7443L52.6392 22.9999H50.0398L47.1278 12.794H47.0142L44.0952 22.9999H41.4957Z" fill="#194185"/>
<path d="M61.374 23.213C60.2803 23.213 59.3357 22.9857 58.5402 22.5312C57.7495 22.0719 57.1411 21.4232 56.7149 20.5852C56.2888 19.7424 56.0757 18.7504 56.0757 17.6093C56.0757 16.4872 56.2888 15.5023 56.7149 14.6548C57.1458 13.8025 57.7471 13.1396 58.5189 12.6661C59.2907 12.1879 60.1974 11.9488 61.2391 11.9488C61.9114 11.9488 62.5459 12.0577 63.1425 12.2755C63.7438 12.4886 64.2741 12.82 64.7334 13.2698C65.1974 13.7196 65.562 14.2925 65.8271 14.9886C66.0923 15.6799 66.2249 16.5037 66.2249 17.4602V18.2485H57.2831V16.5156H63.7604C63.7556 16.0231 63.6491 15.5852 63.4408 15.2016C63.2324 14.8134 62.9412 14.508 62.5672 14.2854C62.1979 14.0629 61.767 13.9516 61.2746 13.9516C60.749 13.9516 60.2874 14.0795 59.8896 14.3352C59.4919 14.5861 59.1818 14.9175 58.9592 15.3295C58.7414 15.7367 58.6302 16.1841 58.6254 16.6718V18.1846C58.6254 18.8191 58.7414 19.3636 58.9734 19.8181C59.2054 20.2679 59.5298 20.6136 59.9464 20.855C60.3631 21.0918 60.8508 21.2102 61.4095 21.2102C61.7836 21.2102 62.1221 21.1581 62.4251 21.0539C62.7282 20.945 62.991 20.7864 63.2135 20.5781C63.436 20.3697 63.6041 20.1117 63.7178 19.8039L66.1183 20.0738C65.9668 20.7083 65.678 21.2622 65.2518 21.7357C64.8304 22.2045 64.2907 22.5691 63.6325 22.8295C62.9744 23.0852 62.2215 23.213 61.374 23.213Z" fill="#194185"/>
<path d="M80.4835 12.9999H78.7505C78.7316 12.4933 78.6274 12.0482 78.438 11.6647C78.2486 11.2812 77.9929 10.9592 77.671 10.6988C77.3537 10.4336 76.9891 10.2348 76.5772 10.1022C76.1653 9.96963 75.7249 9.90334 75.2562 9.90334C74.3566 9.90334 73.5043 10.133 72.6994 10.5923C71.8944 11.0468 71.2055 11.7168 70.6326 12.6022C70.0597 13.4829 69.6691 14.5624 69.4607 15.8408C69.2524 17.0814 69.2832 18.1254 69.5531 18.9729C69.8229 19.8205 70.2704 20.4621 70.8954 20.8977C71.5204 21.3333 72.2638 21.5511 73.1255 21.5511C73.6227 21.5511 74.1103 21.4848 74.5886 21.3522C75.0715 21.2196 75.5213 21.0231 75.938 20.7627C76.3594 20.4976 76.7335 20.1732 77.0602 19.7897C77.3916 19.4014 77.652 18.9564 77.8414 18.4545H79.6028C79.3424 19.1979 78.9896 19.8631 78.5445 20.4502C78.1042 21.0373 77.5952 21.5369 77.0175 21.9488C76.4399 22.356 75.8173 22.6661 75.1496 22.8792C74.482 23.0923 73.7884 23.1988 73.0687 23.1988C71.8092 23.1988 70.7368 22.891 69.8513 22.2755C68.9707 21.6552 68.3409 20.7793 67.9621 19.6477C67.5881 18.5113 67.5289 17.1666 67.7846 15.6136C68.0403 14.0984 68.5303 12.7916 69.2548 11.6931C69.9792 10.5899 70.867 9.74236 71.9181 9.1505C72.9692 8.55391 74.1103 8.25562 75.3414 8.25562C76.08 8.25562 76.7595 8.36215 77.3798 8.57522C78 8.78829 78.5398 9.10079 78.9991 9.51272C79.4584 9.91991 79.8158 10.4171 80.0715 11.0042C80.3319 11.5866 80.4692 12.2518 80.4835 12.9999Z" fill="#194185"/>
<path d="M85.1575 23.2272C84.1537 23.2272 83.3133 22.9881 82.6362 22.5099C81.9591 22.0317 81.4809 21.3617 81.2016 20.4999C80.9269 19.6382 80.882 18.6344 81.0666 17.4886C81.2465 16.3711 81.604 15.3981 82.1391 14.5695C82.6788 13.7362 83.3488 13.0923 84.149 12.6377C84.9539 12.1784 85.8393 11.9488 86.8053 11.9488C87.809 11.9488 88.6471 12.1903 89.3195 12.6732C89.9965 13.1514 90.4748 13.8238 90.7541 14.6903C91.0335 15.552 91.0808 16.5605 90.8962 17.7158C90.7162 18.8238 90.354 19.7921 89.8095 20.6207C89.2697 21.4445 88.5998 22.0861 87.7996 22.5454C87.0041 22.9999 86.1234 23.2272 85.1575 23.2272ZM85.1859 21.7215C85.953 21.7215 86.6182 21.525 87.1817 21.132C87.7499 20.739 88.2091 20.2206 88.5595 19.5766C88.9146 18.9327 89.1537 18.2367 89.2768 17.4886C89.3905 16.7783 89.3857 16.1178 89.2626 15.507C89.1395 14.8915 88.8768 14.3967 88.4743 14.0227C88.0718 13.6439 87.506 13.4545 86.7768 13.4545C86.0098 13.4545 85.3398 13.6533 84.7669 14.0511C84.1987 14.4488 83.7394 14.972 83.3891 15.6207C83.0387 16.2693 82.8043 16.9677 82.6859 17.7158C82.5723 18.4261 82.5747 19.0866 82.693 19.6974C82.8161 20.3034 83.0789 20.7935 83.4814 21.1675C83.8886 21.5369 84.4568 21.7215 85.1859 21.7215Z" fill="#194185"/>
<path d="M91.7883 22.9999L93.6065 12.0908H95.2258L94.9417 13.7954H95.0837C95.4104 13.213 95.8531 12.7608 96.4119 12.4389C96.9753 12.1122 97.6121 11.9488 98.3224 11.9488C99.0326 11.9488 99.6031 12.1122 100.034 12.4389C100.465 12.7608 100.766 13.213 100.936 13.7954H101.05C101.419 13.2272 101.911 12.7774 102.527 12.446C103.147 12.1145 103.848 11.9488 104.629 11.9488C105.595 11.9488 106.338 12.2542 106.859 12.865C107.385 13.4758 107.541 14.4204 107.328 15.6988L106.106 22.9999H104.43L105.652 15.6988C105.78 14.8891 105.652 14.3139 105.268 13.9729C104.89 13.6273 104.402 13.4545 103.805 13.4545C103.038 13.4545 102.406 13.6841 101.909 14.1434C101.412 14.6027 101.106 15.1874 100.993 15.8977L99.7996 22.9999H98.0951L99.3451 15.5283C99.4445 14.9033 99.3262 14.4014 98.99 14.0227C98.6538 13.6439 98.1661 13.4545 97.5269 13.4545C97.0913 13.4545 96.6652 13.5729 96.2485 13.8096C95.8318 14.0416 95.4744 14.3636 95.1761 14.7755C94.8778 15.1827 94.686 15.6514 94.6008 16.1818L93.4644 22.9999H91.7883Z" fill="#194185"/>
<path d="M108.371 22.9999L110.189 12.0908H111.809L111.525 13.7954H111.667C111.993 13.213 112.436 12.7608 112.995 12.4389C113.558 12.1122 114.195 11.9488 114.905 11.9488C115.615 11.9488 116.186 12.1122 116.617 12.4389C117.048 12.7608 117.348 13.213 117.519 13.7954H117.632C118.002 13.2272 118.494 12.7774 119.11 12.446C119.73 12.1145 120.431 11.9488 121.212 11.9488C122.178 11.9488 122.921 12.2542 123.442 12.865C123.968 13.4758 124.124 14.4204 123.911 15.6988L122.689 22.9999H121.013L122.235 15.6988C122.363 14.8891 122.235 14.3139 121.851 13.9729C121.472 13.6273 120.985 13.4545 120.388 13.4545C119.621 13.4545 118.989 13.6841 118.492 14.1434C117.995 14.6027 117.689 15.1874 117.576 15.8977L116.382 22.9999H114.678L115.928 15.5283C116.027 14.9033 115.909 14.4014 115.573 14.0227C115.237 13.6439 114.749 13.4545 114.11 13.4545C113.674 13.4545 113.248 13.5729 112.831 13.8096C112.415 14.0416 112.057 14.3636 111.759 14.7755C111.461 15.1827 111.269 15.6514 111.184 16.1818L110.047 22.9999H108.371Z" fill="#194185"/>
</svg>
