<svg width="64" height="64" viewBox="0 0 64 64" fill="none" xmlns="http://www.w3.org/2000/svg">
<path fill-rule="evenodd" clip-rule="evenodd" d="M26.3774 23.2786C26.3477 23.2786 26.2903 23.2786 26.2607 23.2786C25.7681 23.2186 25.3626 22.7672 25.3626 22.2558C25.3329 21.7743 25.0717 10.5214 31.4196 7.96409C33.014 7.33218 34.4937 7.45246 35.7399 8.38536C37.275 9.49858 38.3768 11.725 39.0434 14.9745C39.5063 17.2612 39.5934 19.2468 39.5934 19.3372C39.6231 19.8185 39.2472 20.1797 38.7527 20.0894C38.2601 20.0291 37.8546 19.578 37.8546 19.0965C37.7676 17.0505 37.1009 11.4242 34.8993 9.79937C34.2029 9.28794 33.3325 9.2277 32.29 9.64897C26.8402 11.8453 27.1013 22.4062 27.1013 22.5265C27.1013 22.9477 26.8126 23.2786 26.3774 23.2786Z" fill="#595961"/>
<path opacity="0.46" fill-rule="evenodd" clip-rule="evenodd" d="M35.4189 8.44541C34.2597 7.60287 32.8986 7.48259 31.419 8.05426C28.8395 9.10724 27.0137 11.8754 26.1156 16.0877C25.449 19.1866 25.536 21.9849 25.536 22.1052C25.536 22.2556 25.5933 22.4062 25.7101 22.5265C25.8248 22.6467 25.9415 22.7371 26.0859 22.7371C26.1156 22.7371 26.1453 22.7371 26.173 22.7371C26.4341 22.7371 26.6378 22.5265 26.6378 22.2556C26.6378 22.1353 26.3768 11.3939 31.971 9.13736C33.1005 8.68617 34.0856 8.74621 34.8986 9.348C37.2447 11.063 37.9409 16.87 38.028 18.9461C38.028 19.2469 38.2892 19.5479 38.6076 19.5778C38.8984 19.6079 39.1298 19.3973 39.1298 19.0965C39.1002 18.7354 38.7817 10.9126 35.4189 8.44541Z" fill="#B2B2C2"/>
<path opacity="0.46" fill-rule="evenodd" clip-rule="evenodd" d="M26.1163 22.376C26.0866 22.376 26.0867 22.376 26.059 22.376C25.8849 22.3459 25.7385 22.1654 25.7108 21.9849C25.7108 21.8644 25.6238 19.1265 26.2904 16.0274C27.1588 11.9055 28.9866 9.16743 31.5067 8.14437C32.927 7.5727 34.203 7.69318 35.3049 8.47548C38.551 10.8523 38.8695 18.5549 38.8695 18.8858C38.8695 19.0663 38.7251 19.1866 38.551 19.1567C38.3769 19.1265 38.2325 18.9761 38.2028 18.7655C38.2028 18.6751 37.8843 11.1232 34.9567 8.95679C34.0863 8.32509 33.0141 8.23473 31.7976 8.71604C26.1163 11.0931 26.3775 21.9849 26.3775 22.1051C26.4052 22.2555 26.2904 22.376 26.1163 22.376Z" fill="#B2B2C2"/>
<path opacity="0.62" fill-rule="evenodd" clip-rule="evenodd" d="M28.4645 13.7706C28.6959 13.3194 28.9273 12.868 29.1311 12.3867C29.044 12.5371 28.4644 14.1017 26.6959 13.861C26.6662 13.861 27.7385 14.1919 28.4645 13.7706Z" fill="#595961"/>
<path opacity="0.62" fill-rule="evenodd" clip-rule="evenodd" d="M27.8248 15.6969C27.9989 15.2154 28.1729 14.704 28.2896 14.2227C28.2323 14.4032 27.9414 16.0278 26.0859 16.0278C26.0859 16.0278 27.1582 16.2385 27.8248 15.6969Z" fill="#595961"/>
<path opacity="0.62" fill-rule="evenodd" clip-rule="evenodd" d="M37.9992 11.8154C37.7677 11.2737 37.5065 10.7623 37.2454 10.2207C37.3325 10.4012 38.2029 12.1162 37.2178 13.3497C37.2178 13.3497 37.9715 12.7481 37.9992 11.8154Z" fill="#595961"/>
<path opacity="0.62" fill-rule="evenodd" clip-rule="evenodd" d="M36.4064 9.10751C35.9415 8.71636 35.4785 8.35533 35.0137 8.02441C35.1877 8.17481 36.7247 9.28803 36.6377 10.9731C36.608 10.9731 36.8693 9.98017 36.4064 9.10751Z" fill="#595961"/>
<path opacity="0.62" fill-rule="evenodd" clip-rule="evenodd" d="M29.3043 12.1158C29.6525 11.7548 29.9412 11.3637 30.2597 10.9424C30.145 11.0627 29.1876 12.2964 27.4785 11.845C27.4785 11.845 28.4636 12.3867 29.3043 12.1158Z" fill="#595961"/>
<path opacity="0.62" fill-rule="evenodd" clip-rule="evenodd" d="M30.3766 10.7315C30.7821 10.4307 31.1579 10.1297 31.5358 9.79883C31.3914 9.88918 30.2025 10.8819 28.5508 10.1599C28.5508 10.1599 29.5062 10.8518 30.3766 10.7315Z" fill="#595961"/>
<path opacity="0.62" fill-rule="evenodd" clip-rule="evenodd" d="M31.9413 9.73872C32.4338 9.58832 32.8987 9.40781 33.3616 9.22729C33.1875 9.28733 31.7098 9.82888 30.2598 8.68555C30.2894 8.68555 31.0432 9.58832 31.9413 9.73872Z" fill="#595961"/>
<path opacity="0.62" fill-rule="evenodd" clip-rule="evenodd" d="M33.3624 9.19771C33.768 9.25795 34.1735 9.28807 34.579 9.31819C34.4346 9.28807 33.1586 9.19771 32.4346 7.99414C32.4346 7.99414 32.7255 8.80656 33.3624 9.19771Z" fill="#595961"/>
<path opacity="0.62" fill-rule="evenodd" clip-rule="evenodd" d="M35.0435 9.8585C35.3323 10.1896 35.6527 10.5205 35.9989 10.8213C35.8842 10.701 34.8991 9.7081 35.1306 8.47461C35.1009 8.47461 34.7824 9.16655 35.0435 9.8585Z" fill="#595961"/>
<path opacity="0.74" fill-rule="evenodd" clip-rule="evenodd" d="M38.551 18.7354C38.551 18.4043 38.2325 10.7921 35.0734 8.4755C34.4641 8.02411 33.7975 7.81348 33.1012 7.81348C32.5789 7.81348 32.029 7.93375 31.4494 8.17451C28.9272 9.16745 27.1588 11.8453 26.2904 15.9371C25.6238 19.0061 25.7108 21.7441 25.7108 21.8644C25.7108 21.9548 25.7978 22.0449 25.8849 22.0449H25.9125C25.9995 22.0449 26.059 21.9849 26.059 21.8945C26.059 21.7743 25.7681 10.7921 31.5938 8.44538C32.8697 7.93375 33.9716 8.02411 34.8993 8.71606C37.912 10.9126 38.2325 18.585 38.2325 18.6752C38.2325 18.7655 38.3196 18.8557 38.4066 18.8557C38.4066 18.8557 38.4065 18.8557 38.4342 18.8557C38.4936 18.8858 38.551 18.8256 38.551 18.7354Z" fill="url(#paint0_linear_122_15530)"/>
<path fill-rule="evenodd" clip-rule="evenodd" d="M39.043 14.9742C38.3764 11.7247 37.2746 9.52824 35.7395 8.3849C34.8988 7.78331 33.9988 7.51243 33.0137 7.57267C33.797 7.63271 34.521 7.90359 35.1877 8.3849C36.7247 9.49831 37.8266 11.7247 38.4932 14.9742C38.9561 17.2609 39.043 19.2466 39.043 19.3369C39.043 19.698 38.869 19.9688 38.5782 20.059C38.6375 20.0891 38.695 20.0891 38.7246 20.0891C39.2172 20.1494 39.593 19.8183 39.5653 19.3369C39.593 19.2466 39.5059 17.291 39.043 14.9742Z" fill="url(#paint1_linear_122_15530)"/>
<path fill-rule="evenodd" clip-rule="evenodd" d="M31.7396 9.64907C26.2898 11.8454 26.5508 22.4063 26.5508 22.5265C26.5508 22.8876 26.3767 23.1585 26.0859 23.2486C26.1453 23.2787 26.173 23.2787 26.2324 23.2787C26.2601 23.2787 26.3194 23.2787 26.3471 23.2787C26.7823 23.2787 27.071 22.9478 27.071 22.5265C27.071 22.4063 26.812 11.8755 32.2598 9.67919C32.6376 9.52879 32.9857 9.43843 33.3042 9.40831C32.8393 9.31815 32.3192 9.40831 31.7396 9.64907Z" fill="url(#paint2_linear_122_15530)"/>
<path fill-rule="evenodd" clip-rule="evenodd" d="M39.9988 12.2668L15.4202 20.1497C15.4202 20.1497 14.3778 20.4507 14.1166 20.7816C13.8555 21.1125 13.7981 22.0452 13.7981 22.0452L10 52.434L38.5211 57.9701L40.7247 12.2367C40.4063 12.1765 40.0858 12.2367 39.9988 12.2668Z" fill="url(#paint3_linear_122_15530)"/>
<path fill-rule="evenodd" clip-rule="evenodd" d="M48.4927 16.1778C48.4927 16.1778 48.463 15.937 48.3186 15.8468C48.2019 15.7565 48.0575 15.7565 48.0575 15.7565L44.028 15.4557L41.0726 12.4168C40.9559 12.3265 40.8392 12.2664 40.6948 12.2363L38.4932 57.9697L53.9405 54.5096L48.4927 16.1778Z" fill="url(#paint4_linear_122_15530)"/>
<path fill-rule="evenodd" clip-rule="evenodd" d="M29.8543 37.6603C29.4191 37.0585 28.8989 36.517 28.3766 36.0355C27.8544 35.5541 27.3045 35.163 26.7526 34.802C26.3767 34.5612 26.0286 34.3205 25.7378 34.0797C25.449 33.8391 25.2175 33.5984 25.0434 33.3877C24.8694 33.147 24.7249 32.9364 24.6379 32.6958C24.5509 32.455 24.5211 32.2143 24.5211 31.9735C24.5211 31.6426 24.6082 31.3117 24.7249 31.0408C24.8397 30.7702 25.0434 30.5294 25.2452 30.3188C25.4786 30.1081 25.7378 29.9577 26.0582 29.8375C26.3767 29.717 26.7525 29.657 27.158 29.6268C27.5932 29.5967 28.0285 29.6268 28.434 29.657C28.8395 29.6869 29.2173 29.7772 29.5932 29.8674C29.9413 29.9577 30.2895 30.078 30.5783 30.1985C30.8691 30.3188 31.1579 30.4391 31.3616 30.5595L33.2746 24.6623C32.9857 24.5119 32.6376 24.3613 32.2598 24.2712C31.8542 24.1507 31.419 24.0606 30.9265 24.0003C30.4339 23.9403 29.9116 23.9102 29.3617 23.9102C28.8118 23.9102 28.2323 23.9403 27.623 24.0304C26.3194 24.211 25.1582 24.572 24.1157 25.1135C23.1306 25.6252 22.2602 26.287 21.5362 27.0994C20.8399 27.8817 20.2899 28.7843 19.8844 29.8073C19.5065 30.8003 19.2751 31.9135 19.2178 33.1169C19.1881 33.8391 19.2454 34.501 19.4195 35.1028C19.5639 35.7045 19.7973 36.2762 20.1158 36.8178C20.4046 37.3593 20.7824 37.8408 21.188 38.292C21.5935 38.7434 22.086 39.1647 22.5786 39.5558C22.9841 39.8566 23.3323 40.1574 23.6231 40.4283C23.9119 40.6992 24.1454 40.9698 24.3175 41.2708C24.4915 41.5415 24.6082 41.8124 24.6952 42.1132C24.7823 42.384 24.812 42.6848 24.7823 42.9858C24.7823 43.2866 24.6953 43.5874 24.5786 43.8282C24.4639 44.0689 24.3174 44.3097 24.086 44.4902C23.8842 44.6707 23.6232 44.791 23.3324 44.8512C23.0436 44.9113 22.6954 44.9414 22.3176 44.8813C21.8844 44.8211 21.4491 44.7008 21.0436 44.5201C20.638 44.3697 20.2306 44.1591 19.8548 43.9484C19.4789 43.738 19.1308 43.4973 18.84 43.2866C18.5215 43.076 18.2603 42.8352 18.0586 42.6547L16.7529 47.1379C16.9567 47.4387 17.2456 47.7096 17.564 47.9802C17.8845 48.2511 18.2604 48.5218 18.6956 48.7927C19.1308 49.0334 19.5937 49.274 20.0862 49.4846C20.5788 49.6952 21.1306 49.8758 21.6806 50.0264H21.7103H21.7379H21.7676H21.7973C22.9842 50.297 24.1157 50.3573 25.1878 50.2069C26.2897 50.0563 27.3044 49.6651 28.1728 49.0635C29.0709 48.4316 29.7969 47.5891 30.3468 46.4759C30.8987 45.3627 31.2172 44.0087 31.2746 42.4742C31.3042 41.5114 31.1876 40.669 30.9265 39.8867C30.6654 38.9841 30.2895 38.292 29.8543 37.6603Z" fill="url(#paint5_linear_122_15530)"/>
<path opacity="0.226763" fill-rule="evenodd" clip-rule="evenodd" d="M16.9416 47.383C16.8744 47.3033 16.811 47.2218 16.7536 47.1381L18.0593 42.6549C18.0771 42.6717 18.0969 42.689 18.1166 42.7067C18.3105 42.8799 18.5519 43.0957 18.8407 43.2868C19.1315 43.4975 19.4796 43.7382 19.8555 43.9488C20.2313 44.1593 20.6388 44.3699 21.0443 44.5205C21.4498 44.701 21.8851 44.8213 22.3183 44.8816C22.6961 44.9416 23.0443 44.9117 23.3331 44.8514C23.6239 44.7912 23.8849 44.6709 24.0867 44.4904C24.3182 44.3099 24.4646 44.0691 24.5793 43.8284C24.696 43.5876 24.783 43.2868 24.783 42.986C24.8127 42.685 24.783 42.3842 24.696 42.1134C24.6089 41.8126 24.4922 41.5417 24.3182 41.271C24.154 40.985 23.9364 40.7263 23.6653 40.4688C23.8078 40.6297 23.9285 40.7948 24.0294 40.97C24.2034 41.2409 24.3182 41.5116 24.4052 41.8126C24.4923 42.0833 24.5219 42.3842 24.4923 42.685C24.4923 42.986 24.4053 43.2868 24.2905 43.5276C24.1738 43.7683 24.0294 44.0089 23.7979 44.1894C23.5942 44.3699 23.3331 44.4904 23.0443 44.5504C22.7535 44.6107 22.4053 44.6408 22.0295 44.5806C21.5943 44.5205 21.1591 44.4 20.7535 44.2195C20.348 44.0691 19.9425 43.8585 19.5646 43.6479C19.1888 43.4372 18.8407 43.1967 18.5519 42.986C18.2611 42.7949 18.0198 42.5791 17.8259 42.4059C17.8061 42.3882 17.7882 42.3709 17.7684 42.3541L16.4648 46.8371C16.5934 47.0287 16.7577 47.208 16.9416 47.383ZM21.2125 38.3196C21.1037 38.2119 20.9988 38.1026 20.8979 37.9914C20.4924 37.54 20.1166 37.0587 19.8258 36.5172C19.5073 35.9754 19.2758 35.4038 19.1314 34.8022C18.9574 34.2004 18.898 33.5384 18.9276 32.8163C18.985 31.6127 19.2185 30.4995 19.5943 29.5066C19.9999 28.4837 20.5518 27.5811 21.2461 26.7988C21.9721 25.9864 22.8404 25.3244 23.8256 24.8129C24.87 24.2714 26.0292 23.9104 27.3328 23.7298C27.9421 23.6395 28.5218 23.6094 29.0717 23.6094C29.6236 23.6094 30.1458 23.6395 30.6384 23.6997C31.1309 23.76 31.5662 23.8501 31.9717 23.9706C32.3475 24.0608 32.6957 24.2112 32.9865 24.3616L32.941 24.5023C32.7313 24.4112 32.5018 24.3291 32.2605 24.2714C31.855 24.1511 31.4197 24.0608 30.9272 24.0005C30.4346 23.9405 29.9124 23.9104 29.3624 23.9104C28.8125 23.9104 28.233 23.9405 27.6237 24.0306C26.3201 24.2112 25.1589 24.5722 24.1164 25.1139C23.1313 25.6254 22.2609 26.2872 21.5369 27.0996C20.8406 27.8819 20.2906 28.7845 19.8851 29.8076C19.5072 30.8005 19.2759 31.9137 19.2185 33.1171C19.1888 33.8394 19.2462 34.5012 19.4202 35.103C19.5646 35.7048 19.798 36.2764 20.1165 36.818C20.4053 37.3595 20.7832 37.841 21.1887 38.2922C21.1966 38.3013 21.2045 38.3105 21.2125 38.3196ZM25.149 33.5112C25.3072 33.6901 25.5051 33.885 25.7385 34.0799C26.0293 34.3207 26.3775 34.5614 26.7533 34.8022C27.3052 35.1632 27.8551 35.5544 28.3773 36.0357C28.5297 36.1758 28.68 36.3209 28.8303 36.4713C28.589 36.2118 28.3377 35.9664 28.0865 35.7349C27.5662 35.2534 27.0144 34.8622 26.4645 34.5012C26.0867 34.2604 25.7385 34.0199 25.4497 33.7791C25.3409 33.6893 25.2419 33.5996 25.149 33.5112Z" fill="black"/>
<path opacity="0.41" fill-rule="evenodd" clip-rule="evenodd" d="M45.0128 49.4551L44.0277 15.4558L43.8536 15.2753L44.3185 48.9736C44.3185 48.9736 40.2316 55.4123 39.6224 55.2318C38.7243 54.9612 41.3908 12.7479 41.3908 12.7479L41.1 12.4471C40.9853 12.3568 40.8389 12.2967 40.7242 12.2666L38.5502 57.3681L38.5205 58L39.2741 57.0071L45.0128 49.4551Z" fill="url(#paint6_linear_122_15530)"/>
<path fill-rule="evenodd" clip-rule="evenodd" d="M33.9119 14.2229C33.5657 15.6369 33.1306 16.9607 32.8121 17.7732C32.6084 18.2547 32.8398 18.7059 33.275 18.7661C33.7399 18.8263 34.2602 18.4952 34.4342 18.0139C34.4639 17.9236 35.2452 15.968 35.7398 13.6512V13.6211L33.9119 14.2229Z" fill="url(#paint7_linear_122_15530)"/>
<path fill-rule="evenodd" clip-rule="evenodd" d="M20.84 18.4343C20.4345 19.3369 20.029 20.1192 19.7382 20.6608C19.4791 21.1122 19.6234 21.5935 20.0586 21.7137C20.4918 21.8643 21.0714 21.5935 21.3325 21.1421C21.3622 21.082 22.203 19.6078 22.9567 17.7422L20.84 18.4343Z" fill="url(#paint8_linear_122_15530)"/>
<path opacity="0.32" fill-rule="evenodd" clip-rule="evenodd" d="M38.5205 57.9701L45.0128 49.4551L53.9996 54.5099L38.5205 57.9701Z" fill="url(#paint9_linear_122_15530)"/>
<path opacity="0.19" fill-rule="evenodd" clip-rule="evenodd" d="M38.5205 57.9701L44.9554 49.4551L53.9996 54.5099L38.5205 57.9701Z" fill="url(#paint10_linear_122_15530)"/>
<path opacity="0.19" fill-rule="evenodd" clip-rule="evenodd" d="M38.5205 57.9701L44.9554 49.4551L53.9996 54.5099L38.5205 57.9701Z" fill="url(#paint11_linear_122_15530)"/>
<path opacity="0.6" fill-rule="evenodd" clip-rule="evenodd" d="M32.2024 34.1404C35.5653 38.8641 37.8262 43.979 38.9557 48.9435L40.7243 12.2064C40.4058 12.1463 40.0853 12.2064 39.9983 12.2365L15.4198 20.1497C15.4198 20.1497 15.1882 20.2097 14.8975 20.3302C21.1306 22.5566 27.3619 27.3406 32.2024 34.1404Z" fill="url(#paint12_linear_122_15530)"/>
<path fill-rule="evenodd" clip-rule="evenodd" d="M48.3466 15.877C48.493 15.9974 48.493 16.178 48.493 16.178L53.8835 54.4795L45.0134 49.4248L44.0283 15.4258L48.0004 15.7266C48.0281 15.7567 48.2022 15.7567 48.3466 15.877Z" fill="url(#paint13_linear_122_15530)"/>
<path fill-rule="evenodd" clip-rule="evenodd" d="M47.7093 15.9676C47.7093 15.9676 47.8834 15.9676 48.0278 16.118C48.1722 16.2385 48.2018 16.419 48.2018 16.419L53.5072 54.2995L53.9128 54.5402L48.5203 16.2084C48.5203 16.2084 48.4926 16.0279 48.3759 15.9076C48.2315 15.7871 48.0278 15.7871 48.0278 15.7871L44.0576 15.4863L47.7093 15.9676Z" fill="url(#paint14_linear_122_15530)"/>
<path fill-rule="evenodd" clip-rule="evenodd" d="M10 52.4326L38.5211 57.9687L39.9136 26.6172L13.5468 27.3667L10 52.4326Z" fill="url(#paint15_linear_122_15530)"/>
<path opacity="0.3" fill-rule="evenodd" clip-rule="evenodd" d="M19.363 20.5881C19.1038 21.3194 19.359 22.0878 19.9366 22.3047C20.5122 22.5215 21.1888 22.1045 21.4499 21.3734C21.709 20.6423 21.4519 19.8737 20.8763 19.657C20.3006 19.4401 19.6221 19.857 19.363 20.5881Z" fill="white"/>
<path opacity="0.89" fill-rule="evenodd" clip-rule="evenodd" d="M19.3314 20.2407C19.0723 20.9718 19.3294 21.7403 19.905 21.9571C20.4807 22.174 21.1592 21.7571 21.4183 21.0259C21.6775 20.2946 21.4223 19.5261 20.8447 19.3093C20.2691 19.0924 19.5925 19.5094 19.3314 20.2407Z" fill="black"/>
<path fill-rule="evenodd" clip-rule="evenodd" d="M44.0574 15.4557L41.1 12.4168C40.9853 12.3265 40.8389 12.2664 40.7242 12.2363L38.5205 57.9697L45.0425 49.4247L44.0574 15.4557Z" fill="url(#paint16_linear_122_15530)"/>
<path fill-rule="evenodd" clip-rule="evenodd" d="M39.9992 12.2665L15.4206 20.1493C15.4206 20.1493 14.3782 20.4503 14.117 20.7813C14.0874 20.8114 14.0873 20.8415 14.0596 20.8716L38.84 13.7708C39.0437 13.7106 39.5363 13.5301 39.4789 15.0043L37.9715 57.9095L38.4938 57.9999L40.6954 12.2665C40.4066 12.1761 40.0862 12.2364 39.9992 12.2665Z" fill="url(#paint17_linear_122_15530)"/>
<path fill-rule="evenodd" clip-rule="evenodd" d="M39.9992 12.2665L15.4206 20.1493C15.4206 20.1493 14.3782 20.4503 14.117 20.7813C14.0874 20.8114 14.0873 20.8415 14.0596 20.8716L19.7982 19.2166L39.5362 12.8683C39.6233 12.8381 39.9418 12.7779 40.2603 12.8381L38.0863 57.9095L38.4938 57.9999L40.6954 12.2665C40.4066 12.1761 40.0862 12.2364 39.9992 12.2665Z" fill="url(#paint18_linear_122_15530)"/>
<path opacity="0.32" fill-rule="evenodd" clip-rule="evenodd" d="M46.3187 50.177L45.0131 49.4248L38.4932 57.9697L38.8393 57.8793C38.8393 57.8793 44.5799 50.2071 45.1001 49.9664C45.478 49.816 46.3187 50.177 46.3187 50.177Z" fill="url(#paint19_linear_122_15530)"/>
<path opacity="0.57" fill-rule="evenodd" clip-rule="evenodd" d="M38.5205 57.9697L45.0425 49.4248C45.0128 49.4549 40.8982 54.1184 38.5205 57.9697Z" fill="url(#paint20_linear_122_15530)"/>
<path opacity="0.46" fill-rule="evenodd" clip-rule="evenodd" d="M53.9997 54.5099L45.0426 49.4551C45.0129 49.4551 46.0574 49.6356 53.9997 54.5099Z" fill="url(#paint21_linear_122_15530)"/>
<path opacity="0.3" fill-rule="evenodd" clip-rule="evenodd" d="M32.6138 17.5881C32.3527 18.3194 32.6099 19.0879 33.1855 19.3048C33.7631 19.5218 34.4397 19.1048 34.6988 18.3737C34.96 17.6424 34.7028 16.8739 34.1272 16.6569C33.5515 16.4402 32.873 16.8569 32.6138 17.5881Z" fill="white"/>
<path opacity="0.89" fill-rule="evenodd" clip-rule="evenodd" d="M32.5824 17.2424C32.3232 17.9737 32.5805 18.7423 33.1561 18.9592C33.7317 19.1759 34.4102 18.7592 34.6693 18.0279C34.9284 17.2968 34.6732 16.5282 34.0976 16.3113C33.52 16.0944 32.8435 16.5113 32.5824 17.2424Z" fill="black"/>
<path fill-rule="evenodd" clip-rule="evenodd" d="M20.3776 21.7142C20.348 21.7142 20.2906 21.7142 20.2609 21.7142C19.798 21.6541 19.4796 21.2028 19.5369 20.6913C19.5943 20.2098 21.246 8.95698 28.0291 6.39963C29.7382 5.76773 31.1882 5.88801 32.29 6.82091C33.6233 7.93412 34.3473 10.1606 34.464 13.41C34.551 15.6967 34.29 17.6824 34.29 17.7728C34.2327 18.2541 33.7974 18.6153 33.3326 18.5249C32.8697 18.4647 32.5215 18.0135 32.6085 17.532C32.8696 15.4861 33.1584 9.85976 31.2179 8.23492C30.6086 7.72349 29.768 7.66325 28.6385 8.08452C22.8128 10.2808 21.2757 20.8417 21.2757 20.9319C21.159 21.3833 20.8128 21.7142 20.3776 21.7142Z" fill="#595961"/>
<path opacity="0.46" fill-rule="evenodd" clip-rule="evenodd" d="M31.9417 6.88078C30.9269 6.03843 29.5937 5.91815 27.9993 6.48982C25.2457 7.5428 22.9272 10.3108 21.3328 14.493C20.1459 17.5921 19.7385 20.3902 19.7385 20.5106C19.7108 20.661 19.7682 20.8114 19.8552 20.9319C19.9423 21.0522 20.0589 21.1425 20.2033 21.1425C20.231 21.1425 20.2607 21.1425 20.2904 21.1425C20.5515 21.1425 20.7829 20.9319 20.8125 20.661C20.8402 20.5408 22.3773 9.79935 28.3771 7.5428C29.5936 7.09141 30.5787 7.15166 31.275 7.75344C33.3323 9.46844 33.0435 15.2753 32.7824 17.3513C32.7527 17.6523 32.9565 17.9531 33.2453 17.9832C33.5361 18.0133 33.8249 17.8027 33.8545 17.5019C33.8842 17.1708 34.899 9.34816 31.9417 6.88078Z" fill="#B2B2C2"/>
<path opacity="0.81" fill-rule="evenodd" clip-rule="evenodd" d="M20.2606 20.8116C20.2309 20.8116 20.231 20.8116 20.2033 20.8116C20.0292 20.7815 19.9124 20.6009 19.9421 20.4204C19.9718 20.2999 20.3477 17.5621 21.5366 14.463C23.1309 10.341 25.3919 7.60297 28.0862 6.57992C29.6232 6.00825 30.8695 6.12873 31.8249 6.91103C34.6655 9.28786 33.6804 16.9904 33.623 17.3213C33.5934 17.5018 33.449 17.6221 33.2453 17.5922C33.0732 17.5621 32.9565 17.4117 32.9565 17.201C32.9565 17.1107 33.9415 9.55873 31.3917 7.39234C30.638 6.82067 29.5936 6.76063 28.3197 7.24194C22.2032 9.55873 20.6088 20.4204 20.6088 20.5407C20.5791 20.6911 20.4347 20.8116 20.2606 20.8116Z" fill="#B2B2C2"/>
<path opacity="0.42" fill-rule="evenodd" clip-rule="evenodd" d="M24.0859 12.2062C24.4044 11.755 24.6951 11.3036 24.9839 10.8223C24.8692 10.9727 24.0285 12.5373 22.2897 12.2965C22.26 12.2965 23.2749 12.6274 24.0859 12.2062Z" fill="#595961"/>
<path opacity="0.42" fill-rule="evenodd" clip-rule="evenodd" d="M23.1016 14.1315C23.3627 13.65 23.6237 13.1385 23.8255 12.6572C23.7385 12.8377 23.1588 14.4624 21.333 14.4624C21.333 14.4624 22.3479 14.673 23.1016 14.1315Z" fill="#595961"/>
<path opacity="0.42" fill-rule="evenodd" clip-rule="evenodd" d="M22.3481 16.1185C22.5795 15.6068 22.7537 15.0954 22.9278 14.584C22.8407 14.7645 22.5222 16.4193 20.6094 16.6299C20.6094 16.5998 21.6518 16.7203 22.3481 16.1185Z" fill="#595961"/>
<path opacity="0.62" fill-rule="evenodd" clip-rule="evenodd" d="M33.9419 10.251C33.7975 9.70922 33.653 9.1978 33.4492 8.65625C33.5066 8.83677 34.0863 10.5518 32.8994 11.7853C32.8994 11.7853 33.7678 11.1837 33.9419 10.251Z" fill="#595961"/>
<path opacity="0.62" fill-rule="evenodd" clip-rule="evenodd" d="M32.8123 7.54208C32.4068 7.15093 31.9993 6.7899 31.5938 6.45898C31.7401 6.60938 33.1011 7.7226 32.7253 9.40748C32.6956 9.40748 33.1308 8.41454 32.8123 7.54208Z" fill="#595961"/>
<path opacity="0.62" fill-rule="evenodd" clip-rule="evenodd" d="M34.2323 13.0182C34.2026 12.4767 34.1156 11.905 34.0286 11.3633C34.0286 11.5739 34.3194 13.3492 32.9268 14.312C32.9268 14.312 33.8841 13.8907 34.2323 13.0182Z" fill="#595961"/>
<path opacity="0.62" fill-rule="evenodd" clip-rule="evenodd" d="M34.3768 15.8471C34.4065 15.3056 34.4065 14.7339 34.3768 14.1924C34.3768 14.403 34.4064 16.1783 32.9268 16.9905C32.9268 16.9606 33.9416 16.6596 34.3768 15.8471Z" fill="#595961"/>
<path opacity="0.42" fill-rule="evenodd" clip-rule="evenodd" d="M21.6804 18.3135C21.8545 17.7719 21.9712 17.2304 22.086 16.7188C22.0286 16.8993 21.7675 18.6143 19.999 19.0355C20.0287 19.0355 21.0711 19.0054 21.6804 18.3135Z" fill="#595961"/>
<path opacity="0.42" fill-rule="evenodd" clip-rule="evenodd" d="M25.1888 10.5504C25.5943 10.1894 25.9721 9.79822 26.3202 9.37695C26.1738 9.49723 25.0147 10.7309 23.3926 10.2795C23.4203 10.2795 24.3184 10.8213 25.1888 10.5504Z" fill="#595961"/>
<path opacity="0.42" fill-rule="evenodd" clip-rule="evenodd" d="M26.4914 9.16708C26.9562 8.86628 27.3915 8.56529 27.8247 8.23438C27.6526 8.32473 26.3193 9.31747 24.7822 8.59541C24.7822 8.59541 25.5933 9.28736 26.4914 9.16708Z" fill="#595961"/>
<path opacity="0.62" fill-rule="evenodd" clip-rule="evenodd" d="M28.2602 8.17427C28.7824 8.02367 29.275 7.84316 29.7676 7.66264C29.5935 7.72288 28.0288 8.26443 26.7529 7.12109C26.7529 7.12109 27.3621 8.02367 28.2602 8.17427Z" fill="#595961"/>
<path opacity="0.62" fill-rule="evenodd" clip-rule="evenodd" d="M29.7377 7.63325C30.1452 7.69349 30.5508 7.72362 30.9563 7.75374C30.8119 7.72362 29.5656 7.63326 29.0137 6.42969C29.0433 6.42969 29.1878 7.2421 29.7377 7.63325Z" fill="#595961"/>
<path opacity="0.62" fill-rule="evenodd" clip-rule="evenodd" d="M31.3051 8.29424C31.5662 8.62516 31.8254 8.95607 32.0865 9.25706C31.9995 9.13659 31.1884 8.14385 31.5939 6.91016C31.6236 6.91016 31.1884 7.6023 31.3051 8.29424Z" fill="#595961"/>
<path fill-rule="evenodd" clip-rule="evenodd" d="M33.3048 17.1707C33.3325 16.8398 34.3197 9.22764 31.5661 6.91085C31.0438 6.45966 30.4069 6.24902 29.7106 6.24902C29.1884 6.24902 28.6088 6.3693 27.9995 6.61005C25.333 7.60299 23.1016 10.2808 21.5368 14.3727C20.348 17.4416 19.9721 20.1797 19.9424 20.3C19.9424 20.3901 19.9999 20.4805 20.0869 20.4805H20.1165C20.2035 20.4805 20.2609 20.4202 20.2609 20.3301C20.2906 20.2096 21.8553 9.22764 28.0864 6.88073C29.4197 6.3693 30.5512 6.45966 31.3623 7.1516C33.9992 9.34792 33.0141 17.0204 32.9864 17.1107C32.9864 17.2009 33.0438 17.2912 33.1308 17.2912C33.1308 17.2912 33.1308 17.2912 33.1585 17.2912C33.2455 17.3213 33.3048 17.2611 33.3048 17.1707Z" fill="url(#paint22_linear_122_15530)"/>
<path fill-rule="evenodd" clip-rule="evenodd" d="M34.4634 13.4098C34.3467 10.1603 33.6227 7.96378 32.2894 6.82045C31.5654 6.21886 30.6951 5.94798 29.71 6.00822C30.4636 6.06826 31.158 6.33914 31.7395 6.82045C33.0728 7.93386 33.7967 10.1603 33.9115 13.4098C33.9985 15.6964 33.7394 17.6821 33.7394 17.7725C33.6801 18.1335 33.4486 18.4044 33.1578 18.4945C33.2172 18.5247 33.2448 18.5247 33.3042 18.5247C33.7671 18.5849 34.2023 18.2538 34.2597 17.7725C34.2894 17.6821 34.5504 15.7266 34.4634 13.4098Z" fill="url(#paint23_linear_122_15530)"/>
<path fill-rule="evenodd" clip-rule="evenodd" d="M28.0585 8.08427C22.2329 10.2806 20.6959 20.8415 20.6959 20.9618C20.6385 21.3228 20.405 21.5937 20.1162 21.6838C20.1736 21.7139 20.2032 21.7139 20.2606 21.7139C20.2903 21.7139 20.3477 21.7139 20.3774 21.7139C20.8126 21.7139 21.1587 21.383 21.2181 20.9618C21.2457 20.8415 22.7531 10.3107 28.5788 8.11419C28.9863 7.9638 29.3325 7.87364 29.653 7.84352C29.2178 7.78328 28.6658 7.87363 28.0585 8.08427Z" fill="url(#paint24_linear_122_15530)"/>
<defs>
<linearGradient id="paint0_linear_122_15530" x1="27.2221" y1="7.88139" x2="26.3131" y2="20.2577" gradientUnits="userSpaceOnUse">
<stop stop-color="white" stop-opacity="0.65"/>
<stop offset="1" stop-color="white" stop-opacity="0.01"/>
</linearGradient>
<linearGradient id="paint1_linear_122_15530" x1="33.8643" y1="14.9652" x2="40.2643" y2="20.5708" gradientUnits="userSpaceOnUse">
<stop stop-opacity="0.01"/>
<stop offset="1" stop-opacity="0.4"/>
</linearGradient>
<linearGradient id="paint2_linear_122_15530" x1="31.2983" y1="21.4503" x2="38.0726" y2="15.1406" gradientUnits="userSpaceOnUse">
<stop stop-opacity="0.01"/>
<stop offset="1" stop-opacity="0.4"/>
</linearGradient>
<linearGradient id="paint3_linear_122_15530" x1="22.676" y1="3.03727" x2="-3.63563" y2="33.3541" gradientUnits="userSpaceOnUse">
<stop stop-color="#B8D26E"/>
<stop offset="1" stop-color="#7FB525"/>
</linearGradient>
<linearGradient id="paint4_linear_122_15530" x1="58.6682" y1="10.6268" x2="44.2278" y2="10.895" gradientUnits="userSpaceOnUse">
<stop stop-color="#B4E034"/>
<stop offset="1" stop-color="#60A927"/>
</linearGradient>
<linearGradient id="paint5_linear_122_15530" x1="15.7164" y1="30.842" x2="3.87719" y2="59.6728" gradientUnits="userSpaceOnUse">
<stop stop-color="white"/>
<stop offset="1" stop-color="#CECEEB"/>
</linearGradient>
<linearGradient id="paint6_linear_122_15530" x1="32.6909" y1="101.843" x2="51.4417" y2="101.805" gradientUnits="userSpaceOnUse">
<stop stop-color="#1D1D1B" stop-opacity="0.5"/>
<stop offset="0.038033" stop-color="#1D1D1B" stop-opacity="0.4837"/>
<stop offset="0.4243" stop-color="#1D1D1B" stop-opacity="0.3185"/>
<stop offset="1" stop-color="#1D1D1B" stop-opacity="0.01"/>
</linearGradient>
<linearGradient id="paint7_linear_122_15530" x1="34.8694" y1="11.6018" x2="31.7586" y2="13.276" gradientUnits="userSpaceOnUse">
<stop stop-opacity="0.01"/>
<stop offset="1" stop-opacity="0.4"/>
</linearGradient>
<linearGradient id="paint8_linear_122_15530" x1="21.8271" y1="16.5668" x2="19.6404" y2="18.446" gradientUnits="userSpaceOnUse">
<stop stop-opacity="0.01"/>
<stop offset="1" stop-opacity="0.4"/>
</linearGradient>
<linearGradient id="paint9_linear_122_15530" x1="43.1573" y1="54.5324" x2="43.3787" y2="57.4507" gradientUnits="userSpaceOnUse">
<stop stop-opacity="0.01"/>
<stop offset="1" stop-opacity="0.4"/>
</linearGradient>
<linearGradient id="paint10_linear_122_15530" x1="37.9884" y1="50.26" x2="38.5017" y2="57.8476" gradientUnits="userSpaceOnUse">
<stop stop-color="white" stop-opacity="0.5"/>
<stop offset="0.0896271" stop-color="white" stop-opacity="0.4552"/>
<stop offset="1" stop-color="white" stop-opacity="0.01"/>
</linearGradient>
<linearGradient id="paint11_linear_122_15530" x1="37.0013" y1="51.4402" x2="37.9143" y2="59.5453" gradientUnits="userSpaceOnUse">
<stop stop-opacity="0.01"/>
<stop offset="1" stop-opacity="0.4"/>
</linearGradient>
<linearGradient id="paint12_linear_122_15530" x1="33.4189" y1="4.80774" x2="10.0031" y2="18.3505" gradientUnits="userSpaceOnUse">
<stop stop-color="white" stop-opacity="0.5"/>
<stop offset="1" stop-color="white" stop-opacity="0.01"/>
</linearGradient>
<linearGradient id="paint13_linear_122_15530" x1="37.9376" y1="75.5869" x2="58.6053" y2="75.6287" gradientUnits="userSpaceOnUse">
<stop stop-color="#1D1D1B" stop-opacity="0.5"/>
<stop offset="0.0896271" stop-color="#1D1D1B" stop-opacity="0.4552"/>
<stop offset="1" stop-color="#1D1D1B" stop-opacity="0.01"/>
</linearGradient>
<linearGradient id="paint14_linear_122_15530" x1="52.7377" y1="14.3461" x2="49.8018" y2="15.0655" gradientUnits="userSpaceOnUse">
<stop stop-color="white" stop-opacity="0.4"/>
<stop offset="1" stop-color="white" stop-opacity="0.01"/>
</linearGradient>
<linearGradient id="paint15_linear_122_15530" x1="26.3969" y1="58.3036" x2="27.9236" y2="50.9434" gradientUnits="userSpaceOnUse">
<stop stop-color="#1D1D1B" stop-opacity="0.5"/>
<stop offset="0.0896271" stop-color="#1D1D1B" stop-opacity="0.4552"/>
<stop offset="1" stop-color="#1D1D1B" stop-opacity="0.01"/>
</linearGradient>
<linearGradient id="paint16_linear_122_15530" x1="35.2229" y1="100.906" x2="54.0411" y2="100.923" gradientUnits="userSpaceOnUse">
<stop stop-color="#1D1D1B" stop-opacity="0.5"/>
<stop offset="1" stop-color="#1D1D1B" stop-opacity="0.01"/>
</linearGradient>
<linearGradient id="paint17_linear_122_15530" x1="18.0278" y1="9.61503" x2="8.90101" y2="44.6798" gradientUnits="userSpaceOnUse">
<stop stop-color="white" stop-opacity="0.5"/>
<stop offset="1" stop-color="white" stop-opacity="0.01"/>
</linearGradient>
<linearGradient id="paint18_linear_122_15530" x1="18.0278" y1="9.61503" x2="8.90101" y2="44.6798" gradientUnits="userSpaceOnUse">
<stop stop-color="white" stop-opacity="0.5"/>
<stop offset="1" stop-color="white" stop-opacity="0.01"/>
</linearGradient>
<linearGradient id="paint19_linear_122_15530" x1="40.1766" y1="46.3724" x2="32.9627" y2="56.3013" gradientUnits="userSpaceOnUse">
<stop stop-color="white" stop-opacity="0.5"/>
<stop offset="0.0896271" stop-color="white" stop-opacity="0.4552"/>
<stop offset="1" stop-color="white" stop-opacity="0.01"/>
</linearGradient>
<linearGradient id="paint20_linear_122_15530" x1="42.3522" y1="48.6551" x2="41.638" y2="50.2562" gradientUnits="userSpaceOnUse">
<stop stop-opacity="0.01"/>
<stop offset="1" stop-opacity="0.4"/>
</linearGradient>
<linearGradient id="paint21_linear_122_15530" x1="49.4361" y1="50.7724" x2="49.4008" y2="51.2028" gradientUnits="userSpaceOnUse">
<stop stop-opacity="0.01"/>
<stop offset="1" stop-opacity="0.4"/>
</linearGradient>
<linearGradient id="paint22_linear_122_15530" x1="23.4595" y1="5.2362" x2="20.3409" y2="17.5562" gradientUnits="userSpaceOnUse">
<stop stop-color="white" stop-opacity="0.65"/>
<stop offset="1" stop-color="white" stop-opacity="0.01"/>
</linearGradient>
<linearGradient id="paint23_linear_122_15530" x1="30.4379" y1="12.343" x2="35.8629" y2="17.8584" gradientUnits="userSpaceOnUse">
<stop stop-opacity="0.01"/>
<stop offset="1" stop-opacity="0.4"/>
</linearGradient>
<linearGradient id="paint24_linear_122_15530" x1="26.9706" y1="20.4651" x2="34.4659" y2="12.7673" gradientUnits="userSpaceOnUse">
<stop stop-opacity="0.01"/>
<stop offset="1" stop-opacity="0.4"/>
</linearGradient>
</defs>
</svg>
